<?xml version="1.0" standalone="no"?>
<!DOCTYPE svg PUBLIC "-//W3C//DTD SVG 1.1//EN" "http://www.w3.org/Graphics/SVG/1.1/DTD/svg11.dtd" >
<svg>
<metadata>
Created by FontForge 20090622 at Mon Jun 13 07:24:22 2016
 By deploy user
Copyright (c) 2001, Modular Infotech, Pune, INDIA. - Licenced to Microsoft
</metadata>
<defs>
<font id="Utsaah" horiz-adv-x="816" >
  <font-face 
    font-family="Utsaah"
    font-weight="400"
    font-stretch="normal"
    units-per-em="2048"
    panose-1="2 11 6 4 2 2 2 2 2 4"
    ascent="1638"
    descent="-410"
    x-height="760"
    cap-height="1050"
    bbox="-870 -774 1906 1500"
    underline-thickness="102"
    underline-position="-117"
    unicode-range="U+0020-U+25CC"
  />
<missing-glyph horiz-adv-x="1600" 
d="M200 1400h1200v-1400h-1200v1400zM1300 100v1200h-1000v-1200h1000z" />
    <glyph glyph-name=".notdef" horiz-adv-x="1600" 
d="M200 1400h1200v-1400h-1200v1400zM1300 100v1200h-1000v-1200h1000z" />
    <glyph glyph-name=".null" horiz-adv-x="0" 
 />
    <glyph glyph-name="nonmarkingreturn" horiz-adv-x="0" 
 />
    <glyph glyph-name="space" unicode=" " horiz-adv-x="407" 
 />
    <glyph glyph-name="exclam" unicode="!" horiz-adv-x="407" 
d="M165 261l-39 556v233h160v-233l-38 -556h-83zM132 0v147h148v-147h-148z" />
    <glyph glyph-name="quotedbl" unicode="&#x22;" horiz-adv-x="521" 
d="M103 678l-36 200v172h147v-172l-32 -200h-79zM340 678l-35 200v172h147v-172l-35 -200h-77z" />
    <glyph glyph-name="numbersign" unicode="#" 
d="M74 -18l62 305h-121v107h143l53 260h-196v106h217l62 308h108l-63 -308h226l62 308h108l-62 -308h124v-106h-145l-54 -260h199v-107h-221l-62 -305h-107l61 305h-225l-62 -305h-107zM265 394h225l53 260h-225z" />
    <glyph glyph-name="dollar" unicode="$" 
d="M365 -151v129q-96 12 -157 43t-105 100.5t-51 169.5l130 25q15 -104 53 -153q54 -68 130 -76v410q-79 15 -162 61q-62 35 -95.5 96t-33.5 138q0 137 98 223q65 57 193 70v61h76v-61q112 -11 178 -66q85 -70 102 -193l-133 -20q-12 76 -48 116.5t-99 53.5v-372
q97 -24 129 -38q60 -26 98 -64t58.5 -90.5t20.5 -112.5q0 -134 -85.5 -223.5t-220.5 -96.5v-130h-76zM365 977q-75 -11 -118.5 -59.5t-43.5 -115.5q0 -66 37 -110.5t125 -70.5v356zM441 87q75 9 124 65t49 138q0 70 -34.5 112.5t-138.5 76.5v-392z" />
    <glyph glyph-name="percent" unicode="%" horiz-adv-x="1304" 
d="M85 798q0 112 56.5 191t164.5 79q99 0 163.5 -70.5t64.5 -207.5q0 -133 -65.5 -205t-161.5 -72q-95 0 -158.5 70.5t-63.5 214.5zM309 979q-48 0 -79.5 -41.5t-31.5 -152.5q0 -101 32 -142.5t79 -41.5q49 0 81 41.5t32 152.5q0 101 -32.5 142.5t-80.5 41.5zM310 -39
l574 1107h105l-572 -1107h-107zM764 246q0 113 56.5 191.5t164.5 78.5q99 0 164 -70.5t65 -207.5q0 -133 -65.5 -205t-162.5 -72q-95 0 -158.5 71.5t-63.5 213.5zM989 427q-49 0 -81 -41.5t-32 -152.5q0 -100 32.5 -141.5t79.5 -41.5q49 0 81 41.5t32 151.5q0 102 -32 143
t-80 41z" />
    <glyph glyph-name="ampersand" unicode="&#x26;" horiz-adv-x="978" 
d="M697 124q-64 -71 -139 -106.5t-163 -35.5q-161 0 -255 109q-77 89 -77 198q0 98 62.5 176t187.5 138q-71 81 -94.5 132t-23.5 98q0 95 74 165t186 70q108 0 176.5 -66t68.5 -159q0 -149 -199 -255l189 -240q32 63 50 146l134 -29q-35 -137 -94 -226q73 -96 164 -161
l-86 -102q-78 50 -161 148zM435 671q83 49 108 86.5t25 82.5q0 54 -34 88t-85 34q-52 0 -87 -34t-35 -82q0 -25 12.5 -51.5t37.5 -57.5zM616 226l-237 292q-104 -62 -140.5 -115.5t-36.5 -105.5q0 -64 51 -132.5t144 -68.5q58 0 120 36t99 94z" />
    <glyph glyph-name="quotesingle" unicode="'" horiz-adv-x="280" 
d="M97 678l-33 196v176h147v-176l-34 -196h-80z" />
    <glyph glyph-name="parenleft" unicode="(" horiz-adv-x="488" 
d="M343 -309q-107 135 -180.5 315.5t-73.5 373.5q0 171 55 327q64 181 199 361h92q-86 -149 -114 -213q-44 -99 -69 -206q-31 -134 -31 -270q0 -344 214 -688h-92z" />
    <glyph glyph-name="parenright" unicode=")" horiz-adv-x="488" 
d="M181 -309h-92q214 344 214 688q0 135 -31 268q-24 107 -68 206q-28 64 -115 215h92q135 -180 199 -361q55 -156 55 -327q0 -193 -74 -373.5t-180 -315.5z" />
    <glyph glyph-name="asterisk" unicode="*" horiz-adv-x="571" 
d="M46 857l33 102q114 -40 165 -70q-13 130 -14 179h104q-2 -71 -17 -178q74 37 169 69l33 -102q-91 -30 -178 -40q43 -38 123 -135l-86 -61q-41 56 -98 154q-53 -101 -93 -154l-85 61q83 102 119 135q-92 18 -175 40z" />
    <glyph glyph-name="plus" unicode="+" horiz-adv-x="856" 
d="M367 170v288h-285v120h285v285h122v-285h286v-120h-286v-288h-122z" />
    <glyph glyph-name="comma" unicode="," horiz-adv-x="407" 
d="M130 0v147h147v-147q0 -81 -28.5 -130.5t-90.5 -77.5l-36 55q41 18 60 53t21 100h-73z" />
    <glyph glyph-name="hyphen" unicode="-" horiz-adv-x="488" 
d="M47 315v130h395v-130h-395z" />
    <glyph glyph-name="period" unicode="." horiz-adv-x="407" 
d="M133 0v147h147v-147h-147z" />
    <glyph glyph-name="slash" unicode="/" horiz-adv-x="407" 
d="M0 -18l304 1086h103l-303 -1086h-104z" />
    <glyph glyph-name="zero" unicode="0" 
d="M61 518q0 186 38 299.5t114 175t190 61.5q85 0 148.5 -34t105 -98t65 -156t23.5 -248q0 -185 -38 -298.5t-113.5 -175.5t-190.5 -62q-152 0 -238 109q-104 131 -104 427zM193 518q0 -259 60.5 -344.5t149.5 -85.5t149.5 86t60.5 344q0 259 -60.5 344t-150.5 85
q-89 0 -142 -75q-67 -96 -67 -354z" />
    <glyph glyph-name="one" unicode="1" 
d="M546 0h-129v821q-46 -44 -121.5 -88.5t-135.5 -66.5v124q108 51 189 123.5t114 140.5h83v-1054z" />
    <glyph glyph-name="two" unicode="2" 
d="M738 124v-124h-694q0 47 15 90q27 70 85.5 139t168.5 159q171 140 231 222t60 155q0 77 -54.5 129.5t-142.5 52.5q-93 0 -149 -55.5t-57 -154.5l-132 13q13 149 102 226.5t239 77.5q151 0 239 -84t88 -207q0 -63 -26 -124t-85.5 -128.5t-198.5 -184.5
q-116 -98 -149 -132.5t-55 -69.5h515z" />
    <glyph glyph-name="three" unicode="3" 
d="M62 277l128 17q23 -109 76 -157.5t130 -48.5q91 0 153.5 63t62.5 156q0 89 -58 146.5t-147 57.5q-37 0 -91 -14l14 113q13 -1 21 -1q82 0 148 43t66 132q0 71 -48 117.5t-124 46.5q-75 0 -125 -47.5t-65 -141.5l-129 23q24 129 108 200.5t208 71.5q86 0 158.5 -37
t110.5 -100.5t38 -135.5q0 -68 -36.5 -124t-107.5 -88q93 -22 144.5 -89.5t51.5 -169.5q0 -137 -100.5 -233t-253.5 -96q-138 0 -229.5 82.5t-103.5 213.5z" />
    <glyph glyph-name="four" unicode="4" 
d="M474 0v251h-455v118l479 681h105v-681h142v-118h-142v-251h-129zM474 369v474l-329 -474h329z" />
    <glyph glyph-name="five" unicode="5" 
d="M61 275l135 11q15 -98 70 -148t132 -50q93 0 157.5 70t64.5 186q0 111 -62 174.5t-162 63.5q-62 0 -112.5 -28t-78.5 -74l-121 16l101 539h522v-123h-418l-57 -282q94 66 198 66q138 0 232.5 -95.5t94.5 -244.5q0 -143 -83 -246q-101 -128 -276 -128q-143 0 -233.5 80
t-103.5 213z" />
    <glyph glyph-name="six" unicode="6" 
d="M730 793l-129 -10q-17 75 -48 110q-53 55 -129 55q-62 0 -108 -34q-61 -45 -96 -130t-37 -243q47 71 114 105.5t141 34.5q129 0 219.5 -95t90.5 -245q0 -99 -42.5 -184t-117 -130t-168.5 -45q-162 0 -263.5 118.5t-101.5 390.5q0 304 113 443q98 120 264 120
q124 0 203 -69.5t95 -191.5zM203 340q0 -66 28.5 -127t79.5 -93t106 -32q82 0 140.5 66t58.5 179q0 109 -58 171.5t-146 62.5q-87 0 -148 -62.5t-61 -164.5z" />
    <glyph glyph-name="seven" unicode="7" 
d="M69 912v124h680v-100q-100 -107 -198.5 -284t-152.5 -363q-39 -132 -49 -289h-133q2 124 48.5 299.5t133.5 338t186 274.5h-515z" />
    <glyph glyph-name="eight" unicode="8" 
d="M259 569q-80 30 -118.5 84t-38.5 130q0 115 82 193t219 78q138 0 221.5 -80t83.5 -194q0 -73 -38 -127t-117 -84q97 -31 147.5 -101.5t50.5 -167.5q0 -135 -95 -226.5t-251 -91.5q-155 0 -250.5 92t-95.5 230q0 102 52 171t148 94zM233 788q0 -75 48 -122t125 -47
q74 0 122 46.5t48 114.5q0 71 -49 119.5t-122 48.5q-74 0 -123 -47.5t-49 -112.5zM192 303q0 -55 26 -106.5t77.5 -80t111.5 -28.5q92 0 152 59.5t60 151.5q0 93 -62 153.5t-155 60.5q-91 0 -150.5 -60t-59.5 -150z" />
    <glyph glyph-name="nine" unicode="9" 
d="M80 243l124 11q16 -87 60.5 -126.5t113.5 -39.5q59 0 104 27t73.5 72.5t48 123t19.5 157.5q0 9 -1 26q-38 -62 -105 -100t-145 -38q-131 0 -221 94.5t-90 249.5q0 159 94 256.5t236 97.5q102 0 187 -55t129 -157t44 -296q0 -201 -43.5 -320t-130 -181.5t-202.5 -62.5
q-123 0 -201 68.5t-94 192.5zM608 706q0 111 -59 176t-142 65q-86 0 -150 -70t-64 -182q0 -100 60.5 -162.5t149.5 -62.5q90 0 147.5 62.5t57.5 173.5z" />
    <glyph glyph-name="colon" unicode=":" horiz-adv-x="407" 
d="M132 614v146h147v-146h-147zM132 0v147h147v-147h-147z" />
    <glyph glyph-name="semicolon" unicode=";" horiz-adv-x="407" 
d="M130 614v146h147v-146h-147zM130 0v147h147v-147q0 -81 -28.5 -130.5t-90.5 -77.5l-36 55q41 18 60 53t21 100h-73z" />
    <glyph glyph-name="less" unicode="&#x3c;" horiz-adv-x="856" 
d="M80 459v120l695 294v-128l-551 -227l551 -228v-128z" />
    <glyph glyph-name="equal" unicode="=" horiz-adv-x="856" 
d="M775 617h-693v120h693v-120zM775 299h-693v120h693v-120z" />
    <glyph glyph-name="greater" unicode="&#x3e;" horiz-adv-x="856" 
d="M775 459l-695 -297v128l551 228l-551 227v128l695 -294v-120z" />
    <glyph glyph-name="question" unicode="?" 
d="M338 258q-1 26 -1 39q0 76 22 131q15 42 51 84q25 31 92 90t87 94t20 77q0 75 -58.5 132t-143.5 57q-83 0 -138 -52t-72 -161l-133 16q18 146 106.5 224.5t234.5 78.5q153 0 245 -84t92 -203q0 -69 -32.5 -127t-125.5 -141q-63 -55 -82.5 -81.5t-29 -61t-10.5 -112.5
h-124zM330 0v147h147v-147h-147z" />
    <glyph glyph-name="at" unicode="@" horiz-adv-x="1489" 
d="M831 117q-46 -54 -104 -86.5t-116 -32.5q-63 0 -123.5 37t-98 114.5t-37.5 169.5q0 114 58.5 228.5t145 171.5t168.5 57q62 0 118.5 -32.5t97.5 -99.5l24 111h129l-103 -480q-22 -100 -22 -111q0 -19 14.5 -33t35.5 -14q38 0 100 43q81 58 129 154t48 199
q0 119 -61.5 223t-183 166t-267.5 62q-168 0 -306.5 -78t-215 -224.5t-76.5 -314.5q0 -175 76.5 -302t221 -187.5t319.5 -60.5q188 0 314.5 63t189.5 154h130q-37 -76 -126 -154t-211 -123.5t-295 -45.5q-159 0 -293 41t-228.5 123t-142.5 189q-61 135 -61 292q0 175 72 333
q87 194 248 297t390 103q178 0 319 -72.5t223 -216.5q69 -124 69 -269q0 -208 -146 -369q-130 -145 -285 -145q-49 0 -79.5 15t-44.5 43q-9 18 -14 62zM485 311q0 -98 46.5 -152.5t106.5 -54.5q40 0 84.5 24t85 71t66 120t25.5 146q0 97 -48 150.5t-118 53.5
q-46 0 -86.5 -23t-78 -74.5t-60.5 -125.5t-23 -135z" />
    <glyph glyph-name="bracketleft" unicode="[" horiz-adv-x="407" 
d="M100 -291v1341h284v-107h-156v-1128h156v-106h-284z" />
    <glyph glyph-name="backslash" unicode="\" horiz-adv-x="407" 
d="M304 -18l-304 1086h104l303 -1086h-103z" />
    <glyph glyph-name="bracketright" unicode="]" horiz-adv-x="407" 
d="M312 -291h-284v106h155v1128h-155v107h284v-1341z" />
    <glyph glyph-name="asciicircum" unicode="^" horiz-adv-x="688" 
d="M171 494h-132l252 574h104l254 -574h-129l-177 427z" />
    <glyph glyph-name="underscore" unicode="_" 
d="M-22 -291v93h854v-93h-854z" />
    <glyph glyph-name="grave" unicode="`" horiz-adv-x="488" 
d="M333 855h-104l-165 200h172z" />
    <glyph glyph-name="braceleft" unicode="{" horiz-adv-x="490" 
d="M41 438q55 2 89.5 30t46 77.5t12.5 169t4 157.5q7 60 24.5 96.5t43 58.5t65.5 33q28 8 89 8h40v-113h-22q-74 0 -98.5 -27t-24.5 -120q0 -187 -8 -237q-13 -76 -44 -117.5t-98 -74.5q79 -32 114.5 -100t35.5 -222q0 -139 3 -166q6 -49 29 -68t91 -19h22v-113h-40
q-70 0 -101 12q-46 16 -76 53t-39 93.5t-10 185.5t-12.5 178.5t-46 78t-89.5 29.5v117z" />
    <glyph glyph-name="bar" unicode="|" horiz-adv-x="381" 
d="M135 -309v1377h112v-1377h-112z" />
    <glyph glyph-name="braceright" unicode="}" horiz-adv-x="490" 
d="M448 438v-117q-55 -1 -89.5 -29.5t-46 -77.5t-12.5 -168.5t-4 -157.5q-7 -61 -24.5 -97.5t-43 -58t-65.5 -33.5q-28 -8 -89 -8h-40v113h22q74 0 98.5 27t24.5 120q0 179 6 227q12 80 46.5 127.5t97.5 73.5q-83 40 -116.5 104.5t-33.5 218.5q0 140 -4 167q-5 48 -28 67
t-91 19h-22v113h40q70 0 101 -12q46 -16 76 -53t39 -93.5t10 -185.5t12.5 -178t46 -77.5t89.5 -30.5z" />
    <glyph glyph-name="asciitilde" unicode="~" horiz-adv-x="856" 
d="M62 399v147q76 86 199 86q43 0 90.5 -13t134.5 -50q50 -21 74.5 -27t49.5 -6q47 0 96.5 27.5t88.5 70.5v-152q-46 -43 -93 -62.5t-106 -19.5q-43 0 -82 10t-123.5 48t-141.5 38q-46 0 -86.5 -19.5t-100.5 -77.5z" />
    <glyph glyph-name="cent" unicode="&#xa2;" 
d="M533 640l-159 -548q23 -7 43 -7q75 0 129 51t66 143l128 -15q-23 -132 -111.5 -208t-208.5 -76q-36 0 -74 10l-85 -283l-80 23l82 285q-82 39 -134 131t-52 231q0 127 41.5 218.5t125 137t170.5 45.5q26 0 71 -5l81 277l79 -23l-80 -277q71 -31 109 -83t53 -130l-126 -19
q-18 80 -68 122zM457 673q-23 2 -36 2q-59 0 -110 -32.5t-76.5 -101t-25.5 -158.5q0 -94 23 -159.5t65 -96.5z" />
    <glyph glyph-name="multiply" unicode="&#xd7;" horiz-adv-x="856" 
d="M115 293l226 225l-225 225l87 88l225 -225l224 224l86 -87l-223 -224l225 -225l-88 -87l-225 225l-225 -226z" />
    <glyph glyph-name="divide" unicode="&#xf7;" horiz-adv-x="805" 
d="M329 660v147h146v-147h-146zM749 458h-693v120h693v-120zM329 228v147h146v-147h-146z" />
    <glyph glyph-name="u0901" unicode="&#x901;" horiz-adv-x="0" 
d="M102 1410q-20 -117 -103.5 -193.5t-196.5 -76.5t-196.5 76.5t-103.5 193.5h100q14 -81 69.5 -135.5t130.5 -54.5t130.5 54.5t69.5 135.5h100zM-138 1425q0 -65 -65 -65t-65 65t65 65t65 -65z" />
    <glyph glyph-name="u0902" unicode="&#x902;" horiz-adv-x="0" 
d="M-127 1319q0 -65 -65 -65t-65 65t65 65t65 -65z" />
    <glyph glyph-name="u0903" unicode="&#x903;" horiz-adv-x="510" 
d="M250 160q-43 0 -71.5 32.5t-28.5 77.5q0 46 28.5 78t71.5 32q48 0 79 -31t31 -79q0 -47 -31.5 -78.5t-78.5 -31.5zM250 600q-43 0 -71.5 32.5t-28.5 77.5q0 46 28.5 78t71.5 32q48 0 79 -31t31 -79q0 -47 -31.5 -78.5t-78.5 -31.5z" />
    <glyph glyph-name="u0905" unicode="&#x905;" horiz-adv-x="1154" 
d="M1004 910v-910h-100v450q-48 -40 -106 -40q-75 0 -124 30q40 -32 40 -110q0 -108 -72 -184t-178 -76q-126 0 -233.5 95t-196.5 285l74 42q76 -161 165 -241.5t191 -80.5q63 0 106.5 46.5t43.5 111.5q0 79 -48.5 135.5t-121.5 56.5q-46 0 -100 -20l-40 90q84 8 156 60
t72 120q0 56 -33.5 98t-84.5 42q-121 0 -240 -140l-70 70q110 160 310 160q94 0 157 -67t63 -163q0 -52 -22.5 -97t-67.5 -83q67 -45 124.5 -67.5t105.5 -22.5q71 0 130 50v360h-180v90h500v-90h-220z" />
    <glyph glyph-name="u0906" unicode="&#x906;" horiz-adv-x="1566" 
d="M1006 910v-910h-100v450q-48 -40 -108 -40q-75 0 -124 30q40 -32 40 -110q0 -108 -72 -184t-178 -76q-126 0 -233.5 95t-196.5 285l74 42q76 -161 165 -241.5t191 -80.5q63 0 106.5 46.5t43.5 111.5q0 79 -48.5 135.5t-121.5 56.5q-46 0 -100 -20l-40 90q84 8 156 60
t72 120q0 56 -33.5 98t-84.5 42q-121 0 -240 -140l-70 70q110 160 310 160q94 0 157 -67t63 -163q0 -52 -22.5 -97t-67.5 -83q67 -45 124.5 -67.5t105.5 -22.5q73 0 132 50v360h-180v90h910v-90h-220v-910h-100v910h-310zM1154 -50z" />
    <glyph glyph-name="u0907" unicode="&#x907;" horiz-adv-x="756" 
d="M302 30q-89 0 -164.5 35t-75.5 95q0 43 28.5 71.5t71.5 28.5q125 0 210 -150q88 0 149 65t61 155q0 70 -40 70q-34 0 -100 -25q-65 -25 -100 -25q-68 0 -165 96t-97 164q0 61 49 100.5t115 39.5h248v160h-498v90h832v-90h-224v-260h-360q-60 0 -60 -40q0 -34 63 -97
t97 -63q35 0 100 25q66 25 100 25q61 0 100.5 -50.5t39.5 -119.5q0 -122 -74 -211t-186 -89q77 -109 250 -190l-50 -80q-215 124 -320 270z" />
    <glyph glyph-name="u0908" unicode="&#x908;" horiz-adv-x="756" 
d="M302 30q-89 0 -164.5 35t-75.5 95q0 43 28.5 71.5t71.5 28.5q125 0 210 -150q88 0 149 65t61 155q0 70 -40 70q-34 0 -100 -25q-65 -25 -100 -25q-68 0 -165 96t-97 164q0 61 49 100.5t115 39.5h248v160h-498v90h832v-90h-224v-260h-360q-60 0 -60 -40q0 -34 63 -97
t97 -63q35 0 100 25q66 25 100 25q61 0 100.5 -50.5t39.5 -119.5q0 -122 -74 -211t-186 -89q77 -109 250 -190l-50 -80q-215 124 -320 270zM719 1310q-82 30 -110 30q-59 0 -99.5 -40.5t-40.5 -99.5q0 -117 140 -200h-130q-110 93 -110 200q0 95 70 157.5t170 62.5
q54 0 110 -20v-90z" />
    <glyph glyph-name="u0909" unicode="&#x909;" horiz-adv-x="948" 
d="M854 310q0 -117 -77.5 -198.5t-192.5 -81.5q-158 0 -300.5 165.5t-249.5 454.5l82 36q95 -260 216.5 -408t251.5 -148q71 0 120.5 53t49.5 127q0 79 -45 139.5t-115 60.5h-200l-40 90h220q59 0 99.5 44.5t40.5 105.5q0 87 -90 160h-630v90h1024v-90h-264q60 -68 60 -160
q0 -72 -25 -122t-75 -78q70 -25 105 -85t35 -155z" />
    <glyph glyph-name="u090A" unicode="&#x90a;" horiz-adv-x="1384" 
d="M854 310q0 -117 -77.5 -198.5t-192.5 -81.5q-158 0 -300.5 165.5t-249.5 454.5l82 36q95 -260 216.5 -408t251.5 -148q71 0 120.5 53t49.5 127q0 79 -45 139.5t-115 60.5h-200l-40 90h220q59 0 99.5 44.5t40.5 105.5q0 87 -90 160h-630v90h1460v-90h-700q60 -68 60 -160
q0 -72 -25 -122t-75 -78q66 -22 102 -88l3 -4q77 172 241 172q108 0 184 -68.5t76 -171.5q0 -211 -170 -330l-66 74q136 77 136 256q0 64 -47 107t-113 43q-67 0 -122.5 -64.5t-83.5 -162.5v-3zM948 -50z" />
    <glyph glyph-name="u090B" unicode="&#x90b;" horiz-adv-x="1298" 
d="M748 460v-460h-100v380l-410 -190l-60 80l390 180l-110 110q-90 90 -150 90q-84 0 -230 -100l-60 70q174 120 290 120q90 0 180 -90l160 -160v420h-654v90h1374v-90h-620v-360q44 -20 110 -20q52 0 70 10q-30 43 -30 90q0 36 33 58t77 22q46 0 78 -28.5t32 -71.5
q0 -84 -60 -110q90 -90 135 -172.5t45 -157.5q0 -79 -55.5 -134.5t-134.5 -55.5q-64 0 -113 42t-67 108l90 40q14 -90 90 -90q38 0 64 26t26 64q0 70 -45 142.5t-135 147.5q-44 -20 -100 -20q-74 0 -110 20z" />
    <glyph glyph-name="u090C" unicode="&#x90c;" horiz-adv-x="1057" 
d="M897 371q0 91 -51 155t-121 64q-62 0 -116 -77t-83 -194l-100 31q16 73 49 139q-58 101 -160 101q-64 0 -106.5 -58t-42.5 -133q0 -100 70 -187t180 -132l-39 -80q-136 57 -223.5 166t-87.5 233q0 106 66 198.5t183 92.5q125 0 211 -121q60 99 160 121v219h-692v90h1133
v-90h-341v-219q99 -32 154 -119.5t55 -199.5q0 -109 -66 -197.5t-163 -114.5q-62 -14 -106 -58t-44 -101q0 -59 47 -94t103 -35q120 0 190 49l29 -90q-85 -60 -219 -60q-102 0 -176 65.5t-74 164.5q0 86 57 154.5t154 84.5q67 12 118.5 79.5t51.5 152.5z" />
    <glyph glyph-name="u090D" unicode="&#x90d;" horiz-adv-x="730" 
d="M800 910h-170v-292q0 -80 -31.5 -141.5t-88.5 -76.5l-60 70q80 22 80 150v290h-340v-380q0 -83 50 -130l350 -330q80 -75 80 -120q0 -95 -120 -140l-80 70q90 14 90 70q0 33 -40 70l-370 340q-60 55 -60 166v384h-96v90h806v-90zM674 1400q-20 -117 -103.5 -193.5
t-196.5 -76.5t-196.5 76.5t-103.5 193.5h100q14 -81 69.5 -135.5t130.5 -54.5t130.5 54.5t69.5 135.5h100z" />
    <glyph glyph-name="u090E" unicode="&#x90e;" horiz-adv-x="730" 
d="M800 910h-170v-292q0 -80 -31.5 -141.5t-88.5 -76.5l-60 70q80 22 80 150v290h-340v-380q0 -83 50 -130l350 -330q80 -75 80 -120q0 -95 -120 -140l-80 70q90 14 90 70q0 33 -40 70l-370 340q-60 55 -60 166v384h-96v90h806v-90zM631 1000h-100q0 86 -58 148t-142 62
q-113 0 -196.5 76.5t-103.5 193.5h100q14 -81 69.5 -135.5t130.5 -54.5q125 0 212.5 -83.5t87.5 -206.5z" />
    <glyph glyph-name="u090F" unicode="&#x90f;" horiz-adv-x="730" 
d="M800 910h-170v-292q0 -80 -31.5 -141.5t-88.5 -76.5l-60 70q80 22 80 150v290h-340v-380q0 -83 50 -130l350 -330q80 -75 80 -120q0 -95 -120 -140l-80 70q90 14 90 70q0 33 -40 70l-370 340q-60 55 -60 166v384h-96v90h806v-90z" />
    <glyph glyph-name="u0910" unicode="&#x910;" horiz-adv-x="730" 
d="M800 910h-170v-292q0 -80 -31.5 -141.5t-88.5 -76.5l-60 70q80 22 80 150v290h-340v-380q0 -83 50 -130l350 -330q80 -75 80 -120q0 -95 -120 -140l-80 70q90 14 90 70q0 33 -40 70l-370 340q-60 55 -60 166v384h-96v90h806v-90zM623 1000h-100l-370 440l70 60z" />
    <glyph glyph-name="u0911" unicode="&#x911;" horiz-adv-x="1566" 
d="M1006 910v-910h-100v450q-48 -40 -108 -40q-75 0 -124 30q40 -32 40 -110q0 -108 -72 -184t-178 -76q-126 0 -233.5 95t-196.5 285l74 42q76 -161 165 -241.5t191 -80.5q63 0 106.5 46.5t43.5 111.5q0 79 -48.5 135.5t-121.5 56.5q-46 0 -100 -20l-40 90q84 8 156 60
t72 120q0 56 -33.5 98t-84.5 42q-121 0 -240 -140l-70 70q110 160 310 160q94 0 157 -67t63 -163q0 -52 -22.5 -97t-67.5 -83q67 -45 124.5 -67.5t105.5 -22.5q73 0 132 50v360h-180v90h910v-90h-220v-910h-100v910h-310zM1154 -50zM1391 1400q-20 -117 -103.5 -193.5
t-196.5 -76.5t-196.5 76.5t-103.5 193.5h100q14 -81 69.5 -135.5t130.5 -54.5t130.5 54.5t69.5 135.5h100z" />
    <glyph glyph-name="u0912" unicode="&#x912;" horiz-adv-x="1566" 
d="M1006 910v-910h-100v450q-48 -40 -108 -40q-75 0 -124 30q40 -32 40 -110q0 -108 -72 -184t-178 -76q-126 0 -233.5 95t-196.5 285l74 42q76 -161 165 -241.5t191 -80.5q63 0 106.5 46.5t43.5 111.5q0 79 -48.5 135.5t-121.5 56.5q-46 0 -100 -20l-40 90q84 8 156 60
t72 120q0 56 -33.5 98t-84.5 42q-121 0 -240 -140l-70 70q110 160 310 160q94 0 157 -67t63 -163q0 -52 -22.5 -97t-67.5 -83q67 -45 124.5 -67.5t105.5 -22.5q73 0 132 50v360h-180v90h910v-90h-220v-910h-100v910h-310zM1154 -50zM1417 1000h-100q0 86 -58 148t-142 62
q-113 0 -196.5 76.5t-103.5 193.5h100q14 -81 69.5 -135.5t130.5 -54.5q125 0 212.5 -83.5t87.5 -206.5z" />
    <glyph glyph-name="u0913" unicode="&#x913;" horiz-adv-x="1566" 
d="M1006 910v-910h-100v450q-48 -40 -108 -40q-75 0 -124 30q40 -32 40 -110q0 -108 -72 -184t-178 -76q-126 0 -233.5 95t-196.5 285l74 42q76 -161 165 -241.5t191 -80.5q63 0 106.5 46.5t43.5 111.5q0 79 -48.5 135.5t-121.5 56.5q-46 0 -100 -20l-40 90q84 8 156 60
t72 120q0 56 -33.5 98t-84.5 42q-121 0 -240 -140l-70 70q110 160 310 160q94 0 157 -67t63 -163q0 -52 -22.5 -97t-67.5 -83q67 -45 124.5 -67.5t105.5 -22.5q73 0 132 50v360h-180v90h910v-90h-220v-910h-100v910h-310zM1154 -50zM1417 1000h-100l-370 440l70 60z" />
    <glyph glyph-name="u0914" unicode="&#x914;" horiz-adv-x="1566" 
d="M1006 910v-910h-100v450q-48 -40 -108 -40q-75 0 -124 30q40 -32 40 -110q0 -108 -72 -184t-178 -76q-126 0 -233.5 95t-196.5 285l74 42q76 -161 165 -241.5t191 -80.5q63 0 106.5 46.5t43.5 111.5q0 79 -48.5 135.5t-121.5 56.5q-46 0 -100 -20l-40 90q84 8 156 60
t72 120q0 56 -33.5 98t-84.5 42q-121 0 -240 -140l-70 70q110 160 310 160q94 0 157 -67t63 -163q0 -52 -22.5 -97t-67.5 -83q67 -45 124.5 -67.5t105.5 -22.5q73 0 132 50v360h-180v90h910v-90h-220v-910h-100v910h-310zM1154 -50zM1416 1000h-130l-430 210l50 90l450 -290
l-220 430l100 60z" />
    <glyph glyph-name="u0915" unicode="&#x915;" horiz-adv-x="1126" 
d="M318 210q-108 0 -184 76t-76 184q0 123 87.5 206.5t212.5 83.5q76 0 100 -20l-20 -100q-36 20 -80 20q-82 0 -141 -55t-59 -135q0 -67 46.5 -113.5t113.5 -46.5q63 0 113 32.5t87 97.5v470h-524v90h1202v-90h-578v-270q69 120 210 120q100 0 165 -79.5t65 -190.5
q0 -199 -190 -360l-90 60q180 129 180 300q0 67 -36 118.5t-94 51.5q-73 0 -130.5 -54t-79.5 -136v-470h-100v300q-77 -90 -200 -90z" />
    <glyph glyph-name="u0916" unicode="&#x916;" horiz-adv-x="1240" 
d="M610 90q115 0 216.5 65t163.5 175v80q-82 -70 -160 -70q-99 0 -169.5 61t-70.5 153q0 93 70.5 154.5t169.5 61.5q75 0 130 -30v-100q-82 30 -130 30q-56 0 -98 -33t-42 -83t42 -82t98 -32q63 0 160 80v390h-550v-220q0 -92 -50.5 -161t-129.5 -69q-25 0 -50 10
q61 -167 168.5 -273.5t231.5 -106.5zM610 0q-185 0 -339 190t-231 470l80 40q48 -140 140 -140q37 0 58.5 39.5t21.5 90.5v220h-346v90h1316v-90h-220v-910h-100v200q-70 -100 -165 -150t-215 -50z" />
    <glyph glyph-name="u0917" unicode="&#x917;" horiz-adv-x="778" 
d="M528 910h-250v-490q0 -60 -50 -60q-41 0 -120.5 93.5t-79.5 136.5q0 20 10 30t30 10h70q40 0 40 50v230h-184v90h854v-90h-220v-910h-100v910z" />
    <glyph glyph-name="u0918" unicode="&#x918;" horiz-adv-x="956" 
d="M396 170q-118 0 -204 71t-86 179q0 58 27.5 103t82.5 77q-70 25 -105 72.5t-35 117.5q0 62 50 120h-132v90h1032v-90h-220v-910h-100v320q-75 -75 -152.5 -112.5t-157.5 -37.5zM706 450v460h-460q-70 -39 -70 -120q0 -58 51.5 -94t118.5 -36h130l30 -90h-90
q-83 0 -146.5 -41.5t-63.5 -108.5q0 -66 57.5 -108t132.5 -42q80 0 157.5 45t152.5 135z" />
    <glyph glyph-name="u0919" unicode="&#x919;" horiz-adv-x="1078" 
d="M578 20q-164 0 -310.5 120.5t-239.5 319.5l80 50q83 -176 208.5 -283t261.5 -107q84 0 142 62t58 148q0 30 -12.5 45t-37.5 15q-31 0 -90 -20t-90 -20q-80 0 -170 95t-90 175q0 55 37.5 92.5t92.5 37.5h270v160h-694v90h1154v-90h-360v-260h-370q-30 0 -30 -30
q0 -43 58.5 -106.5t101.5 -63.5q31 0 90 20t90 20q64 0 107 -47t43 -113q0 -129 -86.5 -219.5t-213.5 -90.5zM1045 565q0 -65 -65 -65t-65 65t65 65t65 -65z" />
    <glyph glyph-name="u091A" unicode="&#x91a;" horiz-adv-x="958" 
d="M438 180q-100 0 -170 70t-70 170q0 78 27.5 133t82.5 87h-290v100h590v-100h-140q-77 -29 -123.5 -88t-46.5 -132q0 -58 41 -99t99 -41q68 0 135.5 57.5t134.5 172.5v400h-714v90h1034v-90h-220v-910h-100v360q-64 -90 -131.5 -135t-138.5 -45z" />
    <glyph glyph-name="u091B" unicode="&#x91b;" horiz-adv-x="1066" 
d="M786 660q-49 0 -79.5 -35.5t-30.5 -84.5q0 -134 110 -210q120 86 120 220q0 48 -35 79t-85 31zM836 760q76 -15 123 -73.5t47 -136.5q0 -184 -175 -342t-365 -158q-136 0 -238 79.5t-102 200.5q0 77 27.5 134.5t82.5 95.5q-80 37 -120 87t-40 113q0 107 60 150h-142v90
h1142v-90h-300v-150zM736 760v150h-480q-80 -67 -80 -150q0 -61 54.5 -100.5t125.5 -39.5h110v-100h-80q-69 0 -114.5 -56.5t-45.5 -133.5q0 -79 73 -129.5t167 -50.5q129 0 250 100q-140 140 -140 290q0 82 43.5 144.5t116.5 75.5z" />
    <glyph glyph-name="u091C" unicode="&#x91c;" horiz-adv-x="1094" 
d="M844 600h-240q80 -112 80 -250q0 -96 -63 -163t-157 -67q-114 0 -229 149t-201 381l90 40q74 -201 166 -335.5t174 -134.5q51 0 85.5 38.5t34.5 91.5q0 90 -42.5 177.5t-127.5 172.5h430v210h-850v90h1170v-90h-220v-910h-100v600z" />
    <glyph glyph-name="u091D" unicode="&#x91d;" horiz-adv-x="1098" 
d="M848 500v410h-280v-240h-350q-50 0 -50 -30q0 -36 43 -93t77 -57q30 0 85 20q56 20 85 20q58 0 100 -30q57 -40 160 -40q44 0 130 40zM848 400q-68 -30 -130 -30q-54 0 -110 20q0 -113 -66.5 -186.5t-183.5 -93.5q102 -84 170 -110l-50 -70q-132 62 -220 150
q-72 0 -131 33t-59 87q0 34 23 57t57 23q94 0 160 -100q86 16 143 68t57 122q0 60 -50 60q-29 0 -85 -20q-55 -20 -85 -20q-60 0 -140 94t-80 156q0 56 44 93t106 37h250v140h-474v90h1174v-90h-220v-910h-100v400z" />
    <glyph glyph-name="u091E" unicode="&#x91e;" horiz-adv-x="1108" 
d="M858 440q-82 -30 -140 -30q-44 0 -100 30q-20 -112 -101 -186t-189 -74q-169 0 -300 190l70 70q91 -160 230 -160q80 0 135 59t55 141q0 70 -46 120t-114 50q-102 0 -170 -80l-70 80q100 100 240 100q91 0 163.5 -59t96.5 -151q26 -30 100 -30q92 0 140 40v360h-864v90
h1184v-90h-220v-910h-100v440z" />
    <glyph glyph-name="u091F" unicode="&#x91f;" horiz-adv-x="850" 
d="M678 910v-300h-370q-61 0 -100.5 -50.5t-39.5 -119.5q0 -134 93 -227t227 -93q177 0 260 140l80 -70q-100 -170 -340 -170q-176 0 -298 122t-122 298q0 111 68 190.5t172 79.5h270v200h-584v90h926v-90h-242z" />
    <glyph glyph-name="u0920" unicode="&#x920;" horiz-adv-x="872" 
d="M676 620h-350q-68 0 -114 -53.5t-46 -126.5q0 -123 99.5 -226.5t220.5 -103.5q89 0 149.5 64.5t60.5 155.5q0 121 -120 220l80 60q140 -119 140 -280q0 -133 -89.5 -226.5t-220.5 -93.5q-162 0 -291 134t-129 296q0 116 74.5 198t185.5 82h250v190h-582v90h948v-90h-266
v-290z" />
    <glyph glyph-name="u0921" unicode="&#x921;" horiz-adv-x="950" 
d="M578 20q-164 0 -310.5 120.5t-239.5 319.5l80 50q83 -176 208.5 -283t261.5 -107q84 0 142 62t58 148q0 30 -12.5 45t-37.5 15q-31 0 -90 -20t-90 -20q-80 0 -170 95t-90 175q0 55 37.5 92.5t92.5 37.5h270v160h-694v90h1026v-90h-232v-260h-370q-30 0 -30 -30
q0 -43 58.5 -106.5t101.5 -63.5q31 0 90 20t90 20q64 0 107 -47t43 -113q0 -129 -86.5 -219.5t-213.5 -90.5z" />
    <glyph glyph-name="u0922" unicode="&#x922;" horiz-adv-x="870" 
d="M714 270q0 43 -28.5 71.5t-71.5 28.5q-38 0 -64 -26t-26 -64q0 -51 17.5 -91t52.5 -69q54 11 87 53t33 97zM684 610h-390q-57 0 -93.5 -48t-36.5 -112q0 -120 103 -225t227 -115q-70 58 -70 170q0 79 55.5 134.5t134.5 55.5q84 0 142 -58t58 -142q0 -110 -96.5 -180
t-223.5 -70q-163 0 -296.5 133.5t-133.5 296.5q0 106 65.5 183t164.5 77h290v200h-590v90h946v-90h-256v-300z" />
    <glyph glyph-name="u0923" unicode="&#x923;" horiz-adv-x="1006" 
d="M466 910h-270v-420q0 -61 40.5 -105.5t99.5 -44.5q56 0 93 44t37 106v420zM756 910h-190v-420q0 -103 -66 -176.5t-164 -73.5q-102 0 -171 73t-69 177v420h-102v90h1082v-90h-220v-910h-100v910z" />
    <glyph glyph-name="u0924" unicode="&#x924;" horiz-adv-x="914" 
d="M664 620h-390q-48 0 -79 -38.5t-31 -91.5q0 -101 65 -206t195 -214l-60 -70q-150 127 -225 249.5t-75 240.5q0 94 60 162t150 68h390v190h-670v90h990v-90h-220v-910h-100v620z" />
    <glyph glyph-name="u0925" unicode="&#x925;" horiz-adv-x="1030" 
d="M450 200q-146 0 -255 100t-135 250q27 -10 150 -10q103 0 181.5 59t78.5 151q0 73 -46 126.5t-114 53.5q-55 0 -97.5 -30.5t-42.5 -79.5q0 -40 36 -65t84 -25v-100q-99 0 -159.5 51t-60.5 139q0 91 71 150.5t169 59.5q111 0 185.5 -82t74.5 -198q0 -135 -110.5 -222.5
t-259.5 -87.5q33 -70 95.5 -105t154.5 -35q85 0 167.5 47.5t162.5 142.5v420h-100v90h420v-90h-220v-910h-100v360q-80 -80 -162.5 -120t-167.5 -40z" />
    <glyph glyph-name="u0926" unicode="&#x926;" horiz-adv-x="826" 
d="M896 910h-210v-260h-390q-59 0 -99.5 -40.5t-40.5 -99.5q0 -118 119 -189t271 -71q0 66 30 118t80 52q34 0 57 -23t23 -57q0 -85 -90 -150l110 -190l-90 -40l-110 200q-195 0 -347.5 96.5t-152.5 253.5q0 101 69.5 170.5t170.5 69.5h290v160h-592v90h902v-90z" />
    <glyph glyph-name="u0927" unicode="&#x927;" horiz-adv-x="974" 
d="M414 170q-108 0 -189 59t-81 151q0 116 80 170q-85 59 -127.5 126.5t-42.5 143.5q0 86 57.5 148t142.5 62q87 0 138.5 -45.5t51.5 -124.5q0 -68 -53.5 -114t-126.5 -46v100q80 0 80 60q0 31 -27 50.5t-63 19.5q-43 0 -71.5 -32t-28.5 -78q0 -62 37.5 -114.5t112.5 -95.5
q69 30 150 30h60l60 -100h-110q-86 0 -153 -44t-67 -116q0 -50 52 -80t118 -30q85 0 162.5 50t147.5 150v440h-220v90h540v-90h-220v-910h-100v330q-67 -80 -144.5 -120t-165.5 -40z" />
    <glyph glyph-name="u0928" unicode="&#x928;" horiz-adv-x="880" 
d="M630 550h-290q-60 0 -60 -40v-100q0 -60 -50 -60q-38 0 -119 104t-81 146q0 50 70 50h530v260h-636v90h956v-90h-220v-910h-100v550z" />
    <glyph glyph-name="u0929" unicode="&#x929;" horiz-adv-x="880" 
d="M630 550h-290q-60 0 -60 -40v-100q0 -60 -50 -60q-38 0 -119 104t-81 146q0 50 70 50h530v260h-636v90h956v-90h-220v-910h-100v550zM404 76q0 -65 -65 -65t-65 65t65 65t65 -65z" />
    <glyph glyph-name="u092A" unicode="&#x92a;" horiz-adv-x="806" 
d="M876 910h-220v-910h-100v380q-90 -90 -200 -90q-112 0 -191 74t-79 186v360h-92v90h882v-90zM556 530v380h-370v-360q0 -67 50 -113.5t120 -46.5q135 0 200 140z" />
    <glyph glyph-name="u092B" unicode="&#x92b;" horiz-adv-x="1164" 
d="M532 530v380h-350v-350q0 -59 44.5 -99.5t105.5 -40.5q124 0 200 110zM532 400q-80 -80 -200 -80q-104 0 -177 69t-73 171v350h-88v90h1240v-90h-602v-280q84 100 210 100q108 0 179 -82.5t71 -197.5q0 -180 -130 -340l-90 50q120 120 120 290q0 72 -42.5 126t-107.5 54
q-110 0 -210 -120v-510h-100v400z" />
    <glyph glyph-name="u092C" unicode="&#x92c;" horiz-adv-x="808" 
d="M338 320q72 0 120 40l-270 220q-30 -38 -30 -100q0 -68 53.5 -114t126.5 -46zM338 220q-116 0 -198 74.5t-82 185.5q0 123 87.5 206.5t212.5 83.5q75 0 130 -30l-30 -80q-44 20 -100 20q-89 0 -120 -40l290 -220l30 40v450h-564v90h884v-90h-220v-910h-100v320
q-50 -50 -105 -75t-115 -25z" />
    <glyph glyph-name="u092D" unicode="&#x92d;" horiz-adv-x="988" 
d="M738 430h-330v-80q0 -40 -50 -40q-32 0 -106 74t-74 106q0 20 12.5 30t37.5 10h80v290q0 42 -25.5 71t-64.5 29q-36 0 -63 -19.5t-27 -50.5q0 -40 22.5 -60t67.5 -20v-100q-78 0 -134 52t-56 128q0 72 56.5 121t133.5 49q80 0 135 -59t55 -141v-290h330v380h-260v90h580
v-90h-220v-910h-100v430z" />
    <glyph glyph-name="u092E" unicode="&#x92e;" horiz-adv-x="870" 
d="M620 580v330h-360v-330h360zM620 480h-360v-70q0 -60 -30 -60q-35 0 -117.5 73.5t-82.5 106.5q0 50 50 50h80v330h-166v90h946v-90h-220v-910h-100v480z" />
    <glyph glyph-name="u092F" unicode="&#x92f;" horiz-adv-x="896" 
d="M386 290q169 0 260 160v460h-340q80 -97 80 -200q0 -90 -69.5 -156.5t-170.5 -83.5q14 -79 82.5 -129.5t157.5 -50.5zM386 190q-148 0 -249 105t-101 255q107 0 178.5 42t71.5 118q0 100 -100 200h-192v90h972v-90h-220v-910h-100v310q-120 -120 -260 -120z" />
    <glyph glyph-name="u0930" unicode="&#x930;" horiz-adv-x="664" 
d="M332 460q-26 0 -80 20q64 -112 151.5 -214.5t198.5 -195.5l-60 -70q-161 135 -288.5 302.5t-221.5 367.5l90 50q26 -72 83.5 -116t126.5 -44q47 0 78.5 35.5t31.5 84.5v230h-448v90h740v-90h-192v-230q0 -91 -60.5 -155.5t-149.5 -64.5z" />
    <glyph glyph-name="u0931" unicode="&#x931;" horiz-adv-x="664" 
d="M332 460q-26 0 -80 20q64 -112 151.5 -214.5t198.5 -195.5l-60 -70q-161 135 -288.5 302.5t-221.5 367.5l90 50q26 -72 83.5 -116t126.5 -44q47 0 78.5 35.5t31.5 84.5v230h-448v90h740v-90h-192v-230q0 -91 -60.5 -155.5t-149.5 -64.5zM252 63q0 -65 -65 -65t-65 65
t65 65t65 -65z" />
    <glyph glyph-name="u0932" unicode="&#x932;" horiz-adv-x="1092" 
d="M842 600q-91 0 -163.5 -78.5t-106.5 -201.5l-90 30q16 98 60 150q-66 100 -180 100q-83 0 -141.5 -58.5t-58.5 -141.5q0 -95 94 -181.5t236 -138.5l-40 -90q-170 62 -280 172.5t-110 237.5q0 126 87 213t213 87q157 0 250 -110q93 110 230 110v210h-848v90h1168v-90h-220
v-910h-100v600z" />
    <glyph glyph-name="u0933" unicode="&#x933;" horiz-adv-x="1104" 
d="M786 200q68 0 109 67t41 153q0 83 -41.5 146.5t-108.5 63.5q-59 0 -108 -61t-72 -149q39 -110 84 -165t96 -55zM336 210q49 0 91.5 50t78.5 150q-30 110 -72.5 165t-97.5 55q-74 0 -122 -66t-48 -152q0 -81 48 -141.5t122 -60.5zM826 720q96 -17 153 -102t57 -198
q0 -124 -70 -217t-180 -93q-69 0 -126.5 50t-103.5 150q-46 -100 -101 -150t-119 -50q-117 0 -193.5 89t-76.5 213q0 126 77 217t193 91q72 0 131.5 -50t88.5 -130q30 79 72.5 124t97.5 56v190h-732v90h1180v-90h-348v-190z" />
    <glyph glyph-name="u0934" unicode="&#x934;" horiz-adv-x="1104" 
d="M786 200q68 0 109 67t41 153q0 83 -41.5 146.5t-108.5 63.5q-59 0 -108 -61t-72 -149q39 -110 84 -165t96 -55zM336 210q49 0 91.5 50t78.5 150q-30 110 -72.5 165t-97.5 55q-74 0 -122 -66t-48 -152q0 -81 48 -141.5t122 -60.5zM826 720q96 -17 153 -102t57 -198
q0 -124 -70 -217t-180 -93q-69 0 -126.5 50t-103.5 150q-46 -100 -101 -150t-119 -50q-117 0 -193.5 89t-76.5 213q0 126 77 217t193 91q72 0 131.5 -50t88.5 -130q30 79 72.5 124t97.5 56v190h-732v90h1180v-90h-348v-190zM621 64q0 -65 -65 -65t-65 65t65 65t65 -65z" />
    <glyph glyph-name="u0935" unicode="&#x935;" 
d="M356 220q-124 0 -212 77t-88 193t88 193t212 77q74 0 130 -40l-50 -80q-38 30 -80 30q-81 0 -140.5 -52t-59.5 -128q0 -73 59.5 -121.5t140.5 -48.5q62 0 114.5 37.5t95.5 112.5v440h-572v90h892v-90h-220v-910h-100v320q-83 -100 -210 -100zM582 1z" />
    <glyph glyph-name="u0936" unicode="&#x936;" horiz-adv-x="1016" 
d="M266 310l290 -240l-60 -70l-450 380l50 70q84 -70 110 -70q116 0 193 88t77 212q-56 -100 -180 -100q-84 0 -142 62t-58 148q0 96 62.5 163t157.5 67q115 0 187.5 -103t72.5 -237q0 -149 -87.5 -259.5t-222.5 -110.5zM456 790q-49 130 -140 130q-53 0 -86.5 -38.5
t-33.5 -91.5q0 -45 28.5 -77.5t71.5 -32.5q107 0 160 110zM1086 910h-220v-910h-100v910h-200v90h520v-90z" />
    <glyph glyph-name="u0937" unicode="&#x937;" horiz-adv-x="804" 
d="M554 580v330h-350zM554 470l-370 340v-250q0 -67 46.5 -113.5t113.5 -46.5q128 0 210 70zM554 360q-84 -60 -210 -60q-108 0 -184 76t-76 184v350h-90v90h880v-90h-220v-910h-100v360z" />
    <glyph glyph-name="u0938" unicode="&#x938;" horiz-adv-x="1066" 
d="M306 450q-46 0 -68 18q68 -110 155.5 -209.5t194.5 -188.5l-60 -70q-161 135 -288.5 302.5t-221.5 367.5l90 50q37 -90 79 -135t89 -45q43 0 71.5 28.5t28.5 71.5v270h-382v90h1142v-90h-220v-910h-100v480h-270l-50 100h320v330h-340v-270q0 -77 -49 -133.5t-121 -56.5z
" />
    <glyph glyph-name="u0939" unicode="&#x939;" horiz-adv-x="792" 
d="M862 910h-210v-240h-410q-50 0 -50 -30q0 -87 110 -140q69 30 150 30q109 0 189.5 -61.5t80.5 -158.5q0 -113 -80 -160l-80 70q60 35 60 90q0 53 -51.5 86.5t-118.5 33.5q-99 0 -179.5 -46.5t-80.5 -123.5q0 -103 138.5 -161.5t301.5 -58.5l-20 -90q-199 0 -359.5 84
t-160.5 226q0 127 110 190q-110 93 -110 190q0 56 44 93t106 37h310v140h-558v90h868v-90z" />
    <glyph glyph-name="u093C" unicode="&#x93c;" horiz-adv-x="0" 
d="M-855 55q0 65 65 65t65 -65t-65 -65t-65 65z" />
    <glyph glyph-name="u093D" unicode="&#x93d;" horiz-adv-x="664" 
d="M38 322l90 48q32 -108 97 -181t143 -73q58 0 94 52.5t36 119.5q0 141 -210 276q-140 91 -140 236q0 77 62.5 128.5t147.5 51.5h240v-102h-240q-44 0 -77 -22.5t-33 -59.5q0 -103 190 -228q160 -104 160 -280q0 -113 -64.5 -196.5t-165.5 -83.5q-110 0 -199.5 89
t-130.5 225z" />
    <glyph glyph-name="u093E" unicode="&#x93e;" horiz-adv-x="400" 
d="M470 910h-220v-910h-100v910h-156v90h476v-90z" />
    <glyph glyph-name="u093F" unicode="&#x93f;" horiz-adv-x="400" 
d="M1010 1020h-110q-83 142 -204.5 226t-255.5 84q-90 0 -155 -57t-65 -143q0 -91 30 -130h220v-90h-220v-910h-100v910h-156v90h156q-30 39 -30 130q0 123 94.5 206.5t225.5 83.5q162 0 312.5 -108t257.5 -292z" />
    <glyph glyph-name="u0940" unicode="&#x940;" horiz-adv-x="400" 
d="M470 910h-220v-910h-100v910h-156v90h156q-38 138 -108 234t-152 96q-53 0 -86.5 -38.5t-33.5 -91.5q0 -80 100 -180h-110q-90 90 -90 180q0 93 63.5 156.5t156.5 63.5q117 0 214.5 -121.5t145.5 -298.5h220v-90z" />
    <glyph glyph-name="u0941" unicode="&#x941;" horiz-adv-x="0" 
d="M-760 -210l70 90q227 -190 390 -190q83 0 146.5 41.5t63.5 108.5q0 50 -31 85t-79 35q-102 0 -160 -70l-70 70q84 100 230 100q89 0 149.5 -64.5t60.5 -155.5q0 -110 -93 -180t-217 -70q-218 0 -460 200z" />
    <glyph glyph-name="u0942" unicode="&#x942;" horiz-adv-x="0" 
d="M250 -340l-90 -40q-57 154 -151 252t-199 98q-61 0 -105.5 -40.5t-44.5 -99.5q0 -46 32 -78t78 -32q52 0 110 50l50 -90q-84 -60 -160 -60q-86 0 -148 62t-62 148q0 102 73 171t177 69q137 0 255 -115.5t185 -294.5z" />
    <glyph glyph-name="u0943" unicode="&#x943;" horiz-adv-x="0" 
d="M-12 -330q-97 -80 -240 -80q-104 0 -177 65.5t-73 164.5q0 97 80.5 158.5t189.5 61.5h90v-90h-90q-67 0 -118.5 -36t-51.5 -94q0 -56 44 -93t106 -37q120 0 190 70z" />
    <glyph glyph-name="u0944" unicode="&#x944;" horiz-adv-x="0" 
d="M-34 -350q-71 -50 -210 -50q-94 0 -172 37.5t-78 102.5q0 71 110 110q-90 23 -90 100q0 53 45 86.5t105 33.5h180v-70h-160q-80 0 -80 -50q0 -28 38 -44t82 -16h70v-80h-90q-44 0 -82 -19t-38 -51q0 -28 45.5 -44t94.5 -16q144 0 200 40z" />
    <glyph glyph-name="u0945" unicode="&#x945;" horiz-adv-x="0" 
d="M110 1400q-20 -117 -103.5 -193.5t-196.5 -76.5t-196.5 76.5t-103.5 193.5h100q14 -81 69.5 -135.5t130.5 -54.5t130.5 54.5t69.5 135.5h100z" />
    <glyph glyph-name="u0946" unicode="&#x946;" horiz-adv-x="0" 
d="M-144 1000h-100q0 86 -58 148t-142 62q-113 0 -196.5 76.5t-103.5 193.5h100q14 -81 69.5 -135.5t130.5 -54.5q125 0 212.5 -83.5t87.5 -206.5z" />
    <glyph glyph-name="u0947" unicode="&#x947;" horiz-adv-x="0" 
d="M-154 1000h-100l-370 440l70 60z" />
    <glyph glyph-name="u0948" unicode="&#x948;" horiz-adv-x="0" 
d="M-158 1000h-130l-430 210l50 90l450 -290l-220 430l100 60z" />
    <glyph glyph-name="u0949" unicode="&#x949;" horiz-adv-x="400" 
d="M470 910h-220v-910h-100v910h-156v90h476v-90zM301 1400q-20 -117 -103.5 -193.5t-196.5 -76.5t-196.5 76.5t-103.5 193.5h100q14 -81 69.5 -135.5t130.5 -54.5t130.5 54.5t69.5 135.5h100z" />
    <glyph glyph-name="u094A" unicode="&#x94a;" horiz-adv-x="400" 
d="M470 910h-220v-910h-100v910h-156v90h476v-90zM251 1000h-100q0 86 -58 148t-142 62q-113 0 -196.5 76.5t-103.5 193.5h100q14 -81 69.5 -135.5t130.5 -54.5q125 0 212.5 -83.5t87.5 -206.5z" />
    <glyph glyph-name="u094B" unicode="&#x94b;" horiz-adv-x="400" 
d="M470 910h-220v-910h-100v910h-156v90h476v-90zM246 1000h-100l-370 440l70 60z" />
    <glyph glyph-name="u094C" unicode="&#x94c;" horiz-adv-x="400" 
d="M470 910h-220v-910h-100v910h-156v90h476v-90zM260 1000h-130l-430 210l50 90l450 -290l-220 430l100 60z" />
    <glyph glyph-name="u094D" unicode="&#x94d;" horiz-adv-x="0" 
d="M168 -270l-60 -60l-300 240l-70 -40l-40 80l110 50z" />
    <glyph glyph-name="u0950" unicode="&#x950;" horiz-adv-x="1468" 
d="M1358 1142q-20 -117 -103.5 -193.5t-196.5 -76.5t-196.5 76.5t-103.5 193.5h100q14 -81 69.5 -135.5t130.5 -54.5t130.5 54.5t69.5 135.5h100zM1118 1157q0 -65 -65 -65t-65 65t65 65t65 -65zM908 320h90q0 -66 47 -113t113 -47q63 0 101.5 64t38.5 146q0 83 -41.5 146.5
t-108.5 63.5q-101 0 -170 -120q-51 -90 -200 -90q-26 0 -100 20q30 -38 30 -110q0 -108 -68.5 -184t-171.5 -76q-130 0 -247.5 100t-192.5 260l90 50q64 -138 158 -224t192 -86q60 0 100 47t40 113t-30 118t-80 52q-45 0 -80 -10l-60 70q89 8 158.5 58.5t69.5 121.5
q0 63 -45.5 106.5t-110.5 43.5q-103 0 -202 -150l-76 62q121 190 280 190q107 0 181.5 -72.5t74.5 -179.5q0 -47 -22.5 -89.5t-67.5 -80.5q44 -25 89 -37.5t91 -12.5q103 0 160 100q63 110 210 110q110 0 180 -93t70 -217q0 -123 -67 -216.5t-173 -93.5t-178 76t-72 184z
" />
    <glyph glyph-name="u0951" unicode="&#x951;" horiz-adv-x="0" 
d="M-130 1010h-130v392h130v-392z" />
    <glyph glyph-name="u0952" unicode="&#x952;" horiz-adv-x="0" 
d="M-80 -110h-790v90h790v-90z" />
    <glyph glyph-name="u0953" unicode="&#x953;" horiz-adv-x="0" 
d="M-158 1264h-74l-218 236h130z" />
    <glyph glyph-name="u0954" unicode="&#x954;" horiz-adv-x="0" 
d="M-158 1500l-218 -236h-74l162 236h130z" />
    <glyph glyph-name="u0958" unicode="&#x958;" horiz-adv-x="1126" 
d="M318 210q-108 0 -184 76t-76 184q0 123 87.5 206.5t212.5 83.5q76 0 100 -20l-20 -100q-36 20 -80 20q-82 0 -141 -55t-59 -135q0 -67 46.5 -113.5t113.5 -46.5q63 0 113 32.5t87 97.5v470h-524v90h1202v-90h-578v-270q69 120 210 120q100 0 165 -79.5t65 -190.5
q0 -199 -190 -360l-90 60q180 129 180 300q0 67 -36 118.5t-94 51.5q-73 0 -130.5 -54t-79.5 -136v-470h-100v300q-77 -90 -200 -90zM370 76q0 -65 -65 -65t-65 65t65 65t65 -65z" />
    <glyph glyph-name="u0959" unicode="&#x959;" horiz-adv-x="1240" 
d="M610 90q115 0 216.5 65t163.5 175v80q-82 -70 -160 -70q-99 0 -169.5 61t-70.5 153q0 93 70.5 154.5t169.5 61.5q75 0 130 -30v-100q-82 30 -130 30q-56 0 -98 -33t-42 -83t42 -82t98 -32q63 0 160 80v390h-550v-220q0 -92 -50.5 -161t-129.5 -69q-25 0 -50 10
q61 -167 168.5 -273.5t231.5 -106.5zM610 0q-185 0 -339 190t-231 470l80 40q48 -140 140 -140q37 0 58.5 39.5t21.5 90.5v220h-346v90h1316v-90h-220v-910h-100v200q-70 -100 -165 -150t-215 -50zM222 76q0 -65 -65 -65t-65 65t65 65t65 -65z" />
    <glyph glyph-name="u095A" unicode="&#x95a;" horiz-adv-x="778" 
d="M528 910h-250v-490q0 -60 -50 -60q-41 0 -120.5 93.5t-79.5 136.5q0 20 10 30t30 10h70q40 0 40 50v230h-184v90h854v-90h-220v-910h-100v910zM263 76q0 -65 -65 -65t-65 65t65 65t65 -65z" />
    <glyph glyph-name="u095B" unicode="&#x95b;" horiz-adv-x="1094" 
d="M844 600h-240q80 -112 80 -250q0 -96 -63 -163t-157 -67q-114 0 -229 149t-201 381l90 40q74 -201 166 -335.5t174 -134.5q51 0 85.5 38.5t34.5 91.5q0 90 -42.5 177.5t-127.5 172.5h430v210h-850v90h1170v-90h-220v-910h-100v600zM305 38q0 -65 -65 -65t-65 65t65 65
t65 -65z" />
    <glyph glyph-name="u095C" unicode="&#x95c;" horiz-adv-x="950" 
d="M578 20q-164 0 -310.5 120.5t-239.5 319.5l80 50q83 -176 208.5 -283t261.5 -107q84 0 142 62t58 148q0 30 -12.5 45t-37.5 15q-31 0 -90 -20t-90 -20q-80 0 -170 95t-90 175q0 55 37.5 92.5t92.5 37.5h270v160h-694v90h1026v-90h-232v-260h-370q-30 0 -30 -30
q0 -43 58.5 -106.5t101.5 -63.5q31 0 90 20t90 20q64 0 107 -47t43 -113q0 -129 -86.5 -219.5t-213.5 -90.5zM642 -125q0 -65 -65 -65t-65 65t65 65t65 -65z" />
    <glyph glyph-name="u095D" unicode="&#x95d;" horiz-adv-x="870" 
d="M714 270q0 43 -28.5 71.5t-71.5 28.5q-38 0 -64 -26t-26 -64q0 -51 17.5 -91t52.5 -69q54 11 87 53t33 97zM684 610h-390q-57 0 -93.5 -48t-36.5 -112q0 -120 103 -225t227 -115q-70 58 -70 170q0 79 55.5 134.5t134.5 55.5q84 0 142 -58t58 -142q0 -110 -96.5 -180
t-223.5 -70q-163 0 -296.5 133.5t-133.5 296.5q0 106 65.5 183t164.5 77h290v200h-590v90h946v-90h-256v-300zM548 -125q0 -65 -65 -65t-65 65t65 65t65 -65z" />
    <glyph glyph-name="u095E" unicode="&#x95e;" horiz-adv-x="1164" 
d="M532 530v380h-350v-350q0 -59 44.5 -99.5t105.5 -40.5q124 0 200 110zM532 400q-80 -80 -200 -80q-104 0 -177 69t-73 171v350h-88v90h1240v-90h-602v-280q84 100 210 100q108 0 179 -82.5t71 -197.5q0 -180 -130 -340l-90 50q120 120 120 290q0 72 -42.5 126t-107.5 54
q-110 0 -210 -120v-510h-100v400zM323 75q0 -65 -65 -65t-65 65t65 65t65 -65z" />
    <glyph glyph-name="u095F" unicode="&#x95f;" horiz-adv-x="896" 
d="M386 290q169 0 260 160v460h-340q80 -97 80 -200q0 -90 -69.5 -156.5t-170.5 -83.5q14 -79 82.5 -129.5t157.5 -50.5zM386 190q-148 0 -249 105t-101 255q107 0 178.5 42t71.5 118q0 100 -100 200h-192v90h972v-90h-220v-910h-100v310q-120 -120 -260 -120zM311 75
q0 -65 -65 -65t-65 65t65 65t65 -65z" />
    <glyph glyph-name="u0960" unicode="&#x960;" horiz-adv-x="1326" 
d="M748 460v-460h-100v380l-410 -190l-60 80l390 180l-110 110q-90 90 -150 90q-84 0 -230 -100l-60 70q174 120 290 120q90 0 180 -90l160 -160v420h-654v90h1402v-90h-648v-360l170 80q-4 15 -4 29q0 36 24 63.5t60 27.5q90 0 90 -80q0 -68 -40 -90l70 -130
q-68 -12 -114 -53.5t-46 -96.5q0 -63 47.5 -106.5t112.5 -43.5q53 0 140 50l50 -90q-108 -50 -190 -50q-108 0 -184 68.5t-76 171.5q0 65 32.5 112.5t97.5 77.5l-40 60z" />
    <glyph glyph-name="u0961" unicode="&#x961;" horiz-adv-x="1064" 
d="M896 370q0 87 -47.5 153.5t-122.5 66.5q-65 0 -119 -78.5t-81 -191.5l-100 30q16 72 50 140q-61 100 -160 100q-66 0 -108 -57.5t-42 -132.5q0 -101 69.5 -187.5t180.5 -132.5l-40 -80q-138 59 -224 167t-86 233q0 118 71 204t179 86q125 0 210 -120q62 99 160 120v220
h-692v90h1140v-90h-348v-220q97 -29 153.5 -117.5t56.5 -202.5q0 -120 -75.5 -209.5t-194.5 -110.5q-70 -12 -70 -60q0 -36 33 -58t77 -22h70v-80h-70q-43 0 -76.5 -21t-33.5 -55q0 -37 33.5 -60.5t76.5 -23.5q106 0 190 60l40 -80q-99 -70 -230 -70q-84 0 -147 48t-63 122
q0 89 90 120q-90 23 -90 120q0 63 47 107.5t115 50.5q79 6 128.5 70.5t49.5 151.5z" />
    <glyph glyph-name="u0962" unicode="&#x962;" horiz-adv-x="0" 
d="M54 -192q0 68 -33.5 115t-90.5 47q-47 0 -87 -57t-59 -139l-72 22q12 54 36 102q-42 72 -118 72q-47 0 -77.5 -42t-30.5 -96q0 -73 45.5 -129.5t136.5 -96.5l-30 -66q-102 42 -167 121t-65 171q0 89 53.5 153.5t134.5 64.5q102 0 158 -82q52 82 142 82q91 0 147.5 -70.5
t56.5 -171.5q0 -83 -45 -144t-121 -80q-104 -26 -104 -118q0 -41 30.5 -68.5t73.5 -27.5q81 0 136 38l24 -66q-72 -52 -160 -52q-76 0 -130 51t-54 125q0 71 43.5 123.5t112.5 64.5q114 20 114 154z" />
    <glyph glyph-name="u0963" unicode="&#x963;" horiz-adv-x="0" 
d="M54 -180q0 60 -35 105t-89 45q-47 0 -87 -57t-59 -139l-72 22q12 54 36 102q-42 72 -118 72q-47 0 -77.5 -42t-30.5 -96q0 -73 45.5 -129.5t136.5 -96.5l-30 -66q-102 42 -167 121t-65 171q0 89 53.5 153.5t134.5 64.5q102 0 158 -82q52 82 142 82q88 0 146 -67.5
t58 -162.5q0 -91 -55 -159.5t-141 -82.5q-52 -8 -52 -48q0 -56 74 -56h48v-58h-48q-28 0 -51 -17t-23 -43q0 -50 74 -50q90 0 146 40l28 -72q-68 -48 -174 -48q-62 0 -108 36.5t-46 93.5q0 67 60 88q-60 19 -60 86q0 47 34.5 81.5t83.5 38.5q58 4 94 53.5t36 116.5z" />
    <glyph glyph-name="u0964" unicode="&#x964;" horiz-adv-x="400" 
d="M250 0h-100v1000h100v-1000z" />
    <glyph glyph-name="u0965" unicode="&#x965;" horiz-adv-x="720" 
d="M570 0h-100v1000h100v-1000zM250 0h-100v1000h100v-1000z" />
    <glyph glyph-name="u0966" unicode="&#x966;" horiz-adv-x="1000" 
d="M500 150q-146 0 -248 102t-102 248t102 248t248 102t248 -102t102 -248t-102 -248t-248 -102zM500 250q105 0 177.5 72.5t72.5 177.5q0 106 -72 178t-178 72q-105 0 -177.5 -72.5t-72.5 -177.5q0 -104 73 -177t177 -73z" />
    <glyph glyph-name="u0967" unicode="&#x967;" horiz-adv-x="1000" 
d="M490 510q-112 0 -186 79t-74 191t74 191t186 79q130 0 205 -81.5t75 -218.5v-800h-100v630q-70 -70 -180 -70zM490 600q71 0 120.5 53t49.5 127q0 77 -49 133.5t-121 56.5q-69 0 -114.5 -56.5t-45.5 -133.5q0 -73 46 -126.5t114 -53.5zM874 1058z" />
    <glyph glyph-name="u0968" unicode="&#x968;" horiz-adv-x="1000" 
d="M560 320l240 -330l-80 -60l-260 350q-25 -10 -70 -10q-60 0 -105 33.5t-45 86.5q0 35 29.5 57.5t70.5 22.5q80 0 160 -80q103 38 166.5 125t63.5 195q0 104 -65.5 177t-164.5 73q-139 0 -270 -110l-60 80q160 130 330 130q139 0 234.5 -103t95.5 -247q0 -131 -73.5 -238
t-196.5 -152zM874 1058z" />
    <glyph glyph-name="u0969" unicode="&#x969;" horiz-adv-x="998" 
d="M514 50q100 -172 160 -200l-80 -70q-85 49 -180 250q-72 0 -126 42.5t-54 107.5q0 80 90 80q87 0 160 -130q92 17 151 74.5t59 135.5q0 87 -72 143.5t-168 56.5h-110l-50 90h180q73 0 126.5 46t53.5 114q0 66 -57.5 108t-132.5 42q-86 0 -210 -70l-50 70q121 100 270 100
q115 0 197.5 -71t82.5 -179q0 -136 -130 -210q170 -78 170 -240q0 -108 -79.5 -188t-200.5 -102zM874 1058z" />
    <glyph glyph-name="u096A" unicode="&#x96a;" horiz-adv-x="998" 
d="M594 520q90 -52 135 -119.5t45 -150.5q0 -107 -79 -178.5t-191 -71.5q-108 0 -184 72t-76 178q0 83 45 150.5t135 119.5q-119 56 -194.5 142t-75.5 178q0 103 90 180l80 -50q-70 -70 -70 -130q0 -81 71 -151t179 -109q120 68 180 133t60 127q0 58 -70 140l90 50
q80 -80 80 -190q0 -89 -62.5 -169t-187.5 -151zM504 460q-72 -26 -116 -83.5t-44 -126.5q0 -66 47 -113t113 -47q70 0 120 45.5t50 114.5q0 66 -42.5 118.5t-127.5 91.5zM874 1058z" />
    <glyph glyph-name="u096B" unicode="&#x96b;" horiz-adv-x="1000" 
d="M700 -130l-50 80q90 65 90 120q0 29 -40 160l-70 230q-71 -50 -160 -50q-135 0 -227.5 96.5t-92.5 233.5q0 194 80 330l90 -40q-70 -123 -70 -290q0 -100 62.5 -170t157.5 -70q74 0 130 40q-20 42 -20 170q0 62 33.5 111t86.5 49q46 0 73 -48.5t27 -111.5q0 -83 -80 -180
l90 -300q40 -133 40 -160q0 -114 -150 -200z" />
    <glyph glyph-name="u096C" unicode="&#x96c;" horiz-adv-x="1000" 
d="M820 -180l-70 -70q-60 72 -140 290q-148 0 -259 81t-111 209q0 137 130 210q-84 14 -137 82t-53 158q0 99 77 164.5t183 65.5q143 0 230 -50l-30 -90q-110 40 -200 40q-64 0 -112 -36.5t-48 -93.5q0 -74 53 -127t127 -53h160l40 -80h-110q-85 0 -147.5 -55t-62.5 -135
q0 -88 78.5 -144t181.5 -56q0 64 36.5 112t93.5 48q31 0 50.5 -27t19.5 -63q0 -85 -90 -150q20 -74 110 -230zM874 1000z" />
    <glyph glyph-name="u096D" unicode="&#x96d;" horiz-adv-x="1000" 
d="M730 290q-127 0 -213.5 97.5t-86.5 232.5q0 114 58 202t152 88q105 0 167.5 -110t62.5 -250q0 -238 -93.5 -394t-266.5 -156q-170 0 -275 161t-105 369q0 78 30 420l110 60q-40 -226 -40 -480q0 -169 76.5 -304.5t203.5 -135.5q70 0 129.5 56.5t90.5 143.5zM750 360
q20 114 20 190q0 99 -34.5 184.5t-95.5 85.5q-55 0 -87.5 -62t-32.5 -138q0 -106 65.5 -183t164.5 -77zM874 1000z" />
    <glyph glyph-name="u096E" unicode="&#x96e;" horiz-adv-x="1000" 
d="M850 180q-150 -180 -330 -180q-151 0 -260.5 90.5t-109.5 229.5q0 116 90 210l470 490l70 -70l-460 -480q-60 -63 -60 -150q0 -99 77 -164.5t183 -65.5q126 0 260 160z" />
    <glyph glyph-name="u096F" unicode="&#x96f;" horiz-adv-x="998" 
d="M624 -140l-30 90q48 0 89 19t41 51q0 33 -70 110l-310 340q-85 93 -127.5 180.5t-42.5 169.5q0 115 81.5 192.5t198.5 77.5q115 0 192.5 -85t77.5 -205q0 -113 -64.5 -196.5t-165.5 -83.5q-14 0 -70 10l340 -380q60 -67 60 -130q0 -64 -59.5 -108t-140.5 -52zM274 800
q0 -78 52 -134t128 -56q69 0 114.5 56.5t45.5 133.5q0 73 -46 126.5t-114 53.5q-75 0 -127.5 -52.5t-52.5 -127.5zM874 1058z" />
    <glyph glyph-name="u0970" unicode="&#x970;" horiz-adv-x="820" 
d="M410 -10q-109 0 -184.5 73.5t-75.5 182.5t75.5 182.5t184.5 73.5t184.5 -73.5t75.5 -182.5t-75.5 -182.5t-184.5 -73.5zM412 74q70 0 118 50t48 122t-48 122t-118 50q-71 0 -118.5 -50.5t-47.5 -121.5t47.5 -121.5t118.5 -50.5z" />
    <glyph glyph-name="u200C" unicode="&#x200c;" horiz-adv-x="0" 
d="M80 -490h-80v1990h80v-1990z" />
    <glyph glyph-name="u200D" unicode="&#x200d;" horiz-adv-x="0" 
d="M80 -490h-80v1990h340v-80h-260v-1910z" />
    <glyph glyph-name="u2013" unicode="&#x2013;" 
d="M-3 328v104h816v-104h-816z" />
    <glyph glyph-name="u2014" unicode="&#x2014;" horiz-adv-x="1466" 
d="M0 328v104h1466v-104h-1466z" />
    <glyph glyph-name="u2018" unicode="&#x2018;" horiz-adv-x="326" 
d="M230 874v-150h-138v118q0 96 23 139q30 57 95 87l31 -51q-39 -16 -57.5 -48.5t-20.5 -94.5h67z" />
    <glyph glyph-name="u2019" unicode="&#x2019;" horiz-adv-x="326" 
d="M89 911v149h138v-118q0 -96 -22 -138q-31 -58 -96 -87l-32 51q39 15 58 49t21 94h-67z" />
    <glyph glyph-name="u201C" unicode="&#x201c;" horiz-adv-x="488" 
d="M198 874v-150h-139v118q0 96 23 139q30 57 96 87l31 -51q-39 -16 -58 -48.5t-21 -94.5h68zM420 874v-150h-139v118q0 96 23 139q30 57 96 87l31 -51q-39 -16 -58 -48.5t-21 -94.5h68z" />
    <glyph glyph-name="u201D" unicode="&#x201d;" horiz-adv-x="488" 
d="M62 911v149h138v-118q0 -96 -22 -138q-31 -58 -96 -87l-31 51q39 15 57.5 49t21.5 94h-68zM284 911v149h138v-118q0 -96 -22 -138q-31 -58 -96 -87l-31 51q38 15 57 49t22 94h-68z" />
    <glyph glyph-name="u2026" unicode="&#x2026;" horiz-adv-x="1466" 
d="M171 0v147h147v-147h-147zM660 0v147h147v-147h-147zM1148 0v147h148v-147h-148z" />
    <glyph glyph-name="u2212" unicode="&#x2212;" horiz-adv-x="856" 
d="M82 458v120h693v-120h-693z" />
    <glyph glyph-name="u25CC" unicode="&#x25cc;" horiz-adv-x="1380" 
d="M690 896q-30 0 -51 21t-21 51t21 51t51 21t51 -21t21 -51t-21 -51t-51 -21zM924 834q-30 0 -51 21t-21 51t21 51t51 21t51 -21t21 -51t-21 -51t-51 -21zM456 834q-30 0 -51 21t-21 51t21 51t51 21t51 -21t21 -51t-21 -51t-51 -21zM1096 662q-30 0 -51 21t-21 51t21 51
t51 21t51 -21t21 -51t-21 -51t-51 -21zM286 662q-30 0 -51 21t-21 51t21 51t51 21t51 -21t21 -51t-21 -51t-51 -21zM1158 428q-30 0 -51 21t-21 51t21 51t51 21t51 -21t21 -51t-21 -51t-51 -21zM222 428q-30 0 -51 21t-21 51t21 51t51 21t51 -21t21 -51t-21 -51t-51 -21z
M1096 194q-30 0 -51 21t-21 51t21 51t51 21t51 -21t21 -51t-21 -51t-51 -21zM286 194q-30 0 -51 21t-21 51t21 51t51 21t51 -21t21 -51t-21 -51t-51 -21zM924 22q-31 0 -51.5 21.5t-20.5 52.5q0 30 21 51t51 21t51 -21t21 -51q0 -31 -20.5 -52.5t-51.5 -21.5zM456 22
q-31 0 -51.5 21.5t-20.5 52.5q0 30 21 51t51 21t51 -21t21 -51q0 -31 -20.5 -52.5t-51.5 -21.5zM690 -40q-30 0 -51 21t-21 51t21 51t51 21t51 -21t21 -51t-21 -51t-51 -21z" />
    <glyph glyph-name="u09470902" horiz-adv-x="0" 
d="M-154 1000h-100l-370 440l70 60zM-65 1371q0 -65 -65 -65t-65 65t65 65t65 -65z" />
    <glyph glyph-name="u09470930094D" horiz-adv-x="0" 
d="M-4 1310q-82 30 -110 30q-59 0 -99.5 -40.5t-40.5 -99.5q0 -75 20 -100l80 -100h-100l-370 440l70 60l211 -263q14 81 79 132t150 51q54 0 110 -20v-90z" />
    <glyph glyph-name="u09470930094D0902" horiz-adv-x="0" 
d="M6 1310q-82 30 -110 30q-59 0 -99.5 -40.5t-40.5 -99.5q0 -75 20 -100l80 -100h-100l-370 440l70 60l211 -263q14 81 79 132t150 51q54 0 110 -20v-90zM-5 1165q0 -65 -65 -65t-65 65t65 65t65 -65z" />
    <glyph glyph-name="u09480902" horiz-adv-x="0" 
d="M-158 1000h-130l-430 210l50 90l450 -290l-220 430l100 60zM-27 1323q0 -65 -65 -65t-65 65t65 65t65 -65z" />
    <glyph glyph-name="u09480930094D" horiz-adv-x="0" 
d="M-128 1000h-130l-440 200l50 100l460 -290l-250 430l100 60l90 -210q33 65 88 97.5t132 32.5q54 0 110 -20v-90q-82 30 -110 30q-70 0 -120 -43t-50 -107q0 -15 30 -90z" />
    <glyph glyph-name="u09480930094D0902" horiz-adv-x="0" 
d="M-128 1000h-130l-440 200l50 100l460 -290l-250 430l100 60l90 -210q33 65 88 97.5t132 32.5q54 0 110 -20v-90q-82 30 -110 30q-70 0 -120 -43t-50 -107q0 -15 30 -90zM65 1155q0 -65 -65 -65t-65 65t65 65t65 -65z" />
    <glyph glyph-name="u0930094D" horiz-adv-x="0" 
d="M48 1310q-82 30 -110 30q-59 0 -99.5 -40.5t-40.5 -99.5q0 -117 140 -200h-130q-110 93 -110 200q0 95 70 157.5t170 62.5q54 0 110 -20v-90z" />
    <glyph glyph-name="u0930094D0902" horiz-adv-x="0" 
d="M8 1310q-82 30 -110 30q-59 0 -99.5 -40.5t-40.5 -99.5q0 -117 140 -200h-130q-110 93 -110 200q0 95 70 157.5t170 62.5q54 0 110 -20v-90zM1 1183q0 -65 -65 -65t-65 65t65 65t65 -65z" />
    <glyph glyph-name="u094D0930Alt" horiz-adv-x="0" 
d="M-190 210l-490 -260l-40 80l530 270v-90z" />
    <glyph glyph-name="u094D0930Default" horiz-adv-x="0" 
d="M138 -234h-118l-220 234l-220 -234h-120l286 304h106z" />
    <glyph glyph-name="u0936094D0930" horiz-adv-x="1066" 
d="M1136 910h-220v-910h-100v450l-470 -360l-70 80l380 280l-270 110l-300 -200l-66 76l276 178q-138 78 -138 206q0 80 54 135t134 55q82 0 141 -55t59 -135q0 -110 -96 -190l286 -120l80 60v340h-180v90h500v-90zM446 820q0 43 -28.5 71.5t-71.5 28.5q-39 0 -64.5 -29
t-25.5 -71q0 -98 110 -130q80 55 80 130z" />
    <glyph glyph-name="u095E094D0930" horiz-adv-x="1194" 
d="M562 570v340h-350v-310q0 -59 44.5 -99.5t105.5 -40.5q124 0 200 110zM562 450q-90 -90 -200 -90q-104 0 -177 69t-73 171v310h-118v90h1270v-90h-602v-280q84 100 210 100q108 0 179 -82.5t71 -197.5q0 -180 -130 -340l-90 50q120 120 120 290q0 72 -42.5 126t-107.5 54
q-110 0 -210 -120v-510h-100v262l-450 -252l-40 80l490 272v88zM307 5q0 65 65 65t65 -65t-65 -65t-65 65z" />
    <glyph glyph-name="u09240924" horiz-adv-x="1116" 
d="M866 640h-310q-72 0 -126 -42.5t-54 -107.5q0 -126 69.5 -237.5t190.5 -182.5l-60 -70q-140 80 -220 210t-80 280q0 93 70 150h-330v90h850v180h-872v90h1192v-90h-220v-910h-100v640z" />
    <glyph glyph-name="u0915094D0937" horiz-adv-x="990" 
d="M450 820q0 47 -32.5 78.5t-79.5 31.5q-46 0 -77 -32t-31 -78q0 -63 100 -130q120 45 120 130zM740 550q-68 -40 -150 -40q-124 0 -260 80q-67 -18 -113.5 -64.5t-46.5 -105.5q0 -74 58.5 -122t137.5 -48q-16 34 -16 44q0 42 29 69t71 27q43 0 71.5 -28.5t28.5 -71.5
q0 -75 -60 -110l100 -170l-80 -50l-120 200q-128 0 -224 73.5t-96 186.5q0 72 50 131.5t130 88.5q-120 86 -120 180q0 88 61.5 149t148.5 61t148.5 -61t61.5 -149q0 -111 -120 -180q84 -40 160 -40q63 0 150 50v260h-100v90h420v-90h-220v-910h-100v550z" />
    <glyph glyph-name="u091C094D091E" horiz-adv-x="1068" 
d="M818 670h-580q-50 0 -50 -30q0 -43 54.5 -106.5t95.5 -63.5q33 0 95 20q63 20 95 20q50 0 80 -49t30 -111q0 -105 -86.5 -172.5t-203.5 -67.5q38 -84 190 -110l-70 -70q-138 39 -220 140q-74 0 -132 36t-58 94q0 38 26 64t64 26q47 0 140 -110q98 9 174 55.5t76 114.5
q0 70 -50 70q-21 0 -76 -20q-54 -20 -84 -20q-68 0 -154 96t-86 166q0 56 44 92t106 36h580v140h-824v90h1144v-90h-220v-910h-100v670z" />
    <glyph glyph-name="u0915094DHalf" horiz-adv-x="878" 
d="M338 210q-116 0 -198 74.5t-82 185.5q0 119 84.5 199.5t205.5 80.5q54 0 110 -20l-10 -90q-44 20 -100 20q-79 0 -134.5 -55.5t-55.5 -134.5q0 -68 53.5 -114t126.5 -46q48 0 93 35t87 105v460h-524v90h954v-90h-330v-270q76 110 210 110q36 0 90 -20v-110q-40 40 -90 40
q-77 0 -135.5 -57.5t-74.5 -142.5v-460h-100v300q-90 -90 -180 -90zM1058 490zM1126 0z" />
    <glyph glyph-name="u0916094DHalf" horiz-adv-x="986" 
d="M1026 440q-90 -90 -220 -90q-91 0 -155.5 60.5t-64.5 149.5q0 94 67 157t163 63q92 0 160 -40l-40 -90q-55 30 -120 30q-53 0 -91.5 -34.5t-38.5 -85.5q0 -47 35.5 -78.5t84.5 -31.5q127 0 220 110v-120zM397.5 499.5q-48.5 -59.5 -121.5 -59.5q-58 0 -70 20
q43 -165 153 -267.5t257 -102.5q129 0 231.5 55t178.5 165v-120q-80 -95 -182.5 -142.5t-227.5 -47.5q-215 0 -367 182t-203 468l70 40q71 -150 150 -150q35 0 57.5 29.5t22.5 70.5v270h-352v90h1062v-90h-610v-270q0 -81 -48.5 -140.5z" />
    <glyph glyph-name="u0917094DHalf" horiz-adv-x="380" 
d="M450 910h-162v-510q0 -60 -40 -60q-42 0 -131 89t-89 131q0 30 10 45t30 15h80q40 0 40 60v230h-194v90h456v-90z" />
    <glyph glyph-name="u0918094DHalf" horiz-adv-x="718" 
d="M408 170q-113 0 -196.5 64.5t-83.5 165.5q0 64 22.5 109t67.5 71q-66 18 -108 73.5t-42 126.5q0 59 50 130h-124v90h794v-90h-550q-70 -57 -70 -130q0 -55 41.5 -92.5t98.5 -37.5h170l50 -90h-140q-67 0 -113.5 -46.5t-46.5 -113.5q0 -58 55 -94t125 -36q80 0 167.5 47.5
t182.5 142.5v-120q-102 -85 -189.5 -127.5t-160.5 -42.5z" />
    <glyph glyph-name="u0919094DHalf" horiz-adv-x="1078" 
d="M578 20q-164 0 -310.5 120.5t-239.5 319.5l80 50q83 -176 208.5 -283t261.5 -107q84 0 142 62t58 148q0 30 -12.5 45t-37.5 15q-31 0 -90 -20t-90 -20q-80 0 -170 95t-90 175q0 55 37.5 92.5t92.5 37.5h270v160h-694v90h1154v-90h-360v-260h-370q-30 0 -30 -30
q0 -43 58.5 -106.5t101.5 -63.5q31 0 90 20t90 20q64 0 107 -47t43 -113q0 -129 -86.5 -219.5t-213.5 -90.5zM1045 565q0 -65 -65 -65t-65 65t65 65t65 -65zM936 -288l-60 -60l-300 240l-70 -40l-40 80l110 50z" />
    <glyph glyph-name="u091A094DHalf" horiz-adv-x="718" 
d="M438 180q-100 0 -170 70t-70 170q0 72 27.5 127t82.5 93h-290v100h580v-100h-120q-90 -42 -135 -97t-45 -123q0 -58 41 -99t99 -41q74 0 154 75t166 225v-160q-84 -120 -164 -180t-156 -60zM788 910h-794v90h794v-90zM808 -50zM958 -50z" />
    <glyph glyph-name="u091B094DHalf" horiz-adv-x="1066" 
d="M786 660q-49 0 -79.5 -35.5t-30.5 -84.5q0 -134 110 -210q120 86 120 220q0 48 -35 79t-85 31zM786 760q91 0 155.5 -60.5t64.5 -149.5q0 -184 -175 -342t-365 -158q-136 0 -238 79.5t-102 200.5q0 77 27.5 134.5t82.5 95.5q-80 37 -120 87t-40 113q0 107 60 150h-142v90
h1142v-90h-880q-80 -67 -80 -150q0 -61 54.5 -100.5t125.5 -39.5h110v-100h-80q-69 0 -114.5 -56.5t-45.5 -133.5q0 -79 73 -129.5t167 -50.5q129 0 250 100q-140 140 -140 290q0 91 60 155.5t150 64.5z" />
    <glyph glyph-name="u091C094DHalf" horiz-adv-x="884" 
d="M924 600h-310q90 -106 90 -250q0 -100 -62.5 -170t-157.5 -70q-120 0 -240.5 155t-209.5 395l90 40q76 -209 173 -344.5t187 -135.5q51 0 85.5 38.5t34.5 91.5q0 85 -42.5 170t-127.5 170h490v-90zM954 910h-960v90h960v-90z" />
    <glyph glyph-name="u091D094DHalf" horiz-adv-x="818" 
d="M888 910h-320v-240h-350q-40 0 -40 -30q0 -45 44 -102.5t86 -57.5q30 0 85 25t85 25q40 0 110 -40q53 -30 150 -30q72 0 120 40v-100q-82 -30 -120 -30q-62 0 -90 10v-50q0 -69 -84.5 -144.5t-155.5 -75.5q46 -38 170 -110l-60 -70q-7 12 -86 62q-90 56 -104 68
q-99 0 -184.5 34.5t-85.5 95.5q0 80 90 80q117 0 180 -110q96 27 163 78.5t67 111.5q0 34 -23 57t-57 23q-30 0 -85 -25t-85 -25q-62 0 -146 98t-84 162q0 52 41 86t99 34h250v150h-474v90h894v-90z" />
    <glyph glyph-name="u091E094DHalf" horiz-adv-x="690" 
d="M860 450q-84 -40 -150 -40q-18 0 -100 30q-10 -110 -86.5 -185t-183.5 -75q-160 0 -320 160l50 70q140 -140 270 -140q76 0 128 59.5t52 140.5q0 74 -49.5 127t-120.5 53q-84 0 -140 -40l-50 80q84 60 190 60q97 0 169.5 -64.5t90.5 -165.5q82 -30 110 -30q82 0 140 50
v-90zM760 910h-766v90h766v-90zM958 -50zM858 -50zM1108 -50z" />
    <glyph glyph-name="u091F094DHalf" horiz-adv-x="850" 
d="M678 910v-300h-370q-61 0 -100.5 -50.5t-39.5 -119.5q0 -134 93 -227t227 -93q177 0 260 140l80 -70q-100 -170 -340 -170q-176 0 -298 122t-122 298q0 111 68 190.5t172 79.5h270v200h-584v90h926v-90h-242zM848 -310l-60 -60l-300 240l-70 -40l-40 80l110 50z" />
    <glyph glyph-name="u0920094DHalf" horiz-adv-x="872" 
d="M676 620h-350q-68 0 -114 -53.5t-46 -126.5q0 -123 99.5 -226.5t220.5 -103.5q89 0 149.5 64.5t60.5 155.5q0 121 -120 220l80 60q140 -119 140 -280q0 -133 -89.5 -226.5t-220.5 -93.5q-162 0 -291 134t-129 296q0 116 74.5 198t185.5 82h250v190h-582v90h948v-90h-266
v-290zM848 -309l-60 -60l-300 240l-70 -40l-40 80l110 50z" />
    <glyph glyph-name="u0921094DHalf" horiz-adv-x="950" 
d="M578 20q-164 0 -310.5 120.5t-239.5 319.5l80 50q83 -176 208.5 -283t261.5 -107q84 0 142 62t58 148q0 30 -12.5 45t-37.5 15q-31 0 -90 -20t-90 -20q-80 0 -170 95t-90 175q0 55 37.5 92.5t92.5 37.5h270v160h-694v90h1026v-90h-232v-260h-370q-30 0 -30 -30
q0 -43 58.5 -106.5t101.5 -63.5q31 0 90 20t90 20q64 0 107 -47t43 -113q0 -129 -86.5 -219.5t-213.5 -90.5zM939 -301l-60 -60l-300 240l-70 -40l-40 80l110 50z" />
    <glyph glyph-name="u0922094DHalf" horiz-adv-x="870" 
d="M714 270q0 43 -28.5 71.5t-71.5 28.5q-38 0 -64 -26t-26 -64q0 -51 17.5 -91t52.5 -69q54 11 87 53t33 97zM684 610h-390q-57 0 -93.5 -48t-36.5 -112q0 -120 103 -225t227 -115q-70 58 -70 170q0 79 55.5 134.5t134.5 55.5q84 0 142 -58t58 -142q0 -110 -96.5 -180
t-223.5 -70q-163 0 -296.5 133.5t-133.5 296.5q0 106 65.5 183t164.5 77h290v200h-590v90h946v-90h-256v-300zM856 -320l-60 -60l-300 240l-70 -40l-40 80l110 50z" />
    <glyph glyph-name="u0923094DHalf" horiz-adv-x="682" 
d="M486 910h-290v-440q0 -56 44 -93t106 -37q57 0 98.5 36.5t41.5 93.5v440zM752 910h-166v-440q0 -95 -70 -157.5t-170 -62.5q-102 0 -176 62.5t-74 157.5v440h-102v90h758v-90z" />
    <glyph glyph-name="u0924094DHalf" horiz-adv-x="566" 
d="M606 620h-310q-55 0 -97.5 -30.5t-42.5 -79.5q0 -93 70 -198t210 -222l-60 -60q-160 135 -240 255t-80 225q0 87 72 143.5t168 56.5h310v-90zM636 910h-642v90h642v-90z" />
    <glyph glyph-name="u0925094DHalf" horiz-adv-x="814" 
d="M464 180q-134 0 -245.5 92.5t-164.5 237.5h180q98 0 169 59.5t71 150.5q0 80 -55 135t-135 55q-49 0 -84.5 -31.5t-35.5 -78.5q0 -41 43 -65.5t97 -24.5v-90q-94 0 -167 50.5t-73 129.5q0 89 64.5 149.5t155.5 60.5q122 0 206 -84t84 -206q0 -130 -107.5 -215t-252.5 -85
q43 -75 105.5 -112.5t144.5 -37.5q108 0 210.5 74.5t179.5 205.5v-150q-76 -110 -173.5 -165t-216.5 -55zM884 910h-270v90h270v-90z" />
    <glyph glyph-name="u0926094DHalf" horiz-adv-x="826" 
d="M896 910h-210v-260h-390q-59 0 -99.5 -40.5t-40.5 -99.5q0 -118 119 -189t271 -71q0 66 30 118t80 52q34 0 57 -23t23 -57q0 -85 -90 -150l110 -190l-90 -40l-110 200q-195 0 -347.5 96.5t-152.5 253.5q0 101 69.5 170.5t170.5 69.5h290v160h-592v90h902v-90zM720 -221
l-60 -60l-300 240l-70 -40l-40 80l110 50z" />
    <glyph glyph-name="u0927094DHalf" horiz-adv-x="736" 
d="M416 160q-109 0 -189.5 61.5t-80.5 158.5q0 119 90 170q-90 42 -135 109.5t-45 160.5q0 83 58.5 141.5t141.5 58.5q76 0 133 -45.5t57 -114.5q0 -65 -54 -107.5t-126 -42.5v90q80 0 80 60t-90 60q-43 0 -71.5 -28.5t-28.5 -71.5q0 -74 44.5 -134.5t115.5 -85.5
q82 30 120 30h100l50 -80h-120q-90 0 -160 -47.5t-70 -122.5q0 -58 55 -94t125 -36q79 0 169 60t191 180v-130q-100 -100 -190 -150t-170 -50zM806 910h-280v90h280v-90z" />
    <glyph glyph-name="u0928094DHalf" horiz-adv-x="592" 
d="M632 560h-310q-60 0 -60 -40v-110q0 -60 -40 -60q-45 0 -117.5 100t-72.5 150t70 50h530v-90zM662 910h-668v90h668v-90z" />
    <glyph glyph-name="u0929094DHalf" horiz-adv-x="592" 
d="M632 560h-310q-60 0 -60 -40v-110q0 -60 -40 -60q-45 0 -117.5 100t-72.5 150t70 50h530v-90zM662 910h-668v90h668v-90zM457 74q0 -65 -65 -65t-65 65t65 65t65 -65z" />
    <glyph glyph-name="u092A094DHalf" horiz-adv-x="530" 
d="M600 910h-420v-320q0 -78 52 -134t128 -56q137 0 210 160v-140q-76 -110 -210 -110q-120 0 -200 85t-80 205v310h-86v90h606v-90z" />
    <glyph glyph-name="u092B094DHalf" horiz-adv-x="884" 
d="M524 530v380h-340v-350q0 -67 46.5 -113.5t113.5 -46.5q92 0 180 130zM524 400q-77 -90 -180 -90q-108 0 -184 72t-76 178v350h-90v90h960v-90h-330v-290q93 110 190 110q55 0 110 -30v-100q-56 40 -110 40q-83 0 -190 -150v-490h-100v400z" />
    <glyph glyph-name="u092C094DHalf" horiz-adv-x="550" 
d="M340 290q90 0 150 60l-300 220q-30 -38 -30 -100q0 -74 53 -127t127 -53zM340 190q-118 0 -199 81t-81 199q0 126 87 213t213 87q56 0 100 -20v-100q-28 20 -100 20t-120 -40l310 -230l40 50v-130q-44 -65 -106.5 -97.5t-143.5 -32.5zM620 910h-626v90h626v-90zM658 50z
M808 50z" />
    <glyph glyph-name="u092D094DHalf" horiz-adv-x="700" 
d="M740 440h-330v-90q0 -40 -50 -40q-32 0 -111 65t-79 95q0 24 18 42t42 18h80v290q0 42 -25.5 71t-64.5 29q-36 0 -63 -19.5t-27 -50.5q0 -34 23 -57t57 -23v-100q-74 0 -127 53t-53 127q0 72 56.5 121t133.5 49q80 0 135 -59t55 -141v-290h330v-90zM770 910h-290v90h290
v-90z" />
    <glyph glyph-name="u092E094DHalf" horiz-adv-x="600" 
d="M670 910h-410v-350h380v-90h-380v-90q0 -40 -40 -40q-33 0 -111.5 69.5t-78.5 100.5q0 50 50 50h80v350h-166v90h676v-90z" />
    <glyph glyph-name="u092F094DHalf" horiz-adv-x="620" 
d="M390 200q-123 0 -221.5 103t-138.5 257q97 0 173.5 46.5t76.5 123.5q0 80 -100 180h-186v90h696v-90h-390q80 -80 80 -180q0 -95 -62.5 -163.5t-157.5 -76.5q32 -85 93.5 -137.5t136.5 -52.5q162 0 270 190v-140q-125 -150 -270 -150zM646 50z" />
    <glyph glyph-name="u093F_2" horiz-adv-x="400" 
d="M1820 1020h-120q-155 155 -402.5 232.5t-587.5 77.5q-182 0 -336 -64t-154 -176q0 -51 30 -90h220v-90h-220v-910h-100v910h-156v90h156q-30 39 -30 90q0 152 185 241t405 89q362 0 653.5 -102.5t456.5 -297.5z" />
    <glyph glyph-name="u093F_2_0902" horiz-adv-x="400" 
d="M1820 1020h-120q-155 155 -402.5 232.5t-587.5 77.5q-182 0 -336 -64t-154 -176q0 -51 30 -90h220v-90h-220v-910h-100v910h-156v90h156q-30 39 -30 90q0 152 185 241t405 89q362 0 653.5 -102.5t456.5 -297.5zM1829 1355q0 -65 -65 -65t-65 65t65 65t65 -65z" />
    <glyph glyph-name="u0932094DHalf" horiz-adv-x="812" 
d="M852 580q-105 0 -187.5 -73t-112.5 -187l-90 40q44 120 80 150q-77 90 -180 90q-81 0 -140.5 -52t-59.5 -128q0 -105 90.5 -197t229.5 -143l-40 -80q-166 60 -273 173.5t-107 246.5q0 119 88 199.5t212 80.5q130 0 250 -120q100 100 240 100v-100zM882 910h-888v90h888
v-90zM948 0z" />
    <glyph glyph-name="u0933094DHalf" horiz-adv-x="986" 
d="M778 210q68 0 109 67t41 153q0 78 -42 139t-108 61t-115 -61t-65 -149q16 -88 65 -149t115 -61zM328 210q50 0 95 55t85 165q-36 100 -81 150t-99 50q-70 0 -115 -64t-45 -146t45 -146t115 -64zM778 730q109 0 179.5 -89.5t70.5 -210.5q0 -128 -70 -224t-180 -96
q-74 0 -136.5 56.5t-93.5 143.5q-31 -87 -90.5 -143.5t-129.5 -56.5q-113 0 -186.5 92.5t-73.5 217.5t73.5 217.5t186.5 92.5q75 0 136.5 -52.5t93.5 -137.5q32 85 91 137.5t129 52.5zM1056 910h-1062v90h1062v-90zM1104 0z" />
    <glyph glyph-name="u0934094DHalf" horiz-adv-x="986" 
d="M778 210q68 0 109 67t41 153q0 78 -42 139t-108 61t-115 -61t-65 -149q16 -88 65 -149t115 -61zM328 210q50 0 95 55t85 165q-36 100 -81 150t-99 50q-70 0 -115 -64t-45 -146t45 -146t115 -64zM778 730q109 0 179.5 -89.5t70.5 -210.5q0 -128 -70 -224t-180 -96
q-74 0 -136.5 56.5t-93.5 143.5q-31 -87 -90.5 -143.5t-129.5 -56.5q-113 0 -186.5 92.5t-73.5 217.5t73.5 217.5t186.5 92.5q75 0 136.5 -52.5t93.5 -137.5q32 85 91 137.5t129 52.5zM1056 910h-1062v90h1062v-90zM1104 0zM611 54q0 -65 -65 -65t-65 65t65 65t65 -65z" />
    <glyph glyph-name="u0935094DHalf" horiz-adv-x="520" 
d="M340 220q-118 0 -199 82t-81 200t81 198t199 80q92 0 160 -40l-40 -90q-43 30 -120 30q-76 0 -128 -51t-52 -127q0 -79 51.5 -135.5t128.5 -56.5q50 0 105 35t115 105v-130q-100 -100 -220 -100zM590 910h-596v90h596v-90zM582 0z" />
    <glyph glyph-name="u0936094DHalf" horiz-adv-x="668" 
d="M254 330l310 -250l-60 -80l-460 390l60 70l100 -60q117 0 198.5 76t81.5 188q-54 -80 -150 -80q-101 0 -170.5 67.5t-69.5 168.5q0 98 70 164t170 66q121 0 185.5 -91t64.5 -249q0 -154 -93.5 -267t-236.5 -113zM194 820q0 -58 41 -99t99 -41q55 0 92.5 41.5t37.5 98.5
q0 56 -37 93t-93 37q-57 0 -98.5 -37.5t-41.5 -92.5z" />
    <glyph glyph-name="u0937094DHalf" horiz-adv-x="554" 
d="M544 450l-360 370v-260q0 -76 56 -128t134 -52q88 0 170 70zM624 910h-400l370 -380v-150q-127 -90 -220 -90q-120 0 -205 77.5t-85 192.5v350h-90v90h630v-90z" />
    <glyph glyph-name="u0938094DHalf" horiz-adv-x="786" 
d="M306 450q-46 0 -68 18q68 -110 155.5 -209.5t194.5 -188.5l-60 -70q-161 135 -288.5 302.5t-221.5 367.5l90 50q37 -90 79 -135t89 -45q43 0 71.5 28.5t28.5 71.5v270h-382v90h862v-90h-380v-270q0 -77 -49 -133.5t-121 -56.5zM816 480h-270l-50 100h320v-100z" />
    <glyph glyph-name="u0939094DHalf" horiz-adv-x="794" 
d="M864 910h-200v-240h-410q-70 0 -70 -40q0 -85 100 -120h550v-90h-420q-90 0 -160 -47.5t-70 -122.5q0 -71 136.5 -133t333.5 -97l-60 -70q-212 40 -361 120.5t-149 179.5q0 127 130 200q-130 61 -130 180q0 58 51.5 94t118.5 36h310v150h-570v90h870v-90z" />
    <glyph glyph-name="u0958094DHalf" horiz-adv-x="878" 
d="M338 210q-116 0 -198 74.5t-82 185.5q0 119 84.5 199.5t205.5 80.5q54 0 110 -20l-10 -90q-44 20 -100 20q-79 0 -134.5 -55.5t-55.5 -134.5q0 -68 53.5 -114t126.5 -46q48 0 93 35t87 105v460h-524v90h954v-90h-330v-270q76 110 210 110q36 0 90 -20v-110q-40 40 -90 40
q-77 0 -135.5 -57.5t-74.5 -142.5v-460h-100v300q-90 -90 -180 -90zM1058 490zM1126 0zM363 75q0 -65 -65 -65t-65 65t65 65t65 -65z" />
    <glyph glyph-name="u0959094DHalf" horiz-adv-x="986" 
d="M1026 440q-90 -90 -220 -90q-91 0 -155.5 60.5t-64.5 149.5q0 94 67 157t163 63q92 0 160 -40l-40 -90q-55 30 -120 30q-53 0 -91.5 -34.5t-38.5 -85.5q0 -47 35.5 -78.5t84.5 -31.5q127 0 220 110v-120zM397.5 499.5q-48.5 -59.5 -121.5 -59.5q-58 0 -70 20
q43 -165 153 -267.5t257 -102.5q129 0 231.5 55t178.5 165v-120q-80 -95 -182.5 -142.5t-227.5 -47.5q-215 0 -367 182t-203 468l70 40q71 -150 150 -150q35 0 57.5 29.5t22.5 70.5v270h-352v90h1062v-90h-610v-270q0 -81 -48.5 -140.5zM217 74q0 -65 -65 -65t-65 65t65 65
t65 -65z" />
    <glyph glyph-name="u095A094DHalf" horiz-adv-x="380" 
d="M450 910h-162v-510q0 -60 -40 -60q-42 0 -131 89t-89 131q0 30 10 45t30 15h80q40 0 40 60v230h-194v90h456v-90zM264 74q0 -65 -65 -65t-65 65t65 65t65 -65z" />
    <glyph glyph-name="u095B094DHalf" horiz-adv-x="900" 
d="M940 600h-300q80 -80 80 -180q0 -87 -68 -143.5t-162 -56.5q-142 0 -265.5 122.5t-194.5 317.5l90 40q60 -165 159.5 -272.5t210.5 -107.5q51 0 90.5 28t39.5 72q0 34 -42.5 101.5t-127.5 168.5h490v-90zM970 910h-976v90h976v-90zM485 75q0 -65 -65 -65t-65 65t65 65
t65 -65z" />
    <glyph glyph-name="u095E094DHalf" horiz-adv-x="884" 
d="M524 530v380h-340v-350q0 -67 46.5 -113.5t113.5 -46.5q92 0 180 130zM524 400q-77 -90 -180 -90q-108 0 -184 72t-76 178v350h-90v90h960v-90h-330v-290q93 110 190 110q55 0 110 -30v-100q-56 40 -110 40q-83 0 -190 -150v-490h-100v400zM359 74q0 -65 -65 -65t-65 65
t65 65t65 -65z" />
    <glyph glyph-name="u0936094D0930Half" horiz-adv-x="550" 
d="M720 380l-360 210q-146 -124 -290 -190l-50 70q184 106 260 170q-130 74 -130 200q0 80 59 135t141 55q85 0 147.5 -55t62.5 -135q0 -97 -110 -190l270 -160v-110zM460 840q0 39 -32.5 64.5t-77.5 25.5q-41 0 -70.5 -25.5t-29.5 -64.5q0 -86 110 -150q100 67 100 150z
" />
    <glyph glyph-name="u0924094D0930Half" horiz-adv-x="688" 
d="M728 400l-480 -320l-50 80l430 280q-143 131 -205 165.5t-105 34.5q-69 0 -240 -120l-60 80q222 150 300 150q84 0 186.5 -70t223.5 -210v-70zM758 910h-764v90h764v-90z" />
    <glyph glyph-name="u0924094D0924Half" horiz-adv-x="498" 
d="M668 640h-200q-74 0 -127 -49.5t-53 -120.5q0 -104 57.5 -204t172.5 -196l-70 -70q-130 109 -195 226.5t-65 243.5q0 90 80 170h-250v100h650v-100zM568 910h-574v90h574v-90z" />
    <glyph glyph-name="u0915094D0937Half" horiz-adv-x="822" 
d="M462 830q0 48 -31 79t-79 31q-49 0 -84.5 -31.5t-35.5 -78.5q0 -97 110 -150q120 58 120 150zM862 590q-136 -80 -270 -80q-148 0 -260 80q-85 -39 -127.5 -86.5t-42.5 -103.5q0 -71 53 -120.5t127 -49.5q18 0 60 20q0 55 27.5 97.5t72.5 42.5q39 0 64.5 -29t25.5 -71
q0 -48 -60 -100q31 -69 90 -120l-70 -60q-44 30 -120 140q-35 -10 -80 -10q-116 0 -198 74.5t-82 185.5q0 80 49 145t131 95q-120 86 -120 190q0 89 64.5 149.5t155.5 60.5q87 0 148.5 -61t61.5 -149q0 -121 -120 -190q84 -40 150 -40q143 0 270 90v-100zM892 910h-240v90
h240v-90zM740 0z" />
    <glyph glyph-name="u091C094D091EHalf" horiz-adv-x="720" 
d="M760 670h-540q-40 0 -40 -40q0 -44 48 -92t92 -48q32 0 95 15t95 15q60 0 100 -40t40 -100q0 -100 -85 -174.5t-205 -95.5q28 -28 170 -110l-80 -50q-138 80 -210 140q-90 0 -135 27.5t-45 82.5q0 40 22.5 60t67.5 20q64 0 130 -100q111 20 190.5 74t79.5 126
q0 40 -40 40q-32 0 -95 -15t-95 -15q-82 0 -161 79t-79 161q0 55 41.5 92.5t98.5 37.5h540v-90zM790 910h-796v90h796v-90z" />
    <glyph glyph-name="u093F0902" horiz-adv-x="400" 
d="M1010 1020h-110q-83 142 -204.5 226t-255.5 84q-90 0 -155 -57t-65 -143q0 -91 30 -130h220v-90h-220v-910h-100v910h-156v90h156q-30 39 -30 130q0 123 94.5 206.5t225.5 83.5q162 0 312.5 -108t257.5 -292zM1095 1329q0 -65 -65 -65t-65 65t65 65t65 -65z" />
    <glyph glyph-name="u093F0930094D" horiz-adv-x="400" 
d="M1000 1020h-100q-83 142 -204.5 226t-255.5 84q-90 0 -155 -57t-65 -143q0 -91 30 -130h220v-90h-220v-910h-100v910h-156v90h156q-30 39 -30 130q0 123 94.5 206.5t225.5 83.5q191 0 374 -158q16 80 83 129t153 49q54 0 110 -20v-90q-82 30 -110 30q-59 0 -99.5 -40.5
t-40.5 -99.5q0 -42 14 -80q22 -26 76 -120z" />
    <glyph glyph-name="u093F0930094D0902" horiz-adv-x="400" 
d="M1000 1020h-100q-83 142 -204.5 226t-255.5 84q-90 0 -155 -57t-65 -143q0 -91 30 -130h220v-90h-220v-910h-100v910h-156v90h156q-30 39 -30 130q0 123 94.5 206.5t225.5 83.5q191 0 374 -158q16 80 83 129t153 49q54 0 110 -20v-90q-82 30 -110 30q-59 0 -99.5 -40.5
t-40.5 -99.5q0 -42 14 -80q22 -26 76 -120zM1151 1177q0 -65 -65 -65t-65 65t65 65t65 -65z" />
    <glyph glyph-name="u093F_3" horiz-adv-x="400" 
d="M870 1020h-90q-63 134 -159 217t-201 83q-87 0 -153.5 -47.5t-66.5 -122.5q0 -82 60 -150h210v-90h-220v-910h-100v910h-156v90h156q-50 50 -50 150q0 113 96 186.5t224 73.5q144 0 265.5 -109.5t184.5 -280.5z" />
    <glyph glyph-name="u093F_3_0902" horiz-adv-x="400" 
d="M870 1020h-90q-63 134 -159 217t-201 83q-87 0 -153.5 -47.5t-66.5 -122.5q0 -82 60 -150h210v-90h-220v-910h-100v910h-156v90h156q-50 50 -50 150q0 113 96 186.5t224 73.5q144 0 265.5 -109.5t184.5 -280.5zM940 1386q0 -65 -65 -65t-65 65t65 65t65 -65z" />
    <glyph glyph-name="u093F_3_0930094D" horiz-adv-x="400" 
d="M870 1020h-90q-63 134 -159 217t-201 83q-87 0 -153.5 -47.5t-66.5 -122.5q0 -82 60 -150h210v-90h-220v-910h-100v910h-156v90h156q-50 50 -50 150q0 113 96 186.5t224 73.5q158 0 294 -136q28 73 84.5 109.5t141.5 36.5q54 0 110 -20v-90q-55 30 -110 30
q-59 0 -99.5 -40.5t-40.5 -99.5q0 -28 2 -40q40 -66 68 -140z" />
    <glyph glyph-name="u093F_3_0930094D0902" horiz-adv-x="400" 
d="M870 1020h-90q-63 134 -159 217t-201 83q-87 0 -153.5 -47.5t-66.5 -122.5q0 -82 60 -150h210v-90h-220v-910h-100v910h-156v90h156q-50 50 -50 150q0 113 96 186.5t224 73.5q158 0 294 -136q28 73 84.5 109.5t141.5 36.5q54 0 110 -20v-90q-55 30 -110 30
q-59 0 -99.5 -40.5t-40.5 -99.5q0 -28 2 -40q40 -66 68 -140zM1021 1167q0 -65 -65 -65t-65 65t65 65t65 -65z" />
    <glyph glyph-name="u09400902" horiz-adv-x="400" 
d="M470 910h-220v-910h-100v910h-156v90h156q-38 138 -108 234t-152 96q-53 0 -86.5 -38.5t-33.5 -91.5q0 -80 100 -180h-110q-90 90 -90 180q0 93 63.5 156.5t156.5 63.5q117 0 214.5 -121.5t145.5 -298.5h220v-90zM361 1343q0 -65 -65 -65t-65 65t65 65t65 -65z" />
    <glyph glyph-name="u09400930094D" horiz-adv-x="400" 
d="M470 910h-220v-910h-100v910h-156v90h156q-26 138 -91 234t-149 96q-57 0 -98.5 -37.5t-41.5 -92.5q0 -80 100 -180h-110q-90 90 -90 180q0 98 70 164t170 66q119 0 230 -150q26 70 81 105t139 35q54 0 110 -20v-90q-82 30 -110 30q-65 0 -107.5 -54t-42.5 -126
q40 -110 40 -160h220v-90z" />
    <glyph glyph-name="u09400930094D0902" horiz-adv-x="400" 
d="M470 910h-220v-910h-100v910h-156v90h156q-26 138 -91 234t-149 96q-57 0 -98.5 -37.5t-41.5 -92.5q0 -80 100 -180h-110q-90 90 -90 180q0 98 70 164t170 66q119 0 230 -150q26 70 81 105t139 35q54 0 110 -20v-90q-82 30 -110 30q-65 0 -107.5 -54t-42.5 -126
q40 -110 40 -160h220v-90zM451 1163q0 -65 -65 -65t-65 65t65 65t65 -65z" />
    <glyph glyph-name="u0940_2" horiz-adv-x="400" 
d="M470 910h-220v-910h-100v910h-156v90h156q-55 150 -186.5 240t-293.5 90q-89 0 -159.5 -44t-70.5 -116q0 -112 80 -180h-110q-70 58 -70 180q0 111 99.5 180.5t230.5 69.5q195 0 354 -115.5t226 -304.5h220v-90z" />
    <glyph glyph-name="u0940_2_0902" horiz-adv-x="400" 
d="M470 910h-220v-910h-100v910h-156v90h156q-55 150 -186.5 240t-293.5 90q-89 0 -159.5 -44t-70.5 -116q0 -112 80 -180h-110q-70 58 -70 180q0 111 99.5 180.5t230.5 69.5q195 0 354 -115.5t226 -304.5h220v-90zM329 1343q0 -65 -65 -65t-65 65t65 65t65 -65z" />
    <glyph glyph-name="u0940_2_0930094D" horiz-adv-x="400" 
d="M470 910h-220v-910h-100v910h-156v90h156q-55 150 -186.5 240t-293.5 90q-89 0 -159.5 -44t-70.5 -116q0 -112 80 -180h-110q-70 58 -70 180q0 111 99.5 180.5t230.5 69.5q261 0 442 -194q11 86 78.5 140t159.5 54q54 0 110 -20v-90q-82 30 -110 30q-59 0 -99.5 -40.5
t-40.5 -99.5q0 -128 56 -200h204v-90z" />
    <glyph glyph-name="u0940_2_0930094D0902" horiz-adv-x="400" 
d="M470 910h-220v-910h-100v910h-156v90h156q-55 150 -186.5 240t-293.5 90q-89 0 -159.5 -44t-70.5 -116q0 -112 80 -180h-110q-70 58 -70 180q0 111 99.5 180.5t230.5 69.5q261 0 442 -194q11 86 78.5 140t159.5 54q54 0 110 -20v-90q-82 30 -110 30q-59 0 -99.5 -40.5
t-40.5 -99.5q0 -128 56 -200h204v-90zM439 1175q0 -65 -65 -65t-65 65t65 65t65 -65z" />
    <glyph glyph-name="u0941_2" horiz-adv-x="0" 
d="M-702 -360l50 60q65 -65 152.5 -97.5t197.5 -32.5q80 0 140 31t60 87q0 72 -80 72q-92 0 -146 -94l-54 54q74 120 200 120q69 0 114.5 -40.5t45.5 -105.5q0 -95 -80 -149.5t-200 -54.5q-137 0 -237 37.5t-163 112.5z" />
    <glyph glyph-name="u0942_2" horiz-adv-x="0" 
d="M310 -450l-70 -50q-106 125 -216 187.5t-224 62.5q-110 0 -110 -82q0 -78 159 -78h21l-50 -80q-83 0 -151.5 44.5t-68.5 113.5q0 73 59 117.5t141 44.5q138 0 265.5 -70t244.5 -210z" />
    <glyph glyph-name="u0941_3" horiz-adv-x="0" 
d="M-730 -300l50 70q122 -95 226.5 -142.5t191.5 -47.5q84 0 143 34t59 96q0 52 -41 86t-99 34q-63 0 -160 -80l-60 60q121 100 220 100q90 0 155 -57t65 -143q0 -100 -79 -155t-203 -55q-103 0 -220 50t-248 150z" />
    <glyph glyph-name="u0942_3" horiz-adv-x="0" 
d="M250 -420l-80 -40q-77 133 -180.5 211.5t-209.5 78.5q-49 0 -84.5 -31.5t-35.5 -78.5q0 -43 32 -71.5t78 -28.5q72 0 120 40l40 -70q-71 -50 -160 -50q-81 0 -140.5 52t-59.5 128q0 80 62.5 135t147.5 55q134 0 258 -88.5t212 -241.5z" />
    <glyph glyph-name="u0935Below" horiz-adv-x="0" 
d="M-160 -530h-100v120q-92 -80 -220 -80q-104 0 -177 65.5t-73 164.5q0 95 74 157.5t176 62.5q87 0 170 -50l-40 -90q-64 40 -130 40q-60 0 -105 -33.5t-45 -86.5q0 -56 44 -93t106 -37q131 0 220 110v360h100v-610z" />
    <glyph glyph-name="u092FAlt" horiz-adv-x="940" 
d="M460 150q-130 0 -227.5 94t-122.5 236h100q180 0 180 110q0 46 -45.5 73t-104.5 27t-175 -20t-175 -20v100q59 0 175 20t175 20q101 0 175.5 -56t74.5 -144q0 -90 -70 -140t-180 -50q25 -71 85.5 -115.5t134.5 -44.5q79 0 142.5 40.5t87.5 109.5v520h-838v90h1158v-90
h-220v-910h-100v250q-83 -100 -230 -100z" />
    <glyph glyph-name="u0930094DHalf" horiz-adv-x="432" 
d="M302 440q-124 0 -280 90v90q172 -80 280 -80q62 0 170 50v-110q-84 -40 -170 -40zM502 910h-508v90h508v-90z" />
    <glyph glyph-name="u0932Alt" horiz-adv-x="1030" 
d="M856 360q0 88 -38 159t-102 71q-65 0 -119 -78.5t-81 -191.5l-90 30q16 72 50 140q-61 100 -160 100q-66 0 -108 -57.5t-42 -132.5q0 -101 69.5 -187.5t180.5 -132.5l-40 -80q-138 59 -224 167t-86 233q0 118 71 204t179 86q144 0 220 -110q60 90 150 110v220h-692v90
h1106v-90h-314v-220q81 -25 125.5 -118t44.5 -212q0 -206 -230 -360l-60 80q190 127 190 280z" />
    <glyph glyph-name="u0915094D0930" horiz-adv-x="1156" 
d="M302 212q-93 12 -153.5 86t-60.5 172q0 123 87.5 206.5t212.5 83.5q76 0 100 -20l-20 -100q-36 20 -80 20q-82 0 -141 -55t-59 -135q0 -67 46.5 -113.5t113.5 -46.5q63 0 113 32.5t87 97.5v470h-554v90h1232v-90h-578v-270q69 120 210 120q100 0 165 -79.5t65 -190.5
q0 -199 -190 -360l-90 60q180 129 180 300q0 67 -36 118.5t-94 51.5q-73 0 -130.5 -54t-79.5 -136v-470h-100v292l-430 -322l-60 70z" />
    <glyph glyph-name="u0916094D0930" horiz-adv-x="1232" 
d="M602 150q60 0 155 37.5t225 112.5v110q-82 -70 -180 -70q-91 0 -155.5 60.5t-64.5 149.5q0 90 68 150t162 60q72 0 140 -30l-30 -90q-47 30 -110 30q-53 0 -91.5 -34.5t-38.5 -85.5q0 -50 35 -85t85 -35q83 0 180 80v400h-550v-220q0 -89 -50.5 -154.5t-129.5 -65.5
q-18 0 -60 20q39 -149 152 -244.5t258 -95.5zM522 70q-173 28 -289 160.5t-191 419.5l70 50q48 -140 120 -140q44 0 72 39.5t28 90.5v220h-338v90h1308v-90h-220v-910h-100v200l-730 -360l-40 80z" />
    <glyph glyph-name="u0917094D0930" horiz-adv-x="796" 
d="M546 910h-250v-490q0 -60 -50 -60q-41 0 -120.5 93.5t-79.5 136.5q0 20 10 30t30 10h70q40 0 40 50v230h-202v90h872v-90h-220v-910h-100v274l-460 -244l-40 80l500 264v536z" />
    <glyph glyph-name="u091C094D0930" horiz-adv-x="1090" 
d="M840 600h-250q70 -99 70 -170q0 -83 -58.5 -141.5t-141.5 -58.5q-131 0 -246 117t-184 303l90 40q58 -156 149 -258t191 -102q43 0 71.5 28.5t28.5 71.5q0 60 -37.5 127.5t-112.5 142.5h430v210h-846v90h1166v-90h-220v-910h-100v230l-470 -250l-40 80l510 260v280z" />
    <glyph glyph-name="u091D094D0930" horiz-adv-x="1108" 
d="M858 500v410h-280v-240h-350q-50 0 -50 -30q0 -38 47 -94t83 -56q29 0 85 15t85 15q72 0 100 -20q56 -40 150 -40q44 0 130 40zM858 400q-68 -30 -110 -30q-48 0 -130 30q0 -119 -57.5 -189t-172.5 -91q79 -66 170 -100l-70 -90q-132 62 -220 150q-79 0 -144.5 32.5
t-65.5 87.5q0 35 29.5 57.5t70.5 22.5q94 0 160 -100q84 17 142 63t58 107q0 80 -50 80q-29 0 -85 -20q-55 -20 -85 -20q-60 0 -140 94t-80 156q0 53 45 86.5t105 33.5h250v150h-484v90h1184v-90h-220v-910h-100v160l-230 -120l-50 70l280 130v160zM1098 -50z" />
    <glyph glyph-name="u0924094D0930" horiz-adv-x="810" 
d="M560 370l-360 -240l-50 80l362 240q-140 140 -222 140q-113 0 -210 -80l-60 80q121 100 270 100q110 0 270 -160v380h-566v90h886v-90h-220v-910h-100v370z" />
    <glyph glyph-name="u0926094D0930" horiz-adv-x="822" 
d="M892 910h-214v-260h-370q-61 0 -105.5 -40.5t-44.5 -99.5q0 -104 98.5 -182t211.5 -78q42 0 60 10q-30 43 -30 80q0 43 32.5 71.5t77.5 28.5q48 0 79 -31t31 -79q0 -73 -80 -120q36 -98 130 -210l-100 -40q-77 77 -130 220l-330 -260l-70 70l250 180q-144 39 -237 131
t-93 209q0 102 73 171t177 69h270v160h-584v90h898v-90z" />
    <glyph glyph-name="u092Q094D0930" horiz-adv-x="866" 
d="M936 910h-220v-910h-100v380l-500 -380l-60 80l300 220q-97 24 -158.5 92.5t-61.5 157.5v360h-142v90h942v-90zM616 490v420h-380v-360q0 -70 50 -120t114 -50q45 1 66 10z" />
    <glyph glyph-name="u092B094D0930" horiz-adv-x="1198" 
d="M566 530v380h-350v-350q0 -59 44.5 -99.5t105.5 -40.5q124 0 200 110zM566 410q-90 -90 -200 -90q-104 0 -177 69t-73 171v350h-122v90h1274v-90h-602v-280q84 100 210 100q108 0 179 -82.5t71 -197.5q0 -180 -130 -340l-90 50q120 120 120 290q0 72 -42.5 126t-107.5 54
q-110 0 -210 -120v-510h-100v222l-450 -212l-40 80l490 232v88z" />
    <glyph glyph-name="u092C094D0930" horiz-adv-x="826" 
d="M356 320q72 0 120 40l-270 220q-30 -38 -30 -100q0 -68 53.5 -114t126.5 -46zM310 232q-101 23 -167.5 91t-66.5 157q0 123 87.5 206.5t212.5 83.5q75 0 130 -30l-30 -80q-44 20 -100 20q-89 0 -120 -40l290 -220l30 40v450h-582v90h902v-90h-220v-910h-100v300
l-450 -300l-50 80z" />
    <glyph glyph-name="u092D094D0930" horiz-adv-x="990" 
d="M740 430h-330v-80q0 -40 -50 -40q-32 0 -106 74t-74 106q0 20 12.5 30t37.5 10h80v290q0 42 -25.5 71t-64.5 29q-36 0 -63 -19.5t-27 -50.5q0 -34 23 -57t57 -23v-100q-74 0 -127 53t-53 127q0 72 56.5 121t133.5 49q80 0 135 -59t55 -141v-290h330v380h-260v90h580v-90
h-220v-910h-100v250l-470 -250l-40 80l510 260v90z" />
    <glyph glyph-name="u092E094D0930" horiz-adv-x="874" 
d="M624 580v330h-360v-330h360zM624 480h-350v-70q0 -60 -40 -60q-35 0 -117.5 73.5t-82.5 106.5q0 50 50 50h80v330h-170v90h950v-90h-220v-910h-100v238l-450 -248l-50 80l500 260v150z" />
    <glyph glyph-name="u0935094D0930" horiz-adv-x="832" 
d="M320 224q-107 16 -177.5 90t-70.5 176q0 116 88 193t212 77q74 0 130 -40l-50 -80q-38 30 -80 30q-81 0 -140.5 -52t-59.5 -128q0 -73 59.5 -121.5t140.5 -48.5q62 0 114.5 37.5t95.5 112.5v440h-588v90h908v-90h-220v-910h-100v310l-440 -310l-50 80z" />
    <glyph glyph-name="u0938094D0930" horiz-adv-x="1178" 
d="M458 640q0 -75 -42 -132.5t-108 -57.5q-35 0 -50 10l280 -410l-80 -50l-430 640l80 70q39 -85 79 -127.5t81 -42.5q39 0 64.5 29.5t25.5 70.5v270h-364v90h1254v-90h-220v-910h-100v320l-410 -160l-40 90l450 160v80h-350l-40 90h390v330h-470v-270z" />
    <glyph glyph-name="u0939094D0930" horiz-adv-x="830" 
d="M900 910h-206v-260h-440q-30 0 -30 -40q0 -24 32 -62.5t58 -53.5q78 26 156 26q115 0 199.5 -57.5t84.5 -152.5q0 -136 -100 -220l-80 70q80 55 80 150q0 44 -40 78l-210 -250l-80 60l190 230q-21 6 -42 6q-121 0 -199.5 -51t-78.5 -143q0 -156 146 -253t334 -97v-90
q-230 0 -405 126t-175 324q0 61 36.5 118.5t93.5 85.5q-120 99 -120 186q0 47 31.5 78.5t78.5 31.5h380v160h-600v90h906v-90z" />
    <glyph glyph-name="u0936094D0930Alt" horiz-adv-x="940" 
d="M1010 910h-220v-910h-100v448l-294 122l-300 -200l-66 76l276 178q-138 78 -138 206q0 80 54 135t134 55q82 0 141 -55t59 -135q0 -110 -96 -190l230 -96v366h-70v90h390v-90zM456 830q0 43 -28.5 71.5t-71.5 28.5q-39 0 -64.5 -29t-25.5 -71q0 -98 110 -130
q80 55 80 130z" />
    <glyph glyph-name="u0915094D0915" horiz-adv-x="1168" 
d="M198 430q-60 22 -90 62t-30 98q0 85 79.5 137.5t180.5 52.5q91 0 190 -70l-50 -70q-71 50 -140 50q-63 0 -111.5 -27t-48.5 -73t52 -73t118 -27q65 0 115 17.5t85 52.5v350h-554v90h1244v-90h-590v-230q93 110 220 110q85 0 147.5 -55t62.5 -135q0 -100 -60 -160
q60 -34 60 -110q0 -125 -160 -260l-60 80q120 69 120 180q0 39 -32.5 64.5t-77.5 25.5q-60 0 -115 -30t-105 -90v-300h-100v230q-83 -100 -240 -100q-89 0 -159.5 44t-70.5 116q0 48 30 83t90 57zM648 560v-140q77 90 210 90q67 0 80 -10q40 32 40 100q0 39 -32.5 64.5
t-77.5 25.5q-73 0 -128 -32.5t-92 -97.5zM548 350v100q-31 -15 -170 -40q-76 -14 -138 -47t-62 -73q0 -32 41 -51t89 -19q83 0 143 32.5t97 97.5z" />
    <glyph glyph-name="u0915094D0924" horiz-adv-x="1222" 
d="M598 550h-240q-57 -10 -93.5 -58.5t-36.5 -111.5q0 -87 60 -164.5t180 -145.5l-50 -70q-131 76 -210.5 177.5t-79.5 202.5q0 130 80 170h-180v90h570v270h-604v90h1298v-90h-594v-310q71 50 170 50q117 0 198.5 -77.5t81.5 -192.5q0 -209 -100 -330l-80 40q80 112 80 290
q0 76 -52 128t-128 52q-112 0 -170 -70v-490h-100v550z" />
    <glyph glyph-name="u0915094D0932" horiz-adv-x="1143" 
d="M541 360q-90 -90 -211 -90q-112 0 -191.5 76.5t-79.5 188.5q0 111 81 188.5t190 77.5q92 0 159 -31l-28 -90q-41 20 -131 20q-70 0 -120 -49.5t-50 -120.5q0 -62 47.5 -110.5t122.5 -48.5q53 0 99 18.5t79 61.5t33 59v399h-547v90h1219v-90h-574v-198q80 90 190 90
q103 0 171.5 -83t68.5 -198q0 -142 -119 -239l-80 59q101 85 101 180q0 68 -40.5 124t-101.5 56q-56 0 -99.5 -30t-67 -74.5t-23.5 -65.5v-380q62 51 152 51q83 0 140.5 -51t57.5 -130t-53.5 -146t-134.5 -103l-62 79q76 26 114 67t38 97q0 36 -30.5 61t-74.5 25
q-57 0 -107 -36t-93 -107l-86 63q25 36 41 52q-64 28 -121 28t-103.5 -33.5t-46.5 -86.5q0 -46 63 -81.5t136 -48.5l-18 -90q-124 25 -202.5 85t-78.5 135q0 92 76 151t174 59q65 0 121 -30v200z" />
    <glyph glyph-name="u0915094D0935" horiz-adv-x="1148" 
d="M256 380q-72 18 -116 79.5t-44 140.5q0 103 76 171.5t184 68.5q89 0 160 -50l-40 -80q-55 30 -120 30q-66 0 -113 -40t-47 -100q0 -63 47.5 -106.5t112.5 -43.5q56 0 103.5 22.5t86.5 67.5v370h-552v90h1224v-90h-572v-240q88 130 230 130q91 0 150.5 -71t59.5 -169
q0 -101 -60 -192.5t-160 -147.5l-60 80q90 51 135 116t45 144q0 55 -30.5 97.5t-79.5 42.5q-73 0 -134.5 -59t-95.5 -151v-490h-100v150q-119 -140 -260 -140q-74 0 -127 49.5t-53 120.5q0 70 41 126t109 74zM546 280v130q-141 -26 -240.5 -88.5t-99.5 -141.5q0 -34 23 -57
t57 -23q78 0 143 45t117 135z" />
    <glyph glyph-name="u0917094D0928" horiz-adv-x="788" 
d="M538 910h-250v-420q0 -60 -40 -60q-42 0 -116 69.5t-74 110.5q0 20 15 30t45 10q35 0 52.5 15t17.5 45v200h-194v90h864v-90h-220v-910h-100v390l-230 -170q-30 -22 -30 -40l25 -33q25 -33 25 -57q0 -41 -124 -41q-56 0 -106 22.5t-50 58.5q0 25 90 90l400 290v400z" />
    <glyph glyph-name="u0919094D0915" horiz-adv-x="1062" 
d="M466 200q-122 0 -229.5 55t-200.5 165l70 60q70 -100 175 -150t245 -50q82 0 146 38.5t64 101.5q0 39 -29 64.5t-71 25.5l-110 -40q-28 -10 -50.5 -15t-39.5 -5q-72 0 -156 66t-84 134q0 56 44 93t106 37h330v130h-682v90h1138v-90h-356v-220h-430q-50 0 -50 -40
q0 -33 51.5 -66.5t88.5 -33.5q36 0 90 20q82 30 110 30q82 0 141 -55t59 -135q0 -93 -85 -151.5t-195 -58.5v-150q112 80 200 80q74 0 132 -38.5t58 -101.5q0 -62 -57.5 -116.5t-142.5 -83.5l-50 80q150 53 150 120q0 60 -90 60q-58 0 -200 -100v-200h-90v150
q-82 -70 -210 -70q-83 0 -146.5 41.5t-63.5 108.5q0 73 59.5 121.5t140.5 48.5q100 0 160 -60l-60 -70q-48 40 -100 40q-44 0 -77 -22t-33 -58q0 -28 38 -44t82 -16q127 0 210 100v180zM1031 625q0 -65 -65 -65t-65 65t65 65t65 -65z" />
    <glyph glyph-name="u0919094D0916" horiz-adv-x="1070" 
d="M260 260q-53 29 -100.5 69t-89.5 91l40 60q88 -105 203 -157.5t257 -52.5q78 0 139 42t61 108q0 35 -29.5 57.5t-70.5 22.5q-17 0 -100 -30q-55 -20 -110 -20q-79 0 -164.5 64t-85.5 136q0 56 44 93t106 37h340v130h-706v90h1146v-90h-340v-220h-440q-50 0 -50 -40
q0 -31 52.5 -65.5t87.5 -34.5q51 0 135 25t99 25q59 0 126 -52q60 -52 60 -128q0 -121 -120 -190v-410h-90v140q-57 -70 -130 -70q-64 0 -112 34.5t-48 89.5t48 90.5t112 35.5q36 0 90 -20l-30 -70q-28 10 -60 10q-70 0 -70 -46q0 -44 70 -44q74 0 130 100v130
q-54 -20 -90 -20q-122 0 -230 40q0 -72 -33 -131t-87 -59q-34 0 -50 20q68 -144 210 -170l-40 -80q-115 21 -196 118t-104 232l90 20q0 -24 18 -42t42 -18q32 0 51 47t19 103zM1045 625q0 -65 -65 -65t-65 65t65 65t65 -65z" />
    <glyph glyph-name="u0919094D0917" horiz-adv-x="1022" 
d="M272 240q-79 29 -141.5 71.5t-108.5 98.5l60 60q95 -95 202.5 -142.5t227.5 -47.5q76 0 138 32.5t62 87.5q0 37 -16.5 68.5t-43.5 31.5q-42 0 -125 -20q-82 -20 -125 -20q-77 0 -163.5 60.5t-86.5 129.5q0 57 48 93.5t112 36.5h340v130h-658v90h1098v-90h-340v-220h-440
q-60 0 -60 -40q0 -33 60.5 -66.5t99.5 -33.5q41 0 120 20t120 20q69 0 114.5 -56.5t45.5 -133.5q0 -103 -100 -160v-420h-90v380q-45 -10 -110 -10q-76 0 -150 20v-270q0 -50 -30 -50q-33 0 -101.5 50t-68.5 80t40 30h50q20 0 20 20v170zM997 625q0 -65 -65 -65t-65 65
t65 65t65 -65z" />
    <glyph glyph-name="u0919094D0918" horiz-adv-x="1018" 
d="M260 240q-36 6 -96 51t-144 129l70 60q83 -100 183 -150t217 -50q85 0 152.5 35t67.5 95q0 36 -19.5 63t-50.5 27q-39 0 -115 -20t-115 -20q-76 0 -158 60.5t-82 129.5q0 56 44 93t106 37h340v130h-666v90h1094v-90h-328v-220h-440q-50 0 -50 -40q0 -33 51.5 -66.5
t88.5 -33.5q41 0 120 20q80 20 120 20q68 0 114 -53.5t46 -126.5q0 -145 -120 -190v-440h-90v100q-77 -90 -180 -90q-74 0 -132 38.5t-58 101.5q0 80 50 80q-47 0 -78.5 35.5t-31.5 84.5q0 97 90 110zM1001 625q0 -65 -65 -65t-65 65t65 65t65 -65zM600 0v200l-110 -20
q-56 0 -130 20q-41 0 -70.5 -22.5t-29.5 -57.5q0 -31 27 -50.5t63 -19.5q36 20 70 20l20 -70q-40 0 -75 -16.5t-35 -43.5q0 -60 90 -60q81 0 180 120z" />
    <glyph glyph-name="u0919094D092E" horiz-adv-x="1064" 
d="M322 230q-92 25 -167 72.5t-133 117.5l70 70q88 -105 205.5 -157.5t264.5 -52.5q74 0 132 36t58 94q0 34 -23 57t-57 23q-43 0 -130 -15q-86 -15 -130 -15q-60 0 -135 66t-75 124q0 56 44 93t106 37h340v130h-698v90h1140v-90h-342v-220h-440q-50 0 -50 -40q0 -28 40 -59
t70 -31q44 0 130 15q87 15 130 15q74 0 127 -49.5t53 -120.5q0 -120 -70 -160v-480h-100v150h-270v-90q0 -20 -20 -20q-28 0 -94 66t-66 94q0 15 10 22.5t30 7.5h50v220zM1041 625q0 -65 -65 -65t-65 65t65 65t65 -65zM682 10v200q-74 -20 -140 -20q-74 0 -130 10v-190h270z
" />
    <glyph glyph-name="u0919094D0915094D0937" horiz-adv-x="1062" 
d="M254 408q-50 26 -95.5 56.5t-86.5 65.5l70 70q86 -90 193.5 -135t236.5 -45q74 0 137 27t63 73q0 10 -9 15t-26 5q-31 0 -105 -16q-64 -14 -100 -14q-61 0 -160.5 68t-99.5 122q0 49 45 79.5t105 30.5h260v100h-688v90h1138v-90h-350v-190h-360q-50 0 -50 -20
q0 -32 66 -71t104 -39q33 0 95 20q63 20 95 20q55 0 97.5 -30.5t42.5 -79.5q0 -90 -70 -130v-530h-100v210q-64 -30 -150 -30q-164 0 -280 40q-110 -32 -110 -100q0 -38 46.5 -59t103.5 -21q-10 15 -10 20q0 31 27 50.5t63 19.5q45 0 77.5 -25.5t32.5 -64.5q0 -48 -70 -70
l100 -70l-80 -30q-30 14 -120 90q-101 0 -185.5 43.5t-84.5 116.5q0 56 33 101t87 59q-100 48 -100 110q0 61 50 104.5t122 53.5zM1037 705q0 -65 -65 -65t-65 65t65 65t65 -65zM702 150v190q-56 -20 -130 -20q-48 0 -94 8q24 -24 24 -48q0 -103 -100 -140q77 -30 140 -30
q88 0 160 40zM282 170q49 0 84.5 28t35.5 72q0 27 -35 43.5t-75 16.5q-44 0 -77 -22t-33 -58q0 -41 100 -80z" />
    <glyph glyph-name="u091A094D091A" horiz-adv-x="974" 
d="M434 140q-79 0 -139.5 45t-60.5 115q0 42 30 80h-230v100h220q-20 28 -20 70q0 66 60 100h-260v100h550v-100h-130q-130 -36 -130 -100q0 -38 40 -70h180v-100h-150q-70 -26 -70 -80q0 -32 33 -51t77 -19q88 0 166 78.5t124 201.5v400h-730v90h1050v-90h-220v-910h-100
v350q-60 -105 -132.5 -157.5t-157.5 -52.5z" />
    <glyph glyph-name="u091B094D0935" horiz-adv-x="1004" 
d="M758 760q-44 0 -77 -22t-33 -58q0 -93 110 -150q100 52 100 160q0 31 -31 50.5t-69 19.5zM798 850q67 -8 113.5 -53t46.5 -107q0 -95 -57.5 -167.5t-172.5 -122.5v-600h-100v160q-80 -80 -220 -80q-103 0 -181.5 52.5t-78.5 137.5q0 92 78.5 151t181.5 59q66 0 130 -30
v-110q-64 40 -130 40q-59 0 -104.5 -27t-45.5 -73q0 -49 45 -79.5t105 -30.5q65 0 120 27.5t100 82.5v280q-124 -22 -190 -22q-123 0 -221.5 58t-98.5 154q0 100 80 140q-70 22 -105 57t-35 83q0 32 40 80h-104v90h1080v-90h-276v-60zM698 850v60h-460q-80 -31 -80 -80
q0 -38 57 -59t123 -21h90v-90h-70q-53 0 -91.5 -31t-38.5 -79q0 -55 65.5 -87.5t144.5 -32.5q147 0 230 50q-120 90 -120 200q0 62 42 109t108 61z" />
    <glyph glyph-name="u091C094D091C" horiz-adv-x="1160" 
d="M910 670h-370q20 -16 20 -80q0 -78 -52 -134t-128 -56q-101 0 -191.5 98t-148.5 252l90 20q52 -140 112 -210t128 -70q41 0 65.5 46.5t24.5 103.5q0 31 -12.5 61t-37.5 59h500v150h-916v90h1236v-90h-220v-910h-100v450l-204 -102q44 -38 44 -98q0 -106 -82 -173
t-198 -67q-98 0 -185.5 67.5t-164.5 202.5l80 40q62 -110 129.5 -165t140.5 -55q71 0 120.5 42t49.5 108q0 34 -21 63t-63 53l354 174v130z" />
    <glyph glyph-name="u091E094D091A" horiz-adv-x="1082" 
d="M832 600h-280q-14 -84 -82 -137t-158 -53q-171 0 -290 140l60 70q86 -120 230 -120q60 0 100 47t40 113q0 39 -29 64.5t-71 25.5q-62 0 -150 -50l-50 90q104 60 180 60q82 0 144.5 -43.5t75.5 -116.5h280v220h-838v90h1158v-90h-220v-910h-100v180q-188 -180 -320 -180
q-64 0 -107 50t-43 120q0 46 20 70l-180 -100l-60 70l430 240l40 -90q-160 -58 -160 -190q0 -80 60 -80q141 0 320 208v302z" />
    <glyph glyph-name="u091E094D091C" horiz-adv-x="1082" 
d="M832 600h-280q-14 -84 -82 -137t-158 -53q-171 0 -290 140l60 70q86 -120 230 -120q60 0 100 47t40 113q0 39 -29 64.5t-71 25.5q-62 0 -150 -50l-50 90q104 60 180 60q82 0 144.5 -43.5t75.5 -116.5h280v220h-838v90h1158v-90h-220v-910h-100v420l-204 -102
q44 -38 44 -98q0 -106 -82 -173t-198 -67q-196 0 -350 270l80 40q125 -220 270 -220q71 0 120.5 42t49.5 108q0 34 -21 63t-63 53l354 174v90z" />
    <glyph glyph-name="u091F094D091F" horiz-adv-x="834" 
d="M578 240v106q-42 -6 -78 -6q-181 0 -300.5 70.5t-119.5 199.5q0 74 63 122t147 48h288v130h-584v90h910v-90h-226v-220h-388q-44 0 -77 -22t-33 -58q0 -87 91 -133.5t229 -46.5q160 0 250 90l70 -70q-64 -59 -142 -80v-220h-400q-43 0 -71.5 -28.5t-28.5 -71.5
q0 -82 89.5 -131t200.5 -49q167 0 260 110l70 -70q-130 -130 -330 -130q-153 0 -271.5 74t-118.5 196q0 80 59 135t141 55h300z" />
    <glyph glyph-name="u091F094D0920" horiz-adv-x="870" 
d="M600 250v100q-38 -10 -100 -10q-181 0 -300.5 70.5t-119.5 199.5q0 74 63 122t147 48h310v130h-606v90h946v-90h-240v-220h-410q-44 0 -77 -22t-33 -58q0 -87 91 -133.5t229 -46.5q160 0 250 90l70 -70q-59 -54 -120 -70v-214q90 -43 90 -166q0 -94 -95.5 -152
t-214.5 -58q-157 0 -278.5 77t-121.5 203q0 77 62.5 128.5t147.5 51.5h310zM600 130l34 30h-344q-45 0 -77.5 -25.5t-32.5 -64.5q0 -86 92.5 -138t207.5 -52q79 0 144.5 32.5t65.5 87.5q0 87 -90 130z" />
    <glyph glyph-name="u091F094D092F" horiz-adv-x="1814" 
d="M678 612v-2h-370q-61 0 -100.5 -50.5t-39.5 -119.5q0 -134 93 -227t227 -93q177 0 260 140l80 -70q-100 -170 -340 -170q-176 0 -298 122t-122 298q0 111 68 190.5t172 79.5h270v200h-584v90h1890v-90h-220v-910h-100v250q-83 -100 -240 -100q-131 0 -227.5 97
t-122.5 243h190q42 0 71 24t29 62q0 50 -61.5 78t-138.5 28q-188 0 -386 -70zM1564 370v540h-886v-208q198 70 386 70q117 0 208.5 -53.5t91.5 -142.5q0 -88 -65 -132t-195 -44q25 -71 85.5 -115.5t134.5 -44.5q131 0 240 130zM850 -50z" />
    <glyph glyph-name="u091F094D0935" horiz-adv-x="834" 
d="M570 70v274q-24 -4 -70 -4q-181 0 -300.5 70.5t-119.5 199.5q0 74 63 122t147 48h280v130h-576v90h910v-90h-234v-220h-380q-44 0 -77 -22t-33 -58q0 -87 91 -133.5t229 -46.5q160 0 250 90l70 -70q-67 -62 -150 -84v-626h-100v200q-80 -80 -220 -80q-108 0 -189 59
t-81 151q0 89 82.5 144.5t187.5 55.5q66 0 130 -30v-110q-64 40 -130 40t-118 -27t-52 -73q0 -50 52 -80t118 -30q65 0 120 27.5t100 82.5z" />
    <glyph glyph-name="u0920094D0920" horiz-adv-x="902" 
d="M598 250v100q-45 -10 -140 -10q-149 0 -264.5 71.5t-115.5 188.5q0 76 59.5 128t140.5 52h320v130h-604v90h978v-90h-274v-180l10 10q110 -63 110 -190q0 -101 -120 -170v-204l20 14q100 -66 100 -190q0 -101 -110.5 -160.5t-249.5 -59.5q-150 0 -265 77.5t-115 202.5
q0 80 62.5 135t147.5 55h310zM628 660l30 30h-380q-41 0 -70.5 -25.5t-29.5 -64.5q0 -81 86.5 -130.5t193.5 -49.5q97 0 178.5 34.5t81.5 95.5q0 79 -90 110zM638 130l40 30h-390q-45 0 -77.5 -28.5t-32.5 -71.5q0 -81 86.5 -130.5t193.5 -49.5q95 0 177.5 32t82.5 88
q0 90 -80 130z" />
    <glyph glyph-name="u0920094D092F" horiz-adv-x="1836" 
d="M686 620h-330q-77 0 -133.5 -49t-56.5 -121q0 -137 92.5 -233.5t227.5 -96.5q96 0 168 53.5t72 136.5q0 105 -150 230l70 70q180 -128 180 -300q0 -126 -101 -208t-239 -82q-177 0 -298.5 125.5t-121.5 304.5q0 112 85.5 186t204.5 74h230v200h-592v90h1912v-90h-220
v-910h-100v250q-83 -100 -240 -100q-131 0 -227.5 97t-122.5 243h190q42 0 71 24t29 62q0 50 -61.5 78t-138.5 28q-225 0 -400 -62zM1586 370v540h-900v-200q175 62 400 62q117 0 208.5 -53.5t91.5 -142.5q0 -88 -65 -132t-195 -44q25 -71 85.5 -115.5t134.5 -44.5
q65 0 125 32.5t115 97.5zM872 -50z" />
    <glyph glyph-name="u0921094D0921" horiz-adv-x="968" 
d="M302 260q-82 38 -147 90.5t-113 119.5l60 60q81 -115 203.5 -172.5t286.5 -57.5q75 0 132.5 42t57.5 108q0 20 -12.5 30t-37.5 10q-39 0 -115 -20t-115 -20q-70 0 -155 76t-85 144q0 50 49 80t111 30h310v130h-738v90h1044v-90h-206v-220h-410q-50 0 -50 -40
q0 -30 49 -70t81 -40q40 0 115 25q76 25 115 25q62 0 106 -40t44 -100q0 -105 -86.5 -172.5t-203.5 -67.5q-154 0 -190 30q-10 -28 -10 -50q0 -35 29.5 -57.5t70.5 -22.5q39 0 115 20t115 20q66 0 113 -43t47 -107q0 -103 -100.5 -166.5t-229.5 -63.5q-135 0 -265 62.5
t-255 187.5l50 70q115 -115 232.5 -172.5t237.5 -57.5q88 0 159 38t71 102q0 50 -60 50q-39 0 -115 -15t-115 -15q-85 0 -147.5 55t-62.5 135q0 8 20 50z" />
    <glyph glyph-name="u0921094D0922" horiz-adv-x="944" 
d="M572 210q-180 0 -317.5 65t-232.5 195l60 60q81 -115 203.5 -172.5t286.5 -57.5q75 0 132.5 42t57.5 108q0 20 -12.5 30t-37.5 10q-39 0 -115 -20t-115 -20q-70 0 -155 76t-85 144q0 50 49 80t111 30h310v130h-718v90h1020v-90h-202v-220h-410q-50 0 -50 -40
q0 -30 49 -70t81 -40q40 0 115 25q76 25 115 25q62 0 106 -40t44 -100q0 -102 -85 -170l-5 -4v-216h-380q-41 0 -70.5 -22.5t-29.5 -57.5q0 -88 80.5 -149t179.5 -61q-40 31 -40 100t56.5 114.5t133.5 45.5t133.5 -49t56.5 -121q0 -87 -86 -133.5t-214 -46.5
q-153 0 -281.5 89t-128.5 221q0 70 64 115t146 45h270v71q-42 -11 -90 -11zM602 -140q0 -31 31 -50.5t69 -19.5t69 19.5t31 50.5q0 35 -29.5 57.5t-70.5 22.5t-70.5 -22.5t-29.5 -57.5z" />
    <glyph glyph-name="u0921094D092F" horiz-adv-x="1836" 
d="M586 10q-146 0 -293.5 122.5t-266.5 327.5l80 50q106 -183 234 -296.5t246 -113.5q83 0 136.5 69t53.5 161q0 35 -12.5 52.5t-37.5 17.5q-33 0 -95 -25t-95 -25q-78 0 -169 91t-91 169q0 60 47 100t113 40h270v160h-712v90h1912v-90h-220v-910h-100v260
q-83 -100 -240 -100q-131 0 -227.5 97t-122.5 243h174q48 0 82 28t34 72q0 55 -65.5 87.5t-144.5 32.5q-47 0 -135 -35t-135 -35h-370q-50 0 -50 -40q0 -47 51.5 -103.5t98.5 -56.5q33 0 95 25t95 25q64 0 107 -50t43 -120q0 -131 -83.5 -225.5t-206.5 -94.5zM1586 380v530
h-780v-160q47 0 135 30q89 30 135 30q119 0 214.5 -58t95.5 -152q0 -90 -73 -140t-187 -50q25 -71 85.5 -115.5t134.5 -44.5q65 0 125 32.5t115 97.5zM950 -50z" />
    <glyph glyph-name="u0922094D0922" horiz-adv-x="896" 
d="M706 -40q0 35 -29.5 57.5t-70.5 22.5t-70.5 -22.5t-29.5 -57.5q0 -31 31 -50.5t69 -19.5t69 19.5t31 50.5zM742 160h-446q-41 0 -70.5 -22.5t-29.5 -57.5q0 -88 80.5 -149t179.5 -61q-40 31 -40 100t56.5 114.5t133.5 45.5t133.5 -49t56.5 -121q0 -87 -86 -133.5
t-214 -46.5q-153 0 -281.5 89t-128.5 221q0 70 64 115t146 45h346v79q-63 -19 -146 -19q-153 0 -281.5 89t-128.5 221q0 70 64 115t146 45h346v130h-648v90h972v-90h-224v-220h-446q-41 0 -70.5 -22.5t-29.5 -57.5q0 -88 80.5 -149t179.5 -61q-40 31 -40 100t56.5 114.5
t133.5 45.5t133.5 -49t56.5 -121q0 -66 -54 -111v-219zM706 490q0 35 -29.5 57.5t-70.5 22.5t-70.5 -22.5t-29.5 -57.5q0 -31 31 -50.5t69 -19.5t69 19.5t31 50.5z" />
    <glyph glyph-name="u0922094D092F" horiz-adv-x="1806" 
d="M696 270q0 43 -28.5 71.5t-71.5 28.5q-39 0 -64.5 -29t-25.5 -71q0 -49 17.5 -86.5t52.5 -63.5q54 11 87 53t33 97zM736 620h-420q-65 0 -107.5 -47t-42.5 -113q0 -142 88.5 -246t221.5 -104q-70 83 -70 170q0 79 55.5 134.5t134.5 55.5q84 0 142 -58t58 -142
q0 -108 -86 -179t-204 -71q-184 0 -312 128t-128 312q0 105 72.5 177.5t177.5 72.5h320v200h-642v90h1882v-90h-220v-910h-100v250q-83 -100 -238 -100q-131 0 -227.5 97t-122.5 243h190q42 0 71 24t29 62q0 50 -61.5 78t-138.5 28q-171 0 -322 -38v-24zM1556 370v540h-820
v-176q151 38 322 38q117 0 208.5 -53.5t91.5 -142.5q0 -88 -65 -132t-195 -44q25 -71 85.5 -115.5t134.5 -44.5q64 0 123.5 32.5t114.5 97.5zM870 -50z" />
    <glyph glyph-name="u0926094D0917" horiz-adv-x="810" 
d="M880 910h-206v-260h-360q-66 0 -113 -40t-47 -100q0 -97 95 -148.5t235 -51.5q-30 30 -30 80q0 41 39.5 65.5t90.5 24.5q52 0 86 -38t34 -92q0 -70 -80 -110q36 -139 120 -240l-90 -40q-70 60 -140 250l-150 20l80 -180q10 -22 10 -50q0 -40 -40 -40q-45 0 -137.5 30.5
t-92.5 59.5q0 5 60 30t60 60l-50 120q-89 31 -144.5 99t-55.5 151q0 103 76 171.5t184 68.5h260v160h-580v90h886v-90z" />
    <glyph glyph-name="u0926094D0918" horiz-adv-x="998" 
d="M1068 910h-202v-260h-400q-45 0 -77.5 -28.5t-32.5 -71.5q0 -96 90.5 -178t189.5 -82q44 0 80 20q10 59 46 99.5t84 40.5q80 0 80 -90q0 -44 -58 -74q-36 -18 -42 -46q0 -122 130 -400h-110q-9 19 -70 170q-120 -120 -270 -120q-86 0 -150.5 53t-79.5 137
q-94 0 -162 56.5t-68 143.5q0 83 63.5 141.5t156.5 68.5q-10 30 -10 60q0 84 62 142t148 58h300v160h-772v90h1074v-90zM416 290q-78 46 -120 120q-65 -9 -112.5 -45t-47.5 -85q0 -53 45 -86.5t105 -33.5q34 97 130 130zM746 90q1 -3 2 -5l-22 135q-56 -20 -110 -20
q-58 0 -140 30q-110 -39 -110 -120q0 -58 41 -99t99 -41q155 0 240 120zM666 -40z" />
    <glyph glyph-name="u0926094D0926" horiz-adv-x="838" 
d="M908 910h-220v-260h-400q-48 0 -89 -19t-41 -51q0 -59 61.5 -94.5t138.5 -35.5q66 0 120 20l30 -100q-108 -18 -189 -64.5t-81 -105.5q0 -50 49 -80t111 -30q98 0 180 70q-20 24 -20 60q0 51 38.5 85.5t91.5 34.5q38 0 64 -26t26 -64q0 -85 -90 -150l70 -140l-80 -30
l-60 120q-104 -60 -220 -60q-103 0 -181.5 59t-78.5 151q0 126 120 170q-86 24 -143 81t-57 129q0 75 70 122.5t160 47.5h300v160h-594v90h914v-90z" />
    <glyph glyph-name="u0926094D0927" horiz-adv-x="1098" 
d="M1168 910h-202v-260h-400q-45 0 -77.5 -28.5t-32.5 -71.5q0 -96 90.5 -178t189.5 -82q44 0 80 20q10 59 46 99.5t84 40.5q80 0 80 -90q0 -44 -58 -74q-36 -18 -42 -46q0 -122 130 -400h-110q-9 18 -70 170q-120 -120 -270 -120q-86 0 -150.5 53t-79.5 137
q-131 0 -230.5 69.5t-99.5 180.5q0 68 46.5 114t113.5 46q73 0 130 -70l-60 -60q-38 30 -70 30q-24 0 -42 -18t-18 -42q0 -76 73 -123t167 -47q34 89 120 130q-51 35 -100.5 119t-49.5 141q0 84 62 142t148 58h300v160h-872v90h1174v-90zM846 90q1 -3 2 -5l-22 135
q-56 -20 -110 -20q-58 0 -140 30q-110 -39 -110 -120q0 -58 41 -99t99 -41q155 0 240 120zM661 -30zM666 -40z" />
    <glyph glyph-name="u0926094D0928" horiz-adv-x="864" 
d="M934 910h-216v-260h-400q-53 0 -91.5 -34.5t-38.5 -85.5q0 -123 98 -191.5t252 -68.5q0 170 110 170q45 0 77.5 -25.5t32.5 -64.5q0 -119 -80 -150q48 -102 130 -200h-110q-69 41 -130 170l-260 -100q-30 -12 -30 -40q6 -9 40 -50q10 -15 10 -30q0 -20 -40 -20
q-44 0 -137 34.5t-93 65.5q0 46 340 170q-135 25 -222.5 116t-87.5 214q0 94 67 157t163 63h300v160h-624v90h940v-90zM666 -40z" />
    <glyph glyph-name="u0926094D092C" horiz-adv-x="826" 
d="M896 910h-208v-260h-400q-48 0 -84 -25t-36 -65q0 -97 80.5 -158.5t189.5 -61.5q52 0 70 10q-20 8 -20 50q0 39 32.5 64.5t77.5 25.5q58 0 99 -37t41 -93q0 -70 -110 -110q20 -119 130 -250l-90 -40q-6 8 -100 170q-103 -180 -260 -180q-71 0 -125.5 39.5t-54.5 100.5
q0 124 180 190q-105 28 -172.5 104.5t-67.5 175.5q0 82 65 136t155 54h300v160h-594v90h902v-90zM528 250q-130 -12 -180 -40l90 -100q53 37 90 140zM388 60l-100 110q-50 -29 -50 -80q0 -50 70 -50q44 0 80 20z" />
    <glyph glyph-name="u0926094D092D" horiz-adv-x="928" 
d="M998 910h-218v-260h-380q-55 0 -97.5 -27.5t-42.5 -72.5q0 -92 74.5 -151t175.5 -59q72 0 100 10q-30 13 -30 60q0 32 33 51t77 19q53 0 91.5 -31t38.5 -79q0 -102 -100 -120l150 -240l-70 -60l-150 210l-200 -170q30 -38 30 -70q0 -40 -120 -40q-80 0 -80 70l60 60
l-100 120q-25 30 -60 30q-50 0 -50 -40q6 -9 40 -50l-60 -70q-70 70 -70 130q0 52 41 86t99 34q74 0 110 -50l110 -150l220 200q-56 -10 -110 -10q-142 0 -246 88.5t-104 221.5q0 87 72 143.5t168 56.5h280v160h-686v90h1004v-90z" />
    <glyph glyph-name="u0926094D092E" horiz-adv-x="1072" 
d="M1142 910h-220v-910h-100v220h-290v-80q0 -50 -50 -50q-31 0 -100.5 74t-69.5 106q0 40 50 40h70v140h-210q-74 0 -127 49.5t-53 120.5q0 68 53.5 114t126.5 46h170v130h-398v90h1148v-90zM822 310v600h-330v-220h-270q-28 0 -49 -21t-21 -49t21 -49t49 -21h310v-240h290
z" />
    <glyph glyph-name="u0926094D092F" horiz-adv-x="1074" 
d="M1144 910h-220v-910h-100v270q-190 -190 -400 -190q-113 0 -196.5 64.5t-83.5 165.5q0 96 60 130q-150 53 -150 170q0 73 59.5 121.5t140.5 48.5h200v130h-460v90h1150v-90zM824 400v510h-270v-220h-300q-41 0 -70.5 -22.5t-29.5 -57.5q0 -74 140 -100q34 20 180 20
l60 -90h-140q-62 0 -106 -37t-44 -93q0 -58 55 -94t125 -36q214 0 400 220z" />
    <glyph glyph-name="u0926094D0935" horiz-adv-x="840" 
d="M910 910h-210v-240h-380q-66 0 -113 -40t-47 -100q0 -92 74.5 -151t175.5 -59q65 0 120 30q-30 39 -30 70q0 37 39.5 58.5t90.5 21.5q52 0 86 -38t34 -92q0 -40 -30 -68t-70 -32q18 -104 120 -280l-100 -30l-80 140q-83 -140 -240 -140q-74 0 -132 38.5t-58 101.5
q0 101 130 150q-101 37 -165.5 113t-64.5 167q0 99 77 164.5t183 65.5h280v150h-606v90h916v-90zM550 240q-72 0 -181 -43.5t-109 -96.5q0 -50 90 -50q70 0 124 54.5t76 135.5z" />
    <glyph glyph-name="u0928094D0928" horiz-adv-x="996" 
d="M746 450l-310 -140q-40 -18 -40 -40q0 -15 20 -40q30 -37 30 -80q0 -60 -40 -60q-55 0 -152.5 52.5t-97.5 97.5q0 43 60 70l370 170q-79 85 -156.5 127.5t-153.5 42.5q-20 0 -20 -60q0 -37 -16.5 -68.5t-43.5 -31.5q-46 0 -103 89t-57 141q0 60 200 60q112 0 222 -65
t218 -195l70 30v360h-752v90h1072v-90h-220v-910h-100v450z" />
    <glyph glyph-name="u092A094D0924" horiz-adv-x="856" 
d="M926 910h-220v-910h-100v450h-270q-53 0 -91.5 -34.5t-38.5 -85.5q0 -169 160 -260l-50 -70q-210 119 -210 330q0 131 110 170q-80 31 -80 140v270h-142v90h932v-90zM606 550v360h-370v-270q0 -39 29.5 -64.5t70.5 -25.5h270z" />
    <glyph glyph-name="u092A094D0932" horiz-adv-x="904" 
d="M974 910h-292v-600q76 0 128 -52t52 -128q0 -91 -60.5 -155.5t-149.5 -64.5l-40 80q59 0 99.5 40.5t40.5 99.5q0 38 -26 64t-64 26q-55 0 -92.5 -37.5t-37.5 -92.5l-90 40l10 40q-48 40 -110 40q-55 0 -97.5 -27.5t-42.5 -72.5q0 -54 59 -87t131 -33l-40 -80
q-101 0 -175.5 56t-74.5 144q0 82 65 136t155 54q109 0 160 -60q8 27 100 60v220q-97 -80 -230 -80q-104 0 -177 65.5t-73 164.5v240h-108v90h980v-90zM582 640v270h-380v-240q0 -56 44 -93t106 -37q130 0 230 100z" />
    <glyph glyph-name="u092B094D0932" horiz-adv-x="1166" 
d="M546 530v380h-350v-350q0 -59 44.5 -99.5t105.5 -40.5q124 0 200 110zM546 410q-90 -90 -200 -90q-104 0 -177 69t-73 171v350h-102v90h1242v-90h-590v-280q84 100 210 100q108 0 179 -82.5t71 -197.5q0 -113 -90 -220l-90 50q80 80 80 170q0 72 -42.5 126t-107.5 54
q-110 0 -210 -120v-350q52 40 110 40q81 0 140.5 -52t59.5 -128q0 -78 -50 -145.5t-130 -104.5l-70 90q150 53 150 160q0 35 -29.5 57.5t-70.5 22.5q-140 0 -190 -140l-90 60l20 40q-56 40 -140 40q-43 0 -71.5 -28.5t-28.5 -71.5q0 -54 55.5 -95t134.5 -55l-20 -90
q-116 21 -198 87t-82 153q0 84 62 142t148 58q112 0 190 -70v280z" />
    <glyph glyph-name="u0932094D0932" horiz-adv-x="1106" 
d="M1176 910h-220v-910h-100v340q-102 0 -181 -48.5t-109 -131.5l-80 50q13 37 40 60q-87 50 -190 50q-58 0 -99 -34t-41 -86q0 -51 44 -92t106 -58l-50 -70q-88 24 -144 84t-56 136q0 70 27.5 115t82.5 65q-55 32 -82.5 79.5t-27.5 110.5q0 87 72 143.5t168 56.5
q70 0 127.5 -22.5t102.5 -67.5q32 45 104.5 67.5t185.5 22.5v140h-862v90h1182v-90zM856 440v240q-102 0 -179.5 -39.5t-90.5 -110.5l-90 30q5 15 20 50q-57 70 -180 70q-55 0 -97.5 -30.5t-42.5 -79.5q0 -58 30 -98t90 -62q90 0 155 -20t105 -60q65 55 135 82.5t145 27.5z
" />
    <glyph glyph-name="u0936094D091A" horiz-adv-x="940" 
d="M1010 910h-220v-910h-100v230q-97 -140 -240 -140q-64 0 -107 50t-43 120q0 52 10 60l-160 -90l-40 80l440 240l-190 70l-270 -150l-70 70l260 130q-120 58 -120 170q0 76 56 128t134 52q81 0 140.5 -52t59.5 -128q0 -113 -100 -170l240 -90v330h-50v90h370v-90zM450 840
q0 39 -30 65.5t-70 26.5q-36 0 -60 -27.5t-24 -64.5t29 -69.5t65 -40.5q90 32 90 110zM690 360v150l-140 -60q-160 -69 -160 -190q0 -80 60 -80q112 0 240 180z" />
    <glyph glyph-name="u0936094D0928" horiz-adv-x="942" 
d="M1012 910h-220v-910h-100v420l-240 -170q-20 -14 -20 -30q0 -17 20 -40q20 -22 20 -40q0 -24 -18 -42t-42 -18q-200 0 -200 100q0 34 40 60l364 238l-220 92l-300 -200l-66 76l276 178q-138 78 -138 206q0 80 54 135t134 55q82 0 141 -55t59 -135q0 -110 -96 -190
l232 -98v368h-50v90h370v-90zM456 830q0 43 -28.5 71.5t-71.5 28.5q-39 0 -64.5 -29t-25.5 -71q0 -98 110 -130q80 55 80 130z" />
    <glyph glyph-name="u0936094D0932" horiz-adv-x="1370" 
d="M1440 910h-220v-910h-100v460q-89 0 -162 -61t-108 -159l-100 40q6 12 40 70q-56 100 -160 100q-59 0 -104.5 -27t-45.5 -73q0 -81 75 -153.5t195 -116.5l-40 -80q-145 53 -237.5 147t-92.5 203q0 63 39 111t101 59l-170 100l-270 -180l-60 80l250 160q-120 58 -120 170
q0 72 56.5 121t133.5 49t133.5 -49t56.5 -121q0 -103 -100 -170l210 -130q136 -12 210 -120q100 120 270 120v360h-480v90h800v-90zM430 850q0 31 -27 50.5t-63 19.5t-63 -19.5t-27 -50.5q0 -87 90 -130q90 52 90 130z" />
    <glyph glyph-name="u0936094D0935" horiz-adv-x="938" 
d="M1008 910h-220v-910h-100v250q-76 -110 -220 -110q-105 0 -187.5 52.5t-82.5 137.5t82.5 137.5t187.5 52.5q73 0 160 -50l-30 -80q-86 40 -130 40q-66 0 -118 -27t-52 -73q0 -42 53.5 -66t116.5 -24q152 0 220 120v170l-310 120l-310 -170l-50 80l260 140
q-120 58 -120 160q0 70 60.5 115t139.5 45q77 0 133.5 -49t56.5 -121q0 -63 -90 -140l230 -90v290h-70v90h390v-90zM448 850q0 35 -29.5 57.5t-70.5 22.5q-36 0 -63 -19.5t-27 -50.5q0 -70 110 -110q80 47 80 100z" />
    <glyph glyph-name="u0937094D091F" horiz-adv-x="834" 
d="M536 550l-330 300v-200q0 -46 45.5 -73t104.5 -27h180zM606 600v310h-330zM776 100q-60 -60 -132.5 -90t-157.5 -30q-148 0 -254 94.5t-106 235.5q0 68 30 113t90 67q-62 11 -101 59t-39 111v250h-112v90h910v-90h-198v-460h-330q-61 0 -105.5 -40.5t-44.5 -99.5
q0 -103 76 -171.5t184 -68.5q73 0 130.5 25t99.5 75z" />
    <glyph glyph-name="u0937094D0920" horiz-adv-x="902" 
d="M552 570l-340 300v-180q0 -53 45 -86.5t105 -33.5h190zM612 630v280h-320zM832 310q0 -132 -100.5 -221t-239.5 -89q-153 0 -266.5 90.5t-113.5 229.5q0 73 27.5 123t82.5 77q-55 38 -82.5 80.5t-27.5 89.5v220h-118v90h978v-90h-260v-440h-350q-63 0 -106.5 -43.5
t-43.5 -106.5q0 -97 83.5 -158.5t196.5 -61.5q98 0 169 59.5t71 150.5q0 72 -50 130l70 60q80 -80 80 -190zM834 50z" />
    <glyph glyph-name="u0939094D0923" horiz-adv-x="1082" 
d="M1152 910h-482v-240h-440q-40 0 -40 -20q0 -105 120 -150q69 30 150 30h350q78 0 134 -52t56 -128v-350h-100v350q0 38 -26 64t-64 26h-30v-170q0 -75 -52.5 -127.5t-127.5 -52.5q-74 0 -127 53t-53 127v170q-85 0 -147.5 -51.5t-62.5 -128.5q0 -121 112 -195.5
t258 -74.5l-20 -90q-182 0 -321 101t-139 259q0 127 110 190q-120 100 -120 200q0 47 35.5 78.5t84.5 31.5h360v150h-576v90h1158v-90zM680 270v170h-160v-170q0 -32 24 -56t56 -24q33 0 56.5 24t23.5 56z" />
    <glyph glyph-name="u0939094D0928" horiz-adv-x="932" 
d="M1002 910h-328v-240h-420q-50 0 -50 -30q0 -100 110 -140q69 30 230 30q115 0 212.5 -46t97.5 -124v-370h-100v210h-80q-50 0 -50 -40v-40q0 -70 -60 -70q-30 0 -95 79t-65 111q0 50 70 50h280v70q0 38 -67.5 59t-142.5 21q-126 0 -233 -48.5t-107 -131.5
q0 -131 111 -215.5t259 -84.5l-20 -90q-182 0 -316 111t-134 279q0 127 110 190q-120 100 -120 200q0 47 35.5 78.5t84.5 31.5h360v150h-580v90h1008v-90z" />
    <glyph glyph-name="u0939094D092E" horiz-adv-x="1112" 
d="M1182 910h-220v-910h-100v240h-290v-60q0 -30 -30 -30q-35 0 -107.5 54t-72.5 86q0 40 60 40h50v80q0 50 -60 50q-87 0 -153.5 -47.5t-66.5 -122.5q0 -136 145.5 -218t324.5 -82l-20 -80q-216 0 -383 104.5t-167 275.5q0 132 120 200q-120 58 -120 160q0 58 51.5 94
t118.5 36h280v130h-548v90h1188v-90zM862 330v580h-220v-220h-380q-70 0 -70 -40q0 -70 130 -120q54 20 90 20q66 0 113 -40t47 -100v-80h290z" />
    <glyph glyph-name="u0939094D092F" horiz-adv-x="1198" 
d="M1268 910h-220v-910h-100v180q-93 -110 -210 -110q-105 0 -183.5 67.5t-96.5 172.5q52 0 101 16t49 44q0 37 -43 58.5t-97 21.5q-107 0 -193.5 -49.5t-86.5 -130.5q0 -103 144 -184.5t336 -115.5l-20 -80q-226 41 -393 144t-167 236q0 137 130 210q-130 50 -130 160
q0 53 49 86.5t111 33.5h330v150h-584v90h1274v-90zM948 310v600h-270v-240h-430q-70 0 -70 -30q0 -70 130 -120q82 30 160 30q94 0 167 -50.5t73 -129.5q0 -96 -130 -120q31 -80 160 -80q113 0 210 140z" />
    <glyph glyph-name="u0939094D0932" horiz-adv-x="972" 
d="M1042 910h-368v-240h-420q-50 0 -50 -30q0 -100 110 -140q109 50 220 50q135 0 247.5 -56.5t112.5 -153.5v-340h-100v270q-54 0 -90 -47t-40 -113l-90 20l20 70q-22 70 -80 70q-80 0 -80 -90q0 -45 27.5 -79.5t72.5 -40.5l-20 -80q-77 12 -128.5 68t-51.5 132
q0 71 53 120.5t127 49.5q92 0 140 -70q13 61 140 70q0 47 -82 73.5t-178 26.5q-149 0 -239.5 -74.5t-90.5 -205.5q0 -113 92.5 -186.5t217.5 -73.5l-20 -80q-158 0 -274 96.5t-116 243.5q0 197 130 270q-140 98 -140 200q0 53 45 86.5t105 33.5h330v150h-580v90h1048v-90z
" />
    <glyph glyph-name="u0939094D0935" horiz-adv-x="866" 
d="M936 910h-260v-240h-420q-50 0 -50 -30q0 -80 110 -120q69 30 150 30q121 0 215.5 -61t94.5 -159v-330h-100v120q-43 -60 -150 -60q-73 0 -126.5 46t-53.5 114t53.5 114t126.5 46q37 0 80 -30l-30 -80q-24 20 -50 20q-34 0 -57 -23t-23 -57q0 -70 80 -70q99 0 150 90v100
q0 59 -64.5 94.5t-145.5 35.5q-106 0 -183 -65.5t-77 -164.5q0 -125 105 -207.5t245 -82.5l-30 -90q-174 0 -297 108.5t-123 271.5q0 127 110 220q-120 100 -120 200q0 47 35.5 78.5t84.5 31.5h360v150h-582v90h942v-90z" />
    <glyph glyph-name="u0938094D0924094D0930" horiz-adv-x="1388" 
d="M306 450q-46 0 -68 18q68 -110 155.5 -209.5t194.5 -188.5l-60 -70q-161 135 -288.5 302.5t-221.5 367.5l90 50q37 -90 79 -135t89 -45q43 0 71.5 28.5t28.5 71.5v270h-382v90h1464v-90h-220v-910h-100v430l-310 -210l-60 90l370 240q-125 150 -260 150q-62 0 -150 -50
l-60 80q124 70 210 70q140 0 260 -120v230h-662v-270q0 -49 -20 -90h352v-100h-290l-72 82q-55 -82 -140 -82z" />
    <glyph glyph-name="u091C094D091CHalf" horiz-adv-x="760" 
d="M930 670h-390q20 -16 20 -80q0 -78 -52 -134t-128 -56q-101 0 -191.5 98t-148.5 252l90 20q52 -140 112 -210t128 -70q39 0 64.5 29.5t25.5 70.5q0 51 -15 93.5t-45 76.5h530v-90zM830 910h-836v90h836v-90zM930 450l-280 -140q20 -24 20 -70q0 -86 -58 -148t-142 -62
q-119 0 -216.5 65t-173.5 195l80 50q48 -103 131 -166.5t179 -63.5q48 0 79 38.5t31 91.5q0 30 -17.5 55t-52.5 45l420 210v-100z" />
    <glyph glyph-name="u09260943" horiz-adv-x="830" 
d="M900 910h-204v-260h-390q-61 0 -105.5 -40.5t-44.5 -99.5q0 -117 115.5 -188.5t264.5 -71.5q-20 36 -20 68q0 50 31.5 86t78.5 36q46 0 78 -28.5t32 -71.5q0 -85 -80 -140l120 -250h-240q-53 0 -86.5 -38.5t-33.5 -91.5q0 -55 41.5 -92.5t98.5 -37.5q106 0 190 60
l30 -100q-71 -50 -220 -50q-102 0 -176 62.5t-74 157.5q0 93 63.5 156.5t156.5 63.5h90l-60 120q-195 0 -347.5 96.5t-152.5 253.5q0 102 73 171t177 69h290v160h-602v90h906v-90zM666 -40z" />
    <glyph glyph-name="u09300941" horiz-adv-x="960" 
d="M464 660q0 -67 -36 -118.5t-94 -51.5q-62 0 -70 10l320 -430l-80 -60l-480 670l80 50q41 -70 83.5 -105t86.5 -35q45 0 67.5 20t22.5 60v240h-370v90h1036v-90h-566v-210q90 90 220 90q91 0 150.5 -71t59.5 -169q0 -191 -140 -310l-100 60q140 83 140 250q0 60 -30.5 105
t-79.5 45q-82 0 -150 -80z" />
    <glyph glyph-name="u09300942" horiz-adv-x="1142" 
d="M452 590q-14 -50 -43.5 -75t-74.5 -25q-62 0 -70 10l320 -430l-80 -60l-480 670l80 50q41 -70 83.5 -105t86.5 -35q46 0 69 23.5t23 70.5v226h-372v90h1218v-90h-746v-240h200q52 60 140 60q113 0 186.5 -92.5t73.5 -217.5q0 -196 -140 -360l-80 60q120 120 120 300
q0 82 -45 146t-115 64q-53 0 -86.5 -38.5t-33.5 -91.5q0 -82 80 -150l-60 -60q-120 86 -120 200q0 45 30 100h-164z" />
    <glyph glyph-name="u09390943" horiz-adv-x="822" 
d="M892 910h-182v-220h-460q-30 0 -30 -40q0 -27 49.5 -66t80.5 -44q56 20 140 20q103 0 181.5 -56t78.5 -144q0 -55 -37.5 -92.5t-92.5 -37.5q-57 0 -103.5 -21t-46.5 -59q0 -46 45.5 -73t104.5 -27q58 0 80 10l10 -100q-38 -10 -90 -10q-101 0 -175.5 56t-74.5 144
q0 69 57 114.5t133 45.5q90 0 90 50q0 46 -48.5 73t-111.5 27q-122 0 -211 -74t-89 -186q0 -168 168 -269t382 -101l10 -110q-260 0 -460 133t-200 347q0 180 170 280q-140 83 -140 170q0 57 36.5 98.5t93.5 41.5h360v120h-616v90h898v-90z" />
    <glyph glyph-name="u0928Comp" horiz-adv-x="0" 
d="M-198 260l-310 -130l40 -80q8 -16 8 -30q0 -31 -44 -31q-46 0 -95 35t-49 76q0 48 40 80l410 170v-90z" />
    <glyph glyph-name="u0918094D0930" horiz-adv-x="968" 
d="M338 174q-96 16 -158 84t-62 162q0 58 27.5 103t82.5 77q-70 25 -105 72.5t-35 117.5q0 62 50 120h-144v90h1044v-90h-220v-910h-100v302l-560 -352l-60 80zM718 450v460h-460q-70 -39 -70 -120q0 -58 51.5 -94t118.5 -36h130l30 -90h-90q-83 0 -146.5 -41.5
t-63.5 -108.5q0 -66 57.5 -108t132.5 -42q80 0 157.5 45t152.5 135z" />
    <glyph glyph-name="u091A094D0930" horiz-adv-x="958" 
d="M364 188q-75 20 -120.5 85t-45.5 147q0 78 27.5 133t82.5 87h-290v100h590v-100h-140q-77 -29 -123.5 -88t-46.5 -132q0 -58 41 -99t99 -41q45 0 112.5 45t157.5 135v450h-714v90h1034v-90h-220v-910h-100v324l-520 -374l-60 80z" />
    <glyph glyph-name="u0925094D0930" horiz-adv-x="1040" 
d="M392 204q-123 17 -210.5 113t-111.5 233q27 -10 150 -10q103 0 181.5 59t78.5 151q0 73 -46 126.5t-114 53.5q-55 0 -97.5 -30.5t-42.5 -79.5q0 -40 36 -65t84 -25v-100q-99 0 -159.5 51t-60.5 139q0 91 71 150.5t169 59.5q111 0 185.5 -82t74.5 -198
q0 -135 -110.5 -222.5t-259.5 -87.5q33 -70 95.5 -105t154.5 -35q85 0 167.5 47.5t162.5 142.5v420h-100v90h420v-90h-220v-910h-100v342l-630 -392l-50 90z" />
    <glyph glyph-name="u0927094D0930" horiz-adv-x="982" 
d="M358 176q-88 18 -147 73.5t-59 130.5q0 116 80 170q-85 59 -127.5 126.5t-42.5 143.5q0 86 57.5 148t142.5 62q87 0 138.5 -45.5t51.5 -124.5q0 -68 -53.5 -114t-126.5 -46v100q80 0 80 60q0 31 -27 50.5t-63 19.5q-43 0 -71.5 -32t-28.5 -78q0 -62 37.5 -114.5
t112.5 -95.5q69 30 150 30h60l60 -100h-110q-86 0 -153 -44t-67 -116q0 -50 52 -80t118 -30q73 0 150.5 35t159.5 105v500h-220v90h540v-90h-220v-910h-100v292l-600 -342l-40 80z" />
    <glyph glyph-name="u0928094D0930" horiz-adv-x="892" 
d="M642 550h-290q-60 0 -60 -40v-100q0 -60 -50 -60q-38 0 -119 104t-81 146q0 50 70 50h530v260h-648v90h968v-90h-220v-910h-100v296l-520 -296l-50 80l570 318v152z" />
    <glyph glyph-name="u0932094D0930" horiz-adv-x="1098" 
d="M848 600q-97 0 -168 -81.5t-92 -198.5l-100 30q16 98 60 150q-66 100 -180 100q-83 0 -141.5 -58.5t-58.5 -141.5q0 -102 66 -185.5t174 -124.5l-40 -90q-135 50 -217.5 158.5t-82.5 241.5q0 126 87 213t213 87q157 0 250 -110q44 62 230 110v210h-854v90h1174v-90h-220
v-910h-100v196l-300 -166l-50 80l350 196v294z" />
    <glyph glyph-name="u0919094D0915094DHalf" horiz-adv-x="1058" 
d="M466 200q-122 0 -229.5 55t-200.5 165l70 60q70 -100 175 -150t245 -50q82 0 146 38.5t64 101.5q0 39 -29 64.5t-71 25.5l-110 -40q-28 -10 -50.5 -15t-39.5 -5q-81 0 -170.5 81t-89.5 159q0 40 36 65t84 25h380v130h-682v90h1134v-90h-352v-220h-430q-50 0 -50 -40
q0 -33 51.5 -66.5t88.5 -33.5q36 0 90 20q82 30 110 30q82 0 141 -55t59 -135q0 -93 -85 -151.5t-195 -58.5v-150q112 80 200 80v-80q-58 0 -200 -100v-200h-90v150q-82 -70 -210 -70q-81 0 -145.5 41.5t-64.5 108.5q0 73 60 121.5t140 48.5q100 0 160 -60l-60 -70
q-48 40 -100 40q-44 0 -77 -22t-33 -58q0 -28 38.5 -44t81.5 -16q127 0 210 100v180zM1025 625q0 -65 -65 -65t-65 65t65 65t65 -65z" />
    <glyph glyph-name="u094B0902" horiz-adv-x="400" 
d="M470 910h-220v-910h-100v910h-156v90h476v-90zM246 1000h-100l-370 440l70 60zM335 1371q0 -65 -65 -65t-65 65t65 65t65 -65z" />
    <glyph glyph-name="u094B0930094D" horiz-adv-x="400" 
d="M470 910h-220v-910h-100v910h-156v90h476v-90zM399 1310q-82 30 -110 30q-59 0 -99.5 -40.5t-40.5 -99.5q0 -75 20 -100l80 -100h-100l-370 440l70 60l211 -263q14 81 79 132t150 51q54 0 110 -20v-90z" />
    <glyph glyph-name="u094B0930094D0902" horiz-adv-x="400" 
d="M470 910h-220v-910h-100v910h-156v90h476v-90zM401 1310q-82 30 -110 30q-59 0 -99.5 -40.5t-40.5 -99.5q0 -75 20 -100l80 -100h-100l-370 440l70 60l211 -263q14 81 79 132t150 51q54 0 110 -20v-90zM390 1165q0 -65 -65 -65t-65 65t65 65t65 -65z" />
    <glyph glyph-name="u094C0902" horiz-adv-x="400" 
d="M470 910h-220v-910h-100v910h-156v90h476v-90zM281 1000h-130l-430 210l50 90l450 -290l-220 430l100 60zM412 1323q0 -65 -65 -65t-65 65t65 65t65 -65z" />
    <glyph glyph-name="u094C0930094D" horiz-adv-x="400" 
d="M470 910h-220v-910h-100v910h-156v90h476v-90zM270 1000h-130l-440 200l50 100l460 -290l-250 430l100 60l90 -210q33 65 88 97.5t132 32.5q54 0 110 -20v-90q-82 30 -110 30q-70 0 -120 -43t-50 -107q0 -15 30 -90z" />
    <glyph glyph-name="u094C0930094D0902" horiz-adv-x="400" 
d="M470 910h-220v-910h-100v910h-156v90h476v-90zM271 1000h-130l-440 200l50 100l460 -290l-250 430l100 60l90 -210q33 65 88 97.5t132 32.5q54 0 110 -20v-90q-82 30 -110 30q-70 0 -120 -43t-50 -107q0 -15 30 -90zM464 1155q0 -65 -65 -65t-65 65t65 65t65 -65z" />
    <glyph glyph-name="u091E094D0930" horiz-adv-x="1108" 
d="M858 440q-82 -30 -140 -30q-44 0 -100 30q-20 -112 -101 -186t-189 -74q-169 0 -300 190l70 70q91 -160 230 -160q80 0 135 59t55 141q0 70 -46 120t-114 50q-102 0 -170 -80l-70 80q100 100 240 100q91 0 163.5 -59t96.5 -151q26 -30 100 -30q92 0 140 40v360h-864v90
h1184v-90h-220v-910h-100v188l-450 -238l-40 80l490 250v160z" />
    <glyph glyph-name="u0923094D0930" horiz-adv-x="1006" 
d="M466 910h-270v-420q0 -61 40.5 -105.5t99.5 -44.5q56 0 93 44t37 106v420zM756 910h-190v-420q0 -103 -66 -176.5t-164 -73.5q-102 0 -171 73t-69 177v420h-102v90h1082v-90h-220v-910h-100v188l-450 -238l-40 80l490 250v630z" />
    <glyph glyph-name="u092F094D0930" horiz-adv-x="896" 
d="M386 290q169 0 260 160v460h-340q80 -97 80 -200q0 -90 -69.5 -156.5t-170.5 -83.5q14 -79 82.5 -129.5t157.5 -50.5zM362 210q-139 4 -232.5 102.5t-93.5 237.5q107 0 178.5 42t71.5 118q0 100 -100 200h-192v90h972v-90h-220v-910h-100v300l-470 -310l-60 70z" />
    <glyph glyph-name="u0937094D0930" horiz-adv-x="804" 
d="M554 580v330h-350zM554 470l-370 340v-250q0 -67 46.5 -113.5t113.5 -46.5q128 0 210 70zM554 360q-84 -60 -210 -60q-108 0 -184 76t-76 184v350h-90v90h880v-90h-220v-910h-100v224l-460 -244l-40 80l500 254v46z" />
    <glyph glyph-name="u0915094D0937094D0930" horiz-adv-x="990" 
d="M450 820q0 47 -32.5 78.5t-79.5 31.5q-46 0 -77 -32t-31 -78q0 -63 100 -130q120 45 120 130zM740 550q-68 -40 -150 -40q-124 0 -260 80q-67 -18 -113.5 -64.5t-46.5 -105.5q0 -74 58.5 -122t137.5 -48q-16 34 -16 44q0 42 29 69t71 27q43 0 71.5 -28.5t28.5 -71.5
q0 -75 -60 -110l100 -170l-80 -50l-120 200q-128 0 -224 73.5t-96 186.5q0 72 50 131.5t130 88.5q-120 86 -120 180q0 88 61.5 149t148.5 61t148.5 -61t61.5 -149q0 -111 -120 -180q84 -40 160 -40q63 0 150 50v260h-100v90h420v-90h-220v-910h-100v166l-120 -66l-40 80
l160 80v290z" />
    <glyph glyph-name="u091C094D091E094D0930" horiz-adv-x="1068" 
d="M818 670h-580q-50 0 -50 -30q0 -43 54.5 -106.5t95.5 -63.5q33 0 95 20q63 20 95 20q50 0 80 -49t30 -111q0 -105 -86.5 -172.5t-203.5 -67.5q38 -84 190 -110l-70 -70q-138 39 -220 140q-74 0 -132 36t-58 94q0 38 26 64t64 26q47 0 140 -110q98 9 174 55.5t76 114.5
q0 70 -50 70q-21 0 -76 -20q-54 -20 -84 -20q-68 0 -154 96t-86 166q0 56 44 92t106 36h580v140h-824v90h1144v-90h-220v-910h-100v140l-220 -110l-40 80l260 122v438z" />
    <glyph glyph-name="u0918093C" horiz-adv-x="956" 
d="M396 170q-118 0 -204 71t-86 179q0 58 27.5 103t82.5 77q-70 25 -105 72.5t-35 117.5q0 62 50 120h-132v90h1032v-90h-220v-910h-100v320q-75 -75 -152.5 -112.5t-157.5 -37.5zM706 450v460h-460q-70 -39 -70 -120q0 -58 51.5 -94t118.5 -36h130l30 -90h-90
q-83 0 -146.5 -41.5t-63.5 -108.5q0 -66 57.5 -108t132.5 -42q80 0 157.5 45t152.5 135zM263 66q0 -65 -65 -65t-65 65t65 65t65 -65z" />
    <glyph glyph-name="u0919093C" horiz-adv-x="1078" 
d="M578 20q-164 0 -310.5 120.5t-239.5 319.5l80 50q83 -176 208.5 -283t261.5 -107q84 0 142 62t58 148q0 30 -12.5 45t-37.5 15q-31 0 -90 -20t-90 -20q-80 0 -170 95t-90 175q0 55 37.5 92.5t92.5 37.5h270v160h-694v90h1154v-90h-360v-260h-370q-30 0 -30 -30
q0 -43 58.5 -106.5t101.5 -63.5q31 0 90 20t90 20q64 0 107 -47t43 -113q0 -129 -86.5 -219.5t-213.5 -90.5zM1045 565q0 -65 -65 -65t-65 65t65 65t65 -65zM179 66q0 -65 -65 -65t-65 65t65 65t65 -65z" />
    <glyph glyph-name="u091A093C" horiz-adv-x="958" 
d="M438 180q-100 0 -170 70t-70 170q0 78 27.5 133t82.5 87h-290v100h590v-100h-140q-77 -29 -123.5 -88t-46.5 -132q0 -58 41 -99t99 -41q68 0 135.5 57.5t134.5 172.5v400h-714v90h1034v-90h-220v-910h-100v360q-64 -90 -131.5 -135t-138.5 -45zM247 127q0 -65 -65 -65
t-65 65t65 65t65 -65z" />
    <glyph glyph-name="u091B093C" horiz-adv-x="1066" 
d="M786 660q-49 0 -79.5 -35.5t-30.5 -84.5q0 -134 110 -210q120 86 120 220q0 48 -35 79t-85 31zM836 760q76 -15 123 -73.5t47 -136.5q0 -184 -175 -342t-365 -158q-136 0 -238 79.5t-102 200.5q0 77 27.5 134.5t82.5 95.5q-80 37 -120 87t-40 113q0 107 60 150h-142v90
h1142v-90h-300v-150zM736 760v150h-480q-80 -67 -80 -150q0 -61 54.5 -100.5t125.5 -39.5h110v-100h-80q-69 0 -114.5 -56.5t-45.5 -133.5q0 -79 73 -129.5t167 -50.5q129 0 250 100q-140 140 -140 290q0 82 43.5 144.5t116.5 75.5zM207 -6q0 -65 -65 -65t-65 65t65 65
t65 -65z" />
    <glyph glyph-name="u091D093C" horiz-adv-x="1098" 
d="M848 500v410h-280v-240h-350q-50 0 -50 -30q0 -36 43 -93t77 -57q30 0 85 20q56 20 85 20q58 0 100 -30q57 -40 160 -40q44 0 130 40zM848 400q-68 -30 -130 -30q-54 0 -110 20q0 -113 -66.5 -186.5t-183.5 -93.5q102 -84 170 -110l-50 -70q-132 62 -220 150
q-72 0 -131 33t-59 87q0 34 23 57t57 23q94 0 160 -100q86 16 143 68t57 122q0 60 -50 60q-29 0 -85 -20q-55 -20 -85 -20q-60 0 -140 94t-80 156q0 56 44 93t106 37h250v140h-474v90h1174v-90h-220v-910h-100v400zM252 -60q0 -65 -65 -65t-65 65t65 65t65 -65z" />
    <glyph glyph-name="u091E093C" horiz-adv-x="1108" 
d="M858 440q-82 -30 -140 -30q-44 0 -100 30q-20 -112 -101 -186t-189 -74q-169 0 -300 190l70 70q91 -160 230 -160q80 0 135 59t55 141q0 70 -46 120t-114 50q-102 0 -170 -80l-70 80q100 100 240 100q91 0 163.5 -59t96.5 -151q26 -30 100 -30q92 0 140 40v360h-864v90
h1184v-90h-220v-910h-100v440zM196 65q0 -65 -65 -65t-65 65t65 65t65 -65z" />
    <glyph glyph-name="u091F093C" horiz-adv-x="850" 
d="M678 910v-300h-370q-61 0 -100.5 -50.5t-39.5 -119.5q0 -134 93 -227t227 -93q177 0 260 140l80 -70q-100 -170 -340 -170q-176 0 -298 122t-122 298q0 111 68 190.5t172 79.5h270v200h-584v90h926v-90h-242zM211 -31q0 -65 -65 -65t-65 65t65 65t65 -65z" />
    <glyph glyph-name="u0920093C" horiz-adv-x="872" 
d="M676 620h-350q-68 0 -114 -53.5t-46 -126.5q0 -123 99.5 -226.5t220.5 -103.5q89 0 149.5 64.5t60.5 155.5q0 121 -120 220l80 60q140 -119 140 -280q0 -133 -89.5 -226.5t-220.5 -93.5q-162 0 -291 134t-129 296q0 116 74.5 198t185.5 82h250v190h-582v90h948v-90h-266
v-290zM181 11q0 -65 -65 -65t-65 65t65 65t65 -65z" />
    <glyph glyph-name="u0923093C" horiz-adv-x="1006" 
d="M466 910h-270v-420q0 -61 40.5 -105.5t99.5 -44.5q56 0 93 44t37 106v420zM756 910h-190v-420q0 -103 -66 -176.5t-164 -73.5q-102 0 -171 73t-69 177v420h-102v90h1082v-90h-220v-910h-100v910zM255 115q0 -65 -65 -65t-65 65t65 65t65 -65z" />
    <glyph glyph-name="u092A093C" horiz-adv-x="806" 
d="M876 910h-220v-910h-100v380q-90 -90 -200 -90q-112 0 -191 74t-79 186v360h-92v90h882v-90zM556 530v380h-370v-360q0 -67 50 -113.5t120 -46.5q135 0 200 140zM259 177q0 -65 -65 -65t-65 65t65 65t65 -65z" />
    <glyph glyph-name="u092C093C" horiz-adv-x="808" 
d="M338 320q72 0 120 40l-270 220q-30 -38 -30 -100q0 -68 53.5 -114t126.5 -46zM338 220q-116 0 -198 74.5t-82 185.5q0 123 87.5 206.5t212.5 83.5q75 0 130 -30l-30 -80q-44 20 -100 20q-89 0 -120 -40l290 -220l30 40v450h-564v90h884v-90h-220v-910h-100v320
q-50 -50 -105 -75t-115 -25zM230 99q0 -65 -65 -65t-65 65t65 65t65 -65z" />
    <glyph glyph-name="u092D093C" horiz-adv-x="988" 
d="M738 430h-330v-80q0 -40 -50 -40q-32 0 -106 74t-74 106q0 20 12.5 30t37.5 10h80v290q0 42 -25.5 71t-64.5 29q-36 0 -63 -19.5t-27 -50.5q0 -40 22.5 -60t67.5 -20v-100q-78 0 -134 52t-56 128q0 72 56.5 121t133.5 49q80 0 135 -59t55 -141v-290h330v380h-260v90h580
v-90h-220v-910h-100v430zM340 170q0 -65 -65 -65t-65 65t65 65t65 -65z" />
    <glyph glyph-name="u092E093C" horiz-adv-x="870" 
d="M620 580v330h-360v-330h360zM620 480h-360v-70q0 -60 -30 -60q-35 0 -117.5 73.5t-82.5 106.5q0 50 50 50h80v330h-166v90h946v-90h-220v-910h-100v480zM192 218q0 -65 -65 -65t-65 65t65 65t65 -65z" />
    <glyph glyph-name="u0930093C" horiz-adv-x="1600" 
d="M200 1400h1200v-1400h-1200v1400zM1300 100v1200h-1000v-1200h1000z" />
    <glyph glyph-name="u0932093C" horiz-adv-x="1092" 
d="M842 600q-91 0 -163.5 -78.5t-106.5 -201.5l-90 30q16 98 60 150q-66 100 -180 100q-83 0 -141.5 -58.5t-58.5 -141.5q0 -95 94 -181.5t236 -138.5l-40 -90q-170 62 -280 172.5t-110 237.5q0 126 87 213t213 87q157 0 250 -110q93 110 230 110v210h-848v90h1168v-90h-220
v-910h-100v600zM199 -8q0 -65 -65 -65t-65 65t65 65t65 -65z" />
    <glyph glyph-name="u0934Alt" horiz-adv-x="1104" 
d="M786 200q68 0 109 67t41 153q0 83 -41.5 146.5t-108.5 63.5q-59 0 -108 -61t-72 -149q39 -110 84 -165t96 -55zM336 210q49 0 91.5 50t78.5 150q-30 110 -72.5 165t-97.5 55q-74 0 -122 -66t-48 -152q0 -81 48 -141.5t122 -60.5zM826 720q96 -17 153 -102t57 -198
q0 -124 -70 -217t-180 -93q-69 0 -126.5 50t-103.5 150q-46 -100 -101 -150t-119 -50q-117 0 -193.5 89t-76.5 213q0 126 77 217t193 91q72 0 131.5 -50t88.5 -130q30 79 72.5 124t97.5 56v190h-732v90h1180v-90h-348v-190zM186 14q0 -65 -65 -65t-65 65t65 65t65 -65z" />
    <glyph glyph-name="u0935093C" 
d="M356 220q-124 0 -212 77t-88 193t88 193t212 77q74 0 130 -40l-50 -80q-38 30 -80 30q-81 0 -140.5 -52t-59.5 -128q0 -73 59.5 -121.5t140.5 -48.5q62 0 114.5 37.5t95.5 112.5v440h-572v90h892v-90h-220v-910h-100v320q-83 -100 -210 -100zM582 1zM199 119
q0 -65 -65 -65t-65 65t65 65t65 -65z" />
    <glyph glyph-name="u0936093C" horiz-adv-x="1016" 
d="M266 310l290 -240l-60 -70l-450 380l50 70q84 -70 110 -70q116 0 193 88t77 212q-56 -100 -180 -100q-84 0 -142 62t-58 148q0 96 62.5 163t157.5 67q115 0 187.5 -103t72.5 -237q0 -149 -87.5 -259.5t-222.5 -110.5zM456 790q-49 130 -140 130q-53 0 -86.5 -38.5
t-33.5 -91.5q0 -45 28.5 -77.5t71.5 -32.5q107 0 160 110zM1086 910h-220v-910h-100v910h-200v90h520v-90zM269 50q0 -65 -65 -65t-65 65t65 65t65 -65z" />
    <glyph glyph-name="u0937093C" horiz-adv-x="804" 
d="M554 580v330h-350zM554 470l-370 340v-250q0 -67 46.5 -113.5t113.5 -46.5q128 0 210 70zM554 360q-84 -60 -210 -60q-108 0 -184 76t-76 184v350h-90v90h880v-90h-220v-910h-100v360zM182 205q0 -65 -65 -65t-65 65t65 65t65 -65z" />
    <glyph glyph-name="u0938093C" horiz-adv-x="1066" 
d="M306 450q-46 0 -68 18q68 -110 155.5 -209.5t194.5 -188.5l-60 -70q-161 135 -288.5 302.5t-221.5 367.5l90 50q37 -90 79 -135t89 -45q43 0 71.5 28.5t28.5 71.5v270h-382v90h1142v-90h-220v-910h-100v480h-270l-50 100h320v330h-340v-270q0 -77 -49 -133.5t-121 -56.5z
M287 80q0 -65 -65 -65t-65 65t65 65t65 -65z" />
    <glyph glyph-name="u0939093C" horiz-adv-x="792" 
d="M862 910h-210v-240h-410q-50 0 -50 -30q0 -87 110 -140q69 30 150 30q109 0 189.5 -61.5t80.5 -158.5q0 -113 -80 -160l-80 70q60 35 60 90q0 53 -51.5 86.5t-118.5 33.5q-99 0 -179.5 -46.5t-80.5 -123.5q0 -103 138.5 -161.5t301.5 -58.5l-20 -90q-199 0 -359.5 84
t-160.5 226q0 127 110 190q-110 93 -110 190q0 56 44 93t106 37h310v140h-558v90h868v-90zM253 -100q0 -65 -65 -65t-65 65t65 65t65 -65z" />
    <glyph glyph-name="u0919094D0930" horiz-adv-x="1078" 
d="M578 20q-164 0 -310.5 120.5t-239.5 319.5l80 50q83 -176 208.5 -283t261.5 -107q84 0 142 62t58 148q0 30 -12.5 45t-37.5 15q-31 0 -90 -20t-90 -20q-80 0 -170 95t-90 175q0 55 37.5 92.5t92.5 37.5h270v160h-694v90h1154v-90h-360v-260h-370q-30 0 -30 -30
q0 -43 58.5 -106.5t101.5 -63.5q31 0 90 20t90 20q64 0 107 -47t43 -113q0 -129 -86.5 -219.5t-213.5 -90.5zM1045 565q0 -65 -65 -65t-65 65t65 65t65 -65zM917 -322h-118l-220 234l-220 -234h-120l286 304h106z" />
    <glyph glyph-name="u091B094D0930" horiz-adv-x="1066" 
d="M786 660q-49 0 -79.5 -35.5t-30.5 -84.5q0 -134 110 -210q120 86 120 220q0 48 -35 79t-85 31zM836 760q76 -15 123 -73.5t47 -136.5q0 -184 -175 -342t-365 -158q-136 0 -238 79.5t-102 200.5q0 77 27.5 134.5t82.5 95.5q-80 37 -120 87t-40 113q0 107 60 150h-142v90
h1142v-90h-300v-150zM736 760v150h-480q-80 -67 -80 -150q0 -61 54.5 -100.5t125.5 -39.5h110v-100h-80q-69 0 -114.5 -56.5t-45.5 -133.5q0 -79 73 -129.5t167 -50.5q129 0 250 100q-140 140 -140 290q0 82 43.5 144.5t116.5 75.5zM809 -294h-118l-220 234l-220 -234h-120
l286 304h106z" />
    <glyph glyph-name="u091F094D0930" horiz-adv-x="850" 
d="M678 910v-300h-370q-61 0 -100.5 -50.5t-39.5 -119.5q0 -134 93 -227t227 -93q177 0 260 140l80 -70q-100 -170 -340 -170q-176 0 -298 122t-122 298q0 111 68 190.5t172 79.5h270v200h-584v90h926v-90h-242zM825 -324h-118l-220 234l-220 -234h-120l286 304h106z" />
    <glyph glyph-name="u0920094D0930" horiz-adv-x="872" 
d="M676 620h-350q-68 0 -114 -53.5t-46 -126.5q0 -123 99.5 -226.5t220.5 -103.5q89 0 149.5 64.5t60.5 155.5q0 121 -120 220l80 60q140 -119 140 -280q0 -133 -89.5 -226.5t-220.5 -93.5q-162 0 -291 134t-129 296q0 116 74.5 198t185.5 82h250v190h-582v90h948v-90h-266
v-290zM822 -332h-118l-220 234l-220 -234h-120l286 304h106z" />
    <glyph glyph-name="u0921094D0930" horiz-adv-x="950" 
d="M578 20q-164 0 -310.5 120.5t-239.5 319.5l80 50q83 -176 208.5 -283t261.5 -107q84 0 142 62t58 148q0 30 -12.5 45t-37.5 15q-31 0 -90 -20t-90 -20q-80 0 -170 95t-90 175q0 55 37.5 92.5t92.5 37.5h270v160h-694v90h1026v-90h-232v-260h-370q-30 0 -30 -30
q0 -43 58.5 -106.5t101.5 -63.5q31 0 90 20t90 20q64 0 107 -47t43 -113q0 -129 -86.5 -219.5t-213.5 -90.5zM920 -322h-118l-220 234l-220 -234h-120l286 304h106z" />
    <glyph glyph-name="u0922094D0930" horiz-adv-x="870" 
d="M714 270q0 43 -28.5 71.5t-71.5 28.5q-38 0 -64 -26t-26 -64q0 -51 17.5 -91t52.5 -69q54 11 87 53t33 97zM684 610h-390q-57 0 -93.5 -48t-36.5 -112q0 -120 103 -225t227 -115q-70 58 -70 170q0 79 55.5 134.5t134.5 55.5q84 0 142 -58t58 -142q0 -110 -96.5 -180
t-223.5 -70q-163 0 -296.5 133.5t-133.5 296.5q0 106 65.5 183t164.5 77h290v200h-590v90h946v-90h-256v-300zM837 -325h-118l-220 234l-220 -234h-120l286 304h106z" />
    <glyph glyph-name="u0933094D0930" horiz-adv-x="1104" 
d="M786 200q68 0 109 67t41 153q0 83 -41.5 146.5t-108.5 63.5q-59 0 -108 -61t-72 -149q39 -110 84 -165t96 -55zM336 210q49 0 91.5 50t78.5 150q-30 110 -72.5 165t-97.5 55q-74 0 -122 -66t-48 -152q0 -81 48 -141.5t122 -60.5zM826 720q96 -17 153 -102t57 -198
q0 -124 -70 -217t-180 -93q-69 0 -126.5 50t-103.5 150q-46 -100 -101 -150t-119 -50q-117 0 -193.5 89t-76.5 213q0 126 77 217t193 91q72 0 131.5 -50t88.5 -130q30 79 72.5 124t97.5 56v190h-732v90h1180v-90h-348v-190zM1088 -228h-118l-220 234l-220 -234h-120l286 304
h106z" />
    <glyph glyph-name="u0958094D0930" horiz-adv-x="1156" 
d="M302 212q-93 12 -153.5 86t-60.5 172q0 123 87.5 206.5t212.5 83.5q76 0 100 -20l-20 -100q-36 20 -80 20q-82 0 -141 -55t-59 -135q0 -67 46.5 -113.5t113.5 -46.5q63 0 113 32.5t87 97.5v470h-554v90h1232v-90h-578v-270q69 120 210 120q100 0 165 -79.5t65 -190.5
q0 -199 -190 -360l-90 60q180 129 180 300q0 67 -36 118.5t-94 51.5q-73 0 -130.5 -54t-79.5 -136v-470h-100v292l-430 -322l-60 70zM106 198q0 -65 -65 -65t-65 65t65 65t65 -65z" />
    <glyph glyph-name="u0959094D0930" horiz-adv-x="1370" 
d="M306 450q-46 0 -68 18q68 -110 155.5 -209.5t194.5 -188.5l-60 -70q-161 135 -288.5 302.5t-221.5 367.5l90 50q37 -90 79 -135t89 -45q43 0 71.5 28.5t28.5 71.5v270h-382v90h1446v-90h-220v-910h-100v155v155l-370 -262l-50 72l158 104q-107 16 -177.5 90t-70.5 176
q0 116 88 193t212 77q74 0 130 -40l-50 -80q-38 30 -80 30q-81 0 -140.5 -52t-59.5 -128q0 -73 59.5 -121.5t140.5 -48.5q62 0 114.5 37.5t95.5 112.5v440h-644v-270q0 -77 -49 -133.5t-121 -56.5zM123 63q0 65 65 65t65 -65t-65 -65t-65 65z" />
    <glyph glyph-name="u095A094D0930" horiz-adv-x="796" 
d="M546 910h-250v-490q0 -60 -50 -60q-41 0 -120.5 93.5t-79.5 136.5q0 20 10 30t30 10h70q40 0 40 50v230h-202v90h872v-90h-220v-910h-100v274l-460 -244l-40 80l500 264v536zM134 300q0 -65 -65 -65t-65 65t65 65t65 -65z" />
    <glyph glyph-name="u0918093C094D0930" horiz-adv-x="968" 
d="M338 174q-96 16 -158 84t-62 162q0 58 27.5 103t82.5 77q-70 25 -105 72.5t-35 117.5q0 62 50 120h-144v90h1044v-90h-220v-910h-100v302l-560 -352l-60 80zM718 450v460h-460q-70 -39 -70 -120q0 -58 51.5 -94t118.5 -36h130l30 -90h-90q-83 0 -146.5 -41.5
t-63.5 -108.5q0 -66 57.5 -108t132.5 -42q80 0 157.5 45t152.5 135zM131 176q0 -65 -65 -65t-65 65t65 65t65 -65z" />
    <glyph glyph-name="u0919093C094D0930" horiz-adv-x="1078" 
d="M578 20q-164 0 -310.5 120.5t-239.5 319.5l80 50q83 -176 208.5 -283t261.5 -107q84 0 142 62t58 148q0 30 -12.5 45t-37.5 15q-31 0 -90 -20t-90 -20q-80 0 -170 95t-90 175q0 55 37.5 92.5t92.5 37.5h270v160h-694v90h1154v-90h-360v-260h-370q-30 0 -30 -30
q0 -43 58.5 -106.5t101.5 -63.5q31 0 90 20t90 20q64 0 107 -47t43 -113q0 -129 -86.5 -219.5t-213.5 -90.5zM1045 565q0 -65 -65 -65t-65 65t65 65t65 -65zM920 -322h-118l-220 234l-220 -234h-120l286 304h106zM180 66q0 -65 -65 -65t-65 65t65 65t65 -65z" />
    <glyph glyph-name="u091A093C094D0930" horiz-adv-x="958" 
d="M364 188q-75 20 -120.5 85t-45.5 147q0 78 27.5 133t82.5 87h-290v100h590v-100h-140q-77 -29 -123.5 -88t-46.5 -132q0 -58 41 -99t99 -41q45 0 112.5 45t157.5 135v450h-714v90h1034v-90h-220v-910h-100v324l-520 -374l-60 80zM161 206q0 -65 -65 -65t-65 65t65 65
t65 -65z" />
    <glyph glyph-name="u091B093C094D0930" horiz-adv-x="1066" 
d="M786 660q-49 0 -79.5 -35.5t-30.5 -84.5q0 -134 110 -210q120 86 120 220q0 48 -35 79t-85 31zM836 760q76 -15 123 -73.5t47 -136.5q0 -184 -175 -342t-365 -158q-136 0 -238 79.5t-102 200.5q0 77 27.5 134.5t82.5 95.5q-80 37 -120 87t-40 113q0 107 60 150h-142v90
h1142v-90h-300v-150zM736 760v150h-480q-80 -67 -80 -150q0 -61 54.5 -100.5t125.5 -39.5h110v-100h-80q-69 0 -114.5 -56.5t-45.5 -133.5q0 -79 73 -129.5t167 -50.5q129 0 250 100q-140 140 -140 290q0 82 43.5 144.5t116.5 75.5zM809 -294h-118l-220 234l-220 -234h-120
l286 304h106zM207 -6q0 -65 -65 -65t-65 65t65 65t65 -65z" />
    <glyph glyph-name="u095B094D0930" horiz-adv-x="1090" 
d="M840 600h-250q70 -99 70 -170q0 -83 -58.5 -141.5t-141.5 -58.5q-131 0 -246 117t-184 303l90 40q58 -156 149 -258t191 -102q43 0 71.5 28.5t28.5 71.5q0 60 -37.5 127.5t-112.5 142.5h430v210h-846v90h1166v-90h-220v-910h-100v230l-470 -250l-40 80l510 260v280z
M179 217q0 -65 -65 -65t-65 65t65 65t65 -65z" />
    <glyph glyph-name="u091D093C094D0930" horiz-adv-x="1108" 
d="M858 500v410h-280v-240h-350q-50 0 -50 -30q0 -38 47 -94t83 -56q29 0 85 15t85 15q72 0 100 -20q56 -40 150 -40q44 0 130 40zM858 400q-68 -30 -110 -30q-48 0 -130 30q0 -119 -57.5 -189t-172.5 -91q79 -66 170 -100l-70 -90q-132 62 -220 150q-79 0 -144.5 32.5
t-65.5 87.5q0 35 29.5 57.5t70.5 22.5q94 0 160 -100q84 17 142 63t58 107q0 80 -50 80q-29 0 -85 -20q-55 -20 -85 -20q-60 0 -140 94t-80 156q0 53 45 86.5t105 33.5h250v150h-484v90h1184v-90h-220v-910h-100v160l-230 -120l-50 70l280 130v160zM1098 -50zM258 -60
q0 -65 -65 -65t-65 65t65 65t65 -65z" />
    <glyph glyph-name="u091E093C094D0930" horiz-adv-x="1108" 
d="M858 440q-82 -30 -140 -30q-44 0 -100 30q-20 -112 -101 -186t-189 -74q-169 0 -300 190l70 70q91 -160 230 -160q80 0 135 59t55 141q0 70 -46 120t-114 50q-102 0 -170 -80l-70 80q100 100 240 100q91 0 163.5 -59t96.5 -151q26 -30 100 -30q92 0 140 40v360h-864v90
h1184v-90h-220v-910h-100v188l-450 -238l-40 80l490 250v160zM188 65q0 -65 -65 -65t-65 65t65 65t65 -65z" />
    <glyph glyph-name="u091F093C094D0930" horiz-adv-x="850" 
d="M678 910v-300h-370q-61 0 -100.5 -50.5t-39.5 -119.5q0 -134 93 -227t227 -93q177 0 260 140l80 -70q-100 -170 -340 -170q-176 0 -298 122t-122 298q0 111 68 190.5t172 79.5h270v200h-584v90h926v-90h-242zM211 -31q0 -65 -65 -65t-65 65t65 65t65 -65zM839 -321h-118
l-220 234l-220 -234h-120l286 304h106z" />
    <glyph glyph-name="u0920093C094D0930" horiz-adv-x="872" 
d="M676 620h-350q-68 0 -114 -53.5t-46 -126.5q0 -123 99.5 -226.5t220.5 -103.5q89 0 149.5 64.5t60.5 155.5q0 121 -120 220l80 60q140 -119 140 -280q0 -133 -89.5 -226.5t-220.5 -93.5q-162 0 -291 134t-129 296q0 116 74.5 198t185.5 82h250v190h-582v90h948v-90h-266
v-290zM181 11q0 -65 -65 -65t-65 65t65 65t65 -65zM823 -334h-118l-220 234l-220 -234h-120l286 304h106z" />
    <glyph glyph-name="u095C094D0930" horiz-adv-x="950" 
d="M578 20q-164 0 -310.5 120.5t-239.5 319.5l80 50q83 -176 208.5 -283t261.5 -107q84 0 142 62t58 148q0 30 -12.5 45t-37.5 15q-31 0 -90 -20t-90 -20q-80 0 -170 95t-90 175q0 55 37.5 92.5t92.5 37.5h270v160h-694v90h1026v-90h-232v-260h-370q-30 0 -30 -30
q0 -43 58.5 -106.5t101.5 -63.5q31 0 90 20t90 20q64 0 107 -47t43 -113q0 -129 -86.5 -219.5t-213.5 -90.5zM275 -18q0 -65 -65 -65t-65 65t65 65t65 -65zM912 -322h-118l-220 234l-220 -234h-120l286 304h106z" />
    <glyph glyph-name="u095D094D0930" horiz-adv-x="870" 
d="M714 270q0 43 -28.5 71.5t-71.5 28.5q-38 0 -64 -26t-26 -64q0 -51 17.5 -91t52.5 -69q54 11 87 53t33 97zM684 610h-390q-57 0 -93.5 -48t-36.5 -112q0 -120 103 -225t227 -115q-70 58 -70 170q0 79 55.5 134.5t134.5 55.5q84 0 142 -58t58 -142q0 -110 -96.5 -180
t-223.5 -70q-163 0 -296.5 133.5t-133.5 296.5q0 106 65.5 183t164.5 77h290v200h-590v90h946v-90h-256v-300zM227 -21q0 -65 -65 -65t-65 65t65 65t65 -65zM840 -325h-118l-220 234l-220 -234h-120l286 304h106z" />
    <glyph glyph-name="u0923093C094D0930" horiz-adv-x="1006" 
d="M466 910h-270v-420q0 -61 40.5 -105.5t99.5 -44.5q56 0 93 44t37 106v420zM756 910h-190v-420q0 -103 -66 -176.5t-164 -73.5q-102 0 -171 73t-69 177v420h-102v90h1082v-90h-220v-910h-100v188l-450 -238l-40 80l490 250v630zM168 156q0 -65 -65 -65t-65 65t65 65
t65 -65z" />
    <glyph glyph-name="u0924093C094D0930" horiz-adv-x="810" 
d="M560 370l-360 -240l-50 80l362 240q-140 140 -222 140q-113 0 -210 -80l-60 80q121 100 270 100q110 0 270 -160v380h-566v90h886v-90h-220v-910h-100v370zM150 29q0 -65 -65 -65t-65 65t65 65t65 -65z" />
    <glyph glyph-name="u0925093C094D0930" horiz-adv-x="1040" 
d="M392 204q-123 17 -210.5 113t-111.5 233q27 -10 150 -10q103 0 181.5 59t78.5 151q0 73 -46 126.5t-114 53.5q-55 0 -97.5 -30.5t-42.5 -79.5q0 -40 36 -65t84 -25v-100q-99 0 -159.5 51t-60.5 139q0 91 71 150.5t169 59.5q111 0 185.5 -82t74.5 -198
q0 -135 -110.5 -222.5t-259.5 -87.5q33 -70 95.5 -105t154.5 -35q85 0 167.5 47.5t162.5 142.5v420h-100v90h420v-90h-220v-910h-100v342l-630 -392l-50 90zM150 197q0 -65 -65 -65t-65 65t65 65t65 -65z" />
    <glyph glyph-name="u0926093C094D0930" horiz-adv-x="822" 
d="M892 910h-214v-260h-370q-61 0 -105.5 -40.5t-44.5 -99.5q0 -104 98.5 -182t211.5 -78q42 0 60 10q-30 43 -30 80q0 43 32.5 71.5t77.5 28.5q48 0 79 -31t31 -79q0 -73 -80 -120q36 -98 130 -210l-100 -40q-77 77 -130 220l-330 -260l-70 70l250 180q-144 39 -237 131
t-93 209q0 102 73 171t177 69h270v160h-584v90h898v-90zM150 146q0 -65 -65 -65t-65 65t65 65t65 -65z" />
    <glyph glyph-name="u0927093C094D0930" horiz-adv-x="982" 
d="M358 176q-88 18 -147 73.5t-59 130.5q0 116 80 170q-85 59 -127.5 126.5t-42.5 143.5q0 86 57.5 148t142.5 62q87 0 138.5 -45.5t51.5 -124.5q0 -68 -53.5 -114t-126.5 -46v100q80 0 80 60q0 31 -27 50.5t-63 19.5q-43 0 -71.5 -32t-28.5 -78q0 -62 37.5 -114.5
t112.5 -95.5q69 30 150 30h60l60 -100h-110q-86 0 -153 -44t-67 -116q0 -50 52 -80t118 -30q73 0 150.5 35t159.5 105v500h-220v90h540v-90h-220v-910h-100v292l-600 -342l-40 80zM132 182q0 -65 -65 -65t-65 65t65 65t65 -65z" />
    <glyph glyph-name="u0928093C094D0930" horiz-adv-x="892" 
d="M642 550h-290q-60 0 -60 -40v-100q0 -60 -50 -60q-38 0 -119 104t-81 146q0 50 70 50h530v260h-648v90h968v-90h-220v-910h-100v296l-520 -296l-50 80l570 318v152zM144 271q0 -65 -65 -65t-65 65t65 65t65 -65z" />
    <glyph glyph-name="u092A093C094D0930" horiz-adv-x="866" 
d="M936 910h-220v-910h-100v380l-500 -380l-60 80l300 220q-97 24 -158.5 92.5t-61.5 157.5v360h-142v90h942v-90zM616 490v420h-380v-360q0 -70 50 -120t114 -50q45 1 66 10zM155 286q0 -65 -65 -65t-65 65t65 65t65 -65z" />
    <glyph glyph-name="u092C093C094D0930" horiz-adv-x="826" 
d="M356 320q72 0 120 40l-270 220q-30 -38 -30 -100q0 -68 53.5 -114t126.5 -46zM310 232q-101 23 -167.5 91t-66.5 157q0 123 87.5 206.5t212.5 83.5q75 0 130 -30l-30 -80q-44 20 -100 20q-89 0 -120 -40l290 -220l30 40v450h-582v90h902v-90h-220v-910h-100v300
l-450 -300l-50 80zM105 230q0 -65 -65 -65t-65 65t65 65t65 -65z" />
    <glyph glyph-name="u092D093C094D0930" horiz-adv-x="990" 
d="M740 430h-330v-80q0 -40 -50 -40q-32 0 -106 74t-74 106q0 20 12.5 30t37.5 10h80v290q0 42 -25.5 71t-64.5 29q-36 0 -63 -19.5t-27 -50.5q0 -34 23 -57t57 -23v-100q-74 0 -127 53t-53 127q0 72 56.5 121t133.5 49q80 0 135 -59t55 -141v-290h330v380h-260v90h580v-90
h-220v-910h-100v250l-470 -250l-40 80l510 260v90zM215 275q0 -65 -65 -65t-65 65t65 65t65 -65z" />
    <glyph glyph-name="u092E093C094D0930" horiz-adv-x="874" 
d="M624 580v330h-360v-330h360zM624 480h-350v-70q0 -60 -40 -60q-35 0 -117.5 73.5t-82.5 106.5q0 50 50 50h80v330h-170v90h950v-90h-220v-910h-100v238l-450 -248l-50 80l500 260v150zM138 265q0 -65 -65 -65t-65 65t65 65t65 -65z" />
    <glyph glyph-name="u092F093C094D0930" horiz-adv-x="896" 
d="M386 290q169 0 260 160v460h-340q80 -97 80 -200q0 -90 -69.5 -156.5t-170.5 -83.5q14 -79 82.5 -129.5t157.5 -50.5zM362 210q-139 4 -232.5 102.5t-93.5 237.5q107 0 178.5 42t71.5 118q0 100 -100 200h-192v90h972v-90h-220v-910h-100v300l-470 -310l-60 70zM98 190
q0 -65 -65 -65t-65 65t65 65t65 -65z" />
    <glyph glyph-name="u0932093C094D0930" horiz-adv-x="1098" 
d="M848 600q-97 0 -168 -81.5t-92 -198.5l-100 30q16 98 60 150q-66 100 -180 100q-83 0 -141.5 -58.5t-58.5 -141.5q0 -102 66 -185.5t174 -124.5l-40 -90q-135 50 -217.5 158.5t-82.5 241.5q0 126 87 213t213 87q157 0 250 -110q44 62 230 110v210h-854v90h1174v-90h-220
v-910h-100v196l-300 -166l-50 80l350 196v294zM145 5q0 -65 -65 -65t-65 65t65 65t65 -65z" />
    <glyph glyph-name="u0934094D0930" horiz-adv-x="1104" 
d="M786 200q68 0 109 67t41 153q0 83 -41.5 146.5t-108.5 63.5q-59 0 -108 -61t-72 -149q39 -110 84 -165t96 -55zM336 210q49 0 91.5 50t78.5 150q-30 110 -72.5 165t-97.5 55q-74 0 -122 -66t-48 -152q0 -81 48 -141.5t122 -60.5zM826 720q96 -17 153 -102t57 -198
q0 -124 -70 -217t-180 -93q-69 0 -126.5 50t-103.5 150q-46 -100 -101 -150t-119 -50q-117 0 -193.5 89t-76.5 213q0 126 77 217t193 91q72 0 131.5 -50t88.5 -130q30 79 72.5 124t97.5 56v190h-732v90h1180v-90h-348v-190zM302 -29q0 -65 -65 -65t-65 65t65 65t65 -65z
M1098 -235h-118l-220 234l-220 -234h-120l286 304h106z" />
    <glyph glyph-name="u0935093C094D0930" horiz-adv-x="832" 
d="M320 224q-107 16 -177.5 90t-70.5 176q0 116 88 193t212 77q74 0 130 -40l-50 -80q-38 30 -80 30q-81 0 -140.5 -52t-59.5 -128q0 -73 59.5 -121.5t140.5 -48.5q62 0 114.5 37.5t95.5 112.5v440h-588v90h908v-90h-220v-910h-100v310l-440 -310l-50 80zM101 218
q0 -65 -65 -65t-65 65t65 65t65 -65z" />
    <glyph glyph-name="u0936093C094D0930" horiz-adv-x="1066" 
d="M1136 910h-220v-910h-100v450l-470 -360l-70 80l380 280l-270 110l-300 -200l-66 76l276 178q-138 78 -138 206q0 80 54 135t134 55q82 0 141 -55t59 -135q0 -110 -96 -190l286 -120l80 60v340h-180v90h500v-90zM446 820q0 43 -28.5 71.5t-71.5 28.5q-39 0 -64.5 -29
t-25.5 -71q0 -98 110 -130q80 55 80 130zM183 205q0 -65 -65 -65t-65 65t65 65t65 -65z" />
    <glyph glyph-name="u0937093C094D0930" horiz-adv-x="804" 
d="M554 580v330h-350zM554 470l-370 340v-250q0 -67 46.5 -113.5t113.5 -46.5q128 0 210 70zM554 360q-84 -60 -210 -60q-108 0 -184 76t-76 184v350h-90v90h880v-90h-220v-910h-100v224l-460 -244l-40 80l500 254v46zM145 239q0 -65 -65 -65t-65 65t65 65t65 -65z" />
    <glyph glyph-name="u0938093C094D0930" horiz-adv-x="1076" 
d="M1146 910h-220v-910h-100v385l-256 -145l-50 80l306 169v1h-290l-50 90h340v330h-350v-270q0 -77 -49 -133.5t-121 -56.5q-46 0 -68 18q136 -219 350 -398l-60 -70q-322 270 -510 670l90 50q74 -180 168 -180q43 0 71.5 28.5t28.5 71.5v270h-382v90h1152v-90zM123 64
q0 65 65 65t65 -65t-65 -65t-65 65z" />
    <glyph glyph-name="u0939093C094D0930" horiz-adv-x="830" 
d="M900 910h-206v-260h-440q-30 0 -30 -40q0 -24 32 -62.5t58 -53.5q78 26 156 26q115 0 199.5 -57.5t84.5 -152.5q0 -136 -100 -220l-80 70q80 55 80 150q0 44 -40 78l-210 -250l-80 60l190 230q-21 6 -42 6q-121 0 -199.5 -51t-78.5 -143q0 -156 146 -253t334 -97v-90
q-230 0 -405 126t-175 324q0 61 36.5 118.5t93.5 85.5q-120 99 -120 186q0 47 31.5 78.5t78.5 31.5h380v160h-600v90h906v-90zM183 -141q0 -65 -65 -65t-65 65t65 65t65 -65z" />
    <glyph glyph-name="u0918093C094DHalf" horiz-adv-x="718" 
d="M408 170q-113 0 -196.5 64.5t-83.5 165.5q0 64 22.5 109t67.5 71q-66 18 -108 73.5t-42 126.5q0 59 50 130h-124v90h794v-90h-550q-70 -57 -70 -130q0 -55 41.5 -92.5t98.5 -37.5h170l50 -90h-140q-67 0 -113.5 -46.5t-46.5 -113.5q0 -58 55 -94t125 -36q80 0 167.5 47.5
t182.5 142.5v-120q-102 -85 -189.5 -127.5t-160.5 -42.5zM196 94q0 -65 -65 -65t-65 65t65 65t65 -65z" />
    <glyph glyph-name="u0919093C094DHalf" horiz-adv-x="1078" 
d="M578 20q-164 0 -310.5 120.5t-239.5 319.5l80 50q83 -176 208.5 -283t261.5 -107q84 0 142 62t58 148q0 30 -12.5 45t-37.5 15q-31 0 -90 -20t-90 -20q-80 0 -170 95t-90 175q0 55 37.5 92.5t92.5 37.5h270v160h-694v90h1154v-90h-360v-260h-370q-30 0 -30 -30
q0 -43 58.5 -106.5t101.5 -63.5q31 0 90 20t90 20q64 0 107 -47t43 -113q0 -129 -86.5 -219.5t-213.5 -90.5zM1045 565q0 -65 -65 -65t-65 65t65 65t65 -65zM180 66q0 -65 -65 -65t-65 65t65 65t65 -65zM894 -284l-60 -60l-300 240l-70 -40l-40 80l110 50z" />
    <glyph glyph-name="u091A093C094DHalf" horiz-adv-x="718" 
d="M438 180q-100 0 -170 70t-70 170q0 72 27.5 127t82.5 93h-290v100h580v-100h-120q-90 -42 -135 -97t-45 -123q0 -58 41 -99t99 -41q74 0 154 75t166 225v-160q-84 -120 -164 -180t-156 -60zM788 910h-794v90h794v-90zM808 -50zM958 -50zM264 98q0 -65 -65 -65t-65 65
t65 65t65 -65z" />
    <glyph glyph-name="u091B093C094DHalf" horiz-adv-x="1066" 
d="M786 660q-49 0 -79.5 -35.5t-30.5 -84.5q0 -134 110 -210q120 86 120 220q0 48 -35 79t-85 31zM786 760q91 0 155.5 -60.5t64.5 -149.5q0 -184 -175 -342t-365 -158q-136 0 -238 79.5t-102 200.5q0 77 27.5 134.5t82.5 95.5q-80 37 -120 87t-40 113q0 107 60 150h-142v90
h1142v-90h-880q-80 -67 -80 -150q0 -61 54.5 -100.5t125.5 -39.5h110v-100h-80q-69 0 -114.5 -56.5t-45.5 -133.5q0 -79 73 -129.5t167 -50.5q129 0 250 100q-140 140 -140 290q0 91 60 155.5t150 64.5zM77 -6q0 65 65 65t65 -65t-65 -65t-65 65z" />
    <glyph glyph-name="u091D093C094DHalf" horiz-adv-x="818" 
d="M888 910h-320v-240h-350q-40 0 -40 -30q0 -45 44 -102.5t86 -57.5q30 0 85 25t85 25q40 0 110 -40q53 -30 150 -30q72 0 120 40v-100q-82 -30 -120 -30q-62 0 -90 10v-50q0 -69 -84.5 -144.5t-155.5 -75.5q46 -38 170 -110l-60 -70q-7 12 -86 62q-90 56 -104 68
q-99 0 -184.5 34.5t-85.5 95.5q0 80 90 80q117 0 180 -110q96 27 163 78.5t67 111.5q0 34 -23 57t-57 23q-30 0 -85 -25t-85 -25q-62 0 -146 98t-84 162q0 52 41 86t99 34h250v150h-474v90h894v-90zM45 -35q0 65 65 65t65 -65t-65 -65t-65 65z" />
    <glyph glyph-name="u091E093C094DHalf" horiz-adv-x="690" 
d="M860 450q-84 -40 -150 -40q-18 0 -100 30q-10 -110 -86.5 -185t-183.5 -75q-160 0 -320 160l50 70q140 -140 270 -140q76 0 128 59.5t52 140.5q0 74 -49.5 127t-120.5 53q-84 0 -140 -40l-50 80q84 60 190 60q97 0 169.5 -64.5t90.5 -165.5q82 -30 110 -30q82 0 140 50
v-90zM760 910h-766v90h766v-90zM958 -50zM858 -50zM1108 -50zM45 -35q0 65 65 65t65 -65t-65 -65t-65 65z" />
    <glyph glyph-name="u091F093C094DHalf" horiz-adv-x="850" 
d="M678 910v-300h-370q-61 0 -100.5 -50.5t-39.5 -119.5q0 -134 93 -227t227 -93q177 0 260 140l80 -70q-100 -170 -340 -170q-176 0 -298 122t-122 298q0 111 68 190.5t172 79.5h270v200h-584v90h926v-90h-242zM211 -31q0 -65 -65 -65t-65 65t65 65t65 -65zM845 -290
l-60 -60l-300 240l-70 -40l-40 80l110 50z" />
    <glyph glyph-name="u0920093C094DHalf" horiz-adv-x="872" 
d="M676 620h-350q-68 0 -114 -53.5t-46 -126.5q0 -123 99.5 -226.5t220.5 -103.5q89 0 149.5 64.5t60.5 155.5q0 121 -120 220l80 60q140 -119 140 -280q0 -133 -89.5 -226.5t-220.5 -93.5q-162 0 -291 134t-129 296q0 116 74.5 198t185.5 82h250v190h-582v90h948v-90h-266
v-290zM181 11q0 -65 -65 -65t-65 65t65 65t65 -65zM845 -290l-60 -60l-300 240l-70 -40l-40 80l110 50z" />
    <glyph glyph-name="u0921093C094DHalf" horiz-adv-x="950" 
d="M578 20q-164 0 -310.5 120.5t-239.5 319.5l80 50q83 -176 208.5 -283t261.5 -107q84 0 142 62t58 148q0 30 -12.5 45t-37.5 15q-31 0 -90 -20t-90 -20q-80 0 -170 95t-90 175q0 55 37.5 92.5t92.5 37.5h270v160h-694v90h1026v-90h-232v-260h-370q-30 0 -30 -30
q0 -43 58.5 -106.5t101.5 -63.5q31 0 90 20t90 20q64 0 107 -47t43 -113q0 -129 -86.5 -219.5t-213.5 -90.5zM275 -18q0 -65 -65 -65t-65 65t65 65t65 -65zM912 -290l-60 -60l-300 240l-70 -40l-40 80l110 50z" />
    <glyph glyph-name="u0922093C094DHalf" horiz-adv-x="870" 
d="M714 270q0 43 -28.5 71.5t-71.5 28.5q-38 0 -64 -26t-26 -64q0 -51 17.5 -91t52.5 -69q54 11 87 53t33 97zM684 610h-390q-57 0 -93.5 -48t-36.5 -112q0 -120 103 -225t227 -115q-70 58 -70 170q0 79 55.5 134.5t134.5 55.5q84 0 142 -58t58 -142q0 -110 -96.5 -180
t-223.5 -70q-163 0 -296.5 133.5t-133.5 296.5q0 106 65.5 183t164.5 77h290v200h-590v90h946v-90h-256v-300zM227 -21q0 -65 -65 -65t-65 65t65 65t65 -65zM839 -290l-60 -60l-300 240l-70 -40l-40 80l110 50z" />
    <glyph glyph-name="u0923093C094DHalf" horiz-adv-x="682" 
d="M486 910h-290v-440q0 -56 44 -93t106 -37q57 0 98.5 36.5t41.5 93.5v440zM752 910h-166v-440q0 -95 -70 -157.5t-170 -62.5q-102 0 -176 62.5t-74 157.5v440h-102v90h758v-90zM176 159q0 -65 -65 -65t-65 65t65 65t65 -65z" />
    <glyph glyph-name="u0924093C094DHalf" horiz-adv-x="566" 
d="M606 620h-310q-55 0 -97.5 -30.5t-42.5 -79.5q0 -93 70 -198t210 -222l-60 -60q-160 135 -240 255t-80 225q0 87 72 143.5t168 56.5h310v-90zM636 910h-642v90h642v-90zM149 91q0 -65 -65 -65t-65 65t65 65t65 -65z" />
    <glyph glyph-name="u0925093C094DHalf" horiz-adv-x="814" 
d="M464 180q-134 0 -245.5 92.5t-164.5 237.5h180q98 0 169 59.5t71 150.5q0 80 -55 135t-135 55q-49 0 -84.5 -31.5t-35.5 -78.5q0 -41 43 -65.5t97 -24.5v-90q-94 0 -167 50.5t-73 129.5q0 89 64.5 149.5t155.5 60.5q122 0 206 -84t84 -206q0 -130 -107.5 -215t-252.5 -85
q43 -75 105.5 -112.5t144.5 -37.5q108 0 210.5 74.5t179.5 205.5v-150q-76 -110 -173.5 -165t-216.5 -55zM884 910h-270v90h270v-90zM192 143q0 -65 -65 -65t-65 65t65 65t65 -65z" />
    <glyph glyph-name="u0926093C094DHalf" horiz-adv-x="826" 
d="M896 910h-210v-260h-390q-59 0 -99.5 -40.5t-40.5 -99.5q0 -118 119 -189t271 -71q0 66 30 118t80 52q34 0 57 -23t23 -57q0 -85 -90 -150l110 -190l-90 -40l-110 200q-195 0 -347.5 96.5t-152.5 253.5q0 101 69.5 170.5t170.5 69.5h290v160h-592v90h902v-90zM217 108
q0 -65 -65 -65t-65 65t65 65t65 -65zM905 -337l-60 -60l-300 240l-70 -40l-40 80l110 50z" />
    <glyph glyph-name="u0927093C094DHalf" horiz-adv-x="736" 
d="M416 160q-109 0 -189.5 61.5t-80.5 158.5q0 119 90 170q-90 42 -135 109.5t-45 160.5q0 83 58.5 141.5t141.5 58.5q76 0 133 -45.5t57 -114.5q0 -65 -54 -107.5t-126 -42.5v90q80 0 80 60t-90 60q-43 0 -71.5 -28.5t-28.5 -71.5q0 -74 44.5 -134.5t115.5 -85.5
q82 30 120 30h100l50 -80h-120q-90 0 -160 -47.5t-70 -122.5q0 -58 55 -94t125 -36q79 0 169 60t191 180v-130q-100 -100 -190 -150t-170 -50zM806 910h-280v90h280v-90zM206 92q0 -65 -65 -65t-65 65t65 65t65 -65z" />
    <glyph glyph-name="u092A093C094DHalf" horiz-adv-x="530" 
d="M600 910h-420v-320q0 -78 52 -134t128 -56q137 0 210 160v-140q-76 -110 -210 -110q-120 0 -200 85t-80 205v310h-86v90h606v-90zM191 220q0 -65 -65 -65t-65 65t65 65t65 -65z" />
    <glyph glyph-name="u092C093C094DHalf" horiz-adv-x="550" 
d="M340 290q90 0 150 60l-300 220q-30 -38 -30 -100q0 -74 53 -127t127 -53zM340 190q-118 0 -199 81t-81 199q0 126 87 213t213 87q56 0 100 -20v-100q-28 20 -100 20t-120 -40l310 -230l40 50v-130q-44 -65 -106.5 -97.5t-143.5 -32.5zM620 910h-626v90h626v-90zM658 50z
M808 50zM203 78q0 -65 -65 -65t-65 65t65 65t65 -65z" />
    <glyph glyph-name="u092D093C094DHalf" horiz-adv-x="700" 
d="M740 440h-330v-90q0 -40 -50 -40q-32 0 -111 65t-79 95q0 24 18 42t42 18h80v290q0 42 -25.5 71t-64.5 29q-36 0 -63 -19.5t-27 -50.5q0 -34 23 -57t57 -23v-100q-74 0 -127 53t-53 127q0 72 56.5 121t133.5 49q80 0 135 -59t55 -141v-290h330v-90zM770 910h-290v90h290
v-90zM340 170q0 -65 -65 -65t-65 65t65 65t65 -65z" />
    <glyph glyph-name="u092E093C094DHalf" horiz-adv-x="600" 
d="M670 910h-410v-350h380v-90h-380v-90q0 -40 -40 -40q-33 0 -111.5 69.5t-78.5 100.5q0 50 50 50h80v350h-166v90h676v-90zM189 209q0 -65 -65 -65t-65 65t65 65t65 -65z" />
    <glyph glyph-name="u092F093C094DHalf" horiz-adv-x="620" 
d="M390 200q-123 0 -221.5 103t-138.5 257q97 0 173.5 46.5t76.5 123.5q0 80 -100 180h-186v90h696v-90h-390q80 -80 80 -180q0 -95 -62.5 -163.5t-157.5 -76.5q32 -85 93.5 -137.5t136.5 -52.5q162 0 270 190v-140q-125 -150 -270 -150zM646 50zM197 126q0 -65 -65 -65
t-65 65t65 65t65 -65z" />
    <glyph glyph-name="u0932093C094DHalf" horiz-adv-x="812" 
d="M852 580q-105 0 -187.5 -73t-112.5 -187l-90 40q44 120 80 150q-77 90 -180 90q-81 0 -140.5 -52t-59.5 -128q0 -105 90.5 -197t229.5 -143l-40 -80q-166 60 -273 173.5t-107 246.5q0 119 88 199.5t212 80.5q130 0 250 -120q100 100 240 100v-100zM882 910h-888v90h888
v-90zM948 0zM131 52q0 -65 -65 -65t-65 65t65 65t65 -65z" />
    <glyph glyph-name="u0933093C094DHalf" horiz-adv-x="1600" 
d="M200 1400h1200v-1400h-1200v1400zM1300 100v1200h-1000v-1200h1000z" />
    <glyph glyph-name="u0935093C094DHalf" horiz-adv-x="520" 
d="M340 220q-118 0 -199 82t-81 200t81 198t199 80q92 0 160 -40l-40 -90q-43 30 -120 30q-76 0 -128 -51t-52 -127q0 -79 51.5 -135.5t128.5 -56.5q50 0 105 35t115 105v-130q-100 -100 -220 -100zM590 910h-596v90h596v-90zM582 0zM187 119q0 -65 -65 -65t-65 65t65 65
t65 -65z" />
    <glyph glyph-name="u0936093C094DHalf" horiz-adv-x="668" 
d="M254 330l310 -250l-60 -80l-460 390l60 70l100 -60q117 0 198.5 76t81.5 188q-54 -80 -150 -80q-101 0 -170.5 67.5t-69.5 168.5q0 98 70 164t170 66q121 0 185.5 -91t64.5 -249q0 -154 -93.5 -267t-236.5 -113zM194 820q0 -58 41 -99t99 -41q55 0 92.5 41.5t37.5 98.5
q0 56 -37 93t-93 37q-57 0 -98.5 -37.5t-41.5 -92.5zM85 55q0 65 65 65t65 -65t-65 -65t-65 65z" />
    <glyph glyph-name="u0937093C094DHalf" horiz-adv-x="554" 
d="M544 450l-360 370v-260q0 -76 56 -128t134 -52q88 0 170 70zM624 910h-400l370 -380v-150q-127 -90 -220 -90q-120 0 -205 77.5t-85 192.5v350h-90v90h630v-90zM183 211q0 -65 -65 -65t-65 65t65 65t65 -65z" />
    <glyph glyph-name="u0938093C094DHalf" horiz-adv-x="786" 
d="M306 450q-46 0 -68 18q68 -110 155.5 -209.5t194.5 -188.5l-60 -70q-161 135 -288.5 302.5t-221.5 367.5l90 50q37 -90 79 -135t89 -45q43 0 71.5 28.5t28.5 71.5v270h-382v90h862v-90h-380v-270q0 -77 -49 -133.5t-121 -56.5zM816 480h-270l-50 100h320v-100zM251 64
q0 -65 -65 -65t-65 65t65 65t65 -65z" />
    <glyph glyph-name="u0939093C094DHalf" horiz-adv-x="794" 
d="M864 910h-200v-240h-410q-70 0 -70 -40q0 -85 100 -120h550v-90h-420q-90 0 -160 -47.5t-70 -122.5q0 -71 136.5 -133t333.5 -97l-60 -70q-212 40 -361 120.5t-149 179.5q0 127 130 200q-130 61 -130 180q0 58 51.5 94t118.5 36h310v150h-570v90h870v-90zM266 -92
q0 -65 -65 -65t-65 65t65 65t65 -65z" />
    <glyph glyph-name="u0915094D0930094DHalf" horiz-adv-x="942" 
d="M682 489v-489h-100v309l-441 -309l-49 80l227 143q-113 20 -180 95t-67 171q0 119 90 195t211 76q75 0 129 -39l-49 -82q-40 31 -80 31q-84 0 -142.5 -52.5t-58.5 -128.5q0 -74 61 -122t140 -48q82 0 145.5 66.5t63.5 83.5v441h-588v90h1018v-90h-330v-241
q76 110 210 110q36 0 90 -20v-110q-40 40 -90 40q-77 0 -135.5 -57.5t-74.5 -142.5z" />
    <glyph glyph-name="u0916094D0930094DHalf" horiz-adv-x="1120" 
d="M306 450q-46 0 -68 18q68 -110 155.5 -209.5t194.5 -188.5l-60 -70q-161 135 -288.5 302.5t-221.5 367.5l90 50q37 -90 79 -135t89 -45q43 0 71.5 28.5t28.5 71.5v270h-382v90h1196v-90h-714v-270q0 -77 -49 -133.5t-121 -56.5zM1120 310l-370 -262l-50 72l158 104
q-107 16 -177.5 90t-70.5 176q0 116 88 193t212 77q74 0 130 -40l-50 -80q-38 30 -80 30q-81 0 -140.5 -52t-59.5 -128q0 -73 59.5 -121.5t140.5 -48.5q62 0 114.5 37.5t95.5 112.5v-160z" />
    <glyph glyph-name="u0917094D0930094DHalf" horiz-adv-x="546" 
d="M616 910h-320v-490q0 -60 -50 -60q-41 0 -120.5 93.5t-79.5 136.5q0 20 10 30t30 10h70q40 0 40 50v230h-202v90h622v-90zM546 274l-460 -244l-40 80l500 264v-100zM646 -50zM796 -50z" />
    <glyph glyph-name="u0918094D0930094DHalf" horiz-adv-x="718" 
d="M338 174q-96 16 -158 84t-62 162q0 58 27.5 103t82.5 77q-70 25 -105 72.5t-35 117.5q0 62 50 120h-144v90h794v-90h-530q-70 -39 -70 -120q0 -58 51.5 -94t118.5 -36h130l30 -90h-90q-83 0 -146.5 -41.5t-63.5 -108.5q0 -66 57.5 -108t132.5 -42q80 0 157.5 45
t152.5 135v-148l-560 -352l-60 80zM818 -50zM968 -50z" />
    <glyph glyph-name="u0919094D0930094DHalf" horiz-adv-x="1078" 
d="M578 20q-164 0 -310.5 120.5t-239.5 319.5l80 50q83 -176 208.5 -283t261.5 -107q84 0 142 62t58 148q0 30 -12.5 45t-37.5 15q-31 0 -90 -20t-90 -20q-80 0 -170 95t-90 175q0 55 37.5 92.5t92.5 37.5h270v160h-694v90h1154v-90h-360v-260h-370q-30 0 -30 -30
q0 -43 58.5 -106.5t101.5 -63.5q31 0 90 20t90 20q64 0 107 -47t43 -113q0 -129 -86.5 -219.5t-213.5 -90.5zM1045 565q0 -65 -65 -65t-65 65t65 65t65 -65zM917 -322h-118l-220 234l-220 -234h-120l286 304h106zM928 -542l-60 -60l-300 240l-70 -40l-40 80l110 50z" />
    <glyph glyph-name="u091A094D0930094DHalf" horiz-adv-x="708" 
d="M364 188q-75 20 -120.5 85t-45.5 147q0 78 27.5 133t82.5 87h-290v100h590v-100h-140q-77 -29 -123.5 -88t-46.5 -132q0 -58 41 -99t99 -41q45 0 112.5 45t157.5 135v-136l-520 -374l-60 80zM778 910h-784v90h784v-90zM808 -50zM958 -50z" />
    <glyph glyph-name="u091B094D0930094DHalf" horiz-adv-x="1066" 
d="M786 660q-49 0 -79.5 -35.5t-30.5 -84.5q0 -134 110 -210q120 86 120 220q0 48 -35 79t-85 31zM786 760q91 0 155.5 -60.5t64.5 -149.5q0 -184 -175 -342t-365 -158q-136 0 -238 79.5t-102 200.5q0 77 27.5 134.5t82.5 95.5q-80 37 -120 87t-40 113q0 107 60 150h-142v90
h1142v-90h-880q-80 -67 -80 -150q0 -61 54.5 -100.5t125.5 -39.5h110v-100h-80q-69 0 -114.5 -56.5t-45.5 -133.5q0 -79 73 -129.5t167 -50.5q129 0 250 100q-140 140 -140 290q0 91 60 155.5t150 64.5zM809 -294h-118l-220 234l-220 -234h-120l286 304h106z" />
    <glyph glyph-name="u091C094D0930094DHalf" horiz-adv-x="840" 
d="M840 600h-250q70 -99 70 -170q0 -83 -58.5 -141.5t-141.5 -58.5q-131 0 -246 117t-184 303l90 40q58 -156 149 -258t191 -102q43 0 71.5 28.5t28.5 71.5q0 60 -37.5 127.5t-112.5 142.5h430v-100zM910 910h-916v90h916v-90zM840 230l-470 -250l-40 80l510 260v-90z" />
    <glyph glyph-name="u091D094D0930094DHalf" horiz-adv-x="858" 
d="M928 910h-350v-240h-350q-50 0 -50 -30q0 -38 47 -94t83 -56q29 0 85 15t85 15q72 0 100 -20q56 -40 150 -40q27 0 130 40v-100q-68 -30 -110 -30q-48 0 -130 30q0 -119 -57.5 -189t-172.5 -91q79 -66 170 -100l-70 -90q-132 62 -220 150q-79 0 -144.5 32.5t-65.5 87.5
q0 35 29.5 57.5t70.5 22.5q94 0 160 -100q84 17 142 63t58 107q0 80 -50 80q-29 0 -85 -20q-55 -20 -85 -20q-60 0 -140 94t-80 156q0 53 45 86.5t105 33.5h250v150h-484v90h934v-90zM858 160l-230 -120l-50 70l280 130v-80z" />
    <glyph glyph-name="u091E094D0930094DHalf" horiz-adv-x="858" 
d="M858 440q-82 -30 -140 -30q-44 0 -100 30q-20 -112 -101 -186t-189 -74q-169 0 -300 190l70 70q91 -160 230 -160q80 0 135 59t55 141q0 70 -46 120t-114 50q-102 0 -170 -80l-70 80q100 100 240 100q91 0 163.5 -59t96.5 -151q26 -30 100 -30q92 0 140 40v-110zM928 910
h-934v90h934v-90zM858 188l-450 -238l-40 80l490 250v-92zM958 -50zM1108 -50z" />
    <glyph glyph-name="u091F094D0930094DHalf" horiz-adv-x="850" 
d="M678 910v-300h-370q-61 0 -100.5 -50.5t-39.5 -119.5q0 -134 93 -227t227 -93q177 0 260 140l80 -70q-100 -170 -340 -170q-176 0 -298 122t-122 298q0 111 68 190.5t172 79.5h270v200h-584v90h926v-90h-242zM825 -324h-118l-220 234l-220 -234h-120l286 304h106z
M868 -542l-60 -60l-300 240l-70 -40l-40 80l110 50z" />
    <glyph glyph-name="u0920094D0930094DHalf" horiz-adv-x="872" 
d="M676 620h-350q-68 0 -114 -53.5t-46 -126.5q0 -123 99.5 -226.5t220.5 -103.5q89 0 149.5 64.5t60.5 155.5q0 121 -120 220l80 60q140 -119 140 -280q0 -133 -89.5 -226.5t-220.5 -93.5q-162 0 -291 134t-129 296q0 116 74.5 198t185.5 82h250v190h-582v90h948v-90h-266
v-290zM822 -324h-118l-220 234l-220 -234h-120l286 304h106zM868 -542l-60 -60l-300 240l-70 -40l-40 80l110 50z" />
    <glyph glyph-name="u0921094D0930094DHalf" horiz-adv-x="950" 
d="M578 20q-164 0 -310.5 120.5t-239.5 319.5l80 50q83 -176 208.5 -283t261.5 -107q84 0 142 62t58 148q0 30 -12.5 45t-37.5 15q-31 0 -90 -20t-90 -20q-80 0 -170 95t-90 175q0 55 37.5 92.5t92.5 37.5h270v160h-694v90h1026v-90h-232v-260h-370q-30 0 -30 -30
q0 -43 58.5 -106.5t101.5 -63.5q31 0 90 20t90 20q64 0 107 -47t43 -113q0 -129 -86.5 -219.5t-213.5 -90.5zM825 -324h-118l-220 234l-220 -234h-120l286 304h106zM868 -542l-60 -60l-300 240l-70 -40l-40 80l110 50z" />
    <glyph glyph-name="u0923094D0930094DHalf" horiz-adv-x="756" 
d="M466 910h-270v-420q0 -61 40.5 -105.5t99.5 -44.5q56 0 93 44t37 106v420zM826 910h-260v-420q0 -103 -66 -176.5t-164 -73.5q-102 0 -171 73t-69 177v420h-102v90h832v-90zM756 188l-450 -238l-40 80l490 250v-92z" />
    <glyph glyph-name="u0924094D0930094DHalf" horiz-adv-x="560" 
d="M560 370l-360 -240l-50 80l362 240q-140 140 -222 140q-113 0 -210 -80l-60 80q121 100 270 100q110 0 270 -160v-160zM630 910h-636v90h636v-90z" />
    <glyph glyph-name="u0925094D0930094DHalf" horiz-adv-x="790" 
d="M392 204q-123 17 -210.5 113t-111.5 233q27 -10 150 -10q103 0 181.5 59t78.5 151q0 73 -46 126.5t-114 53.5q-55 0 -97.5 -30.5t-42.5 -79.5q0 -40 36 -65t84 -25v-100q-99 0 -159.5 51t-60.5 139q0 91 71 150.5t169 59.5q111 0 185.5 -82t74.5 -198
q0 -135 -110.5 -222.5t-259.5 -87.5q33 -70 95.5 -105t154.5 -35q85 0 167.5 47.5t162.5 142.5v-148l-630 -392l-50 90zM860 910h-170v90h170v-90z" />
    <glyph glyph-name="u0926094D0930094DHalf" horiz-adv-x="822" 
d="M892 910h-214v-260h-370q-61 0 -105.5 -40.5t-44.5 -99.5q0 -104 98.5 -182t211.5 -78q42 0 60 10q-30 43 -30 80q0 43 32.5 71.5t77.5 28.5q48 0 79 -31t31 -79q0 -73 -80 -120q36 -98 130 -210l-100 -40q-77 77 -130 220l-330 -260l-70 70l250 180q-144 39 -237 131
t-93 209q0 102 73 171t177 69h270v160h-584v90h898v-90zM901 -309l-60 -60l-300 240l-70 -40l-40 80l110 50z" />
    <glyph glyph-name="u0927094D0930094DHalf" horiz-adv-x="732" 
d="M358 176q-88 18 -147 73.5t-59 130.5q0 116 80 170q-85 59 -127.5 126.5t-42.5 143.5q0 86 57.5 148t142.5 62q87 0 138.5 -45.5t51.5 -124.5q0 -68 -53.5 -114t-126.5 -46v100q80 0 80 60q0 31 -27 50.5t-63 19.5q-43 0 -71.5 -32t-28.5 -78q0 -62 37.5 -114.5
t112.5 -95.5q69 30 150 30h60l60 -100h-110q-86 0 -153 -44t-67 -116q0 -50 52 -80t118 -30q73 0 150.5 35t159.5 105v-118l-600 -342l-40 80zM802 910h-290v90h290v-90z" />
    <glyph glyph-name="u0928094D0930094DHalf" horiz-adv-x="642" 
d="M642 550h-290q-60 0 -60 -40v-100q0 -60 -50 -60q-38 0 -119 104t-81 146q0 50 70 50h530v-100zM712 910h-718v90h718v-90zM642 296l-520 -296l-50 80l570 318v-102zM742 50z" />
    <glyph glyph-name="u092A094D0930094DHalf" horiz-adv-x="616" 
d="M367 307q-105 6 -168.5 80t-63.5 164v358h-141v90h692v-90h-450v-358q0 -70 48.5 -119t123.5 -49q15 0 44.5 7.5t61.5 31.5l102 72v-113l-499 -381l-62 80z" />
    <glyph glyph-name="u092B094D0930094DHalf" horiz-adv-x="978" 
d="M616 490v420h-380v-360q0 -70 50 -120t120 -50q49 0 84 24zM356 300q-97 24 -158.5 92.5t-61.5 157.5v360h-142v90h1054v-90h-332v-360h262v-100h-262v-450h-100v380l-500 -380l-60 80z" />
    <glyph glyph-name="u092C094D0930094DHalf" horiz-adv-x="576" 
d="M356 320q72 0 120 40l-270 220q-30 -38 -30 -100q0 -68 53.5 -114t126.5 -46zM310 232q-101 23 -167.5 91t-66.5 157q0 123 87.5 206.5t212.5 83.5q75 0 130 -30l-30 -80q-44 20 -100 20q-89 0 -120 -40l290 -220l30 40v-160l-450 -300l-50 80zM646 910h-652v90h652v-90z
M676 50zM826 50z" />
    <glyph glyph-name="u092D094D0930094DHalf" horiz-adv-x="740" 
d="M740 430h-330v-80q0 -40 -50 -40q-32 0 -106 74t-74 106q0 20 12.5 30t37.5 10h80v290q0 42 -25.5 71t-64.5 29q-36 0 -63 -19.5t-27 -50.5q0 -34 23 -57t57 -23v-100q-74 0 -127 53t-53 127q0 72 56.5 121t133.5 49q80 0 135 -59t55 -141v-290h330v-100zM810 910h-330
v90h330v-90zM740 250l-470 -250l-40 80l510 260v-90z" />
    <glyph glyph-name="u092E094D0930094DHalf" horiz-adv-x="624" 
d="M624 480h-350v-70q0 -60 -40 -60q-35 0 -117.5 73.5t-82.5 106.5q0 25 12.5 37.5t37.5 12.5h80v330h-170v90h700v-90h-430v-330h360v-100zM624 238l-450 -248l-50 80l500 260v-92z" />
    <glyph glyph-name="u092F094D0930094DHalf" horiz-adv-x="646" 
d="M362 210q-139 4 -232.5 102.5t-93.5 237.5q107 0 178.5 42t71.5 118q0 100 -100 200h-192v90h722v-90h-410q80 -97 80 -200q0 -90 -69.5 -156.5t-170.5 -83.5q14 -79 82.5 -129.5t157.5 -50.5q169 0 260 160v-150l-470 -310l-60 70z" />
    <glyph glyph-name="u0932094D0930094DHalf" horiz-adv-x="848" 
d="M848 600q-97 0 -168 -81.5t-92 -198.5l-100 30q16 98 60 150q-66 100 -180 100q-83 0 -141.5 -58.5t-58.5 -141.5q0 -102 66 -185.5t174 -124.5l-40 -90q-135 50 -217.5 158.5t-82.5 241.5q0 126 87 213t213 87q157 0 250 -110q44 62 230 110v-100zM918 910h-924v90h924
v-90zM848 196l-300 -166l-50 80l350 196v-110zM948 0z" />
    <glyph glyph-name="u0933094D0930094DHalf" horiz-adv-x="986" 
d="M778 210q68 0 109 67t41 153q0 78 -42 139t-108 61t-115 -61t-65 -149q16 -88 65 -149t115 -61zM328 210q50 0 95 55t85 165q-36 100 -81 150t-99 50q-70 0 -115 -64t-45 -146t45 -146t115 -64zM778 730q109 0 179.5 -89.5t70.5 -210.5q0 -128 -70 -224t-180 -96
q-74 0 -136.5 56.5t-93.5 143.5q-31 -87 -90.5 -143.5t-129.5 -56.5q-113 0 -186.5 92.5t-73.5 217.5t73.5 217.5t186.5 92.5q75 0 136.5 -52.5t93.5 -137.5q32 85 91 137.5t129 52.5zM1056 910h-1062v90h1062v-90zM1104 0zM1059 -234h-118l-220 234l-220 -234h-120l286 304
h106z" />
    <glyph glyph-name="u0935094D0930094DHalf" horiz-adv-x="582" 
d="M320 224q-107 16 -177.5 90t-70.5 176q0 116 88 193t212 77q74 0 130 -40l-50 -80q-38 30 -80 30q-81 0 -140.5 -52t-59.5 -128q0 -73 59.5 -121.5t140.5 -48.5q62 0 114.5 37.5t95.5 112.5v-160l-440 -310l-50 80zM652 910h-658v90h658v-90z" />
    <glyph glyph-name="u0936094D0930094DHalf" 
d="M816 450l-470 -360l-70 80l380 280l-270 110l-300 -200l-66 76l276 178q-138 78 -138 206q0 80 54 135t134 55q82 0 141 -55t59 -135q0 -110 -96 -190l286 -120l80 60v-120zM446 820q0 43 -28.5 71.5t-71.5 28.5q-39 0 -64.5 -29t-25.5 -71q0 -98 110 -130q80 55 80 130z
M886 910h-250v90h250v-90z" />
    <glyph glyph-name="u0938094D0930094DHalf" horiz-adv-x="826" 
d="M306 450q-46 0 -68 18q68 -110 155.5 -209.5t194.5 -188.5l-60 -70q-161 135 -288.5 302.5t-221.5 367.5l90 50q37 -90 79 -135t89 -45q43 0 71.5 28.5t28.5 71.5v270h-382v90h902v-90h-420v-270q0 -77 -49 -133.5t-121 -56.5zM826 386l-256 -146l-50 80l304 170h-288
l-50 90h340v-194z" />
    <glyph glyph-name="u0939094D0939094DHalf" horiz-adv-x="830" 
d="M900 910h-206v-260h-440q-30 0 -30 -40q0 -24 32 -62.5t58 -53.5q78 26 156 26q115 0 199.5 -57.5t84.5 -152.5q0 -136 -100 -220l-80 70q80 55 80 150q0 44 -40 78l-210 -250l-80 60l190 230q-21 6 -42 6q-121 0 -199.5 -51t-78.5 -143q0 -156 146 -253t334 -97v-90
q-230 0 -405 126t-175 324q0 61 36.5 118.5t93.5 85.5q-120 99 -120 186q0 47 31.5 78.5t78.5 31.5h380v160h-600v90h906v-90zM808 -469l-60 -60l-300 240l-70 -40l-40 80l110 50z" />
    <glyph glyph-name="u0958094D0930094DHalf" horiz-adv-x="942" 
d="M682 489v-489h-100v309l-441 -309l-49 80l227 143q-113 20 -180 95t-67 171q0 119 90 195t211 76q75 0 129 -39l-49 -82q-40 31 -80 31q-84 0 -142.5 -52.5t-58.5 -128.5q0 -74 61 -122t140 -48q82 0 145.5 66.5t63.5 83.5v441h-588v90h1018v-90h-330v-241
q76 110 210 110q36 0 90 -20v-110q-40 40 -90 40q-77 0 -135.5 -57.5t-74.5 -142.5zM275 -141q0 -65 -65 -65t-65 65t65 65t65 -65z" />
    <glyph glyph-name="u0959094D0930094DHalf" horiz-adv-x="1120" 
d="M306 450q-46 0 -68 18q68 -110 155.5 -209.5t194.5 -188.5l-60 -70q-161 135 -288.5 302.5t-221.5 367.5l90 50q37 -90 79 -135t89 -45q43 0 71.5 28.5t28.5 71.5v270h-382v90h1196v-90h-714v-270q0 -77 -49 -133.5t-121 -56.5zM1120 310l-370 -262l-50 72l158 104
q-107 16 -177.5 90t-70.5 176q0 116 88 193t212 77q74 0 130 -40l-50 -80q-38 30 -80 30q-81 0 -140.5 -52t-59.5 -128q0 -73 59.5 -121.5t140.5 -48.5q62 0 114.5 37.5t95.5 112.5v-160zM253 63q0 -65 -65 -65t-65 65t65 65t65 -65z" />
    <glyph glyph-name="u095A094D0930094DHalf" horiz-adv-x="546" 
d="M616 910h-320v-490q0 -60 -50 -60q-41 0 -120.5 93.5t-79.5 136.5q0 20 10 30t30 10h70q40 0 40 50v230h-202v90h622v-90zM546 274l-460 -244l-40 80l500 264v-100zM646 -50zM796 -50zM134 300q0 -65 -65 -65t-65 65t65 65t65 -65z" />
    <glyph glyph-name="u0918093C094D0930094DHalf" horiz-adv-x="718" 
d="M338 174q-96 16 -158 84t-62 162q0 58 27.5 103t82.5 77q-70 25 -105 72.5t-35 117.5q0 62 50 120h-144v90h794v-90h-530q-70 -39 -70 -120q0 -58 51.5 -94t118.5 -36h130l30 -90h-90q-83 0 -146.5 -41.5t-63.5 -108.5q0 -66 57.5 -108t132.5 -42q80 0 157.5 45
t152.5 135v-148l-560 -352l-60 80zM818 -50zM968 -50zM120 178q0 -65 -65 -65t-65 65t65 65t65 -65z" />
    <glyph glyph-name="u0919093C094D0930094DHalf" horiz-adv-x="1078" 
d="M578 20q-164 0 -310.5 120.5t-239.5 319.5l80 50q83 -176 208.5 -283t261.5 -107q84 0 142 62t58 148q0 30 -12.5 45t-37.5 15q-31 0 -90 -20t-90 -20q-80 0 -170 95t-90 175q0 55 37.5 92.5t92.5 37.5h270v160h-694v90h1154v-90h-360v-260h-370q-30 0 -30 -30
q0 -43 58.5 -106.5t101.5 -63.5q31 0 90 20t90 20q64 0 107 -47t43 -113q0 -129 -86.5 -219.5t-213.5 -90.5zM1045 565q0 -65 -65 -65t-65 65t65 65t65 -65zM49 66q0 65 65 65t65 -65t-65 -65t-65 65zM917 -322h-118l-220 234l-220 -234h-120l286 304h106zM928 -542l-60 -60
l-300 240l-70 -40l-40 80l110 50z" />
    <glyph glyph-name="u091F093C094D0930094DHalf" horiz-adv-x="850" 
d="M678 910v-300h-370q-61 0 -100.5 -50.5t-39.5 -119.5q0 -134 93 -227t227 -93q177 0 260 140l80 -70q-100 -170 -340 -170q-176 0 -298 122t-122 298q0 111 68 190.5t172 79.5h270v200h-584v90h926v-90h-242zM81 -31q0 65 65 65t65 -65t-65 -65t-65 65zM825 -324h-118
l-220 234l-220 -234h-120l286 304h106zM868 -542l-60 -60l-300 240l-70 -40l-40 80l110 50z" />
    <glyph glyph-name="u0920093C094D0930094DHalf" horiz-adv-x="872" 
d="M676 620h-350q-68 0 -114 -53.5t-46 -126.5q0 -123 99.5 -226.5t220.5 -103.5q89 0 149.5 64.5t60.5 155.5q0 121 -120 220l80 60q140 -119 140 -280q0 -133 -89.5 -226.5t-220.5 -93.5q-162 0 -291 134t-129 296q0 116 74.5 198t185.5 82h250v190h-582v90h948v-90h-266
v-290zM51 11q0 65 65 65t65 -65t-65 -65t-65 65zM822 -324h-118l-220 234l-220 -234h-120l286 304h106zM868 -542l-60 -60l-300 240l-70 -40l-40 80l110 50z" />
    <glyph glyph-name="u095C094D0930094DHalf" horiz-adv-x="950" 
d="M578 20q-164 0 -310.5 120.5t-239.5 319.5l80 50q83 -176 208.5 -283t261.5 -107q84 0 142 62t58 148q0 30 -12.5 45t-37.5 15q-31 0 -90 -20t-90 -20q-80 0 -170 95t-90 175q0 55 37.5 92.5t92.5 37.5h270v160h-694v90h1026v-90h-232v-260h-370q-30 0 -30 -30
q0 -43 58.5 -106.5t101.5 -63.5q31 0 90 20t90 20q64 0 107 -47t43 -113q0 -129 -86.5 -219.5t-213.5 -90.5zM49 -31q0 65 65 65t65 -65t-65 -65t-65 65zM825 -324h-118l-220 234l-220 -234h-120l286 304h106zM868 -542l-60 -60l-300 240l-70 -40l-40 80l110 50z" />
    <glyph glyph-name="u095D094D0930094DHalf" horiz-adv-x="870" 
d="M714 270q0 43 -28.5 71.5t-71.5 28.5q-38 0 -64 -26t-26 -64q0 -51 17.5 -91t52.5 -69q54 11 87 53t33 97zM684 610h-390q-57 0 -93.5 -48t-36.5 -112q0 -120 103 -225t227 -115q-70 58 -70 170q0 79 55.5 134.5t134.5 55.5q84 0 142 -58t58 -142q0 -110 -96.5 -180
t-223.5 -70q-163 0 -296.5 133.5t-133.5 296.5q0 106 65.5 183t164.5 77h290v200h-590v90h946v-90h-256v-300zM49 -31q0 65 65 65t65 -65t-65 -65t-65 65zM808 -325h-118l-220 234l-220 -234h-120l286 304h106zM828 -542l-60 -60l-300 240l-70 -40l-40 80l110 50z" />
    <glyph glyph-name="u0923093C094D0930094DHalf" horiz-adv-x="756" 
d="M466 910h-270v-420q0 -61 40.5 -105.5t99.5 -44.5q56 0 93 44t37 106v420zM826 910h-260v-420q0 -103 -66 -176.5t-164 -73.5q-102 0 -171 73t-69 177v420h-102v90h832v-90zM756 188l-450 -238l-40 80l490 250v-92zM192 147q0 -65 -65 -65t-65 65t65 65t65 -65z" />
    <glyph glyph-name="u0924093C094D0930094DHalf" horiz-adv-x="560" 
d="M560 370l-360 -240l-50 80l362 240q-140 140 -222 140q-113 0 -210 -80l-60 80q121 100 270 100q110 0 270 -160v-160zM630 910h-636v90h636v-90zM192 -5q0 -65 -65 -65t-65 65t65 65t65 -65z" />
    <glyph glyph-name="u0925093C094D0930094DHalf" horiz-adv-x="790" 
d="M392 204q-123 17 -210.5 113t-111.5 233q27 -10 150 -10q103 0 181.5 59t78.5 151q0 73 -46 126.5t-114 53.5q-55 0 -97.5 -30.5t-42.5 -79.5q0 -40 36 -65t84 -25v-100q-99 0 -159.5 51t-60.5 139q0 91 71 150.5t169 59.5q111 0 185.5 -82t74.5 -198
q0 -135 -110.5 -222.5t-259.5 -87.5q33 -70 95.5 -105t154.5 -35q85 0 167.5 47.5t162.5 142.5v-148l-630 -392l-50 90zM860 910h-170v90h170v-90zM150 198q0 -65 -65 -65t-65 65t65 65t65 -65z" />
    <glyph glyph-name="u0926093C094D0930094DHalf" horiz-adv-x="822" 
d="M892 910h-214v-260h-370q-61 0 -105.5 -40.5t-44.5 -99.5q0 -104 98.5 -182t211.5 -78q42 0 60 10q-30 43 -30 80q0 43 32.5 71.5t77.5 28.5q48 0 79 -31t31 -79q0 -73 -80 -120q36 -98 130 -210l-100 -40q-77 77 -130 220l-330 -260l-70 70l250 180q-144 39 -237 131
t-93 209q0 102 73 171t177 69h270v160h-584v90h898v-90zM901 -309l-60 -60l-300 240l-70 -40l-40 80l110 50zM143 154q0 -65 -65 -65t-65 65t65 65t65 -65z" />
    <glyph glyph-name="u0927093C094D0930094DHalf" horiz-adv-x="732" 
d="M358 176q-88 18 -147 73.5t-59 130.5q0 116 80 170q-85 59 -127.5 126.5t-42.5 143.5q0 86 57.5 148t142.5 62q87 0 138.5 -45.5t51.5 -124.5q0 -68 -53.5 -114t-126.5 -46v100q80 0 80 60q0 31 -27 50.5t-63 19.5q-43 0 -71.5 -32t-28.5 -78q0 -62 37.5 -114.5
t112.5 -95.5q69 30 150 30h60l60 -100h-110q-86 0 -153 -44t-67 -116q0 -50 52 -80t118 -30q73 0 150.5 35t159.5 105v-118l-600 -342l-40 80zM802 910h-290v90h290v-90zM135 185q0 -65 -65 -65t-65 65t65 65t65 -65z" />
    <glyph glyph-name="u0929094D0930094DHalf" horiz-adv-x="642" 
d="M642 550h-290q-60 0 -60 -40v-100q0 -60 -50 -60q-38 0 -119 104t-81 146q0 50 70 50h530v-100zM712 910h-718v90h718v-90zM642 296l-520 -296l-50 80l570 318v-102zM742 50zM152 269q0 -65 -65 -65t-65 65t65 65t65 -65z" />
    <glyph glyph-name="u092A093C094D0930094DHalf" horiz-adv-x="616" 
d="M367 307q-105 6 -168.5 80t-63.5 164v358h-141v90h692v-90h-450v-358q0 -70 48.5 -119t123.5 -49q15 0 44.5 7.5t61.5 31.5l102 72v-113l-499 -381l-62 80zM155 286q0 -65 -65 -65t-65 65t65 65t65 -65z" />
    <glyph glyph-name="u095E094D0930094DHalf" horiz-adv-x="978" 
d="M616 490v420h-380v-360q0 -70 50 -120t120 -50q49 0 84 24zM356 300q-97 24 -158.5 92.5t-61.5 157.5v360h-142v90h1054v-90h-332v-360h262v-100h-262v-450h-100v380l-500 -380l-60 80zM318 -96q0 -65 -65 -65t-65 65t65 65t65 -65z" />
    <glyph glyph-name="u092C093C094D0930094DHalf" horiz-adv-x="576" 
d="M356 320q72 0 120 40l-270 220q-30 -38 -30 -100q0 -68 53.5 -114t126.5 -46zM310 232q-101 23 -167.5 91t-66.5 157q0 123 87.5 206.5t212.5 83.5q75 0 130 -30l-30 -80q-44 20 -100 20q-89 0 -120 -40l290 -220l30 40v-160l-450 -300l-50 80zM646 910h-652v90h652v-90z
M676 50zM826 50zM99 215q0 -65 -65 -65t-65 65t65 65t65 -65z" />
    <glyph glyph-name="u092D093C094D0930094DHalf" horiz-adv-x="740" 
d="M740 430h-330v-80q0 -40 -50 -40q-32 0 -106 74t-74 106q0 20 12.5 30t37.5 10h80v290q0 42 -25.5 71t-64.5 29q-36 0 -63 -19.5t-27 -50.5q0 -34 23 -57t57 -23v-100q-74 0 -127 53t-53 127q0 72 56.5 121t133.5 49q80 0 135 -59t55 -141v-290h330v-100zM810 910h-330
v90h330v-90zM740 250l-470 -250l-40 80l510 260v-90zM215 276q0 -65 -65 -65t-65 65t65 65t65 -65z" />
    <glyph glyph-name="u092E093C094D0930094DHalf" horiz-adv-x="624" 
d="M624 480h-350v-70q0 -60 -40 -60q-35 0 -117.5 73.5t-82.5 106.5q0 25 12.5 37.5t37.5 12.5h80v330h-170v90h700v-90h-430v-330h360v-100zM624 238l-450 -248l-50 80l500 260v-92zM138 265q0 -65 -65 -65t-65 65t65 65t65 -65z" />
    <glyph glyph-name="u092F093C094D0930094DHalf" horiz-adv-x="646" 
d="M362 210q-139 4 -232.5 102.5t-93.5 237.5q107 0 178.5 42t71.5 118q0 100 -100 200h-192v90h722v-90h-410q80 -97 80 -200q0 -90 -69.5 -156.5t-170.5 -83.5q14 -79 82.5 -129.5t157.5 -50.5q169 0 260 160v-150l-470 -310l-60 70zM120 185q0 -65 -65 -65t-65 65t65 65
t65 -65z" />
    <glyph glyph-name="u0932093C094D0930094DHalf" horiz-adv-x="848" 
d="M848 600q-97 0 -168 -81.5t-92 -198.5l-100 30q16 98 60 150q-66 100 -180 100q-83 0 -141.5 -58.5t-58.5 -141.5q0 -102 66 -185.5t174 -124.5l-40 -90q-135 50 -217.5 158.5t-82.5 241.5q0 126 87 213t213 87q157 0 250 -110q44 62 230 110v-100zM918 910h-924v90h924
v-90zM848 196l-300 -166l-50 80l350 196v-110zM948 0zM175 -27q0 -65 -65 -65t-65 65t65 65t65 -65z" />
    <glyph glyph-name="u0934094D0930094DHalf" horiz-adv-x="986" 
d="M778 210q68 0 109 67t41 153q0 78 -42 139t-108 61t-115 -61t-65 -149q16 -88 65 -149t115 -61zM328 210q50 0 95 55t85 165q-36 100 -81 150t-99 50q-70 0 -115 -64t-45 -146t45 -146t115 -64zM778 730q109 0 179.5 -89.5t70.5 -210.5q0 -128 -70 -224t-180 -96
q-74 0 -136.5 56.5t-93.5 143.5q-31 -87 -90.5 -143.5t-129.5 -56.5q-113 0 -186.5 92.5t-73.5 217.5t73.5 217.5t186.5 92.5q75 0 136.5 -52.5t93.5 -137.5q32 85 91 137.5t129 52.5zM1056 910h-1062v90h1062v-90zM1104 0zM1059 -234h-118l-220 234l-220 -234h-120l286 304
h106zM388 5q0 -65 -65 -65t-65 65t65 65t65 -65z" />
    <glyph glyph-name="u0935093C094D0930094DHalf" horiz-adv-x="582" 
d="M320 224q-107 16 -177.5 90t-70.5 176q0 116 88 193t212 77q74 0 130 -40l-50 -80q-38 30 -80 30q-81 0 -140.5 -52t-59.5 -128q0 -73 59.5 -121.5t140.5 -48.5q62 0 114.5 37.5t95.5 112.5v-160l-440 -310l-50 80zM652 910h-658v90h658v-90zM99 214q0 -65 -65 -65
t-65 65t65 65t65 -65z" />
    <glyph glyph-name="u0936093C094D0930Half" 
d="M816 450l-470 -360l-70 80l380 280l-270 110l-300 -200l-66 76l276 178q-138 78 -138 206q0 80 54 135t134 55q82 0 141 -55t59 -135q0 -110 -96 -190l286 -120l80 60v-120zM446 820q0 43 -28.5 71.5t-71.5 28.5q-39 0 -64.5 -29t-25.5 -71q0 -98 110 -130q80 55 80 130z
M886 910h-250v90h250v-90zM179 193q0 -65 -65 -65t-65 65t65 65t65 -65z" />
    <glyph glyph-name="u0937093C094D0930094DHalf" horiz-adv-x="554" 
d="M553 470l-369 340v-250q0 -67 46.5 -113.5t113.5 -46.5q127 0 209 70zM624 910h-420l350 -330v-220q-84 -60 -210 -60q-108 0 -184 76t-76 184v350h-90v90h630v-90zM554 224l-460 -244l-40 80l500 254v-90zM145 239q0 -65 -65 -65t-65 65t65 65t65 -65z" />
    <glyph glyph-name="u0938093C094D0930094DHalf" horiz-adv-x="826" 
d="M306 450q-46 0 -68 18q68 -110 155.5 -209.5t194.5 -188.5l-60 -70q-161 135 -288.5 302.5t-221.5 367.5l90 50q37 -90 79 -135t89 -45q43 0 71.5 28.5t28.5 71.5v270h-382v90h902v-90h-420v-270q0 -77 -49 -133.5t-121 -56.5zM826 386l-256 -146l-50 80l304 170h-288
l-50 90h340v-194zM252 62q0 -65 -65 -65t-65 65t65 65t65 -65z" />
    <glyph glyph-name="u0939093C094D0930094DHalf" horiz-adv-x="830" 
d="M900 910h-206v-260h-440q-30 0 -30 -40q0 -24 32 -62.5t58 -53.5q78 26 156 26q115 0 199.5 -57.5t84.5 -152.5q0 -136 -100 -220l-80 70q80 55 80 150q0 44 -40 78l-210 -250l-80 60l190 230q-21 6 -42 6q-121 0 -199.5 -51t-78.5 -143q0 -156 146 -253t334 -97v-90
q-230 0 -405 126t-175 324q0 61 36.5 118.5t93.5 85.5q-120 99 -120 186q0 47 31.5 78.5t78.5 31.5h380v160h-600v90h906v-90zM808 -469l-60 -60l-300 240l-70 -40l-40 80l110 50zM183 -141q0 -65 -65 -65t-65 65t65 65t65 -65z" />
    <glyph glyph-name="u09150962" horiz-adv-x="1142" 
d="M856 -20q0 68 -33.5 115t-90.5 47q-47 0 -87 -57t-59 -139l-72 22q12 54 36 102q-42 72 -118 72q-47 0 -77.5 -42t-30.5 -96q0 -73 45.5 -129.5t136.5 -96.5l-30 -66q-102 42 -167 121t-65 171q0 89 53.5 153.5t134.5 64.5q59 0 108 -32v188q-90 -90 -210 -90
q-113 0 -191.5 75.5t-78.5 188.5t78.5 189.5t191.5 76.5q92 0 160 -30l-30 -90q-42 20 -130 20q-71 0 -120.5 -49.5t-49.5 -120.5q0 -67 50 -113.5t120 -46.5q72 0 130 38t80 102v382h-546v90h1218v-90h-572v-182q77 90 190 90q104 0 172 -83t68 -197q0 -140 -120 -240
l-80 60q100 84 100 180q0 71 -39.5 125.5t-100.5 54.5q-71 0 -123.5 -47.5t-66.5 -122.5v-355q43 29 92 29q91 0 147.5 -70.5t56.5 -171.5q0 -83 -45 -144t-121 -80q-52 -13 -78 -42.5t-26 -75.5q0 -41 30.5 -68.5t73.5 -27.5q81 0 136 38l24 -66q-72 -52 -160 -52
q-76 0 -130 51t-54 125q0 71 43.5 123.5t112.5 64.5q57 10 85.5 48.5t28.5 105.5z" />
    <glyph glyph-name="u09150963" horiz-adv-x="1142" 
d="M856 -8q0 60 -35 105t-89 45q-47 0 -87 -57t-59 -139l-72 22q12 54 36 102q-42 72 -118 72q-47 0 -77.5 -42t-30.5 -96q0 -73 45.5 -129.5t136.5 -96.5l-30 -66q-102 42 -167 121t-65 171q0 89 53.5 153.5t134.5 64.5q59 0 108 -32v188q-90 -90 -210 -90
q-113 0 -191.5 75.5t-78.5 188.5t78.5 189.5t191.5 76.5q92 0 160 -30l-30 -90q-42 20 -130 20q-71 0 -120.5 -49.5t-49.5 -120.5q0 -67 50 -113.5t120 -46.5q72 0 130 38t80 102v382h-546v90h1218v-90h-572v-182q77 90 190 90q104 0 172 -83t68 -197q0 -140 -120 -240
l-80 60q100 84 100 180q0 71 -39.5 125.5t-100.5 54.5q-71 0 -123.5 -47.5t-66.5 -122.5v-355q43 29 92 29q88 0 146 -67.5t58 -162.5q0 -91 -55 -159.5t-141 -82.5q-52 -8 -52 -48q0 -56 74 -56h48v-58h-48q-28 0 -51 -17t-23 -43q0 -50 74 -50q90 0 146 40l28 -72
q-68 -48 -174 -48q-62 0 -108 36.5t-46 93.5q0 67 60 88q-60 19 -60 86q0 47 34.5 81.5t83.5 38.5q58 4 94 53.5t36 116.5z" />
    <glyph glyph-name="u092A0962" horiz-adv-x="1020" 
d="M582 640v270h-380v-240q0 -56 44 -93t106 -37q130 0 230 100zM890 110q0 68 -33.5 115t-90.5 47q-47 0 -87 -57t-59 -139l-72 22q12 54 36 102q-42 72 -118 72q-47 0 -77.5 -42t-30.5 -96q0 -73 45.5 -129.5t136.5 -96.5l-30 -66q-102 42 -167 121t-65 171
q0 89 53.5 153.5t134.5 64.5q65 0 116 -38v206q-97 -80 -230 -80q-104 0 -177 65.5t-73 164.5v240h-108v90h1096v-90h-408v-582l4 2q28 14 43 18t37 4q91 0 147.5 -70.5t56.5 -171.5q0 -83 -45 -144t-121 -80q-104 -26 -104 -118q0 -41 30.5 -68.5t73.5 -27.5q81 0 136 38
l24 -66q-72 -52 -160 -52q-76 0 -130 51t-54 125q0 71 43.5 123.5t112.5 64.5q57 10 85.5 48.5t28.5 105.5z" />
    <glyph glyph-name="u092A0963" horiz-adv-x="1020" 
d="M582 640v270h-380v-240q0 -56 44 -93t106 -37q130 0 230 100zM890 122q0 60 -35 105t-89 45q-47 0 -87 -57t-59 -139l-72 22q12 54 36 102q-42 72 -118 72q-47 0 -77.5 -42t-30.5 -96q0 -73 45.5 -129.5t136.5 -96.5l-30 -66q-102 42 -167 121t-65 171q0 89 53.5 153.5
t134.5 64.5q65 0 116 -38v206q-97 -80 -230 -80q-104 0 -177 65.5t-73 164.5v240h-108v90h1096v-90h-408v-582l4 2q28 14 43 18t37 4q88 0 146 -67.5t58 -162.5q0 -91 -55 -159.5t-141 -82.5q-52 -8 -52 -48q0 -56 74 -56h48v-58h-48q-28 0 -51 -17t-23 -43q0 -50 74 -50
q90 0 146 40l28 -72q-68 -48 -174 -48q-62 0 -108 36.5t-46 93.5q0 67 60 88q-60 19 -60 86q0 47 34.5 81.5t83.5 38.5q58 4 94 53.5t36 116.5z" />
    <glyph glyph-name="currency" unicode="&#xa4;" 
d="M153 688l-100 97l82 86l100 -100q76 52 170 52t169 -52l100 100l83 -86l-100 -97q51 -79 51 -168q0 -90 -51 -169l100 -98l-83 -85l-100 101q-75 -53 -169 -53t-170 53l-100 -101l-82 85l100 98q-51 79 -51 169q0 89 51 168zM218 520q0 -78 54.5 -132t131.5 -54
q76 0 130.5 54t54.5 132q0 76 -54 130.5t-131 54.5t-131.5 -54.5t-54.5 -130.5z" />
    <glyph glyph-name="uni00B7" unicode="&#xb7;" horiz-adv-x="407" 
d="M132 443v147h147v-147h-147z" />
    <glyph glyph-name="periodcentered" unicode="&#x2219;" horiz-adv-x="549" 
d="M276 353q-66 0 -112 45t-46 111t45.5 111.5t111.5 45.5q65 0 111 -46t46 -111t-45.5 -110.5t-110.5 -45.5z" />
    <glyph glyph-name="section" unicode="&#xa7;" 
d="M102 -50l130 18q20 -93 63.5 -130.5t119.5 -37.5q73 0 114 37.5t41 87.5q0 36 -26 67q-44 54 -243 176q-106 65 -148 101.5t-68.5 87t-26.5 104.5q0 69 43 125t118 78q-51 48 -71.5 89.5t-20.5 87.5q0 92 71.5 159.5t189.5 67.5q134 0 209 -64t90 -185l-134 -13
q-15 87 -52.5 121.5t-100.5 34.5q-66 0 -106.5 -35.5t-40.5 -78.5q0 -37 26 -69q40 -49 219 -158q112 -68 151 -100q51 -43 75 -89t24 -100q0 -81 -52 -138q-30 -33 -110 -67q57 -43 85.5 -93t28.5 -108q0 -63 -36 -119t-103.5 -86t-145.5 -30q-136 0 -216.5 68.5
t-96.5 190.5zM521 175q53 27 79.5 63t26.5 71q0 40 -38 86q-38 45 -161 121q-98 60 -146 98q-58 -33 -82.5 -65.5t-24.5 -73.5q0 -45 33 -85q33 -41 148 -109q96 -57 165 -106z" />
    <glyph glyph-name="logicalnot" unicode="&#xac;" horiz-adv-x="856" 
d="M775 304h-122v313h-571v120h693v-433z" />
    <glyph glyph-name="degree" unicode="&#xb0;" horiz-adv-x="586" 
d="M92 869q0 83 58 141t140 58q83 0 141 -58t58 -141q0 -82 -58.5 -140.5t-140.5 -58.5t-140 58t-58 141zM170 869q0 -50 35.5 -85.5t85.5 -35.5q49 0 84.5 35.5t35.5 85.5t-35.5 85.5t-84.5 35.5q-50 0 -85.5 -35.5t-35.5 -85.5z" />
    <glyph glyph-name="paragraph" unicode="&#xb6;" horiz-adv-x="788" 
d="M290 -291v748q-134 7 -211.5 87t-77.5 204q0 138 86 220t252 82h454v-124h-103v-1217h-122v1217h-160v-1217h-118z" />
    <glyph glyph-name="bullet" unicode="&#x2022;" horiz-adv-x="513" 
d="M78 514q0 75 53.5 128t127.5 53q75 0 128.5 -53t53.5 -128t-53.5 -128.5t-128.5 -53.5q-74 0 -127.5 53.5t-53.5 128.5z" />
    <glyph glyph-name="u0922094D0930094DHalf" horiz-adv-x="870" 
d="M714 270q0 43 -28.5 71.5t-71.5 28.5q-38 0 -64 -26t-26 -64q0 -51 17.5 -91t52.5 -69q54 11 87 53t33 97zM684 610h-390q-57 0 -93.5 -48t-36.5 -112q0 -120 103 -225t227 -115q-70 58 -70 170q0 79 55.5 134.5t134.5 55.5q84 0 142 -58t58 -142q0 -110 -96.5 -180
t-223.5 -70q-163 0 -296.5 133.5t-133.5 296.5q0 106 65.5 183t164.5 77h290v200h-590v90h946v-90h-256v-300zM808 -325h-118l-220 234l-220 -234h-120l286 304h106zM828 -542l-60 -60l-300 240l-70 -40l-40 80l110 50z" />
    <glyph glyph-name="u0924093C" horiz-adv-x="914" 
d="M664 620h-390q-48 0 -79 -38.5t-31 -91.5q0 -101 65 -206t195 -214l-60 -70q-150 127 -225 249.5t-75 240.5q0 94 60 162t150 68h390v190h-670v90h990v-90h-220v-910h-100v620zM85 55q0 65 65 65t65 -65t-65 -65t-65 65z" />
    <glyph glyph-name="u0925093C" horiz-adv-x="1030" 
d="M450 200q-146 0 -255 100t-135 250q27 -10 150 -10q103 0 181.5 59t78.5 151q0 73 -46 126.5t-114 53.5q-55 0 -97.5 -30.5t-42.5 -79.5q0 -40 36 -65t84 -25v-100q-99 0 -159.5 51t-60.5 139q0 91 71 150.5t169 59.5q111 0 185.5 -82t74.5 -198q0 -135 -110.5 -222.5
t-259.5 -87.5q33 -70 95.5 -105t154.5 -35q85 0 167.5 47.5t162.5 142.5v420h-100v90h420v-90h-220v-910h-100v360q-80 -80 -162.5 -120t-167.5 -40zM85 55q0 65 65 65t65 -65t-65 -65t-65 65z" />
    <glyph glyph-name="u0926093C" horiz-adv-x="826" 
d="M896 910h-210v-260h-390q-59 0 -99.5 -40.5t-40.5 -99.5q0 -118 119 -189t271 -71q0 66 30 118t80 52q34 0 57 -23t23 -57q0 -85 -90 -150l110 -190l-90 -40l-110 200q-195 0 -347.5 96.5t-152.5 253.5q0 101 69.5 170.5t170.5 69.5h290v160h-592v90h902v-90zM85 55
q0 65 65 65t65 -65t-65 -65t-65 65z" />
    <glyph glyph-name="u0927093C" horiz-adv-x="974" 
d="M414 170q-108 0 -189 59t-81 151q0 116 80 170q-85 59 -127.5 126.5t-42.5 143.5q0 86 57.5 148t142.5 62q87 0 138.5 -45.5t51.5 -124.5q0 -68 -53.5 -114t-126.5 -46v100q80 0 80 60q0 31 -27 50.5t-63 19.5q-43 0 -71.5 -32t-28.5 -78q0 -62 37.5 -114.5t112.5 -95.5
q69 30 150 30h60l60 -100h-110q-86 0 -153 -44t-67 -116q0 -50 52 -80t118 -30q85 0 162.5 50t147.5 150v440h-220v90h540v-90h-220v-910h-100v330q-67 -80 -144.5 -120t-165.5 -40zM85 55q0 65 65 65t65 -65t-65 -65t-65 65z" />
    <glyph glyph-name="u0937094D0930094DHalf" horiz-adv-x="554" 
d="M544 450l-360 370v-260q0 -76 56 -128t134 -52q88 0 170 70zM624 910h-400l370 -380v-150q-127 -90 -220 -90q-120 0 -205 77.5t-85 192.5v350h-90v90h630v-90zM594 224l-490 -260l-40 80l530 270v-90z" />
    <glyph glyph-name="u091A093C094D0930094DHalf" horiz-adv-x="708" 
d="M364 188q-75 20 -120.5 85t-45.5 147q0 78 27.5 133t82.5 87h-290v100h590v-100h-140q-77 -29 -123.5 -88t-46.5 -132q0 -58 41 -99t99 -41q45 0 112.5 45t157.5 135v-136l-520 -374l-60 80zM778 910h-784v90h784v-90zM808 -50zM958 -50zM45 179q0 65 65 65t65 -65
t-65 -65t-65 65z" />
    <glyph glyph-name="u091B093C094D0930094DHalf" horiz-adv-x="1066" 
d="M786 660q-49 0 -79.5 -35.5t-30.5 -84.5q0 -134 110 -210q120 86 120 220q0 48 -35 79t-85 31zM786 760q91 0 155.5 -60.5t64.5 -149.5q0 -184 -175 -342t-365 -158q-136 0 -238 79.5t-102 200.5q0 77 27.5 134.5t82.5 95.5q-80 37 -120 87t-40 113q0 107 60 150h-142v90
h1142v-90h-880q-80 -67 -80 -150q0 -61 54.5 -100.5t125.5 -39.5h110v-100h-80q-69 0 -114.5 -56.5t-45.5 -133.5q0 -79 73 -129.5t167 -50.5q129 0 250 100q-140 140 -140 290q0 91 60 155.5t150 64.5zM77 -6q0 65 65 65t65 -65t-65 -65t-65 65zM809 -294h-118l-220 234
l-220 -234h-120l286 304h106z" />
    <glyph glyph-name="u091C093C094D0930094DHalf" horiz-adv-x="840" 
d="M840 600h-250q70 -99 70 -170q0 -83 -58.5 -141.5t-141.5 -58.5q-131 0 -246 117t-184 303l90 40q58 -156 149 -258t191 -102q43 0 71.5 28.5t28.5 71.5q0 60 -37.5 127.5t-112.5 142.5h430v-100zM910 910h-916v90h916v-90zM840 230l-470 -250l-40 80l510 260v-90zM65 55
q0 65 65 65t65 -65t-65 -65t-65 65z" />
    <glyph glyph-name="u091D093C094D0930094DHalf" horiz-adv-x="858" 
d="M928 910h-350v-240h-350q-50 0 -50 -30q0 -38 47 -94t83 -56q29 0 85 15t85 15q72 0 100 -20q56 -40 150 -40q27 0 130 40v-100q-68 -30 -110 -30q-48 0 -130 30q0 -119 -57.5 -189t-172.5 -91q79 -66 170 -100l-70 -90q-132 62 -220 150q-79 0 -144.5 32.5t-65.5 87.5
q0 35 29.5 57.5t70.5 22.5q94 0 160 -100q84 17 142 63t58 107q0 80 -50 80q-29 0 -85 -20q-55 -20 -85 -20q-60 0 -140 94t-80 156q0 53 45 86.5t105 33.5h250v150h-484v90h934v-90zM858 160l-230 -120l-50 70l280 130v-80zM45 -69q0 65 65 65t65 -65t-65 -65t-65 65z" />
    <glyph glyph-name="u091E093C094D0930094DHalf" horiz-adv-x="858" 
d="M858 440q-82 -30 -140 -30q-44 0 -100 30q-20 -112 -101 -186t-189 -74q-169 0 -300 190l70 70q91 -160 230 -160q80 0 135 59t55 141q0 70 -46 120t-114 50q-102 0 -170 -80l-70 80q100 100 240 100q91 0 163.5 -59t96.5 -151q26 -30 100 -30q92 0 140 40v-110zM928 910
h-934v90h934v-90zM858 188l-450 -238l-40 80l490 250v-92zM958 -50zM1108 -50zM85 55q0 65 65 65t65 -65t-65 -65t-65 65z" />
    <glyph glyph-name="u0905093C" horiz-adv-x="1154" 
d="M1004 910v-910h-100v450q-48 -40 -106 -40q-75 0 -124 30q40 -32 40 -110q0 -108 -72 -184t-178 -76q-126 0 -233.5 95t-196.5 285l74 42q76 -161 165 -241.5t191 -80.5q63 0 106.5 46.5t43.5 111.5q0 79 -48.5 135.5t-121.5 56.5q-46 0 -100 -20l-40 90q84 8 156 60
t72 120q0 56 -33.5 98t-84.5 42q-121 0 -240 -140l-70 70q110 160 310 160q94 0 157 -67t63 -163q0 -52 -22.5 -97t-67.5 -83q67 -45 124.5 -67.5t105.5 -22.5q71 0 130 50v360h-180v90h500v-90h-220zM285 -71q0 65 65 65t65 -65t-65 -65t-65 65z" />
    <glyph glyph-name="u0906093C" horiz-adv-x="1566" 
d="M1006 910v-910h-100v450q-48 -40 -108 -40q-75 0 -124 30q40 -32 40 -110q0 -108 -72 -184t-178 -76q-126 0 -233.5 95t-196.5 285l74 42q76 -161 165 -241.5t191 -80.5q63 0 106.5 46.5t43.5 111.5q0 79 -48.5 135.5t-121.5 56.5q-46 0 -100 -20l-40 90q84 8 156 60
t72 120q0 56 -33.5 98t-84.5 42q-121 0 -240 -140l-70 70q110 160 310 160q94 0 157 -67t63 -163q0 -52 -22.5 -97t-67.5 -83q67 -45 124.5 -67.5t105.5 -22.5q73 0 132 50v360h-180v90h910v-90h-220v-910h-100v910h-310zM1154 -50zM285 -71q0 65 65 65t65 -65t-65 -65
t-65 65z" />
    <glyph glyph-name="u0907093C" horiz-adv-x="756" 
d="M302 30q-89 0 -164.5 35t-75.5 95q0 43 28.5 71.5t71.5 28.5q125 0 210 -150q88 0 149 65t61 155q0 70 -40 70q-34 0 -100 -25q-65 -25 -100 -25q-68 0 -165 96t-97 164q0 61 49 100.5t115 39.5h248v160h-498v90h832v-90h-224v-260h-360q-60 0 -60 -40q0 -34 63 -97
t97 -63q35 0 100 25q66 25 100 25q61 0 100.5 -50.5t39.5 -119.5q0 -122 -74 -211t-186 -89q77 -109 250 -190l-50 -80q-215 124 -320 270zM45 -109q0 65 65 65t65 -65t-65 -65t-65 65z" />
    <glyph glyph-name="u0908093C" horiz-adv-x="756" 
d="M302 30q-89 0 -164.5 35t-75.5 95q0 43 28.5 71.5t71.5 28.5q125 0 210 -150q88 0 149 65t61 155q0 70 -40 70q-34 0 -100 -25q-65 -25 -100 -25q-68 0 -165 96t-97 164q0 61 49 100.5t115 39.5h248v160h-498v90h832v-90h-224v-260h-360q-60 0 -60 -40q0 -34 63 -97
t97 -63q35 0 100 25q66 25 100 25q61 0 100.5 -50.5t39.5 -119.5q0 -122 -74 -211t-186 -89q77 -109 250 -190l-50 -80q-215 124 -320 270zM719 1310q-82 30 -110 30q-59 0 -99.5 -40.5t-40.5 -99.5q0 -117 140 -200h-130q-110 93 -110 200q0 95 70 157.5t170 62.5
q54 0 110 -20v-90zM45 -109q0 65 65 65t65 -65t-65 -65t-65 65z" />
    <glyph glyph-name="u0909093C" horiz-adv-x="948" 
d="M854 310q0 -117 -77.5 -198.5t-192.5 -81.5q-158 0 -300.5 165.5t-249.5 454.5l82 36q95 -260 216.5 -408t251.5 -148q71 0 120.5 53t49.5 127q0 79 -45 139.5t-115 60.5h-200l-40 90h220q59 0 99.5 44.5t40.5 105.5q0 87 -90 160h-630v90h1024v-90h-264q60 -68 60 -160
q0 -72 -25 -122t-75 -78q70 -25 105 -85t35 -155zM245 -71q0 65 65 65t65 -65t-65 -65t-65 65z" />
    <glyph glyph-name="u090A093C" horiz-adv-x="1384" 
d="M854 310q0 -117 -77.5 -198.5t-192.5 -81.5q-158 0 -300.5 165.5t-249.5 454.5l82 36q95 -260 216.5 -408t251.5 -148q71 0 120.5 53t49.5 127q0 79 -45 139.5t-115 60.5h-200l-40 90h220q59 0 99.5 44.5t40.5 105.5q0 87 -90 160h-630v90h1460v-90h-700q60 -68 60 -160
q0 -72 -25 -122t-75 -78q66 -22 102 -88l3 -4q77 172 241 172q108 0 184 -68.5t76 -171.5q0 -211 -170 -330l-66 74q136 77 136 256q0 64 -47 107t-113 43q-67 0 -122.5 -64.5t-83.5 -162.5v-3zM948 -50zM269 -71q0 65 65 65t65 -65t-65 -65t-65 65z" />
    <glyph glyph-name="u090B093C" horiz-adv-x="1298" 
d="M748 460v-460h-100v380l-410 -190l-60 80l390 180l-110 110q-90 90 -150 90q-84 0 -230 -100l-60 70q174 120 290 120q90 0 180 -90l160 -160v420h-654v90h1374v-90h-620v-360q44 -20 110 -20q52 0 70 10q-30 43 -30 90q0 36 33 58t77 22q46 0 78 -28.5t32 -71.5
q0 -84 -60 -110q90 -90 135 -172.5t45 -157.5q0 -79 -55.5 -134.5t-134.5 -55.5q-64 0 -113 42t-67 108l90 40q14 -90 90 -90q38 0 64 26t26 64q0 70 -45 142.5t-135 147.5q-44 -20 -100 -20q-74 0 -110 20zM145 -71q0 65 65 65t65 -65t-65 -65t-65 65z" />
    <glyph glyph-name="u090C093C" horiz-adv-x="1057" 
d="M897 371q0 91 -51 155t-121 64q-62 0 -116 -77t-83 -194l-100 31q16 73 49 139q-58 101 -160 101q-64 0 -106.5 -58t-42.5 -133q0 -100 70 -187t180 -132l-39 -80q-136 57 -223.5 166t-87.5 233q0 106 66 198.5t183 92.5q125 0 211 -121q60 99 160 121v219h-692v90h1133
v-90h-341v-219q99 -32 154 -119.5t55 -199.5q0 -109 -66 -197.5t-163 -114.5q-62 -14 -106 -58t-44 -101q0 -59 47 -94t103 -35q120 0 190 49l29 -90q-85 -60 -219 -60q-102 0 -176 65.5t-74 164.5q0 86 57 154.5t154 84.5q67 12 118.5 79.5t51.5 152.5zM45 -171q0 65 65 65
t65 -65t-65 -65t-65 65z" />
    <glyph glyph-name="u090D093C" horiz-adv-x="730" 
d="M800 910h-170v-292q0 -80 -31.5 -141.5t-88.5 -76.5l-60 70q80 22 80 150v290h-340v-380q0 -83 50 -130l350 -330q80 -75 80 -120q0 -95 -120 -140l-80 70q90 14 90 70q0 33 -40 70l-370 340q-60 55 -60 166v384h-96v90h806v-90zM674 1400q-20 -117 -103.5 -193.5
t-196.5 -76.5t-196.5 76.5t-103.5 193.5h100q14 -81 69.5 -135.5t130.5 -54.5t130.5 54.5t69.5 135.5h100zM45 -71q0 65 65 65t65 -65t-65 -65t-65 65z" />
    <glyph glyph-name="u090E093C" horiz-adv-x="730" 
d="M800 910h-170v-292q0 -80 -31.5 -141.5t-88.5 -76.5l-60 70q80 22 80 150v290h-340v-380q0 -83 50 -130l350 -330q80 -75 80 -120q0 -95 -120 -140l-80 70q90 14 90 70q0 33 -40 70l-370 340q-60 55 -60 166v384h-96v90h806v-90zM631 1000h-100q0 86 -58 148t-142 62
q-113 0 -196.5 76.5t-103.5 193.5h100q14 -81 69.5 -135.5t130.5 -54.5q125 0 212.5 -83.5t87.5 -206.5zM45 -71q0 65 65 65t65 -65t-65 -65t-65 65z" />
    <glyph glyph-name="u090F093C" horiz-adv-x="730" 
d="M800 910h-170v-292q0 -80 -31.5 -141.5t-88.5 -76.5l-60 70q80 22 80 150v290h-340v-380q0 -83 50 -130l350 -330q80 -75 80 -120q0 -95 -120 -140l-80 70q90 14 90 70q0 33 -40 70l-370 340q-60 55 -60 166v384h-96v90h806v-90zM45 -71q0 65 65 65t65 -65t-65 -65
t-65 65z" />
    <glyph glyph-name="u0910093C" horiz-adv-x="730" 
d="M800 910h-170v-292q0 -80 -31.5 -141.5t-88.5 -76.5l-60 70q80 22 80 150v290h-340v-380q0 -83 50 -130l350 -330q80 -75 80 -120q0 -95 -120 -140l-80 70q90 14 90 70q0 33 -40 70l-370 340q-60 55 -60 166v384h-96v90h806v-90zM623 1000h-100l-370 440l70 60zM45 -71
q0 65 65 65t65 -65t-65 -65t-65 65z" />
    <glyph glyph-name="u0911093C" horiz-adv-x="1566" 
d="M1006 910v-910h-100v450q-48 -40 -108 -40q-75 0 -124 30q40 -32 40 -110q0 -108 -72 -184t-178 -76q-126 0 -233.5 95t-196.5 285l74 42q76 -161 165 -241.5t191 -80.5q63 0 106.5 46.5t43.5 111.5q0 79 -48.5 135.5t-121.5 56.5q-46 0 -100 -20l-40 90q84 8 156 60
t72 120q0 56 -33.5 98t-84.5 42q-121 0 -240 -140l-70 70q110 160 310 160q94 0 157 -67t63 -163q0 -52 -22.5 -97t-67.5 -83q67 -45 124.5 -67.5t105.5 -22.5q73 0 132 50v360h-180v90h910v-90h-220v-910h-100v910h-310zM1154 -50zM1391 1400q-20 -117 -103.5 -193.5
t-196.5 -76.5t-196.5 76.5t-103.5 193.5h100q14 -81 69.5 -135.5t130.5 -54.5t130.5 54.5t69.5 135.5h100zM285 -71q0 65 65 65t65 -65t-65 -65t-65 65z" />
    <glyph glyph-name="u0912093C" horiz-adv-x="1566" 
d="M1006 910v-910h-100v450q-48 -40 -108 -40q-75 0 -124 30q40 -32 40 -110q0 -108 -72 -184t-178 -76q-126 0 -233.5 95t-196.5 285l74 42q76 -161 165 -241.5t191 -80.5q63 0 106.5 46.5t43.5 111.5q0 79 -48.5 135.5t-121.5 56.5q-46 0 -100 -20l-40 90q84 8 156 60
t72 120q0 56 -33.5 98t-84.5 42q-121 0 -240 -140l-70 70q110 160 310 160q94 0 157 -67t63 -163q0 -52 -22.5 -97t-67.5 -83q67 -45 124.5 -67.5t105.5 -22.5q73 0 132 50v360h-180v90h910v-90h-220v-910h-100v910h-310zM1154 -50zM1417 1000h-100q0 86 -58 148t-142 62
q-113 0 -196.5 76.5t-103.5 193.5h100q14 -81 69.5 -135.5t130.5 -54.5q125 0 212.5 -83.5t87.5 -206.5zM285 -71q0 65 65 65t65 -65t-65 -65t-65 65z" />
    <glyph glyph-name="u0913093C" horiz-adv-x="1566" 
d="M1006 910v-910h-100v450q-48 -40 -108 -40q-75 0 -124 30q40 -32 40 -110q0 -108 -72 -184t-178 -76q-126 0 -233.5 95t-196.5 285l74 42q76 -161 165 -241.5t191 -80.5q63 0 106.5 46.5t43.5 111.5q0 79 -48.5 135.5t-121.5 56.5q-46 0 -100 -20l-40 90q84 8 156 60
t72 120q0 56 -33.5 98t-84.5 42q-121 0 -240 -140l-70 70q110 160 310 160q94 0 157 -67t63 -163q0 -52 -22.5 -97t-67.5 -83q67 -45 124.5 -67.5t105.5 -22.5q73 0 132 50v360h-180v90h910v-90h-220v-910h-100v910h-310zM1154 -50zM1417 1000h-100l-370 440l70 60zM285 -71
q0 65 65 65t65 -65t-65 -65t-65 65z" />
    <glyph glyph-name="u0914093C" horiz-adv-x="1566" 
d="M1006 910v-910h-100v450q-48 -40 -108 -40q-75 0 -124 30q40 -32 40 -110q0 -108 -72 -184t-178 -76q-126 0 -233.5 95t-196.5 285l74 42q76 -161 165 -241.5t191 -80.5q63 0 106.5 46.5t43.5 111.5q0 79 -48.5 135.5t-121.5 56.5q-46 0 -100 -20l-40 90q84 8 156 60
t72 120q0 56 -33.5 98t-84.5 42q-121 0 -240 -140l-70 70q110 160 310 160q94 0 157 -67t63 -163q0 -52 -22.5 -97t-67.5 -83q67 -45 124.5 -67.5t105.5 -22.5q73 0 132 50v360h-180v90h910v-90h-220v-910h-100v910h-310zM1154 -50zM1416 1000h-130l-430 210l50 90l450 -290
l-220 430l100 60zM285 -71q0 65 65 65t65 -65t-65 -65t-65 65z" />
    <glyph glyph-name="u0960093C" horiz-adv-x="1326" 
d="M748 460v-460h-100v380l-410 -190l-60 80l390 180l-110 110q-90 90 -150 90q-84 0 -230 -100l-60 70q174 120 290 120q90 0 180 -90l160 -160v420h-654v90h1402v-90h-648v-360l170 80q-4 15 -4 29q0 36 24 63.5t60 27.5q90 0 90 -80q0 -68 -40 -90l70 -130
q-68 -12 -114 -53.5t-46 -96.5q0 -63 47.5 -106.5t112.5 -43.5q53 0 140 50l50 -90q-108 -50 -190 -50q-108 0 -184 68.5t-76 171.5q0 65 32.5 112.5t97.5 77.5l-40 60zM145 -71q0 65 65 65t65 -65t-65 -65t-65 65z" />
    <glyph glyph-name="u0961093C" horiz-adv-x="1064" 
d="M896 370q0 87 -47.5 153.5t-122.5 66.5q-65 0 -119 -78.5t-81 -191.5l-100 30q16 72 50 140q-61 100 -160 100q-66 0 -108 -57.5t-42 -132.5q0 -101 69.5 -187.5t180.5 -132.5l-40 -80q-138 59 -224 167t-86 233q0 118 71 204t179 86q125 0 210 -120q62 99 160 120v220
h-692v90h1140v-90h-348v-220q97 -29 153.5 -117.5t56.5 -202.5q0 -120 -75.5 -209.5t-194.5 -110.5q-70 -12 -70 -60q0 -36 33 -58t77 -22h70v-80h-70q-43 0 -76.5 -21t-33.5 -55q0 -37 33.5 -60.5t76.5 -23.5q106 0 190 60l40 -80q-99 -70 -230 -70q-84 0 -147 48t-63 122
q0 89 90 120q-90 23 -90 120q0 63 47 107.5t115 50.5q79 6 128.5 70.5t49.5 151.5zM45 -171q0 65 65 65t65 -65t-65 -65t-65 65z" />
    </font>
</defs>
</svg>
