<?xml version="1.0" standalone="no"?>
<!DOCTYPE svg PUBLIC "-//W3C//DTD SVG 1.1//EN" "http://www.w3.org/Graphics/SVG/1.1/DTD/svg11.dtd" >
<svg>
<metadata>
Created by FontForge 20090914 at Mon Jun 13 07:21:49 2016
 By www-data
Copyright (c) 2001, Modular Infotech, Pune, INDIA. - Licenced to Microsoft
</metadata>
<defs>
<font id="Utsaah-Bold" horiz-adv-x="816" >
  <font-face 
    font-family="Utsaah"
    font-weight="700"
    font-stretch="normal"
    units-per-em="2048"
    panose-1="2 11 8 4 2 2 2 2 2 4"
    ascent="1638"
    descent="-410"
    x-height="760"
    cap-height="1050"
    bbox="-964 -703 1978 1518"
    underline-thickness="146"
    underline-position="-95"
    unicode-range="U+0020-U+25CC"
  />
<missing-glyph horiz-adv-x="1600" 
d="M200 1400h1200v-1400h-1200v1400zM1300 100v1200h-1000v-1200h1000z" />
    <glyph glyph-name=".notdef" horiz-adv-x="1600" 
d="M200 1400h1200v-1400h-1200v1400zM1300 100v1200h-1000v-1200h1000z" />
    <glyph glyph-name="space" unicode=" " horiz-adv-x="407" 
 />
    <glyph glyph-name="exclam" unicode="!" horiz-adv-x="488" 
d="M184 271l-52 532v247h217v-247l-51 -532h-114zM140 0v201h202v-201h-202z" />
    <glyph glyph-name="quotedbl" unicode="&#x22;" horiz-adv-x="695" 
d="M118 677l-38 195v178h219v-178l-33 -195h-148zM441 677l-38 195v178h219v-178l-33 -195h-148z" />
    <glyph glyph-name="numbersign" unicode="#" 
d="M110 261h-97v158h129l43 211h-172v158h204l57 280h160l-57 -280h159l55 280h166l-57 -280h98v-158h-131l-43 -211h174v-158h-206l-56 -279h-160l55 279h-159l-56 -279h-162zM346 630l-42 -211h159l41 211h-158z" />
    <glyph glyph-name="dollar" unicode="$" 
d="M350 155l-0.000976562 300.002c-93.333 26.667 -161.833 67.167 -205.5 121.5s-65.5 120.166 -65.5 197.499c0 78 24.667 143.667 74 197s115 84 197 92v71h104v-71c76 -8.66699 136.333 -34.5 181 -77.5s73.334 -100.167 86.001 -171.5l-181 -24
c-11.333 56.667 -40 95 -86 115v-280c114.667 -30.667 192.667 -70.834 234 -120.501s62 -113.167 62 -190.5c0 -86 -26 -158.667 -78 -218s-124.667 -95.666 -218 -108.999v-134h-104v131c-82.667 10 -149.667 40.667 -201 92s-84.333 124 -99 218l187 20
c7.33301 -38 21.5 -70.833 42.5 -98.5s44.5 -47.834 70.5 -60.501zM349.999 907.002c-28 -9.33301 -50.333 -25.5 -67 -48.5s-25 -48.167 -25 -75.5c0 -25.333 7.66699 -49 23 -71s38.333 -39.667 69 -53v248zM453.999 145.002c36 6.66699 65.167 23.333 87.5 50
s33.5 58 33.5 94c0 32 -9.5 59.5 -28.5 82.5s-49.833 40.833 -92.5 53.5v-280z" />
    <glyph glyph-name="percent" unicode="%" horiz-adv-x="1304" 
d="M64 790c0 94.667 20.667 164.667 62 210s97.333 68 168 68c72.667 0 129.667 -22.667 171 -68s62 -115.333 62 -210c0 -94 -20.667 -163.667 -62 -209s-97.333 -68 -168 -68c-72.667 0 -129.667 22.667 -171 68s-62 115 -62 209zM221 792c0 -68 7.66699 -114 23 -138
c12 -16.667 28.667 -25 50 -25s38 8.33301 50 25c15.333 24 23 70 23 138s-7.66699 113.667 -23 137c-12 17.333 -28.667 26 -50 26s-38 -8.66699 -50 -26c-15.333 -23.333 -23 -69 -23 -137zM447 -40h-149l559 1108h145zM772 236c0 94 20.668 163.667 62.001 209
s97.666 68 168.999 68c72 0 128.667 -22.667 170 -68s62 -115 62 -209c0 -94.667 -20.667 -164.667 -62 -210s-97.333 -68 -168 -68c-72.667 0 -129.667 22.667 -171 68s-62 115.333 -62 210zM929.001 236c0 -68 7.66797 -113.333 23.001 -136c12 -18 28.667 -27 50 -27
s37.666 8.66699 48.999 26c16 23.333 24 69 24 137c0 68.667 -7.66699 114.667 -23 138c-12 17.333 -28.667 26 -50 26c-22 0 -38.667 -8.66699 -50 -26c-15.333 -23.333 -23 -69.333 -23 -138z" />
    <glyph glyph-name="ampersand" unicode="&#x26;" horiz-adv-x="1059" 
d="M1035 128l-121 -155c-60 28.667 -117.333 68.667 -172 120c-42.667 -38 -87.834 -66.167 -135.501 -84.5s-104.5 -27.5 -170.5 -27.5c-130.667 0 -229 37 -295 111c-51.333 56.667 -77 122 -77 196c0 67.333 20.167 127.833 60.5 181.5s100.166 100.167 179.499 139.5
c-35.333 42.667 -62.166 83.167 -80.499 121.5s-27.5 74.833 -27.5 109.5c0 63.333 25.5 117.166 76.5 161.499s123.5 66.5 217.5 66.5c90.667 0 161.5 -23.167 212.5 -69.5s76.5 -103.166 76.5 -170.499c0 -42 -12.667 -82.167 -38 -120.5s-76.333 -81.5 -153 -129.5
l146 -193c17.333 30.667 32 70.667 44 120l182 -42c-18 -64 -33.667 -111 -47 -141s-27.666 -55 -42.999 -75c22.667 -20.667 51.667 -43.667 87 -69s61.333 -42 78 -50zM488 699l54 41.001c40 31.333 60 62.333 60 93c0 25.333 -9.66699 47.166 -29 65.499
s-45.333 27.5 -78 27.5c-32 0 -57.167 -8 -75.5 -24s-27.5 -34.667 -27.5 -56c0 -24.667 15.333 -54.667 46 -90zM409 480.001c-46.667 -23.333 -81.332 -51.333 -103.999 -84s-34 -66.334 -34 -101.001c0 -43.333 14.167 -78.833 42.5 -106.5s66.166 -41.5 113.499 -41.5
c32 0 62.5 6.33301 91.5 19s60.833 33.334 95.5 62.001z" />
    <glyph glyph-name="quotesingle" unicode="'" horiz-adv-x="349" 
d="M104 677l-38 195v178h219v-178l-33 -195h-148z" />
    <glyph glyph-name="parenleft" unicode="(" horiz-adv-x="488" 
d="M439 -309l-137.999 -0.000976562c-73.333 110.667 -129 225.334 -167 344.001s-57 233.667 -57 345c0 138 23.333 268.667 70 392c41.333 106.667 93.666 205.334 156.999 296.001h137c-65.333 -144.667 -110.333 -267.834 -135 -369.501s-37 -209.167 -37 -322.5
c0 -78.667 7.33301 -159 22 -241s34.667 -160 60 -234c16.667 -48.667 46 -118.667 88 -210z" />
    <glyph glyph-name="parenright" unicode=")" horiz-adv-x="488" 
d="M49 -309c40 85.333 68.165 150.666 84.498 195.999s31.333 97.5 45 156.5s23.834 115.167 30.501 168.5s10 108 10 164c0 113.333 -12.167 220.833 -36.5 322.5s-69.166 224.834 -134.499 369.501h137c72 -102.667 127.833 -211.5 167.5 -326.5
s59.5 -231.833 59.5 -350.5c0 -100 -15.667 -207 -47 -321c-36 -128 -95 -254.333 -177 -379h-139z" />
    <glyph glyph-name="asterisk" unicode="*" horiz-adv-x="571" 
d="M175 567l-107.998 84.001c34.667 38.667 70.667 75.667 108 111l28 27c-12 2 -46.333 10 -103 24c-40.667 10 -67.334 17.333 -80.001 22l42 126c62.667 -25.333 118.667 -53.333 168 -84c-11.333 78 -17 141.667 -17 191h127c0 -35.333 -6.33301 -99.333 -19 -192
c9.33301 3.33301 29.666 12.666 60.999 27.999c43.333 19.333 83 36 119 50l38 -130c-52.667 -12 -114 -23.667 -184 -35l86 -97c17.333 -19.333 31 -35.333 41 -48l-110 -72l-96 160c-29.333 -52 -63 -107 -101 -165z" />
    <glyph glyph-name="plus" unicode="+" horiz-adv-x="856" 
d="M336 151v273h-275v188h275v273h183v-273h276v-188h-276v-273h-183z" />
    <glyph glyph-name="comma" unicode="," horiz-adv-x="407" 
d="M100 201l201 0.00195312v-144c0 -58 -5 -103.833 -15 -137.5s-28.833 -63.834 -56.5 -90.501s-63.167 -47.667 -106.5 -63l-39 83c40.667 13.333 69.5 31.666 86.5 54.999s26.167 55.333 27.5 96h-98v201z" />
    <glyph glyph-name="hyphen" unicode="-" horiz-adv-x="488" 
d="M82 280v201h396v-201h-396z" />
    <glyph glyph-name="period" unicode="." horiz-adv-x="407" 
d="M105 0v201h201v-201h-201z" />
    <glyph glyph-name="slash" unicode="/" horiz-adv-x="407" 
d="M-2 -18l260 1086h151l-263 -1086h-148z" />
    <glyph glyph-name="zero" unicode="0" 
d="M402 1054c102 0 181.667 -36.3311 239 -108.998c68 -86 102 -228.333 102 -427s-34.333 -341.334 -103 -428.001c-56.667 -72 -136 -108 -238 -108s-184.167 39.333 -246.5 118s-93.5 218.667 -93.5 420c0 197.333 34.333 339.666 103 426.999
c56.667 71.333 135.667 107 237 107zM402 887.002c-24 0 -45.498 -7.66504 -64.498 -22.998s-33.833 -43.333 -44.5 -84c-14 -52 -21 -139.333 -21 -262c0 -123.333 6.16699 -208 18.5 -254s28 -76.667 47 -92s40.5 -23 64.5 -23c24.667 0 46.5 7.66699 65.5 23
s33.833 43.333 44.5 84c14 51.333 21 138.666 21 261.999c0 122.667 -6.33301 207.167 -19 253.5s-28.334 77.166 -47.001 92.499s-40.334 23 -65.001 23z" />
    <glyph glyph-name="one" unicode="1" 
d="M577 0l-200.999 0.000976562v758c-73.333 -68.667 -160 -119.334 -260 -152.001v182c52.667 17.333 109.667 50 171 98s103.666 104 126.999 168h163v-1054z" />
    <glyph glyph-name="two" unicode="2" 
d="M742 187l0.00195312 -187h-705c7.33301 70.667 30.166 137.667 68.499 201s113.833 147.333 226.5 252c90.667 84 146 141 166 171c28 42 42 83.333 42 124c0 44.667 -12 79 -36 103s-57.333 36 -100 36c-42 0 -75.5 -12.667 -100.5 -38s-39.167 -67.333 -42.5 -126
l-201 20c12 110.667 49.5 190.167 112.5 238.5s141.833 72.5 236.5 72.5c103.333 0 184.666 -28 243.999 -84s89 -125.333 89 -208c0 -47.333 -8.5 -92.333 -25.5 -135s-43.833 -87.334 -80.5 -134.001c-24.667 -31.333 -68.667 -76.166 -132 -134.499
s-103.5 -97 -120.5 -116s-30.833 -37.5 -41.5 -55.5h400z" />
    <glyph glyph-name="three" unicode="3" 
d="M55 279l195.003 22.998c6 -49.333 22.667 -87.166 50 -113.499s60.333 -39.5 99 -39.5c41.333 0 76.166 15.667 104.499 47s42.5 74 42.5 128c0 50.667 -13.5 90.667 -40.5 120s-60.167 44 -99.5 44c-26 0 -56.667 -5 -92 -15l22 164c54 -1.33301 95.333 10.5 124 35.5
s43 58.5 43 100.5c0 35.333 -10.5 63.5 -31.5 84.5s-48.833 31.5 -83.5 31.5c-34 0 -63.333 -12 -88 -36s-39.334 -59 -44.001 -105l-186 32c13.333 63.333 33 114 59 152s62.167 67.833 108.5 89.5s98.5 32.5 156.5 32.5c98.667 0 178 -31.667 238 -95
c48.667 -51.333 73 -109.333 73 -174c0 -92 -50.333 -165.667 -151 -221c60 -12.667 108.167 -41.5 144.5 -86.5s54.5 -99.167 54.5 -162.5c0 -92 -33.667 -170.5 -101 -235.5s-151.333 -97.5 -252 -97.5c-94.667 0 -173.334 27.333 -236.001 82s-99 126.334 -109 215.001z
" />
    <glyph glyph-name="four" unicode="4" 
d="M457 0v211h-430v176l456 667h169v-666h130v-177h-130v-211h-195zM457 388v359l-241 -359h241z" />
    <glyph glyph-name="five" unicode="5" 
d="M65 270l201.001 21c5.33301 -45.333 22.166 -81.333 50.499 -108s60.833 -40 97.5 -40c42 0 77.5 17.167 106.5 51.5s43.5 85.833 43.5 154.5c0 64 -14.333 112.167 -43 144.5s-66.334 48.5 -113.001 48.5c-58 0 -109.667 -25.667 -155 -77l-163 24l103 546h532v-188
h-380l-31 -178c44.667 22 90.334 33 137.001 33c89.333 0 165 -32.333 227 -97s93 -149 93 -253c0 -86 -25 -163 -75 -231c-68 -92.667 -162.667 -139 -284 -139c-97.333 0 -176.5 26 -237.5 78s-97.5 122 -109.5 210z" />
    <glyph glyph-name="six" unicode="6" 
d="M744 793l-195 -21.999c-4.66699 40 -17 69.667 -37 89s-46 29 -78 29c-42.667 0 -78.667 -19.167 -108 -57.5s-47.666 -117.833 -54.999 -238.5c50 59.333 112.333 89 187 89c84 0 155.833 -32 215.5 -96s89.5 -146.667 89.5 -248c0 -107.333 -31.5 -193.5 -94.5 -258.5
s-143.833 -97.5 -242.5 -97.5c-106 0 -193.167 41.167 -261.5 123.5s-102.5 217.5 -102.5 405.5c0 192 35.667 330.5 107 415.5s163.666 127.5 276.999 127.5c80 0 146 -22.333 198 -67s85.333 -109.334 100 -194.001zM288 354.001c0 -65.333 15.001 -115.833 45.001 -151.5
s64.333 -53.5 103 -53.5c37.333 0 68.333 14.5 93 43.5s37 76.833 37 143.5c0 68 -13.333 117.833 -40 149.5s-60 47.5 -100 47.5c-38.667 0 -71.334 -15.167 -98.001 -45.5s-40 -74.833 -40 -133.5z" />
    <glyph glyph-name="seven" unicode="7" 
d="M62 848l0.000976562 187.001h688v-146c-56.667 -55.333 -114.334 -135.333 -173.001 -240s-103.334 -215.834 -134.001 -333.501s-46 -222.834 -46 -315.501h-194c3.33301 145.333 33.333 293.333 90 444s132.334 285.334 227.001 404.001h-458z" />
    <glyph glyph-name="eight" unicode="8" 
d="M235 566c-52 22 -89.835 52.333 -113.502 91s-35.5 80.667 -35.5 126c0 78.667 27.333 143.5 82 194.5s132.334 76.5 233.001 76.5c100 0 177.5 -25.5 232.5 -76.5s82.5 -115.833 82.5 -194.5c0 -48.667 -12.667 -92 -38 -130s-61 -67 -107 -87
c58.667 -23.333 103.167 -57.333 133.5 -102s45.5 -96.334 45.5 -155.001c0 -97.333 -31 -176.333 -93 -237s-144.333 -91 -247 -91c-95.333 0 -174.666 25.333 -237.999 76c-75.333 58.667 -113 139.667 -113 243c0 56.667 14.167 108.834 42.5 156.501
s72.833 84.167 133.5 109.5zM275.998 769c0 -40 11.333 -71.167 34 -93.5s53 -33.5 91 -33.5s68.5 11.333 91.5 34s34.5 54 34.5 94c0 37.333 -11.333 67.333 -34 90s-52.667 34 -90 34c-38.667 0 -69.5 -11.333 -92.5 -34s-34.5 -53 -34.5 -91zM257.998 319
c0 -55.333 14.1689 -98.5 42.502 -129.5s63.833 -46.5 106.5 -46.5c41.333 0 75.666 15 102.999 45s41 73 41 129c0 49.333 -13.833 88.833 -41.5 118.5s-62.834 44.5 -105.501 44.5c-49.333 0 -86 -16.833 -110 -50.5s-36 -70.5 -36 -110.5z" />
    <glyph glyph-name="nine" unicode="9" 
d="M67 243l194.002 20.999c5.33301 -39.333 18 -68.666 38 -87.999s46.333 -29 79 -29c41.333 0 76.666 19.167 105.999 57.5s48 117.5 56 237.5c-50.667 -58.667 -114 -88 -190 -88c-82.667 0 -153.834 32 -213.501 96s-89.5 147 -89.5 249c0 106 31.5 191.667 94.5 257
s143.5 98 241.5 98c106.667 0 194.167 -41.167 262.5 -123.5s102.5 -217.833 102.5 -406.5c0 -192 -35.667 -330.5 -107 -415.5s-164 -127.5 -278 -127.5c-82 0 -148.333 21.833 -199 65.5s-83 109.167 -97 196.5zM522.002 681.999
c0 65.333 -15.001 115.832 -45.001 151.499s-64.333 53.5 -103 53.5c-37.333 0 -68.333 -14.667 -93 -44s-37 -77.333 -37 -144c0 -68 13.333 -117.833 40 -149.5s60 -47.5 100 -47.5c38.667 0 71.334 15.333 98.001 46s40 75.334 40 134.001z" />
    <glyph glyph-name="colon" unicode=":" horiz-adv-x="488" 
d="M144 559v201h201v-201h-201zM144 0v201h201v-201h-201z" />
    <glyph glyph-name="semicolon" unicode=";" horiz-adv-x="488" 
d="M138 559v201h201v-201h-201zM138 201l201 0.000976562v-144c0 -58 -5 -103.833 -15 -137.5s-28.833 -63.834 -56.5 -90.501s-63.167 -47.667 -106.5 -63l-39 83c40.667 13.333 69.5 32 86.5 56s26.167 55.667 27.5 95h-98v201z" />
    <glyph glyph-name="less" unicode="&#x3c;" horiz-adv-x="856" 
d="M788 120l-720 312v174l720 311v-204l-502 -192l502 -199v-202z" />
    <glyph glyph-name="equal" unicode="=" horiz-adv-x="856" 
d="M61 584v185h734v-185h-734zM61 266v186h734v-186h-734z" />
    <glyph glyph-name="greater" unicode="&#x3e;" horiz-adv-x="856" 
d="M68 119v202l503 198l-503 196v201l720 -312v-172z" />
    <glyph glyph-name="question" unicode="?" horiz-adv-x="896" 
d="M538 271l-183 -0.00292969c-0.666992 26 -1 42 -1 48c0 58.667 9.83301 107.167 29.5 145.5s58.834 81.333 117.501 129s93.667 78.834 105 93.501c18 23.333 27 49.333 27 78c0 38.667 -15.667 72 -47 100s-73.333 42 -126 42c-51.333 0 -94.166 -14.5 -128.499 -43.5
s-57.833 -73.5 -70.5 -133.5l-185 23c5.33301 85.333 41.666 157.833 108.999 217.5s156 89.5 266 89.5c115.333 0 207.166 -30.167 275.499 -90.5s102.5 -130.5 102.5 -210.5c0 -44.667 -12.5 -86.667 -37.5 -126s-78.5 -93.333 -160.5 -162
c-42.667 -35.333 -69.167 -63.666 -79.5 -84.999s-14.833 -59.666 -13.5 -114.999zM355 -0.00292969v201h201v-201h-201z" />
    <glyph glyph-name="at" unicode="@" horiz-adv-x="1430" 
d="M1272 14h152.999c-48 -97.333 -121.333 -173.333 -220 -228c-113.333 -63.333 -251.333 -95 -414 -95c-157.333 0 -293.333 26.667 -408 80s-199.834 132 -255.501 236s-83.5 217 -83.5 339c0 134 31.667 258.833 95 374.5s150.166 202.5 260.499 260.5
s236.5 87 378.5 87c120 0 226.833 -23.333 320.5 -70s165.167 -113.167 214.5 -199.5s74 -180.5 74 -282.5c0 -121.333 -37.667 -231.333 -113 -330c-94 -124 -214.333 -186 -361 -186c-40 0 -70 7 -90 21s-33.333 34.333 -40 61c-56 -54.667 -120.667 -82 -194 -82
c-79.333 -0 -145.166 27.333 -197.499 82s-78.5 127.334 -78.5 218.001c0 112 31.333 214.333 94 307c76.667 112.667 174.667 169 294 169c84.667 0 147.334 -32.333 188.001 -97l18 79h189l-108 -513c-6.66699 -32.667 -10 -53.667 -10 -63c0 -12 2.83301 -21 8.5 -27
s12.167 -9 19.5 -9c22.667 0 52.334 14 89.001 42c48.667 36 88 84.5 118 145.5s45 124.167 45 189.5c0 118 -42.5 216.5 -127.5 295.5s-203.5 118.5 -355.5 118.5c-129.333 0 -239 -26.5 -329 -79.5s-157.833 -127.333 -203.5 -223s-68.5 -195.167 -68.5 -298.5
c0 -100.667 25.333 -192.334 76 -275.001s122 -143 214 -181s197.333 -57 316 -57c114 0 212 15.833 294 47.5s148 79.5 198 143.5zM497.999 308c0 -60.667 12.333 -105.333 37 -134s55.334 -43 92.001 -43c26.667 0 52 6.66699 76 20c18 9.33301 36 24.333 54 45
c25.333 29.333 47.166 71.833 65.499 127.5s27.5 107.834 27.5 156.501c0 54 -12.5 95.333 -37.5 124s-56.833 43 -95.5 43c-40.667 0 -78.5 -15.833 -113.5 -47.5s-61.333 -76.834 -79 -135.501s-26.5 -110.667 -26.5 -156z" />
    <glyph glyph-name="A" unicode="A" horiz-adv-x="1059" 
d="M1053 0h-230l-92 238h-420l-86 -238h-225l409 1050h224zM663 415l-145 390l-141 -390h286z" />
    <glyph glyph-name="B" unicode="B" horiz-adv-x="1059" 
d="M107 1050l419.999 -0.000976562c83.333 0 145.333 -3.5 186 -10.5s77.167 -21.5 109.5 -43.5s59.166 -51.333 80.499 -88s32 -77.667 32 -123c0 -48.667 -13.167 -93.5 -39.5 -134.5s-62.166 -71.833 -107.499 -92.5c64 -18.667 113.167 -50.5 147.5 -95.5
s51.5 -97.833 51.5 -158.5c0 -47.333 -11.167 -93.666 -33.5 -138.999s-52.666 -81.5 -90.999 -108.5s-85.833 -43.5 -142.5 -49.5c-35.333 -4 -120.333 -6.33301 -255 -7h-358v1050zM318.999 874.999l-0.000976562 -243h139c82.667 0 134 1.33301 154 4
c36.667 4 65.334 16.5 86.001 37.5s31 48.167 31 81.5c0 32.667 -9 59.167 -27 79.5s-44.667 32.5 -80 36.5c-20.667 2.66699 -81 4 -181 4h-122zM318.998 457.999v-281h197c76 0 124.333 2 145 6c31.333 6 57 20 77 42s30 51.667 30 89c0 32 -7.66699 58.833 -23 80.5
s-37.5 37.667 -66.5 48s-91.833 15.5 -188.5 15.5h-171z" />
    <glyph glyph-name="C" unicode="C" horiz-adv-x="1059" 
d="M778 386l205.999 -64.999c-31.333 -114.667 -83.666 -199.834 -156.999 -255.501s-166.333 -83.5 -279 -83.5c-139.333 0 -254 47.667 -344 143s-135 225.666 -135 390.999c0 174.667 45.167 310.334 135.5 407.001s209.166 145 356.499 145c128 0 232.333 -38 313 -114
c47.333 -45.333 83 -110 107 -194l-210 -50c-12 54.667 -37.833 97.667 -77.5 129s-87.5 47 -143.5 47c-78 0 -141.167 -27.833 -189.5 -83.5s-72.5 -146.167 -72.5 -271.5c0 -132.667 23.833 -227.167 71.5 -283.5s109.834 -84.5 186.501 -84.5c56 0 104.333 18 145 54
s69.667 92.333 87 169z" />
    <glyph glyph-name="D" unicode="D" horiz-adv-x="1059" 
d="M106 1050l387.002 0.000976562c87.333 0 154 -6.66699 200 -20c61.333 -18.667 114 -51.167 158 -97.5s77.5 -103 100.5 -170s34.5 -149.5 34.5 -247.5c0 -86.667 -10.667 -161.334 -32 -224.001c-26.667 -76 -64.334 -137.667 -113.001 -185
c-36.667 -36 -86.334 -64 -149.001 -84c-46.667 -14.667 -109 -22 -187 -22h-399v1050zM318.002 872.001l-0.000976562 -694.998h158c59.333 0 102 3.33301 128 10c34.667 8.66699 63.334 23.167 86.001 43.5s41.167 54 55.5 101s21.5 111.167 21.5 192.5
s-7.16699 143.666 -21.5 186.999s-34.333 77.166 -60 101.499s-58.5 40.833 -98.5 49.5c-29.333 6.66699 -87.333 10 -174 10h-95z" />
    <glyph glyph-name="E" unicode="E" horiz-adv-x="978" 
d="M107 0v1050h778v-178h-566v-233h527v-176h-527v-286h586v-177h-798z" />
    <glyph glyph-name="F" unicode="F" horiz-adv-x="896" 
d="M108 0v1050h720v-178h-508v-248h438v-178h-438v-446h-212z" />
    <glyph glyph-name="G" unicode="G" horiz-adv-x="1141" 
d="M595 386v176.999h457v-418c-44.667 -43.333 -109.167 -81.333 -193.5 -114s-169.5 -49 -255.5 -49c-110 0 -205.833 23 -287.5 69s-143 111.833 -184 197.5s-61.5 178.834 -61.5 279.501c0 109.333 23 206.5 69 291.5s113 150.167 201 195.5c67.333 35.333 151 53 251 53
c130.667 0 232.667 -27.333 306 -82s120.333 -130.334 141 -227.001l-210 -39c-14.667 51.333 -42.5 91.833 -83.5 121.5s-92.167 44.5 -153.5 44.5c-92 0 -165.333 -29.333 -220 -88s-82 -145.667 -82 -261c0 -124.667 27.667 -218.167 83 -280.5
s127.666 -93.5 216.999 -93.5c44.667 0 89.334 8.83301 134.001 26.5s83 38.834 115 63.501v133h-243z" />
    <glyph glyph-name="H" unicode="H" horiz-adv-x="1059" 
d="M107 0v1050h212v-413h416v413h212v-1050h-212v459h-416v-459h-212z" />
    <glyph glyph-name="I" unicode="I" horiz-adv-x="407" 
d="M100 0v1050h212v-1050h-212z" />
    <glyph glyph-name="J" unicode="J" 
d="M485 1050l212.002 0.000976562v-665c0 -86.667 -7.66699 -153.334 -23 -200.001c-20.667 -61.333 -58 -110.5 -112 -147.5s-125 -55.5 -213 -55.5c-104 0 -183.833 29 -239.5 87s-83.834 143 -84.501 255l200 23c2 -60 10.667 -102.333 26 -127
c23.333 -38 58.333 -57 105 -57c47.333 0 80.666 13.5 99.999 40.5s29 83.167 29 168.5v678z" />
    <glyph glyph-name="K" unicode="K" horiz-adv-x="1059" 
d="M110 0v1050h211v-466l429 466h285l-396 -409l417 -641h-274l-289 493l-172 -176v-317h-211z" />
    <glyph glyph-name="L" unicode="L" horiz-adv-x="896" 
d="M112 0v1041h212v-864h527v-177h-739z" />
    <glyph glyph-name="M" unicode="M" horiz-adv-x="1221" 
d="M104 0v1050h317l190 -716l189 716h318v-1050h-197v826l-209 -826h-204l-207 826v-826h-197z" />
    <glyph glyph-name="N" unicode="N" horiz-adv-x="1059" 
d="M109 0v1050h206l430 -701v701h197v-1050h-213l-423 684v-684h-197z" />
    <glyph glyph-name="O" unicode="O" horiz-adv-x="1141" 
d="M64 518c0 107.333 16.0029 197.334 48.0029 270.001c23.333 53.333 55.666 101.166 96.999 143.499s86.666 73.833 135.999 94.5c65.333 28 140.666 42 225.999 42c154.667 0 278.5 -48 371.5 -144s139.5 -229.667 139.5 -401c0 -169.333 -46 -301.833 -138 -397.5
s-215.333 -143.5 -370 -143.5c-156 0 -280 47.667 -372 143s-138 226.333 -138 393zM282.003 526.001c0 -119.333 27.5 -209.666 82.5 -270.999s124.833 -92 209.5 -92c84 0 153.167 30.5 207.5 91.5s81.5 152.167 81.5 273.5c0 120.667 -26.333 210.5 -79 269.5
s-122.667 88.5 -210 88.5c-88 0 -158.667 -29.833 -212 -89.5s-80 -149.834 -80 -270.501z" />
    <glyph glyph-name="P" unicode="P" horiz-adv-x="978" 
d="M107 0l-0.000976562 1050h340c128.667 0 212.667 -5.33301 252 -16c60 -16 110.333 -50.333 151 -103s61 -120.667 61 -204c0 -64.667 -11.667 -119 -35 -163s-53.166 -78.5 -89.499 -103.5s-72.833 -41.5 -109.5 -49.5c-50.667 -10 -124 -15 -220 -15h-138v-396h-212z
M318.999 872v-297.999h116c83.333 0 139 5.5 167 16.5s50 28.167 66 51.5s24 50.666 24 81.999c0 38 -11.167 69.5 -33.5 94.5s-50.5 40.5 -84.5 46.5c-25.333 4.66699 -76.333 7 -153 7h-102z" />
    <glyph glyph-name="Q" unicode="Q" horiz-adv-x="1141" 
d="M952 133c52 -37.333 108.331 -66.999 168.998 -88.999l-78 -149c-32 9.33301 -63.333 22.333 -94 39c-6.66699 3.33301 -53.667 34.333 -141 93c-68.667 -30 -144.667 -45 -228 -45c-161.333 0 -287.666 47.5 -378.999 142.5s-137 228.5 -137 400.5
c0 171.333 45.833 304.666 137.5 399.999s215.834 143 372.501 143c156 0 279.5 -47.667 370.5 -143s136.5 -228.666 136.5 -399.999c0 -90.667 -12.667 -170.334 -38 -239.001c-18.667 -52.667 -49 -103.667 -91 -153zM780.998 253.001c27.333 32 47.835 70.667 61.502 116
s20.5 97.333 20.5 156c0 121.333 -26.833 211.833 -80.5 271.5s-123.5 89.5 -209.5 89.5c-86.667 0 -156.834 -30 -210.501 -90s-80.5 -150.333 -80.5 -271c0 -122.667 26.833 -214.5 80.5 -275.5s121.5 -91.5 203.5 -91.5c30.667 0 59.667 5 87 15
c-42.667 28.667 -86.334 50.667 -131.001 66l59 121c70 -24 136.667 -59.667 200 -107z" />
    <glyph glyph-name="R" unicode="R" horiz-adv-x="1059" 
d="M107 0l-0.00195312 1050h446c112.667 0 194.334 -9.5 245.001 -28.5s91.334 -52.667 122.001 -101s46 -103.5 46 -165.5c0 -78.667 -23.167 -143.667 -69.5 -195s-115.5 -83.666 -207.5 -96.999c46 -26.667 83.833 -56 113.5 -88s69.834 -88.667 120.501 -170l128 -205
h-253l-154 228c-54 82 -91 133.667 -111 155s-41.333 35.833 -64 43.5s-58.334 11.5 -107.001 11.5h-43v-438h-212zM318.998 605.999h157.001c102 0 165.667 4.33301 191 13s45.166 23.5 59.499 44.5s21.5 47.167 21.5 78.5c0 35.333 -9.5 63.833 -28.5 85.5
s-45.833 35.5 -80.5 41.5c-16.667 2 -68 3 -154 3h-166v-266z" />
    <glyph glyph-name="S" unicode="S" horiz-adv-x="978" 
d="M53 342l206 19.999c12.667 -69.333 38 -120.333 76 -153s89 -49 153 -49c68.667 0 120.334 14.5 155.001 43.5s52 62.833 52 101.5c0 24.667 -7.33301 45.834 -22 63.501s-40.334 32.834 -77.001 45.501c-24.667 8.66699 -81 24 -169 46
c-114 28 -193.667 62.333 -239 103c-64.667 58 -97 128.667 -97 212c0 53.333 15.167 103.333 45.5 150s74 82.167 131 106.5s125.833 36.5 206.5 36.5c132 0 231.167 -29 297.5 -87s101.166 -135 104.499 -231l-212 -10c-8.66699 54 -28 92.833 -58 116.5
s-74.667 35.5 -134 35.5c-62 0 -110.333 -12.667 -145 -38c-22 -16 -33 -37.667 -33 -65c0 -24.667 10.333 -46 31 -64c26.667 -22 91.5 -45.167 194.5 -69.5s179.333 -49.5 229 -75.5s88.334 -61.667 116.001 -107s41.5 -101 41.5 -167c0 -60 -16.667 -116.333 -50 -169
s-80.5 -91.834 -141.5 -117.501s-137.167 -38.5 -228.5 -38.5c-132.667 0 -234.5 30.667 -305.5 92s-113.5 151 -127.5 269z" />
    <glyph glyph-name="T" unicode="T" horiz-adv-x="896" 
d="M343 0v872h-311v178h834v-178h-311v-872h-212z" />
    <glyph glyph-name="U" unicode="U" horiz-adv-x="1059" 
d="M105 1050l212 -0.000976562v-569c0 -90 2.66699 -148.333 8 -175c9.33301 -43.333 31 -78 65 -104s80.667 -39 140 -39c60 0 105.333 12.333 136 37s49 54.834 55 90.501s9 95.167 9 178.5v581h212v-552c0 -126 -5.66699 -215 -17 -267s-32.333 -95.833 -63 -131.5
s-71.834 -64.167 -123.501 -85.5s-119.167 -32 -202.5 -32c-100 0 -175.833 11.667 -227.5 35s-92.667 53.5 -123 90.5s-50.166 75.5 -59.499 115.5c-14 60.667 -21 149.667 -21 267v560z" />
    <glyph glyph-name="V" unicode="V" horiz-adv-x="978" 
d="M374 0l-375 1050h230l266 -777l257 777h225l-376 -1050h-227z" />
    <glyph glyph-name="W" unicode="W" horiz-adv-x="1384" 
d="M256 0l-251 1050h217l158 -721l192 721h252l184 -734l161 734h214l-255 -1050h-225l-209 785l-209 -785h-229z" />
    <glyph glyph-name="X" unicode="X" horiz-adv-x="978" 
d="M0 0l359 548l-325 502h247l211 -338l206 338h246l-327 -510l359 -540h-256l-232 363l-234 -363h-254z" />
    <glyph glyph-name="Y" unicode="Y" horiz-adv-x="978" 
d="M382 0v442l-384 608h248l247 -416l242 416h244l-385 -610v-440h-212z" />
    <glyph glyph-name="Z" unicode="Z" horiz-adv-x="896" 
d="M16 0v191l551 681h-489v178h768v-165l-575 -708h598v-177h-853z" />
    <glyph glyph-name="bracketleft" unicode="[" horiz-adv-x="488" 
d="M105 -296v1346h356v-159h-165v-1028h165v-159h-356z" />
    <glyph glyph-name="backslash" unicode="\" horiz-adv-x="407" 
d="M-2 1068h148l263 -1086h-151z" />
    <glyph glyph-name="bracketright" unicode="]" horiz-adv-x="488" 
d="M384 1050v-1346h-357v159h166v1030h-166v157h357z" />
    <glyph glyph-name="asciicircum" unicode="^" horiz-adv-x="856" 
d="M82 495l270 573h159l262 -573h-203l-142 351l-141 -351h-205z" />
    <glyph glyph-name="underscore" unicode="_" 
d="M-14 -290v130h837v-130h-837z" />
    <glyph glyph-name="grave" unicode="`" horiz-adv-x="488" 
d="M354 853h-126l-198 215h226z" />
    <glyph glyph-name="a" unicode="a" 
d="M256 528l-183.002 32.999c20.667 74 56 128.667 106 164s124.333 53 223 53c90 0 157 -10.667 201 -32s74.833 -48.333 92.5 -81s26.5 -92.667 26.5 -180l-2 -235c0 -66.667 3.33301 -116 10 -148s18.667 -66 36 -102h-199c-5.33301 13.333 -11.666 33 -18.999 59
c-3.33301 12 -5.66602 20 -6.99902 24c-34.667 -33.333 -71.5 -58.333 -110.5 -75s-80.833 -25 -125.5 -25c-78 0 -139.667 21.167 -185 63.5s-68 96.166 -68 161.499c0 42.667 10.333 80.834 31 114.501s49.5 59.5 86.5 77.5s90.167 33.667 159.5 47
c94 17.333 159.333 33.666 196 48.999v20c0 38.667 -9.5 66.334 -28.5 83.001s-55.167 25 -108.5 25c-36 0 -64 -7.16699 -84 -21.5s-36 -39.166 -48 -74.499zM524.998 364.999c-26 -8.66699 -66.834 -18.999 -122.501 -30.999s-92.167 -23.667 -109.5 -35
c-26.667 -18.667 -40 -42.334 -40 -71.001c0 -28 10.5 -52.167 31.5 -72.5s47.833 -30.5 80.5 -30.5c36.667 0 71.334 11.667 104.001 35c24 18.667 40 41 48 67c5.33301 17.333 8 50 8 98v40z" />
    <glyph glyph-name="b" unicode="b" horiz-adv-x="896" 
d="M97 0l-0.000976562 1050h201v-378c62 70.667 135.333 106 220 106c92.667 0 169.334 -33.667 230.001 -101s91 -163.666 91 -288.999c0 -130 -30.833 -230 -92.5 -300s-136.834 -105 -225.501 -105c-43.333 0 -86.166 10.833 -128.499 32.5s-78.5 53.834 -108.5 96.501
v-112h-187zM295.999 396.998c0 -78.667 12.668 -137.001 38.001 -175.001c34.667 -53.333 81 -80 139 -80c44 0 81.667 19 113 57s47 97.667 47 179c0 86.667 -15.833 149.334 -47.5 188.001s-71.834 58 -120.501 58s-89 -18.833 -121 -56.5s-48 -94.5 -48 -170.5z" />
    <glyph glyph-name="c" unicode="c" 
d="M768 536l-197.998 -36.002c-6.66699 39.333 -21.834 69 -45.501 89s-54.5 30 -92.5 30c-50 0 -89.833 -17.167 -119.5 -51.5s-44.5 -92.166 -44.5 -173.499c0 -90.667 15.167 -154.5 45.5 -191.5s70.833 -55.5 121.5 -55.5c38.667 0 70.167 10.833 94.5 32.5
s41.5 58.834 51.5 111.501l197 -33c-20 -90.667 -59.167 -159.167 -117.5 -205.5s-136.5 -69.5 -234.5 -69.5c-111.333 0 -200 35 -266 105s-99 167 -99 291c0 126 33.167 224 99.5 294s156.166 105 269.499 105c92.667 0 166.167 -20 220.5 -60s93.5 -100.667 117.5 -182z
" />
    <glyph glyph-name="d" unicode="d" horiz-adv-x="896" 
d="M803 0l-187.003 -0.000976562v112c-31.333 -43.333 -68.166 -75.666 -110.499 -96.999s-84.833 -32 -127.5 -32c-87.333 0 -162.166 35.167 -224.499 105.5s-93.5 168.5 -93.5 294.5c0 128.667 30.333 226.667 91 294s137.334 101 230.001 101
c84.667 0 158 -35.333 220 -106v378h202v-1050zM265.997 396.999c0 -81.333 10.999 -140 32.999 -176c32.667 -52.667 78 -79 136 -79c46.667 0 86.167 19.667 118.5 59s48.5 98 48.5 176c0 87.333 -15.667 150.333 -47 189s-71.666 58 -120.999 58c-48 0 -88 -19 -120 -57
s-48 -94.667 -48 -170z" />
    <glyph glyph-name="e" unicode="e" 
d="M546 242l200 -34.001c-26 -73.333 -66.667 -129.166 -122 -167.499s-125 -57.5 -209 -57.5c-132 0 -229.667 43 -293 129c-50 69.333 -75 156.666 -75 261.999c0 126 32.833 224.833 98.5 296.5s148.834 107.5 249.501 107.5c113.333 0 202.333 -37.5 267 -112.5
s97 -189.5 97 -343.5h-506c1.33301 -59.333 17.5 -105.666 48.5 -138.999s69.5 -50 115.5 -50c32 0 58.667 8.66699 80 26s37.666 45 48.999 83zM557 444.999c-1.33301 58.667 -16.333 103.167 -45 133.5s-63.667 45.5 -105 45.5c-43.333 0 -79.333 -16 -108 -48
s-43 -75.667 -43 -131h301z" />
    <glyph glyph-name="f" unicode="f" horiz-adv-x="488" 
d="M17 760l112 0.000976562v58c0 64 6.83301 111.667 20.5 143s38.667 57 75 77s82.5 30 138.5 30c57.333 0 113.333 -8.66699 168 -26l-27 -141c-32 8 -62.667 12 -92 12s-50.333 -6.83301 -63 -20.5s-19 -39.834 -19 -78.501v-54h150v-158h-150v-602h-201v602h-112v158z
" />
    <glyph glyph-name="g" unicode="g" horiz-adv-x="896" 
d="M87 -50l229.001 -28.0029c4 -26.667 13 -45 27 -55c19.333 -14.667 49.333 -22 90 -22c52.667 0 92 8 118 24c18 10.667 31.333 27.667 40 51c6.66699 16.667 10 47.334 10 92.001v111c-60 -82 -136 -123 -228 -123c-102 0 -183 43.333 -243 130
c-46.667 68 -70 152.667 -70 254c0 128 30.667 225.667 92 293s137.666 101 228.999 101c94 0 171.667 -41.333 233 -124v106h188v-682c0 -90 -7.33301 -157.167 -22 -201.5s-35.5 -79.166 -62.5 -104.499s-62.833 -45.166 -107.5 -59.499s-101 -21.5 -169 -21.5
c-128.667 0 -220 22.167 -274 66.5s-81 100.5 -81 168.5c0 6.66699 0.333008 14.667 1 24zM266.001 395.997c0 -80.667 15.667 -139.665 47 -176.998s70 -56 116 -56c49.333 0 90.833 19.167 124.5 57.5s50.5 95.166 50.5 170.499c0 78.667 -16.167 137.167 -48.5 175.5
s-73.5 57.5 -123.5 57.5c-48 0 -87.667 -18.833 -119 -56.5s-47 -94.834 -47 -171.501z" />
    <glyph glyph-name="h" unicode="h" horiz-adv-x="896" 
d="M306 1050l-0.00195312 -386c64.667 76 142 114 232 114c46.667 0 88.667 -8.66699 126 -26s65.333 -39.333 84 -66s31.5 -56.334 38.5 -89.001s10.5 -83 10.5 -151v-446h-201v402c0 79.333 -3.83301 129.833 -11.5 151.5s-21.167 38.834 -40.5 51.501
s-43.666 19 -72.999 19c-33.333 0 -63.166 -8.16699 -89.499 -24.5s-45.5 -40.833 -57.5 -73.5s-18 -81 -18 -145v-381h-201v1050h201z" />
    <glyph glyph-name="i" unicode="i" horiz-adv-x="407" 
d="M105 863v187h201v-187h-201zM105 0v760h201v-760h-201z" />
    <glyph glyph-name="j" unicode="j" horiz-adv-x="407" 
d="M101 863v187h201v-187h-201zM302 760l0.00195312 -735.999c0 -97.333 -6.33301 -165.833 -19 -205.5s-37 -70.834 -73 -93.501s-82 -34 -138 -34c-20 0 -41.5 1.83301 -64.5 5.5s-47.833 9.16699 -74.5 16.5l35 172c9.33301 -2 18.166 -3.66699 26.499 -5
s16.166 -2 23.499 -2c20.667 0 37.5 4.5 50.5 13.5s21.667 19.667 26 32s6.5 49.5 6.5 111.5v725h201z" />
    <glyph glyph-name="k" unicode="k" 
d="M98 0v1050h201v-557l236 267h248l-260 -277l278 -483h-217l-191 342l-94 -99v-243h-201z" />
    <glyph glyph-name="l" unicode="l" horiz-adv-x="407" 
d="M105 0v1050h201v-1050h-201z" />
    <glyph glyph-name="m" unicode="m" horiz-adv-x="1304" 
d="M90 760l186 0.00195312v-103c66 80.667 145 121 237 121c48.667 0 90.834 -10.167 126.501 -30.5s64.834 -50.5 87.501 -90.5c34 40 70.333 70.167 109 90.5s79.667 30.5 123 30.5c56 0 103.333 -11.333 142 -34s67.667 -56 87 -100c14 -32.667 21 -85.334 21 -158.001
v-486h-202v435c0 75.333 -6.66699 124 -20 146c-18.667 28.667 -47.334 43 -86.001 43c-28.667 0 -55.334 -8.66699 -80.001 -26s-42.5 -42.5 -53.5 -75.5s-16.5 -85.5 -16.5 -157.5v-365h-201v417c0 74 -3.66699 121.667 -11 143s-18.5 37.333 -33.5 48
s-35.167 16 -60.5 16c-31.333 0 -59.333 -8.33301 -84 -25s-42.5 -40.834 -53.5 -72.501s-16.5 -84.167 -16.5 -157.5v-369h-201v760z" />
    <glyph glyph-name="n" unicode="n" horiz-adv-x="896" 
d="M797 0l-201.001 -0.000976562v388c0 82 -4.33301 135.167 -13 159.5s-22.667 43.166 -42 56.499s-42.666 20 -69.999 20c-34.667 0 -65.834 -9.66699 -93.501 -29s-46.667 -44.666 -57 -75.999s-15.5 -89.666 -15.5 -174.999v-344h-201v760h187v-111
c66 86 149.333 129 250 129c44.667 0 85.334 -8 122.001 -24s64.5 -36.5 83.5 -61.5s32.167 -53.167 39.5 -84.5s11 -76.333 11 -135v-473z" />
    <glyph glyph-name="o" unicode="o" horiz-adv-x="896" 
d="M59 391c0 66.667 16.501 131.334 49.501 194.001s79.667 110.5 140 143.5s127.5 49.5 201.5 49.5c115.333 0 209.666 -37.5 282.999 -112.5s110 -169.5 110 -283.5c0 -114.667 -37 -209.834 -111 -285.501s-167.333 -113.5 -280 -113.5c-70 0 -136.5 15.667 -199.5 47
s-111 77.5 -144 138.5s-49.5 135.167 -49.5 222.5zM265.001 380c0 -75.333 17.833 -133.001 53.5 -173.001s79.834 -60 132.501 -60s96.834 20 132.501 60s53.5 98.333 53.5 175c0 74 -17.833 131.167 -53.5 171.5s-79.834 60.5 -132.501 60.5
s-96.834 -20.167 -132.501 -60.5s-53.5 -98.166 -53.5 -173.499z" />
    <glyph glyph-name="p" unicode="p" horiz-adv-x="896" 
d="M100 760l186.999 -0.000976562v-111c24.667 38 57.667 69 99 93s87.333 36 138 36c88.667 0 163.667 -34.667 225 -104s92 -166 92 -290c0 -126.667 -31 -225.167 -93 -295.5s-137 -105.5 -225 -105.5c-42 0 -80.167 8.33301 -114.5 25s-70.166 45.334 -107.499 86.001
v-383h-201v1049zM298.999 392.999c0 -85.333 16.8311 -148.5 50.498 -189.5s74.834 -61.5 123.501 -61.5c46.667 0 85.667 18.833 117 56.5s47 99.167 47 184.5c0 80 -16 139.333 -48 178s-71.667 58 -119 58c-49.333 0 -90.166 -19 -122.499 -57s-48.5 -94.333 -48.5 -169z
" />
    <glyph glyph-name="q" unicode="q" horiz-adv-x="896" 
d="M602 -289l-0.000976562 382c-26 -34 -58.667 -60.833 -98 -80.5s-81.666 -29.5 -126.999 -29.5c-86 0 -157 32.333 -213 97c-66 76 -99 179 -99 309c0 122 31 217.333 93 286s138.667 103 230 103c50.667 0 94.5 -10.833 131.5 -32.5s69.833 -54.167 98.5 -97.5v112h185
v-1049h-201zM608.999 390c0 77.333 -15.999 135 -47.999 173s-71.667 57 -119 57c-48.667 0 -89.334 -19.333 -122.001 -58s-49 -100 -49 -184c0 -83.333 15.667 -143.5 47 -180.5s70.333 -55.5 117 -55.5c46 0 86.5 20.667 121.5 62s52.5 103.333 52.5 186z" />
    <glyph glyph-name="r" unicode="r" horiz-adv-x="571" 
d="M298 0l-201.001 0.000976562v760h187v-108c32 51.333 60.667 85.166 86 101.499s54.333 24.5 87 24.5c46 0 90 -12.667 132 -38l-62 -176c-34 22 -65.667 33 -95 33c-28 0 -51.667 -7.66699 -71 -23s-34.666 -43.333 -45.999 -84s-17 -125.667 -17 -255v-235z" />
    <glyph glyph-name="s" unicode="s" 
d="M34 217l202.001 30.998c8.66699 -39.333 26.167 -69.166 52.5 -89.499s63.166 -30.5 110.499 -30.5c52 0 91 9.66699 117 29c18 13.333 27 31.333 27 54c0 14.667 -5 27 -15 37s-32.333 19 -67 27c-162 36 -264.667 68.667 -308 98c-60.667 41.333 -91 98.333 -91 171
c0 66 26 121.5 78 166.5s132.667 67.5 242 67.5c104 0 181.333 -17 232 -51s85.667 -84.333 105 -151l-190 -35c-8 30 -23.333 52.833 -46 68.5s-55 23.5 -97 23.5c-53.333 0 -91.333 -7.33301 -114 -22c-15.333 -10.667 -23 -24.334 -23 -41.001
c0 -14.667 6.66699 -27 20 -37c18 -13.333 80.667 -32.166 188 -56.499s182.333 -54.166 225 -89.499c42 -35.333 63 -85 63 -149c0 -70 -29.167 -130 -87.5 -180s-144.5 -75 -258.5 -75c-104 0 -186.167 21 -246.5 63s-99.833 99 -118.5 171z" />
    <glyph glyph-name="t" unicode="t" horiz-adv-x="488" 
d="M454 760l0.000976562 -159.998h-138v-306c0 -62.667 1.33301 -99 4 -109s8.66699 -18.333 18 -25s20.666 -10 33.999 -10c18.667 0 45.667 6.33301 81 19l17 -156c-46.667 -20 -99.667 -30 -159 -30c-36 0 -68.5 6 -97.5 18s-50.333 27.667 -64 47
s-23.167 45.666 -28.5 78.999c-4 23.333 -6 70.666 -6 141.999v331h-93v160h93v151l201 118v-269h138z" />
    <glyph glyph-name="u" unicode="u" horiz-adv-x="896" 
d="M606 0v114c-28 -40.667 -64.5 -72.667 -109.5 -96s-92.5 -35 -142.5 -35c-51.333 0 -97.333 11.167 -138 33.5s-70 53.833 -88 94.5s-27 96.667 -27 168v481h201v-349c0 -106.667 3.66699 -172.167 11 -196.5s20.833 -43.5 40.5 -57.5s44.5 -21 74.5 -21
c34.667 0 65.5 9.5 92.5 28.5s45.5 42.333 55.5 70s15 96.167 15 205.5v320h202v-760h-187z" />
    <glyph glyph-name="v" unicode="v" 
d="M314 0l-306 760h211l143 -388l42 -129l21 65l21 64l145 388h207l-303 -760h-181z" />
    <glyph glyph-name="w" unicode="w" horiz-adv-x="1141" 
d="M247 0l-241 760h196l142 -498l131 498h194l127 -498l146 498h198l-244 -760h-194l-131 489l-129 -489h-195z" />
    <glyph glyph-name="x" unicode="x" 
d="M9 0l274 392l-263 368h246l134 -209l142 209h236l-257 -360l281 -400h-247l-155 236l-156 -236h-235z" />
    <glyph glyph-name="y" unicode="y" 
d="M10 760l214.002 -0.000976562l182 -539l178 539h208l-269 -731l-48 -133c-17.333 -44 -34 -77.833 -50 -101.5s-34.333 -42.667 -55 -57s-46.167 -25.666 -76.5 -33.999s-64.833 -12.5 -103.5 -12.5s-76.334 4.33301 -113.001 13l-18 157c31.333 -6 59.666 -9 84.999 -9
c46.667 0 81.167 13.667 103.5 41s39.5 62.333 51.5 105z" />
    <glyph glyph-name="z" unicode="z" horiz-adv-x="733" 
d="M24 0l-0.000976562 157l285 327c46.667 53.333 81.334 91.333 104.001 114c-23.333 -1.33301 -54 -2.33301 -92 -3l-269 -1v166h629v-142l-291 -335l-102 -111c56 3.33301 90.667 5 104 5h311v-177h-679z" />
    <glyph glyph-name="braceleft" unicode="{" horiz-adv-x="571" 
d="M43 294l-0.00195312 170.994c34.667 2 60.834 7.33301 78.501 16s33 23.167 46 43.5s21.833 45.833 26.5 76.5c4 22.667 6 62.334 6 119.001c0 92.667 4.33301 157.334 13 194.001s24.167 66 46.5 88s54.833 39.667 97.5 53c29.333 8.66699 75.333 13 138 13h38v-172
c-53.333 0 -87.5 -2.83301 -102.5 -8.5s-26 -14.667 -33 -27s-10.5 -33.166 -10.5 -62.499c0 -30 -2.33301 -87 -7 -171c-2 -47.333 -8 -85.666 -18 -114.999s-22.833 -53.666 -38.5 -72.999s-39.5 -39.333 -71.5 -60c28 -16 51 -34.833 69 -56.5s31.833 -48 41.5 -79
s15.834 -72.5 18.501 -124.5c3.33301 -79.333 5 -130 5 -152c0 -31.333 3.83301 -53.166 11.5 -65.499s19.167 -21.833 34.5 -28.5s49 -10 101 -10v-172h-38c-64.667 0 -114.167 5.16699 -148.5 15.5s-63.333 27.5 -87 51.5s-39.5 53.5 -47.5 88.5s-12 90.167 -12 165.5
c0 88 -4 145 -12 171c-10 38.667 -25.667 66.167 -47 82.5s-54 25.833 -98 28.5z" />
    <glyph glyph-name="bar" unicode="|" horiz-adv-x="410" 
d="M126 -309v1377h160v-1377h-160z" />
    <glyph glyph-name="braceright" unicode="}" horiz-adv-x="571" 
d="M522 294c-34.667 -2 -60.8301 -7.33105 -78.4971 -15.998s-32.834 -23.167 -45.501 -43.5s-21.667 -45.833 -27 -76.5c-4 -22.667 -6 -62.334 -6 -119.001c0 -92.667 -4.16699 -157.334 -12.5 -194.001s-23.666 -66 -45.999 -88s-55.166 -39.667 -98.499 -53
c-29.333 -8.66699 -75.333 -13 -138 -13h-38v172c51.333 0 84.833 3.33301 100.5 10s27.167 16 34.5 28s11.166 32.5 11.499 61.5s2.5 84.833 6.5 167.5c2 49.333 8.33301 89 19 119s24.667 55.333 42 76s39.666 38.667 66.999 54c-35.333 23.333 -61 46 -77 68
c-22.667 31.333 -38 71.333 -46 120c-5.33301 33.333 -9.33301 107 -12 221c0 35.333 -3 59 -9 71s-16.833 21.167 -32.5 27.5s-50.5 9.5 -104.5 9.5v172h38c64.667 0 114.167 -5.16699 148.5 -15.5s63.166 -27.5 86.499 -51.5s39.166 -53.5 47.499 -88.5
s12.5 -90.167 12.5 -165.5c0 -87.333 3.66699 -144.333 11 -171c10.667 -38.667 26.667 -66.167 48 -82.5s54 -25.833 98 -28.5v-171z" />
    <glyph glyph-name="asciitilde" unicode="~" horiz-adv-x="856" 
d="M48 372v185c60.667 66 131.334 99 212.001 99c30 0 57.667 -3 83 -9s70.833 -22.333 136.5 -49s110.167 -40 133.5 -40c26.667 0 57.5 8 92.5 24s69.167 41.333 102.5 76v-185c-22 -24 -52.667 -46.5 -92 -67.5s-80 -31.5 -122 -31.5c-24 0 -47.333 2.83301 -70 8.5
s-58.334 19.167 -107.001 40.5c-74 32 -132 48 -174 48c-66.667 0 -131.667 -33 -195 -99z" />
    <glyph glyph-name="uni00A0" unicode="&#xa0;" horiz-adv-x="407" 
 />
    <glyph glyph-name="exclamdown" unicode="&#xa1;" horiz-adv-x="488" 
d="M349 760v-201h-202v201h202zM305 485l52 -530v-246h-217v246l52 530h113z" />
    <glyph glyph-name="cent" unicode="&#xa2;" 
d="M533 581l-131 -431.001c10.667 -2 21.667 -3 33 -3c37.333 0 68.333 10.833 93 32.5s42 58.834 52 111.501l198 -33c-20.667 -90.667 -60.167 -159.167 -118.5 -205.5s-136.166 -69.5 -233.499 -69.5c-24 0 -48 1.66699 -72 5l-84 -277l-87 25l83 275
c-66 28.667 -116.833 75.667 -152.5 141s-53.5 142.333 -53.5 231c0 124 33.167 220.833 99.5 290.5s155.833 104.5 268.5 104.5c21.333 0 43.666 -1.66699 66.999 -5l81 269l88 -25l-80 -265c90.667 -34.667 152 -106.667 184 -216l-199 -36c-5.33301 34 -17.333 61 -36 81
zM449 618.999l-17 0.000976562c-50.667 0 -91 -17.333 -121 -52s-45 -92.667 -45 -174c0 -92.667 18.333 -159.334 55 -200.001z" />
    <glyph glyph-name="sterling" unicode="&#xa3;" 
d="M715 204l78.001 -169.998c-27.333 -15.333 -58.833 -27.5 -94.5 -36.5s-70.167 -13.5 -103.5 -13.5c-42.667 0 -99.834 10 -171.501 30s-124.834 30 -159.501 30c-58 0 -117.333 -20.667 -178 -62l-77 173c54 38.667 92.833 79.834 116.5 123.501s35.5 85.5 35.5 125.5
c0 12.667 -1 26.334 -3 41.001h-149v158h113c-20 56 -30 113 -30 171c0 52 14.333 101.667 43 149s69 83.333 121 108s108.667 37 170 37c94 0 169 -23.833 225 -71.5s90 -115.834 102 -204.501l-194 -29c-8.66699 51.333 -25 88.166 -49 110.499s-54 33.5 -90 33.5
c-38 0 -69.667 -12.667 -95 -38s-38 -57.333 -38 -96c0 -20.667 3.5 -47.334 10.5 -80.001s15.5 -62.667 25.5 -90h223v-158h-190c1.33301 -10.667 2 -21.334 2 -32.001c0 -37.333 -7.16699 -72 -21.5 -104s-43.833 -74 -88.5 -126c26.667 13.333 59.667 20 99 20
c16.667 0 31.667 -1 45 -3c6.66699 -1.33301 26.334 -6 59.001 -14c58 -14.667 97.333 -22 118 -22c37.333 0 86 13.333 146 40z" />
    <glyph glyph-name="currency" unicode="&#xa4;" 
d="M127 674l-94.9971 94l119 127l97 -97c25.333 13.333 51 23.333 77 30s52.667 10 80 10c26.667 0 53.167 -3.33301 79.5 -10s51.833 -16.667 76.5 -30l96 96l120 -121l-95 -96c13.333 -24 23.333 -49 30 -75s10 -53 10 -81c0 -27.333 -3.33301 -54 -10 -80
s-16.667 -51.333 -30 -76l96 -95l-119 -123l-98 98c-23.333 -13.333 -48 -23.5 -74 -30.5s-53.333 -10.5 -82 -10.5c-26.667 0 -52.834 3.33301 -78.501 10s-50.834 16.667 -75.501 30l-93 -94l-122 121l93 94c-13.333 24.667 -23.5 50 -30.5 76s-10.5 52.667 -10.5 80
s3.16699 53.833 9.5 79.5s16.166 50.167 29.499 73.5zM261.003 521c0 -40 14.168 -74 42.501 -102s62.166 -42 101.499 -42c40 0 74.167 14 102.5 42s42.5 62 42.5 102s-14.167 74.167 -42.5 102.5s-62.5 42.5 -102.5 42.5s-74 -14.167 -102 -42.5s-42 -62.5 -42 -102.5z
" />
    <glyph glyph-name="yen" unicode="&#xa5;" 
d="M302 195l-265 0.000976562v159h265v86h-265v158h186l-222 452h220l143 -305c18.667 -38.667 31.667 -72.334 39 -101.001c9.33301 31.333 22.333 65 39 101l146 305h220l-225 -452h190v-158h-270v-86h270v-159h-270v-195h-201v195z" />
    <glyph glyph-name="brokenbar" unicode="&#xa6;" horiz-adv-x="410" 
d="M126 502v566h160v-566h-160zM126 -309v567h160v-567h-160z" />
    <glyph glyph-name="section" unicode="&#xa7;" 
d="M706 826l-197 -20.0049c-2 34.667 -12.333 61.334 -31 80.001s-44.667 28 -78 28c-31.333 0 -55.166 -6.66699 -71.499 -20s-24.5 -28.666 -24.5 -45.999c0 -23.333 11 -46 33 -68c14.667 -14 63.667 -47.667 147 -101s138.333 -91.666 165 -114.999
c41.333 -34.667 71 -69 89 -103s27 -72 27 -114c0 -44 -10.833 -84.833 -32.5 -122.5s-54.5 -71.834 -98.5 -102.501c29.333 -26.667 51.166 -55.167 65.499 -85.5s21.5 -62.166 21.5 -95.499c0 -70.667 -26.5 -130 -79.5 -178s-129.167 -72 -228.5 -72
c-95.333 0 -171.666 23.667 -228.999 71s-91.333 110.333 -102 189l197 24c8 -43.333 24.167 -75.833 48.5 -97.5s54.833 -32.5 91.5 -32.5c31.333 0 56.333 8.33301 75 25s28 36.667 28 60c0 22 -9 42 -27 60c-18 17.333 -81.5 60.833 -190.5 130.5
s-180 127.334 -213 173.001s-49.5 97.167 -49.5 154.5c0 46.667 10.833 90 32.5 130s55.167 73 100.5 99c-24 25.333 -42.167 51.333 -54.5 78s-18.5 54 -18.5 82c0 64.667 25.167 119.334 75.5 164.001s121.166 67 212.499 67c94 0 167.833 -22.333 221.5 -67
s85.167 -103 94.5 -175zM526 209.995c21.333 18.667 37.167 36.833 47.5 54.5s15.5 34.5 15.5 50.5s-5.5 32.333 -16.5 49s-41.167 42.667 -90.5 78l-196 142c-16 -9.33301 -30.167 -22.833 -42.5 -40.5s-18.5 -36.5 -18.5 -56.5c0 -48 32 -94 96 -138z" />
    <glyph glyph-name="dieresis" unicode="&#xa8;" horiz-adv-x="488" 
d="M4 895v173h172v-173h-172zM311 895v173h174v-173h-174z" />
    <glyph glyph-name="copyright" unicode="&#xa9;" horiz-adv-x="1080" 
d="M542 1071c94 0 184.169 -23.667 270.502 -71s154.166 -114.666 203.499 -201.999s74 -179 74 -275s-24.167 -187.167 -72.5 -273.5s-115.833 -153.833 -202.5 -202.5s-177.667 -73 -273 -73s-186.333 24.333 -273 73s-154.167 116.167 -202.5 202.5
s-72.5 177.5 -72.5 273.5s24.667 187.667 74 275s117.166 154.666 203.499 201.999s176.5 71 270.5 71zM542.002 963c-75.333 0 -147.672 -18.8359 -217.005 -56.5029s-123.833 -91.667 -163.5 -162s-59.5 -144.166 -59.5 -221.499c0 -76.667 19.333 -149.834 58 -219.501
s92.834 -124 162.501 -163s142.834 -58.5 219.501 -58.5s149.834 19.5 219.501 58.5s123.834 93.333 162.501 163s58 142.834 58 219.501s-19.833 150.334 -59.5 221.001s-94.167 124.834 -163.5 162.501s-141.666 56.5 -216.999 56.5zM674.996 440.997l114.999 -38.999
c-18 -60 -48 -106 -90 -138s-92 -48 -150 -48c-82 0 -148.667 26.833 -200 80.5s-77 127.5 -77 221.5c0 61.333 11.5 116.166 34.5 164.499s56 84.333 99 108s91.167 35.5 144.5 35.5c58.667 0 107.834 -14 147.501 -42s70.167 -72 91.5 -132l-116 -27
c-13.333 34.667 -30.5 60 -51.5 76s-46.167 24 -75.5 24c-43.333 0 -78.833 -16.333 -106.5 -49s-41.5 -84 -41.5 -154s13.5 -121.333 40.5 -154s59.833 -49 98.5 -49c32 0 59.667 9.33301 83 28s41.333 50 54 94z" />
    <glyph glyph-name="ordfeminine" unicode="&#xaa;" horiz-adv-x="543" 
d="M182 896l-134.999 28.002c10.667 47.333 32.667 83.166 66 107.499s83.333 36.5 150 36.5c70.667 0 123.667 -9.33301 159 -28c24 -12 41.667 -33.333 53 -64c6.66699 -19.333 10 -56 10 -110v-171c0 -50 1.66699 -83.5 5 -100.5s9 -33.5 17 -49.5h-136
c-6 12 -11.667 29 -17 51c-42 -42.667 -93.333 -64 -154 -64c-54.667 0 -97.334 14.5 -128.001 43.5s-46 66.167 -46 111.5c0 32 7.66699 59.333 23 82s37.333 40.334 66 53.001c21.333 9.33301 66.333 20.666 135 33.999c37.333 7.33301 67 15 89 23v15
c-0.666992 23.333 -5 38.666 -13 45.999c-11.333 10 -31.333 15 -60 15c-24.667 0 -43 -4 -55 -12c-9.33301 -6 -19 -21.667 -29 -47zM339.001 784.002c-10 -6 -24.668 -11 -44.001 -15c-51.333 -10.667 -82 -19 -92 -25c-18.667 -12 -28 -27.667 -28 -47
c0 -14.667 6.33301 -28 19 -40s29.334 -18 50.001 -18c28 0 50.833 10 68.5 30s26.5 48.667 26.5 86v29z" />
    <glyph glyph-name="guillemotleft" unicode="&#xab;" 
d="M453 704l-186 -323l186 -331h-158l-226 331l226 323h158zM734 704l-186 -323l186 -331h-158l-227 331l227 323h158z" />
    <glyph glyph-name="logicalnot" unicode="&#xac;" horiz-adv-x="856" 
d="M611 269v316h-550v184h734v-500h-184z" />
    <glyph glyph-name="uni00AD" unicode="&#xad;" horiz-adv-x="488" 
d="M82 280v201h396v-201h-396z" />
    <glyph glyph-name="registered" unicode="&#xae;" horiz-adv-x="1080" 
d="M542 1071c94 0 184.169 -23.5 270.502 -70.5s154.166 -114.333 203.499 -202s74 -179.5 74 -275.5s-24.167 -187.167 -72.5 -273.5s-115.833 -153.833 -202.5 -202.5s-177.667 -73 -273 -73s-186.333 24.333 -273 73s-154.167 116.167 -202.5 202.5
s-72.5 177.5 -72.5 273.5s24.667 187.833 74 275.5s117.166 155 203.499 202s176.5 70.5 270.5 70.5zM543.002 964c-75.333 0 -147.668 -18.833 -217.001 -56.5s-124 -91.834 -164 -162.501s-60 -144.667 -60 -222s19.5 -150.833 58.5 -220.5s93.333 -124 163 -163
s142.834 -58.5 219.501 -58.5s149.667 19.5 219 58.5s123.666 93.333 162.999 163s59 143.167 59 220.5s-20 151.333 -60 222s-94.667 124.834 -164 162.501s-141.666 56.5 -216.999 56.5zM294 229l-0.000976562 581.999h118c111.333 0 173.666 -0.333008 186.999 -1
c38.667 -3.33301 68.834 -11.166 90.501 -23.499s39.834 -31 54.501 -56s22 -52.833 22 -83.5c0 -42 -13.667 -77.833 -41 -107.5s-66 -48.167 -116 -55.5c18 -6.66699 31.667 -14 41 -22s22.666 -23 39.999 -45c4 -5.33301 18 -28.666 42 -69.999l69 -118h-146l-49 95
c-32.667 63.333 -59.667 103.166 -81 119.499s-48.666 24.5 -81.999 24.5h-31v-239h-118zM411.999 559.999l47.998 -0.000976562c68.667 0 111.167 2.66699 127.5 8s29.333 14.5 39 27.5s14.5 27.833 14.5 44.5c0 16 -4.66699 30.333 -14 43s-22.666 21.834 -39.999 27.501
s-59.666 8.5 -126.999 8.5h-48v-159z" />
    <glyph glyph-name="macron" unicode="&#xaf;" horiz-adv-x="810" 
d="M-14 1111v131h837v-131h-837z" />
    <glyph glyph-name="degree" unicode="&#xb0;" horiz-adv-x="586" 
d="M62 839c0 63.333 22.167 117.333 66.5 162s98.166 67 161.499 67c62.667 0 116.334 -22.333 161.001 -67s67 -98.667 67 -162c0 -62.667 -22.333 -116.334 -67 -161.001s-98.334 -67 -161.001 -67c-63.333 0 -117.166 22.333 -161.499 67s-66.5 98.334 -66.5 161.001z
M180 839c0 -30 10.833 -55.667 32.5 -77s47.5 -32 77.5 -32s55.833 10.667 77.5 32s32.5 47 32.5 77s-10.833 55.833 -32.5 77.5s-47.5 32.5 -77.5 32.5s-55.833 -10.833 -77.5 -32.5s-32.5 -47.5 -32.5 -77.5z" />
    <glyph glyph-name="plusminus" unicode="&#xb1;" horiz-adv-x="805" 
d="M311 255v273h-275v188h275v273h183v-273h276v-188h-276v-273h-183zM36 0v188h734v-188h-734z" />
    <glyph glyph-name="twosuperior" unicode="&#xb2;" horiz-adv-x="488" 
d="M453 634v-113.001h-435c5.33301 40 18.333 76 39 108s67 76.667 139 134c54.667 42 87.334 70 98.001 84c14.667 18 22 36.333 22 55c0 18 -5.83301 32.167 -17.5 42.5s-29.834 15.5 -54.501 15.5c-24 0 -42 -5.83301 -54 -17.5s-19.333 -33.167 -22 -64.5l-136 11
c7.33301 56 25.333 97 54 123c38 34 92 51 162 51c66 0 116.667 -15.333 152 -46s53 -66.667 53 -108c0 -26 -5.5 -50.667 -16.5 -74s-28.5 -47.333 -52.5 -72c-12.667 -12 -45 -38.667 -97 -80c-27.333 -21.333 -47 -37.666 -59 -48.999h225z" />
    <glyph glyph-name="threesuperior" unicode="&#xb3;" horiz-adv-x="488" 
d="M29 677l131.002 15.0039c4 -26.667 13 -46.334 27 -59.001s32 -19 54 -19c23.333 0 42.166 7.16699 56.499 21.5s21.5 33.166 21.5 56.499c0 20 -6.66699 36.833 -20 50.5s-31 20.5 -53 20.5c-14.667 0 -36.667 -3.66699 -66 -11l17 104c24.667 0 44 2.66699 58 8
s24 12.166 30 20.499s9 17.833 9 28.5c0 14 -5 25.333 -15 34s-24.667 13 -44 13c-20 0 -35.833 -5.33301 -47.5 -16s-19.5 -28.667 -23.5 -54l-127 19c11.333 48.667 29 83.667 53 105c36 32.667 85.333 49 148 49c59.333 0 106.333 -14.833 141 -44.5
s52 -63.834 52 -102.501c0 -18 -5 -34.667 -15 -50c-13.333 -21.333 -31.333 -39 -54 -53c32 -11.333 56.167 -28 72.5 -50s24.5 -48 24.5 -78c0 -45.333 -20 -85.5 -60 -120.5s-92.667 -52.5 -158 -52.5c-61.333 0 -110.333 15 -147 45s-58.334 70 -65.001 120z" />
    <glyph glyph-name="acute" unicode="&#xb4;" horiz-adv-x="488" 
d="M134 853l99 215h225l-197 -215h-127z" />
    <glyph glyph-name="mu1" unicode="&#xb5;" horiz-adv-x="845" 
d="M79 760h199.999v-344c0 -99.333 10 -167 30 -203c25.333 -46 63 -69 113 -69c26.667 0 51.834 8.5 75.501 25.5s41.334 40.833 53.001 71.5s17.5 88.334 17.5 173.001v346h203v-760h-187v92c-14.667 -26.667 -28.5 -46.834 -41.5 -60.501s-30.333 -25.5 -52 -35.5
s-41.5 -15 -59.5 -15c-34 0 -64 9.33301 -90 28c-18.667 14 -39.334 41.667 -62.001 83v-383h-200v1051z" />
    <glyph glyph-name="paragraph" unicode="&#xb6;" 
d="M455 -289l-173.998 -0.000976562v750c-90.667 6.66699 -160.334 35.834 -209.001 87.501s-73 119.834 -73 204.501c0 50 9.66699 96 29 138s45.666 75.167 78.999 99.5s72.333 41.166 117 50.499c26.667 6 79 9 157 9h427v-187h-81v-1152h-169v1152h-103v-1152z" />
    <glyph glyph-name="uni00B7" unicode="&#xb7;" horiz-adv-x="407" 
d="M105 410v201h201v-201h-201z" />
    <glyph glyph-name="cedilla" unicode="&#xb8;" horiz-adv-x="488" 
d="M27 -289l0.000976562 85c49.333 -5.33301 94.666 -8 135.999 -8c42 0 73.333 7.66699 94 23c16 11.333 24 26 24 44c0 16.667 -7.5 31 -22.5 43s-37.833 18 -68.5 18s-62 -5 -94 -15l19 71c36.667 12.667 76.667 19 120 19c59.333 0 104.5 -13 135.5 -39
s46.5 -58 46.5 -96c0 -42 -17 -76 -51 -102c-46.667 -36 -113 -54 -199 -54c-62 0 -108.667 3.66699 -140 11z" />
    <glyph glyph-name="onesuperior" unicode="&#xb9;" horiz-adv-x="488" 
d="M354 521l-136 -0.00195312v367c-44.667 -31.333 -95.667 -54.666 -153 -69.999v111c45.333 12.667 86.333 33.334 123 62.001c26 20 44.667 44 56 72h110v-542z" />
    <glyph glyph-name="ordmasculine" unicode="&#xba;" horiz-adv-x="536" 
d="M19 798c0 85.333 22.498 151.668 67.498 199.001s105.167 71 180.5 71c74.667 0 134.834 -23.833 180.501 -71.5s68.5 -113.834 68.5 -198.501c0 -84 -22.667 -149.667 -68 -197s-105.666 -71 -180.999 -71s-135.5 23.5 -180.5 70.5s-67.5 112.833 -67.5 197.5z
M169.998 797.002c0 -52.667 8.83301 -90 26.5 -112s40.5 -33 68.5 -33s51 11 69 33s27 59.333 27 112s-9 90 -27 112s-41 33 -69 33s-50.833 -11 -68.5 -33s-26.5 -59.333 -26.5 -112z" />
    <glyph glyph-name="guillemotright" unicode="&#xbb;" 
d="M357 50l186 324l-186 330h158l226 -330l-226 -324h-158zM76 50l186 324l-186 330h158l226 -330l-226 -324h-158z" />
    <glyph glyph-name="onequarter" unicode="&#xbc;" horiz-adv-x="1223" 
d="M355 521l-136 -0.00195312v367c-44.667 -31.333 -95.667 -54.666 -153 -69.999v111c45.333 12.667 86.333 33.334 123 62.001c26 20 44.667 44 56 72h110v-542zM357 -39.002h-114l623 1102h113zM1005 -30.002v104h-258v101l273 337h112v-334h77v-104h-77v-104h-127z
M1005 177.998v161l-131 -161h131z" />
    <glyph glyph-name="onehalf" unicode="&#xbd;" horiz-adv-x="1223" 
d="M355 521l-136 -0.00195312v367c-44.667 -31.333 -95.667 -54.666 -153 -69.999v111c45.333 12.667 86.333 33.334 123 62.001c26 20 44.667 44 56 72h110v-542zM357 -39.002h-114l623 1102h113zM1186 81.998l-0.00195312 -112.001h-435c5.33301 40.667 18.5 77 39.5 109
s67.167 76.333 138.5 133c54.667 42.667 87.334 70.667 98.001 84c15.333 18.667 23 37.334 23 56.001c0 17.333 -6 31.333 -18 42s-30.333 16 -55 16c-23.333 0 -41.166 -6 -53.499 -18s-19.833 -33.667 -22.5 -65l-136 12c7.33301 55.333 25.666 96 54.999 122
c37.333 34 91 51 161 51c66 0 116.667 -15.333 152 -46s53 -66.667 53 -108c0 -26 -5.5 -50.5 -16.5 -73.5s-28.5 -46.833 -52.5 -71.5c-12.667 -12.667 -45 -39.667 -97 -81c-27.333 -21.333 -46.666 -38 -57.999 -50h224z" />
    <glyph glyph-name="threequarters" unicode="&#xbe;" horiz-adv-x="1223" 
d="M29 677l131.002 15.0039c4 -26.667 13 -46.334 27 -59.001s32 -19 54 -19c23.333 0 42.166 7.16699 56.499 21.5s21.5 33.166 21.5 56.499c0 20 -6.66699 36.833 -20 50.5s-31 20.5 -53 20.5c-14.667 0 -36.667 -3.66699 -66 -11l17 104c24.667 0 44 2.66699 58 8
s24 12.166 30 20.499s9 17.833 9 28.5c0 14 -5 25.333 -15 34s-24.667 13 -44 13c-20 0 -35.833 -5.33301 -47.5 -16s-19.5 -28.667 -23.5 -54l-127 19c11.333 48.667 29 83.667 53 105c36 32.667 85.333 49 148 49c59.333 0 106.333 -14.833 141 -44.5
s52 -63.834 52 -102.501c0 -18 -5 -34.667 -15 -50c-13.333 -21.333 -31.333 -39 -54 -53c32 -11.333 56.167 -28 72.5 -50s24.5 -48 24.5 -78c0 -45.333 -20 -85.5 -60 -120.5s-92.667 -52.5 -158 -52.5c-61.333 0 -110.333 15 -147 45s-58.334 70 -65.001 120z
M374.002 -38.9961h-113l622 1102h113zM1004 -29.9961v104h-258v101l274 337h111v-334h78v-104h-78v-104h-127zM1004 178.004v161l-130 -161h130z" />
    <glyph glyph-name="questiondown" unicode="&#xbf;" horiz-adv-x="896" 
d="M546 760v-201h-201v201h201zM364 490h182.002c1.33301 -32 2 -50.333 2 -55c0 -54 -10.5 -100.667 -31.5 -140s-61.667 -83.666 -122 -132.999s-96.5 -83.666 -108.5 -102.999c-11.333 -20 -17 -42.333 -17 -67c0 -36.667 15.667 -69 47 -97s73.333 -42 126 -42
c51.333 0 94 14.167 128 42.5s58 73.166 72 134.499l184 -24c-8 -59.333 -25 -108.666 -51 -147.999c-35.333 -54 -81.166 -94 -137.499 -120s-118.833 -39 -187.5 -39c-114.667 0 -206.334 30.167 -275.001 90.5s-103 130.166 -103 209.499
c0 30.667 6.16699 60.5 18.5 89.5s31.5 58 57.5 87s67.333 66.833 124 113.5c41.333 33.333 67.166 61.166 77.499 83.499s15.166 61.5 14.499 117.5z" />
    <glyph glyph-name="Agrave" unicode="&#xc0;" horiz-adv-x="1059" 
d="M1053 0h-230l-92 238h-420l-86 -238h-225l409 1050h224zM663 415l-145 390l-141 -390h286zM638 1109h-126l-198 215h226z" />
    <glyph glyph-name="Aacute" unicode="&#xc1;" horiz-adv-x="1059" 
d="M1053 0h-230l-92 238h-420l-86 -238h-225l409 1050h224zM663 415l-145 390l-141 -390h286zM397 1109l99 215h225l-197 -215h-127z" />
    <glyph glyph-name="Acircumflex" unicode="&#xc2;" horiz-adv-x="1059" 
d="M1053 0h-230l-92 238h-420l-86 -238h-225l409 1050h224zM663 415l-145 390l-141 -390h286zM276 1109l151 212h186l148 -212h-162l-83 107l-77 -107h-163z" />
    <glyph glyph-name="Atilde" unicode="&#xc3;" horiz-adv-x="1059" 
d="M1053 0h-230l-92 238h-420l-86 -238h-225l409 1050h224zM663 415l-145 390l-141 -390h286zM354 1108l-91.9971 -0.000976562v26c0 50 12.167 88.5 36.5 115.5s55.5 40.5 93.5 40.5c16.667 0 32.167 -1.83301 46.5 -5.5s40.5 -14 78.5 -31s67.667 -25.5 89 -25.5
c15.333 0 28.166 4.83301 38.499 14.5s16.833 25.5 19.5 47.5h93c-0.666992 -64 -12.667 -109.833 -36 -137.5s-53.666 -41.5 -90.999 -41.5c-16.667 0 -32.667 1.66699 -48 5c-11.333 2.66699 -38.833 12.334 -82.5 29.001s-75.834 25 -96.501 25
c-14.667 0 -26.334 -4.66699 -35.001 -14s-13.334 -25.333 -14.001 -48z" />
    <glyph glyph-name="Adieresis" unicode="&#xc4;" horiz-adv-x="1059" 
d="M1053 0h-230l-92 238h-420l-86 -238h-225l409 1050h224zM663 415l-145 390l-141 -390h286zM275 1110v173h172v-173h-172zM582 1110v173h174v-173h-174z" />
    <glyph glyph-name="Aring" unicode="&#xc5;" horiz-adv-x="1059" 
d="M1053 0h-230l-92 238h-420l-86 -238h-225l409 1050h224zM663 415l-145 390l-141 -390h286zM659 1119c0 -38.667 -13.667 -71.667 -41 -99s-60.333 -41 -99 -41s-71.667 13.667 -99 41s-41 60.333 -41 99s13.667 71.667 41 99s60.333 41 99 41s71.667 -13.5 99 -40.5
s41 -60.167 41 -99.5zM583 1119c0 17.333 -6.16699 32.333 -18.5 45s-27.5 19 -45.5 19c-17.333 0 -32.333 -6.33301 -45 -19s-19 -27.667 -19 -45c0 -18 6.33301 -33.167 19 -45.5s27.667 -18.5 45 -18.5c18 0 33.167 6.16699 45.5 18.5s18.5 27.5 18.5 45.5z" />
    <glyph glyph-name="AE" unicode="&#xc6;" horiz-adv-x="1466" 
d="M-62 0l490 1050h948v-178h-520v-233h479v-178h-479v-284h539v-177h-751v247h-363l-108 -247h-235zM359 430h288v461h-83z" />
    <glyph glyph-name="Ccedilla" unicode="&#xc7;" horiz-adv-x="1059" 
d="M778 386l205.999 -64.999c-31.333 -114.667 -83.666 -199.834 -156.999 -255.501s-166.333 -83.5 -279 -83.5c-139.333 0 -254 47.667 -344 143s-135 225.666 -135 390.999c0 174.667 45.167 310.334 135.5 407.001s209.166 145 356.499 145c128 0 232.333 -38 313 -114
c47.333 -45.333 83 -110 107 -194l-210 -50c-12 54.667 -37.833 97.667 -77.5 129s-87.5 47 -143.5 47c-78 0 -141.167 -27.833 -189.5 -83.5s-72.5 -146.167 -72.5 -271.5c0 -132.667 23.833 -227.167 71.5 -283.5s109.834 -84.5 186.501 -84.5c56 0 104.333 18 145 54
s69.667 92.333 87 169zM332.999 -288.999l0.000976562 85c49.333 -5.33301 94.666 -8 135.999 -8c42 0 73.333 7.66699 94 23c16 11.333 24 26 24 44c0 16.667 -7.5 31 -22.5 43s-37.833 18 -68.5 18s-62 -5 -94 -15l19 71c36.667 12.667 76.667 19 120 19
c59.333 0 104.5 -13 135.5 -39s46.5 -58 46.5 -96c0 -42 -17 -76 -51 -102c-46.667 -36 -113 -54 -199 -54c-62 0 -108.667 3.66699 -140 11z" />
    <glyph glyph-name="Egrave" unicode="&#xc8;" horiz-adv-x="978" 
d="M107 0v1050h778v-178h-566v-233h527v-176h-527v-286h586v-177h-798zM617 1109h-126l-198 215h226z" />
    <glyph glyph-name="Eacute" unicode="&#xc9;" horiz-adv-x="978" 
d="M107 0v1050h778v-178h-566v-233h527v-176h-527v-286h586v-177h-798zM376 1109l99 215h225l-197 -215h-127z" />
    <glyph glyph-name="Ecircumflex" unicode="&#xca;" horiz-adv-x="978" 
d="M107 0v1050h778v-178h-566v-233h527v-176h-527v-286h586v-177h-798zM241 1109l151 212h186l148 -212h-162l-83 107l-77 -107h-163z" />
    <glyph glyph-name="Edieresis" unicode="&#xcb;" horiz-adv-x="978" 
d="M107 0v1050h778v-178h-566v-233h527v-176h-527v-286h586v-177h-798zM254 1110v173h172v-173h-172zM561 1110v173h174v-173h-174z" />
    <glyph glyph-name="Igrave" unicode="&#xcc;" horiz-adv-x="407" 
d="M100 0v1050h212v-1050h-212zM318 1109h-126l-198 215h226z" />
    <glyph glyph-name="Iacute" unicode="&#xcd;" horiz-adv-x="407" 
d="M100 0v1050h212v-1050h-212zM77 1109l99 215h225l-197 -215h-127z" />
    <glyph glyph-name="Icircumflex" unicode="&#xce;" horiz-adv-x="407" 
d="M100 0v1050h212v-1050h-212zM-29 1109l151 212h186l148 -212h-162l-83 107l-77 -107h-163z" />
    <glyph glyph-name="Idieresis" unicode="&#xcf;" horiz-adv-x="407" 
d="M100 0v1050h212v-1050h-212zM-31 1110v173h172v-173h-172zM276 1110v173h174v-173h-174z" />
    <glyph glyph-name="Eth" unicode="&#xd0;" horiz-adv-x="1059" 
d="M107 1050h386.002c89.333 0 156.666 -7 201.999 -21c62 -18.667 115 -51.5 159 -98.5s77.167 -104 99.5 -171s33.5 -149.5 33.5 -247.5c0 -86.667 -12.333 -164.667 -37 -234s-61 -127 -109 -173c-36.667 -35.333 -86 -63 -148 -83
c-46.667 -14.667 -109.334 -22 -188.001 -22h-398v458h-109v133h109v459zM318.002 872l0.000976562 -281.001h225v-133h-225v-281h159c70 0 120.667 5.66699 152 17c40.667 14.667 71.667 41 93 79c30.667 54 46 136.333 46 247c0 78.667 -6.33301 139.334 -19 182.001
s-31.334 77.167 -56.001 103.5s-57 44.833 -97 55.5c-30 7.33301 -90.667 11 -182 11h-96z" />
    <glyph glyph-name="Ntilde" unicode="&#xd1;" horiz-adv-x="1059" 
d="M109 0v1050h206l430 -701v701h197v-1050h-213l-423 684v-684h-197zM372 1108l-91.9971 -0.000976562v26c0 50 12.167 88.5 36.5 115.5s55.5 40.5 93.5 40.5c16.667 0 32.167 -1.83301 46.5 -5.5s40.5 -14 78.5 -31s67.667 -25.5 89 -25.5
c15.333 0 28.166 4.83301 38.499 14.5s16.833 25.5 19.5 47.5h93c-0.666992 -64 -12.667 -109.833 -36 -137.5s-53.666 -41.5 -90.999 -41.5c-16.667 0 -32.667 1.66699 -48 5c-11.333 2.66699 -38.833 12.334 -82.5 29.001s-75.834 25 -96.501 25
c-14.667 0 -26.334 -4.66699 -35.001 -14s-13.334 -25.333 -14.001 -48z" />
    <glyph glyph-name="Ograve" unicode="&#xd2;" horiz-adv-x="1141" 
d="M64 518c0 107.333 16.0029 197.334 48.0029 270.001c23.333 53.333 55.666 101.166 96.999 143.499s86.666 73.833 135.999 94.5c65.333 28 140.666 42 225.999 42c154.667 0 278.5 -48 371.5 -144s139.5 -229.667 139.5 -401c0 -169.333 -46 -301.833 -138 -397.5
s-215.333 -143.5 -370 -143.5c-156 0 -280 47.667 -372 143s-138 226.333 -138 393zM282.003 526.001c0 -119.333 27.5 -209.666 82.5 -270.999s124.833 -92 209.5 -92c84 0 153.167 30.5 207.5 91.5s81.5 152.167 81.5 273.5c0 120.667 -26.333 210.5 -79 269.5
s-122.667 88.5 -210 88.5c-88 0 -158.667 -29.833 -212 -89.5s-80 -149.834 -80 -270.501zM683.003 1109h-126l-198 215h226z" />
    <glyph glyph-name="Oacute" unicode="&#xd3;" horiz-adv-x="1141" 
d="M64 518c0 107.333 16.0029 197.334 48.0029 270.001c23.333 53.333 55.666 101.166 96.999 143.499s86.666 73.833 135.999 94.5c65.333 28 140.666 42 225.999 42c154.667 0 278.5 -48 371.5 -144s139.5 -229.667 139.5 -401c0 -169.333 -46 -301.833 -138 -397.5
s-215.333 -143.5 -370 -143.5c-156 0 -280 47.667 -372 143s-138 226.333 -138 393zM282.003 526.001c0 -119.333 27.5 -209.666 82.5 -270.999s124.833 -92 209.5 -92c84 0 153.167 30.5 207.5 91.5s81.5 152.167 81.5 273.5c0 120.667 -26.333 210.5 -79 269.5
s-122.667 88.5 -210 88.5c-88 0 -158.667 -29.833 -212 -89.5s-80 -149.834 -80 -270.501zM443.003 1109l99 215h225l-197 -215h-127z" />
    <glyph glyph-name="Ocircumflex" unicode="&#xd4;" horiz-adv-x="1141" 
d="M64 518c0 107.333 16.0029 197.334 48.0029 270.001c23.333 53.333 55.666 101.166 96.999 143.499s86.666 73.833 135.999 94.5c65.333 28 140.666 42 225.999 42c154.667 0 278.5 -48 371.5 -144s139.5 -229.667 139.5 -401c0 -169.333 -46 -301.833 -138 -397.5
s-215.333 -143.5 -370 -143.5c-156 0 -280 47.667 -372 143s-138 226.333 -138 393zM282.003 526.001c0 -119.333 27.5 -209.666 82.5 -270.999s124.833 -92 209.5 -92c84 0 153.167 30.5 207.5 91.5s81.5 152.167 81.5 273.5c0 120.667 -26.333 210.5 -79 269.5
s-122.667 88.5 -210 88.5c-88 0 -158.667 -29.833 -212 -89.5s-80 -149.834 -80 -270.501zM322.003 1109l151 212h186l148 -212h-162l-83 107l-77 -107h-163z" />
    <glyph glyph-name="Otilde" unicode="&#xd5;" horiz-adv-x="1141" 
d="M64 518c0 107.333 16.0029 197.334 48.0029 270.001c23.333 53.333 55.666 101.166 96.999 143.499s86.666 73.833 135.999 94.5c65.333 28 140.666 42 225.999 42c154.667 0 278.5 -48 371.5 -144s139.5 -229.667 139.5 -401c0 -169.333 -46 -301.833 -138 -397.5
s-215.333 -143.5 -370 -143.5c-156 0 -280 47.667 -372 143s-138 226.333 -138 393zM282.003 526.001c0 -119.333 27.5 -209.666 82.5 -270.999s124.833 -92 209.5 -92c84 0 153.167 30.5 207.5 91.5s81.5 152.167 81.5 273.5c0 120.667 -26.333 210.5 -79 269.5
s-122.667 88.5 -210 88.5c-88 0 -158.667 -29.833 -212 -89.5s-80 -149.834 -80 -270.501zM400.003 1108l-91.9971 -0.000976562v26c0 50 12.167 88.5 36.5 115.5s55.5 40.5 93.5 40.5c16.667 0 32.167 -1.83301 46.5 -5.5s40.5 -14 78.5 -31s67.667 -25.5 89 -25.5
c15.333 0 28.166 4.83301 38.499 14.5s16.833 25.5 19.5 47.5h93c-0.666992 -64 -12.667 -109.833 -36 -137.5s-53.666 -41.5 -90.999 -41.5c-16.667 0 -32.667 1.66699 -48 5c-11.333 2.66699 -38.833 12.334 -82.5 29.001s-75.834 25 -96.501 25
c-14.667 0 -26.334 -4.66699 -35.001 -14s-13.334 -25.333 -14.001 -48z" />
    <glyph glyph-name="Odieresis" unicode="&#xd6;" horiz-adv-x="1141" 
d="M64 518c0 107.333 16.0029 197.334 48.0029 270.001c23.333 53.333 55.666 101.166 96.999 143.499s86.666 73.833 135.999 94.5c65.333 28 140.666 42 225.999 42c154.667 0 278.5 -48 371.5 -144s139.5 -229.667 139.5 -401c0 -169.333 -46 -301.833 -138 -397.5
s-215.333 -143.5 -370 -143.5c-156 0 -280 47.667 -372 143s-138 226.333 -138 393zM282.003 526.001c0 -119.333 27.5 -209.666 82.5 -270.999s124.833 -92 209.5 -92c84 0 153.167 30.5 207.5 91.5s81.5 152.167 81.5 273.5c0 120.667 -26.333 210.5 -79 269.5
s-122.667 88.5 -210 88.5c-88 0 -158.667 -29.833 -212 -89.5s-80 -149.834 -80 -270.501zM320.003 1110v173h172v-173h-172zM627.003 1110v173h174v-173h-174z" />
    <glyph glyph-name="multiply" unicode="&#xd7;" horiz-adv-x="856" 
d="M79 301l217 216l-218 217l133 133l218 -217l216 216l130 -130l-217 -216l219 -219l-133 -133l-219 219l-216 -217z" />
    <glyph glyph-name="Oslash" unicode="&#xd8;" horiz-adv-x="1141" 
d="M887 973l113 127.002l100 -88l-120 -134c32 -43.333 56.833 -96.333 74.5 -159s26.5 -129.334 26.5 -200.001c0 -166.667 -46 -297.834 -138 -393.501s-213.667 -143.5 -365 -143.5c-131.333 0 -236.333 30 -315 90l-116 -131l-102 89l123 138
c-70 92.667 -105 213.667 -105 363c0 166 46 297 138 393s215 144 369 144c127.333 0 233 -31.667 317 -95zM755 826.002c-48 40.667 -108.999 61 -182.999 61c-86.667 0 -156.834 -30 -210.501 -90s-80.5 -150.333 -80.5 -271c0 -76 11 -140.667 33 -194zM833.001 713.002
l-440 -495c49.333 -42.667 108.666 -64 177.999 -64c84.667 0 154.334 30.833 209.001 92.5s82 153.5 82 275.5c0 77.333 -9.66699 141 -29 191z" />
    <glyph glyph-name="Ugrave" unicode="&#xd9;" horiz-adv-x="1059" 
d="M105 1050l212 -0.000976562v-569c0 -90 2.66699 -148.333 8 -175c9.33301 -43.333 31 -78 65 -104s80.667 -39 140 -39c60 0 105.333 12.333 136 37s49 54.834 55 90.501s9 95.167 9 178.5v581h212v-552c0 -126 -5.66699 -215 -17 -267s-32.333 -95.833 -63 -131.5
s-71.834 -64.167 -123.501 -85.5s-119.167 -32 -202.5 -32c-100 0 -175.833 11.667 -227.5 35s-92.667 53.5 -123 90.5s-50.166 75.5 -59.499 115.5c-14 60.667 -21 149.667 -21 267v560zM635 1109h-126l-198 215h226z" />
    <glyph glyph-name="Uacute" unicode="&#xda;" horiz-adv-x="1059" 
d="M105 1050l212 -0.000976562v-569c0 -90 2.66699 -148.333 8 -175c9.33301 -43.333 31 -78 65 -104s80.667 -39 140 -39c60 0 105.333 12.333 136 37s49 54.834 55 90.501s9 95.167 9 178.5v581h212v-552c0 -126 -5.66699 -215 -17 -267s-32.333 -95.833 -63 -131.5
s-71.834 -64.167 -123.501 -85.5s-119.167 -32 -202.5 -32c-100 0 -175.833 11.667 -227.5 35s-92.667 53.5 -123 90.5s-50.166 75.5 -59.499 115.5c-14 60.667 -21 149.667 -21 267v560zM394 1109l99 215h225l-197 -215h-127z" />
    <glyph glyph-name="Ucircumflex" unicode="&#xdb;" horiz-adv-x="1059" 
d="M105 1050l212 -0.000976562v-569c0 -90 2.66699 -148.333 8 -175c9.33301 -43.333 31 -78 65 -104s80.667 -39 140 -39c60 0 105.333 12.333 136 37s49 54.834 55 90.501s9 95.167 9 178.5v581h212v-552c0 -126 -5.66699 -215 -17 -267s-32.333 -95.833 -63 -131.5
s-71.834 -64.167 -123.501 -85.5s-119.167 -32 -202.5 -32c-100 0 -175.833 11.667 -227.5 35s-92.667 53.5 -123 90.5s-50.166 75.5 -59.499 115.5c-14 60.667 -21 149.667 -21 267v560zM288 1109l151 212h186l148 -212h-162l-83 107l-77 -107h-163z" />
    <glyph glyph-name="Udieresis" unicode="&#xdc;" horiz-adv-x="1059" 
d="M105 1050l212 -0.000976562v-569c0 -90 2.66699 -148.333 8 -175c9.33301 -43.333 31 -78 65 -104s80.667 -39 140 -39c60 0 105.333 12.333 136 37s49 54.834 55 90.501s9 95.167 9 178.5v581h212v-552c0 -126 -5.66699 -215 -17 -267s-32.333 -95.833 -63 -131.5
s-71.834 -64.167 -123.501 -85.5s-119.167 -32 -202.5 -32c-100 0 -175.833 11.667 -227.5 35s-92.667 53.5 -123 90.5s-50.166 75.5 -59.499 115.5c-14 60.667 -21 149.667 -21 267v560zM286 1110v173h172v-173h-172zM593 1110v173h174v-173h-174z" />
    <glyph glyph-name="Yacute" unicode="&#xdd;" horiz-adv-x="978" 
d="M382 0v442l-384 608h248l247 -416l242 416h244l-385 -610v-440h-212zM355 1109l99 215h225l-197 -215h-127z" />
    <glyph glyph-name="Thorn" unicode="&#xde;" horiz-adv-x="978" 
d="M107 0l-0.000976562 1050h212v-198h128c128.667 0 213 -5.33301 253 -16c60 -16 110.167 -50.333 150.5 -103s60.5 -121 60.5 -205c0 -64 -11.667 -117.833 -35 -161.5s-53.166 -78.167 -89.499 -103.5s-72.833 -42 -109.5 -50c-50.667 -10 -124 -15 -220 -15h-138v-198
h-212zM318.999 674l0.000976562 -297.998h116c78.667 0 129 2.66699 151 8c29.333 7.33301 54.333 23.166 75 47.499s31 56.5 31 96.5c0 32 -8.16699 60.167 -24.5 84.5s-36.333 40.666 -60 48.999s-85.834 12.5 -186.501 12.5h-102z" />
    <glyph glyph-name="germandbls" unicode="&#xdf;" horiz-adv-x="896" 
d="M100 0l-0.00195312 681.999c0 95.333 8.33301 167.833 25 217.5s49.334 90.167 98.001 121.5s112 47 190 47c97.333 0 170.166 -20.833 218.499 -62.5s72.5 -93.167 72.5 -154.5c0 -42 -13 -86.667 -39 -134s-41 -76.333 -45 -87s-6 -19.667 -6 -27
c0 -16 6 -32.667 18 -50c8 -10.667 36.833 -41 86.5 -91s83 -92.5 100 -127.5s25.5 -71.167 25.5 -108.5c0 -69.333 -24 -127.166 -72 -173.499s-108.667 -69.5 -182 -69.5c-50.667 0 -96.667 13 -138 39s-72.666 58 -93.999 96l140 82c10 -18 21.333 -31.833 34 -41.5
s26.334 -14.5 41.001 -14.5c19.333 0 35.833 7 49.5 21s20.5 31.667 20.5 53c0 19.333 -7.33301 39 -22 59c-8 12 -40.667 45.333 -98 100c-80.667 77.333 -121 138 -121 182c0 28 15.333 74.333 46 139c24.667 50 39.167 81.667 43.5 95s6.5 27 6.5 41
c0 21.333 -8 39.333 -24 54s-37 22 -63 22c-24 0 -44.667 -6.16699 -62 -18.5s-29 -28.5 -35 -48.5c-8.66699 -26 -13 -79.667 -13 -161v-682h-201z" />
    <glyph glyph-name="agrave" unicode="&#xe0;" 
d="M256 528l-183.002 32.999c20.667 74 56 128.667 106 164s124.333 53 223 53c90 0 157 -10.667 201 -32s74.833 -48.333 92.5 -81s26.5 -92.667 26.5 -180l-2 -235c0 -66.667 3.33301 -116 10 -148s18.667 -66 36 -102h-199c-5.33301 13.333 -11.666 33 -18.999 59
c-3.33301 12 -5.66602 20 -6.99902 24c-34.667 -33.333 -71.5 -58.333 -110.5 -75s-80.833 -25 -125.5 -25c-78 0 -139.667 21.167 -185 63.5s-68 96.166 -68 161.499c0 42.667 10.333 80.834 31 114.501s49.5 59.5 86.5 77.5s90.167 33.667 159.5 47
c94 17.333 159.333 33.666 196 48.999v20c0 38.667 -9.5 66.334 -28.5 83.001s-55.167 25 -108.5 25c-36 0 -64 -7.16699 -84 -21.5s-36 -39.166 -48 -74.499zM524.998 364.999c-26 -8.66699 -66.834 -18.999 -122.501 -30.999s-92.167 -23.667 -109.5 -35
c-26.667 -18.667 -40 -42.334 -40 -71.001c0 -28 10.5 -52.167 31.5 -72.5s47.833 -30.5 80.5 -30.5c36.667 0 71.334 11.667 104.001 35c24 18.667 40 41 48 67c5.33301 17.333 8 50 8 98v40zM509.997 853h-126l-198 215h226z" />
    <glyph glyph-name="aacute" unicode="&#xe1;" 
d="M256 528l-183.002 32.999c20.667 74 56 128.667 106 164s124.333 53 223 53c90 0 157 -10.667 201 -32s74.833 -48.333 92.5 -81s26.5 -92.667 26.5 -180l-2 -235c0 -66.667 3.33301 -116 10 -148s18.667 -66 36 -102h-199c-5.33301 13.333 -11.666 33 -18.999 59
c-3.33301 12 -5.66602 20 -6.99902 24c-34.667 -33.333 -71.5 -58.333 -110.5 -75s-80.833 -25 -125.5 -25c-78 0 -139.667 21.167 -185 63.5s-68 96.166 -68 161.499c0 42.667 10.333 80.834 31 114.501s49.5 59.5 86.5 77.5s90.167 33.667 159.5 47
c94 17.333 159.333 33.666 196 48.999v20c0 38.667 -9.5 66.334 -28.5 83.001s-55.167 25 -108.5 25c-36 0 -64 -7.16699 -84 -21.5s-36 -39.166 -48 -74.499zM524.998 364.999c-26 -8.66699 -66.834 -18.999 -122.501 -30.999s-92.167 -23.667 -109.5 -35
c-26.667 -18.667 -40 -42.334 -40 -71.001c0 -28 10.5 -52.167 31.5 -72.5s47.833 -30.5 80.5 -30.5c36.667 0 71.334 11.667 104.001 35c24 18.667 40 41 48 67c5.33301 17.333 8 50 8 98v40zM306.997 853l99 215h225l-197 -215h-127z" />
    <glyph glyph-name="acircumflex" unicode="&#xe2;" 
d="M256 528l-183.002 32.999c20.667 74 56 128.667 106 164s124.333 53 223 53c90 0 157 -10.667 201 -32s74.833 -48.333 92.5 -81s26.5 -92.667 26.5 -180l-2 -235c0 -66.667 3.33301 -116 10 -148s18.667 -66 36 -102h-199c-5.33301 13.333 -11.666 33 -18.999 59
c-3.33301 12 -5.66602 20 -6.99902 24c-34.667 -33.333 -71.5 -58.333 -110.5 -75s-80.833 -25 -125.5 -25c-78 0 -139.667 21.167 -185 63.5s-68 96.166 -68 161.499c0 42.667 10.333 80.834 31 114.501s49.5 59.5 86.5 77.5s90.167 33.667 159.5 47
c94 17.333 159.333 33.666 196 48.999v20c0 38.667 -9.5 66.334 -28.5 83.001s-55.167 25 -108.5 25c-36 0 -64 -7.16699 -84 -21.5s-36 -39.166 -48 -74.499zM524.998 364.999c-26 -8.66699 -66.834 -18.999 -122.501 -30.999s-92.167 -23.667 -109.5 -35
c-26.667 -18.667 -40 -42.334 -40 -71.001c0 -28 10.5 -52.167 31.5 -72.5s47.833 -30.5 80.5 -30.5c36.667 0 71.334 11.667 104.001 35c24 18.667 40 41 48 67c5.33301 17.333 8 50 8 98v40zM166.997 856l151 212h186l148 -212h-162l-83 107l-77 -107h-163z" />
    <glyph glyph-name="atilde" unicode="&#xe3;" 
d="M256 528l-183.002 32.999c20.667 74 56 128.667 106 164s124.333 53 223 53c90 0 157 -10.667 201 -32s74.833 -48.333 92.5 -81s26.5 -92.667 26.5 -180l-2 -235c0 -66.667 3.33301 -116 10 -148s18.667 -66 36 -102h-199c-5.33301 13.333 -11.666 33 -18.999 59
c-3.33301 12 -5.66602 20 -6.99902 24c-34.667 -33.333 -71.5 -58.333 -110.5 -75s-80.833 -25 -125.5 -25c-78 0 -139.667 21.167 -185 63.5s-68 96.166 -68 161.499c0 42.667 10.333 80.834 31 114.501s49.5 59.5 86.5 77.5s90.167 33.667 159.5 47
c94 17.333 159.333 33.666 196 48.999v20c0 38.667 -9.5 66.334 -28.5 83.001s-55.167 25 -108.5 25c-36 0 -64 -7.16699 -84 -21.5s-36 -39.166 -48 -74.499zM524.998 364.999c-26 -8.66699 -66.834 -18.999 -122.501 -30.999s-92.167 -23.667 -109.5 -35
c-26.667 -18.667 -40 -42.334 -40 -71.001c0 -28 10.5 -52.167 31.5 -72.5s47.833 -30.5 80.5 -30.5c36.667 0 71.334 11.667 104.001 35c24 18.667 40 41 48 67c5.33301 17.333 8 50 8 98v40zM253.997 863l-91.9971 -0.000976562v26c0 50 12.167 88.5 36.5 115.5
s55.5 40.5 93.5 40.5c16.667 0 32.167 -1.83301 46.5 -5.5s40.5 -14 78.5 -31s67.667 -25.5 89 -25.5c15.333 0 28.166 4.83301 38.499 14.5s16.833 25.5 19.5 47.5h93c-0.666992 -64 -12.667 -109.833 -36 -137.5s-53.666 -41.5 -90.999 -41.5
c-16.667 0 -32.667 1.66699 -48 5c-11.333 2.66699 -38.833 12.334 -82.5 29.001s-75.834 25 -96.501 25c-14.667 0 -26.334 -4.66699 -35.001 -14s-13.334 -25.333 -14.001 -48z" />
    <glyph glyph-name="adieresis" unicode="&#xe4;" 
d="M256 528l-183.002 32.999c20.667 74 56 128.667 106 164s124.333 53 223 53c90 0 157 -10.667 201 -32s74.833 -48.333 92.5 -81s26.5 -92.667 26.5 -180l-2 -235c0 -66.667 3.33301 -116 10 -148s18.667 -66 36 -102h-199c-5.33301 13.333 -11.666 33 -18.999 59
c-3.33301 12 -5.66602 20 -6.99902 24c-34.667 -33.333 -71.5 -58.333 -110.5 -75s-80.833 -25 -125.5 -25c-78 0 -139.667 21.167 -185 63.5s-68 96.166 -68 161.499c0 42.667 10.333 80.834 31 114.501s49.5 59.5 86.5 77.5s90.167 33.667 159.5 47
c94 17.333 159.333 33.666 196 48.999v20c0 38.667 -9.5 66.334 -28.5 83.001s-55.167 25 -108.5 25c-36 0 -64 -7.16699 -84 -21.5s-36 -39.166 -48 -74.499zM524.998 364.999c-26 -8.66699 -66.834 -18.999 -122.501 -30.999s-92.167 -23.667 -109.5 -35
c-26.667 -18.667 -40 -42.334 -40 -71.001c0 -28 10.5 -52.167 31.5 -72.5s47.833 -30.5 80.5 -30.5c36.667 0 71.334 11.667 104.001 35c24 18.667 40 41 48 67c5.33301 17.333 8 50 8 98v40zM168.997 895v173h172v-173h-172zM475.997 895v173h174v-173h-174z" />
    <glyph glyph-name="aring" unicode="&#xe5;" 
d="M256 528l-183.002 32.999c20.667 74 56 128.667 106 164s124.333 53 223 53c90 0 157 -10.667 201 -32s74.833 -48.333 92.5 -81s26.5 -92.667 26.5 -180l-2 -235c0 -66.667 3.33301 -116 10 -148s18.667 -66 36 -102h-199c-5.33301 13.333 -11.666 33 -18.999 59
c-3.33301 12 -5.66602 20 -6.99902 24c-34.667 -33.333 -71.5 -58.333 -110.5 -75s-80.833 -25 -125.5 -25c-78 0 -139.667 21.167 -185 63.5s-68 96.166 -68 161.499c0 42.667 10.333 80.834 31 114.501s49.5 59.5 86.5 77.5s90.167 33.667 159.5 47
c94 17.333 159.333 33.666 196 48.999v20c0 38.667 -9.5 66.334 -28.5 83.001s-55.167 25 -108.5 25c-36 0 -64 -7.16699 -84 -21.5s-36 -39.166 -48 -74.499zM524.998 364.999c-26 -8.66699 -66.834 -18.999 -122.501 -30.999s-92.167 -23.667 -109.5 -35
c-26.667 -18.667 -40 -42.334 -40 -71.001c0 -28 10.5 -52.167 31.5 -72.5s47.833 -30.5 80.5 -30.5c36.667 0 71.334 11.667 104.001 35c24 18.667 40 41 48 67c5.33301 17.333 8 50 8 98v40zM548.997 961c0 -38.667 -13.667 -71.667 -41 -99s-60.333 -41 -99 -41
s-71.667 13.667 -99 41s-41 60.333 -41 99s13.667 71.667 41 99s60.333 41 99 41s71.667 -13.5 99 -40.5s41 -60.167 41 -99.5zM472.997 961c0 17.333 -6.16699 32.333 -18.5 45s-27.5 19 -45.5 19c-17.333 0 -32.333 -6.33301 -45 -19s-19 -27.667 -19 -45
c0 -18 6.33301 -33.167 19 -45.5s27.667 -18.5 45 -18.5c18 0 33.167 6.16699 45.5 18.5s18.5 27.5 18.5 45.5z" />
    <glyph glyph-name="ae" unicode="&#xe6;" horiz-adv-x="1304" 
d="M1028 243l196.998 -34.999c-27.333 -75.333 -68.666 -131.666 -123.999 -168.999s-126 -56 -212 -56c-53.333 0 -102.666 8.66699 -147.999 26s-86.333 43.333 -123 78c-34 -28.667 -77.833 -53.167 -131.5 -73.5s-108.834 -30.5 -165.501 -30.5
c-81.333 0 -144.666 21.167 -189.999 63.5s-68 95.5 -68 159.5c0 38.667 8 73 24 103s35.333 53.5 58 70.5s54.334 31.833 95.001 44.5c19.333 6 76 19 170 39c47.333 10 87.666 20.333 120.999 31v20c0 36.667 -10 64.167 -30 82.5s-51.667 27.5 -95 27.5
c-38 0 -68.333 -7.83301 -91 -23.5s-38.667 -39.834 -48 -72.501l-183 35c24 74 61.667 128.333 113 163s129.666 52 234.999 52c49.333 0 93.5 -6 132.5 -18s72.167 -29.667 99.5 -53c29.333 23.333 61.333 41 96 53s71.667 18 111 18
c76.667 0 141.334 -16.167 194.001 -48.5s94 -79.833 124 -142.5s45 -151.334 45 -266.001h-505c8 -65.333 26.167 -112.5 54.5 -141.5s62.833 -43.5 103.5 -43.5c34 0 63 8.66699 87 26s42 44.333 54 81zM1036 447.001c-2.66699 42 -8.33203 72.334 -16.999 91.001
c-12 26.667 -30 47.667 -54 63s-52.333 23 -85 23c-28 0 -52.667 -6.66699 -74 -20s-38.333 -33 -51 -59c-16.667 -34.667 -24.334 -67.334 -23.001 -98.001h304zM530 364.002c-110.667 -29.333 -170.666 -45.666 -179.999 -48.999c-32 -10.667 -54.333 -23.334 -67 -38.001
s-19 -32 -19 -52c0 -28 10.333 -51.667 31 -71s48 -29 82 -29c35.333 0 68.333 11 99 33c23.333 16.667 38.166 37.5 44.499 62.5s9.5 72.833 9.5 143.5z" />
    <glyph glyph-name="ccedilla" unicode="&#xe7;" 
d="M768 536l-197.998 -36.002c-6.66699 39.333 -21.834 69 -45.501 89s-54.5 30 -92.5 30c-50 0 -89.833 -17.167 -119.5 -51.5s-44.5 -92.166 -44.5 -173.499c0 -90.667 15.167 -154.5 45.5 -191.5s70.833 -55.5 121.5 -55.5c38.667 0 70.167 10.833 94.5 32.5
s41.5 58.834 51.5 111.501l197 -33c-20 -90.667 -59.167 -159.167 -117.5 -205.5s-136.5 -69.5 -234.5 -69.5c-111.333 0 -200 35 -266 105s-99 167 -99 291c0 126 33.167 224 99.5 294s156.166 105 269.499 105c92.667 0 166.167 -20 220.5 -60s93.5 -100.667 117.5 -182z
M226.002 -289.002l0.000976562 85c49.333 -5.33301 94.666 -8 135.999 -8c42 0 73.333 7.66699 94 23c16 11.333 24 26 24 44c0 16.667 -7.5 31 -22.5 43s-37.833 18 -68.5 18s-62 -5 -94 -15l19 71c36.667 12.667 76.667 19 120 19c59.333 0 104.5 -13 135.5 -39
s46.5 -58 46.5 -96c0 -42 -17 -76 -51 -102c-46.667 -36 -113 -54 -199 -54c-62 0 -108.667 3.66699 -140 11z" />
    <glyph glyph-name="egrave" unicode="&#xe8;" 
d="M546 242l200 -34.001c-26 -73.333 -66.667 -129.166 -122 -167.499s-125 -57.5 -209 -57.5c-132 0 -229.667 43 -293 129c-50 69.333 -75 156.666 -75 261.999c0 126 32.833 224.833 98.5 296.5s148.834 107.5 249.501 107.5c113.333 0 202.333 -37.5 267 -112.5
s97 -189.5 97 -343.5h-506c1.33301 -59.333 17.5 -105.666 48.5 -138.999s69.5 -50 115.5 -50c32 0 58.667 8.66699 80 26s37.666 45 48.999 83zM557 444.999c-1.33301 58.667 -16.333 103.167 -45 133.5s-63.667 45.5 -105 45.5c-43.333 0 -79.333 -16 -108 -48
s-43 -75.667 -43 -131h301zM503 852.999h-126l-198 215h226z" />
    <glyph glyph-name="eacute" unicode="&#xe9;" 
d="M546 242l200 -34.001c-26 -73.333 -66.667 -129.166 -122 -167.499s-125 -57.5 -209 -57.5c-132 0 -229.667 43 -293 129c-50 69.333 -75 156.666 -75 261.999c0 126 32.833 224.833 98.5 296.5s148.834 107.5 249.501 107.5c113.333 0 202.333 -37.5 267 -112.5
s97 -189.5 97 -343.5h-506c1.33301 -59.333 17.5 -105.666 48.5 -138.999s69.5 -50 115.5 -50c32 0 58.667 8.66699 80 26s37.666 45 48.999 83zM557 444.999c-1.33301 58.667 -16.333 103.167 -45 133.5s-63.667 45.5 -105 45.5c-43.333 0 -79.333 -16 -108 -48
s-43 -75.667 -43 -131h301zM300 852.999l99 215h225l-197 -215h-127z" />
    <glyph glyph-name="ecircumflex" unicode="&#xea;" 
d="M546 242l200 -34.001c-26 -73.333 -66.667 -129.166 -122 -167.499s-125 -57.5 -209 -57.5c-132 0 -229.667 43 -293 129c-50 69.333 -75 156.666 -75 261.999c0 126 32.833 224.833 98.5 296.5s148.834 107.5 249.501 107.5c113.333 0 202.333 -37.5 267 -112.5
s97 -189.5 97 -343.5h-506c1.33301 -59.333 17.5 -105.666 48.5 -138.999s69.5 -50 115.5 -50c32 0 58.667 8.66699 80 26s37.666 45 48.999 83zM557 444.999c-1.33301 58.667 -16.333 103.167 -45 133.5s-63.667 45.5 -105 45.5c-43.333 0 -79.333 -16 -108 -48
s-43 -75.667 -43 -131h301zM160 855.999l151 212h186l148 -212h-162l-83 107l-77 -107h-163z" />
    <glyph glyph-name="edieresis" unicode="&#xeb;" 
d="M546 242l200 -34.001c-26 -73.333 -66.667 -129.166 -122 -167.499s-125 -57.5 -209 -57.5c-132 0 -229.667 43 -293 129c-50 69.333 -75 156.666 -75 261.999c0 126 32.833 224.833 98.5 296.5s148.834 107.5 249.501 107.5c113.333 0 202.333 -37.5 267 -112.5
s97 -189.5 97 -343.5h-506c1.33301 -59.333 17.5 -105.666 48.5 -138.999s69.5 -50 115.5 -50c32 0 58.667 8.66699 80 26s37.666 45 48.999 83zM557 444.999c-1.33301 58.667 -16.333 103.167 -45 133.5s-63.667 45.5 -105 45.5c-43.333 0 -79.333 -16 -108 -48
s-43 -75.667 -43 -131h301zM162 894.999v173h172v-173h-172zM469 894.999v173h174v-173h-174z" />
    <glyph glyph-name="igrave" unicode="&#xec;" horiz-adv-x="407" 
d="M105 0v760h201v-760h-201zM308 853h-126l-198 215h226z" />
    <glyph glyph-name="iacute" unicode="&#xed;" horiz-adv-x="407" 
d="M105 0v760h201v-760h-201zM91 853l99 215h225l-197 -215h-127z" />
    <glyph glyph-name="icircumflex" unicode="&#xee;" horiz-adv-x="407" 
d="M105 0v760h201v-760h-201zM-36 856l151 212h186l148 -212h-162l-83 107l-77 -107h-163z" />
    <glyph glyph-name="idieresis" unicode="&#xef;" horiz-adv-x="407" 
d="M105 0v760h201v-760h-201zM-33 895v173h172v-173h-172zM274 895v173h174v-173h-174z" />
    <glyph glyph-name="eth" unicode="&#xf0;" horiz-adv-x="896" 
d="M238 1050l209.999 0.000976562l78 -64l129 64l32 -71l-103 -47c92 -92.667 157.833 -185.334 197.5 -278.001s59.5 -180.334 59.5 -263.001c0 -123.333 -36.667 -222.333 -110 -297s-168.333 -112 -285 -112c-112 0 -204.5 37.167 -277.5 111.5
s-109.5 170.5 -109.5 288.5c0 116 38.667 211 116 285c64.667 62 137.334 93 218.001 93c26 0 52 -3.66699 78 -11c19.333 -6 46.333 -18.667 81 -38c-18.667 33.333 -34.167 59.333 -46.5 78s-31.5 44.334 -57.5 77.001l-179 -85l-31 69l156 74c-48 44 -100 86 -156 126z
M268.999 379.001c0 -75.333 17.333 -133 52 -173s77 -60 127 -60c51.333 0 94.833 20 130.5 60s53.5 95.333 53.5 166c0 71.333 -18.333 127.5 -55 168.5s-80 61.5 -130 61.5c-49.333 0 -91.333 -19.5 -126 -58.5s-52 -93.833 -52 -164.5z" />
    <glyph glyph-name="ntilde" unicode="&#xf1;" horiz-adv-x="896" 
d="M797 0l-201.001 -0.000976562v388c0 82 -4.33301 135.167 -13 159.5s-22.667 43.166 -42 56.499s-42.666 20 -69.999 20c-34.667 0 -65.834 -9.66699 -93.501 -29s-46.667 -44.666 -57 -75.999s-15.5 -89.666 -15.5 -174.999v-344h-201v760h187v-111
c66 86 149.333 129 250 129c44.667 0 85.334 -8 122.001 -24s64.5 -36.5 83.5 -61.5s32.167 -53.167 39.5 -84.5s11 -76.333 11 -135v-473zM294.999 862.999l-91.9971 -0.000976562v26c0 50 12.167 88.5 36.5 115.5s55.5 40.5 93.5 40.5c16.667 0 32.167 -1.83301 46.5 -5.5
s40.5 -14 78.5 -31s67.667 -25.5 89 -25.5c15.333 0 28.166 4.83301 38.499 14.5s16.833 25.5 19.5 47.5h93c-0.666992 -64 -12.667 -109.833 -36 -137.5s-53.666 -41.5 -90.999 -41.5c-16.667 0 -32.667 1.66699 -48 5c-11.333 2.66699 -38.833 12.334 -82.5 29.001
s-75.834 25 -96.501 25c-14.667 0 -26.334 -4.66699 -35.001 -14s-13.334 -25.333 -14.001 -48z" />
    <glyph glyph-name="ograve" unicode="&#xf2;" horiz-adv-x="896" 
d="M59 391c0 66.667 16.501 131.334 49.501 194.001s79.667 110.5 140 143.5s127.5 49.5 201.5 49.5c115.333 0 209.666 -37.5 282.999 -112.5s110 -169.5 110 -283.5c0 -114.667 -37 -209.834 -111 -285.501s-167.333 -113.5 -280 -113.5c-70 0 -136.5 15.667 -199.5 47
s-111 77.5 -144 138.5s-49.5 135.167 -49.5 222.5zM265.001 380c0 -75.333 17.833 -133.001 53.5 -173.001s79.834 -60 132.501 -60s96.834 20 132.501 60s53.5 98.333 53.5 175c0 74 -17.833 131.167 -53.5 171.5s-79.834 60.5 -132.501 60.5
s-96.834 -20.167 -132.501 -60.5s-53.5 -98.166 -53.5 -173.499zM552.001 852.999h-126l-198 215h226z" />
    <glyph glyph-name="oacute" unicode="&#xf3;" horiz-adv-x="896" 
d="M59 391c0 66.667 16.501 131.334 49.501 194.001s79.667 110.5 140 143.5s127.5 49.5 201.5 49.5c115.333 0 209.666 -37.5 282.999 -112.5s110 -169.5 110 -283.5c0 -114.667 -37 -209.834 -111 -285.501s-167.333 -113.5 -280 -113.5c-70 0 -136.5 15.667 -199.5 47
s-111 77.5 -144 138.5s-49.5 135.167 -49.5 222.5zM265.001 380c0 -75.333 17.833 -133.001 53.5 -173.001s79.834 -60 132.501 -60s96.834 20 132.501 60s53.5 98.333 53.5 175c0 74 -17.833 131.167 -53.5 171.5s-79.834 60.5 -132.501 60.5
s-96.834 -20.167 -132.501 -60.5s-53.5 -98.166 -53.5 -173.499zM350.001 852.999l99 215h225l-197 -215h-127z" />
    <glyph glyph-name="ocircumflex" unicode="&#xf4;" horiz-adv-x="896" 
d="M59 391c0 66.667 16.501 131.334 49.501 194.001s79.667 110.5 140 143.5s127.5 49.5 201.5 49.5c115.333 0 209.666 -37.5 282.999 -112.5s110 -169.5 110 -283.5c0 -114.667 -37 -209.834 -111 -285.501s-167.333 -113.5 -280 -113.5c-70 0 -136.5 15.667 -199.5 47
s-111 77.5 -144 138.5s-49.5 135.167 -49.5 222.5zM265.001 380c0 -75.333 17.833 -133.001 53.5 -173.001s79.834 -60 132.501 -60s96.834 20 132.501 60s53.5 98.333 53.5 175c0 74 -17.833 131.167 -53.5 171.5s-79.834 60.5 -132.501 60.5
s-96.834 -20.167 -132.501 -60.5s-53.5 -98.166 -53.5 -173.499zM208.001 855.999l151 212h186l148 -212h-162l-83 107l-77 -107h-163z" />
    <glyph glyph-name="otilde" unicode="&#xf5;" horiz-adv-x="896" 
d="M59 391c0 66.667 16.501 131.334 49.501 194.001s79.667 110.5 140 143.5s127.5 49.5 201.5 49.5c115.333 0 209.666 -37.5 282.999 -112.5s110 -169.5 110 -283.5c0 -114.667 -37 -209.834 -111 -285.501s-167.333 -113.5 -280 -113.5c-70 0 -136.5 15.667 -199.5 47
s-111 77.5 -144 138.5s-49.5 135.167 -49.5 222.5zM265.001 380c0 -75.333 17.833 -133.001 53.5 -173.001s79.834 -60 132.501 -60s96.834 20 132.501 60s53.5 98.333 53.5 175c0 74 -17.833 131.167 -53.5 171.5s-79.834 60.5 -132.501 60.5
s-96.834 -20.167 -132.501 -60.5s-53.5 -98.166 -53.5 -173.499zM296.001 862.999l-91.9971 -0.000976562v26c0 50 12.167 88.5 36.5 115.5s55.5 40.5 93.5 40.5c16.667 0 32.167 -1.83301 46.5 -5.5s40.5 -14 78.5 -31s67.667 -25.5 89 -25.5
c15.333 0 28.166 4.83301 38.499 14.5s16.833 25.5 19.5 47.5h93c-0.666992 -64 -12.667 -109.833 -36 -137.5s-53.666 -41.5 -90.999 -41.5c-16.667 0 -32.667 1.66699 -48 5c-11.333 2.66699 -38.833 12.334 -82.5 29.001s-75.834 25 -96.501 25
c-14.667 0 -26.334 -4.66699 -35.001 -14s-13.334 -25.333 -14.001 -48z" />
    <glyph glyph-name="odieresis" unicode="&#xf6;" horiz-adv-x="896" 
d="M59 391c0 66.667 16.501 131.334 49.501 194.001s79.667 110.5 140 143.5s127.5 49.5 201.5 49.5c115.333 0 209.666 -37.5 282.999 -112.5s110 -169.5 110 -283.5c0 -114.667 -37 -209.834 -111 -285.501s-167.333 -113.5 -280 -113.5c-70 0 -136.5 15.667 -199.5 47
s-111 77.5 -144 138.5s-49.5 135.167 -49.5 222.5zM265.001 380c0 -75.333 17.833 -133.001 53.5 -173.001s79.834 -60 132.501 -60s96.834 20 132.501 60s53.5 98.333 53.5 175c0 74 -17.833 131.167 -53.5 171.5s-79.834 60.5 -132.501 60.5
s-96.834 -20.167 -132.501 -60.5s-53.5 -98.166 -53.5 -173.499zM203.001 894.999v173h172v-173h-172zM510.001 894.999v173h174v-173h-174z" />
    <glyph glyph-name="divide" unicode="&#xf7;" horiz-adv-x="805" 
d="M301 702v202h202v-202h-202zM35 424v188h734v-188h-734zM301 132v202h202v-202h-202z" />
    <glyph glyph-name="oslash" unicode="&#xf8;" horiz-adv-x="896" 
d="M677 715l75.001 85.999l80 -66l-77 -88c28.667 -34 51.167 -74.333 67.5 -121s24.5 -95.667 24.5 -147c0 -113.333 -37.5 -207.666 -112.5 -282.999s-168.833 -113 -281.5 -113c-82.667 0 -156 20 -220 60l-83 -95l-78 68l83 96
c-28.667 34.667 -51.334 76.167 -68.001 124.5s-25 97.5 -25 147.5c0 114.667 36.667 209 110 283s167.333 111 282 111c84.667 0 159 -21 223 -63zM564.001 584.999c-32 26 -68.333 39.001 -109 39.001c-54 0 -99.667 -20.833 -137 -62.5s-56 -99.834 -56 -174.501
c0 -47.333 6.66699 -90 20 -128zM626.001 498l-281 -324.999c31.333 -22.667 67.333 -34 108 -34c55.333 0 101.5 20.667 138.5 62s55.5 99 55.5 173c0 45.333 -7 86.666 -21 123.999z" />
    <glyph glyph-name="ugrave" unicode="&#xf9;" horiz-adv-x="896" 
d="M606 0v114c-28 -40.667 -64.5 -72.667 -109.5 -96s-92.5 -35 -142.5 -35c-51.333 0 -97.333 11.167 -138 33.5s-70 53.833 -88 94.5s-27 96.667 -27 168v481h201v-349c0 -106.667 3.66699 -172.167 11 -196.5s20.833 -43.5 40.5 -57.5s44.5 -21 74.5 -21
c34.667 0 65.5 9.5 92.5 28.5s45.5 42.333 55.5 70s15 96.167 15 205.5v320h202v-760h-187zM548 853h-126l-198 215h226z" />
    <glyph glyph-name="uacute" unicode="&#xfa;" horiz-adv-x="896" 
d="M606 0v114c-28 -40.667 -64.5 -72.667 -109.5 -96s-92.5 -35 -142.5 -35c-51.333 0 -97.333 11.167 -138 33.5s-70 53.833 -88 94.5s-27 96.667 -27 168v481h201v-349c0 -106.667 3.66699 -172.167 11 -196.5s20.833 -43.5 40.5 -57.5s44.5 -21 74.5 -21
c34.667 0 65.5 9.5 92.5 28.5s45.5 42.333 55.5 70s15 96.167 15 205.5v320h202v-760h-187zM345 853l99 215h225l-197 -215h-127z" />
    <glyph glyph-name="ucircumflex" unicode="&#xfb;" horiz-adv-x="896" 
d="M606 0v114c-28 -40.667 -64.5 -72.667 -109.5 -96s-92.5 -35 -142.5 -35c-51.333 0 -97.333 11.167 -138 33.5s-70 53.833 -88 94.5s-27 96.667 -27 168v481h201v-349c0 -106.667 3.66699 -172.167 11 -196.5s20.833 -43.5 40.5 -57.5s44.5 -21 74.5 -21
c34.667 0 65.5 9.5 92.5 28.5s45.5 42.333 55.5 70s15 96.167 15 205.5v320h202v-760h-187zM205 856l151 212h186l148 -212h-162l-83 107l-77 -107h-163z" />
    <glyph glyph-name="udieresis" unicode="&#xfc;" horiz-adv-x="896" 
d="M606 0v114c-28 -40.667 -64.5 -72.667 -109.5 -96s-92.5 -35 -142.5 -35c-51.333 0 -97.333 11.167 -138 33.5s-70 53.833 -88 94.5s-27 96.667 -27 168v481h201v-349c0 -106.667 3.66699 -172.167 11 -196.5s20.833 -43.5 40.5 -57.5s44.5 -21 74.5 -21
c34.667 0 65.5 9.5 92.5 28.5s45.5 42.333 55.5 70s15 96.167 15 205.5v320h202v-760h-187zM207 895v173h172v-173h-172zM514 895v173h174v-173h-174z" />
    <glyph glyph-name="yacute" unicode="&#xfd;" 
d="M10 760l214.002 -0.000976562l182 -539l178 539h208l-269 -731l-48 -133c-17.333 -44 -34 -77.833 -50 -101.5s-34.333 -42.667 -55 -57s-46.167 -25.666 -76.5 -33.999s-64.833 -12.5 -103.5 -12.5s-76.334 4.33301 -113.001 13l-18 157c31.333 -6 59.666 -9 84.999 -9
c46.667 0 81.167 13.667 103.5 41s39.5 62.333 51.5 105zM299.002 852.999l99 215h225l-197 -215h-127z" />
    <glyph glyph-name="thorn" unicode="&#xfe;" horiz-adv-x="896" 
d="M100 1050l201 -0.000976562v-378c39.333 39.333 75.666 66.833 108.999 82.5s71.333 23.5 114 23.5c88.667 0 163.667 -34.667 225 -104s92 -166 92 -290c0 -126.667 -31 -225.167 -93 -295.5s-137 -105.5 -225 -105.5c-42 0 -80.167 8.33301 -114.5 25
s-70.166 45.334 -107.499 86.001v-383h-201v1339zM299 396.999c0 -78.667 12.668 -137.001 38.001 -175.001c34.667 -53.333 80.667 -80 138 -80c44.667 0 82.667 19 114 57s47 97.667 47 179c0 86.667 -15.833 149.334 -47.5 188.001s-71.834 58 -120.501 58
s-89 -18.833 -121 -56.5s-48 -94.5 -48 -170.5z" />
    <glyph glyph-name="ydieresis" unicode="&#xff;" 
d="M10 760l214.002 -0.000976562l182 -539l178 539h208l-269 -731l-48 -133c-17.333 -44 -34 -77.833 -50 -101.5s-34.333 -42.667 -55 -57s-46.167 -25.666 -76.5 -33.999s-64.833 -12.5 -103.5 -12.5s-76.334 4.33301 -113.001 13l-18 157c31.333 -6 59.666 -9 84.999 -9
c46.667 0 81.167 13.667 103.5 41s39.5 62.333 51.5 105zM165.002 894.999v173h172v-173h-172zM472.002 894.999v173h174v-173h-174z" />
    <glyph glyph-name="dotlessi" unicode="&#x131;" horiz-adv-x="407" 
d="M105 0v760h201v-760h-201z" />
    <glyph glyph-name="OE" unicode="&#x152;" horiz-adv-x="1466" 
d="M1421 178v-178.001h-675v124c-54.667 -94.667 -146.334 -142 -275.001 -142c-124.667 0 -221.667 40.667 -291 122c-85.333 99.333 -128 240 -128 422c0 180.667 41.667 319.334 125 416.001c71.333 84 166 126 284 126c60 0 114.833 -12.167 164.5 -36.5
s89.834 -56.833 120.501 -97.5v116h655v-178h-471v-233h431v-178h-431v-283h491zM502 885.999c-70.667 0 -127 -26 -169 -78s-63 -140.667 -63 -266c0 -142 23.667 -243.333 71 -304c36 -46.667 89.667 -70 161 -70c86.667 0 147 32.833 181 98.5s51 156.167 51 271.5
c0 128 -20.833 218 -62.5 270s-98.167 78 -169.5 78z" />
    <glyph glyph-name="oe" unicode="&#x153;" horiz-adv-x="1384" 
d="M1118 244l197.005 -31.0039c-24 -72 -64.667 -128.333 -122 -169s-127.333 -61 -210 -61c-48 0 -95.667 8.5 -143 25.5s-89 43.833 -125 80.5c-37.333 -35.333 -78.166 -61.833 -122.499 -79.5s-92.5 -26.5 -144.5 -26.5c-111.333 0 -203.333 37 -276 111
s-109 169 -109 285c0 70.667 15.667 138.334 47 203.001s77.333 113.5 138 146.5s128.667 49.5 204 49.5c52.667 0 101.167 -8.83301 145.5 -26.5s84.166 -44.167 119.499 -79.5c33.333 35.333 71.166 61.833 113.499 79.5s89.166 26.5 140.499 26.5
c48 0 92.5 -8.16699 133.5 -24.5s74.667 -36.833 101 -61.5s48.666 -55.167 66.999 -91.5s31.5 -77.666 39.5 -123.999s12 -98.166 12 -155.499h-501c5.33301 -62 22.5 -108.333 51.5 -139s65.5 -46 109.5 -46c31.333 0 58.166 8.33301 80.499 25
s40.166 44.334 53.499 83.001zM1131 446.996c-4 62 -20.333 107.834 -49 137.501s-64.667 44.5 -108 44.5c-46.667 0 -84 -19 -112 -57c-19.333 -26.667 -31.333 -68.334 -36 -125.001h305zM270.005 368.997c0 -51.333 15.1689 -100.666 45.502 -147.999
s75.166 -71 134.499 -71c49.333 0 90.833 19.667 124.5 59s50.5 98.666 50.5 177.999c0 72 -16.833 127.333 -50.5 166s-75.167 58 -124.5 58c-52.667 0 -95.834 -19.833 -129.501 -59.5s-50.5 -100.5 -50.5 -182.5z" />
    <glyph glyph-name="Scaron" unicode="&#x160;" horiz-adv-x="978" 
d="M53 342l206 19.999c12.667 -69.333 38 -120.333 76 -153s89 -49 153 -49c68.667 0 120.334 14.5 155.001 43.5s52 62.833 52 101.5c0 24.667 -7.33301 45.834 -22 63.501s-40.334 32.834 -77.001 45.501c-24.667 8.66699 -81 24 -169 46
c-114 28 -193.667 62.333 -239 103c-64.667 58 -97 128.667 -97 212c0 53.333 15.167 103.333 45.5 150s74 82.167 131 106.5s125.833 36.5 206.5 36.5c132 0 231.167 -29 297.5 -87s101.166 -135 104.499 -231l-212 -10c-8.66699 54 -28 92.833 -58 116.5
s-74.667 35.5 -134 35.5c-62 0 -110.333 -12.667 -145 -38c-22 -16 -33 -37.667 -33 -65c0 -24.667 10.333 -46 31 -64c26.667 -22 91.5 -45.167 194.5 -69.5s179.333 -49.5 229 -75.5s88.334 -61.667 116.001 -107s41.5 -101 41.5 -167c0 -60 -16.667 -116.333 -50 -169
s-80.5 -91.834 -141.5 -117.501s-137.167 -38.5 -228.5 -38.5c-132.667 0 -234.5 30.667 -305.5 92s-113.5 151 -127.5 269zM239 1326h163l77 -107l83 107h162l-148 -212h-186z" />
    <glyph glyph-name="scaron" unicode="&#x161;" 
d="M34 217l202.001 30.998c8.66699 -39.333 26.167 -69.166 52.5 -89.499s63.166 -30.5 110.499 -30.5c52 0 91 9.66699 117 29c18 13.333 27 31.333 27 54c0 14.667 -5 27 -15 37s-32.333 19 -67 27c-162 36 -264.667 68.667 -308 98c-60.667 41.333 -91 98.333 -91 171
c0 66 26 121.5 78 166.5s132.667 67.5 242 67.5c104 0 181.333 -17 232 -51s85.667 -84.333 105 -151l-190 -35c-8 30 -23.333 52.833 -46 68.5s-55 23.5 -97 23.5c-53.333 0 -91.333 -7.33301 -114 -22c-15.333 -10.667 -23 -24.334 -23 -41.001
c0 -14.667 6.66699 -27 20 -37c18 -13.333 80.667 -32.166 188 -56.499s182.333 -54.166 225 -89.499c42 -35.333 63 -85 63 -149c0 -70 -29.167 -130 -87.5 -180s-144.5 -75 -258.5 -75c-104 0 -186.167 21 -246.5 63s-99.833 99 -118.5 171zM147.001 1068h163l77 -107
l83 107h162l-148 -212h-186z" />
    <glyph glyph-name="Ydieresis" unicode="&#x178;" horiz-adv-x="978" 
d="M382 0v442l-384 608h248l247 -416l242 416h244l-385 -610v-440h-212zM251 1110v173h172v-173h-172zM558 1110v173h174v-173h-174z" />
    <glyph glyph-name="Zcaron" unicode="&#x17d;" horiz-adv-x="896" 
d="M16 0v191l551 681h-489v178h768v-165l-575 -708h598v-177h-853zM194 1326h163l77 -107l83 107h162l-148 -212h-186z" />
    <glyph glyph-name="zcaron" unicode="&#x17e;" horiz-adv-x="733" 
d="M24 0l-0.000976562 157l285 327c46.667 53.333 81.334 91.333 104.001 114c-23.333 -1.33301 -54 -2.33301 -92 -3l-269 -1v166h629v-142l-291 -335l-102 -111c56 3.33301 90.667 5 104 5h311v-177h-679zM121.999 1068h163l77 -107l83 107h162l-148 -212h-186z" />
    <glyph glyph-name="florin" unicode="&#x192;" 
d="M198 609l25.002 151.001h145l11 64c14 73.333 25.667 120 35 140c15.333 32 36.333 56 63 72c35.333 21.333 85.333 32 150 32c64 0 127.667 -10 191 -30l-39 -162c-44.667 13.333 -82.334 20 -113.001 20c-26 0 -45.167 -5.66699 -57.5 -17s-22.5 -37.666 -30.5 -78.999
l-8 -40h149l-27 -151h-146l-124 -700c-10 -56.667 -22.667 -98.834 -38 -126.501s-38.5 -49.834 -69.5 -66.501s-73.833 -25 -128.5 -25c-74.667 0 -141.334 9.66699 -200.001 29l40 158c52.667 -10.667 92.667 -16 120 -16c29.333 0 50 9 62 27c10 14 19 45.667 27 95
l107 625h-144z" />
    <glyph glyph-name="afii57929" unicode="&#x2bc;" horiz-adv-x="574" 
d="M214 1060l201 0.00195312v-144c0 -58 -5 -103.833 -15 -137.5s-28.833 -63.834 -56.5 -90.501s-63.167 -47.667 -106.5 -63l-39 83c40.667 13.333 69.5 31.666 86.5 54.999s26.167 55.333 27.5 96h-98v201z" />
    <glyph glyph-name="circumflex" unicode="&#x2c6;" horiz-adv-x="488" 
d="M2 856l151 212h186l148 -212h-162l-83 107l-77 -107h-163z" />
    <glyph glyph-name="caron" unicode="&#x2c7;" horiz-adv-x="488" 
d="M2 1068h163l77 -107l83 107h162l-148 -212h-186z" />
    <glyph glyph-name="ring" unicode="&#x2da;" horiz-adv-x="488" 
d="M384 961c0 -38.667 -13.667 -71.667 -41 -99s-60.333 -41 -99 -41s-71.667 13.667 -99 41s-41 60.333 -41 99s13.667 71.667 41 99s60.333 41 99 41s71.667 -13.5 99 -40.5s41 -60.167 41 -99.5zM308 961c0 17.333 -6.16699 32.333 -18.5 45s-27.5 19 -45.5 19
c-17.333 0 -32.333 -6.33301 -45 -19s-19 -27.667 -19 -45c0 -18 6.33301 -33.167 19 -45.5s27.667 -18.5 45 -18.5c18 0 33.167 6.16699 45.5 18.5s18.5 27.5 18.5 45.5z" />
    <glyph glyph-name="tilde" unicode="&#x2dc;" horiz-adv-x="488" 
d="M83 863l-91.9971 -0.000976562v26c0 50 12.167 88.5 36.5 115.5s55.5 40.5 93.5 40.5c16.667 0 32.167 -1.83301 46.5 -5.5s40.5 -14 78.5 -31s67.667 -25.5 89 -25.5c15.333 0 28.166 4.83301 38.499 14.5s16.833 25.5 19.5 47.5h93
c-0.666992 -64 -12.667 -109.833 -36 -137.5s-53.666 -41.5 -90.999 -41.5c-16.667 0 -32.667 1.66699 -48 5c-11.333 2.66699 -38.833 12.334 -82.5 29.001s-75.834 25 -96.501 25c-14.667 0 -26.334 -4.66699 -35.001 -14s-13.334 -25.333 -14.001 -48z" />
    <glyph glyph-name="u0901" unicode="&#x901;" horiz-adv-x="0" 
d="M124 1404c-16 -90 -56.168 -164.167 -120.501 -222.5s-138.833 -87.5 -223.5 -87.5c-85.333 0 -160.333 29.333 -225 88s-105 132.667 -121 222h164c8 -46.667 29 -85.667 63 -117s73.667 -47 119 -47c40.667 0 75.834 15.833 105.501 47.5s48.5 70.5 56.5 116.5h182z
M-220.001 1342c-24 0 -44.333 8.5 -61 25.5s-25 37.833 -25 62.5c0 24 8.33301 44.333 25 61s37 25 61 25c24.667 0 45.5 -8.33301 62.5 -25s25.5 -37 25.5 -61s-8.66699 -44.667 -26 -62s-38 -26 -62 -26z" />
    <glyph glyph-name="u0902" unicode="&#x902;" horiz-adv-x="0" 
d="M-220 1232c-24 0 -44.333 8.5 -61 25.5s-25 37.833 -25 62.5c0 24 8.33301 44.333 25 61s37 25 61 25c24.667 0 45.5 -8.33301 62.5 -25s25.5 -37 25.5 -61s-8.66699 -44.667 -26 -62s-38 -26 -62 -26z" />
    <glyph glyph-name="u0903" unicode="&#x903;" horiz-adv-x="462" 
d="M231 132c-26.667 0 -49 9.5 -67 28.5s-27 41.833 -27 68.5s9 49.167 27 67.5s40.333 27.5 67 27.5s49.334 -9.16699 68.001 -27.5s28.334 -40.833 29.001 -67.5c-0.666992 -26.667 -10.334 -49.5 -29.001 -68.5s-41.334 -28.5 -68.001 -28.5zM231 658
c-26.667 0 -49.002 9.33203 -67.002 27.999s-27 41.334 -27 68.001s9 49.167 27 67.5s40.333 27.5 67 27.5s49.334 -9.16699 68.001 -27.5s28.334 -40.833 29.001 -67.5c0 -26 -9.5 -48.5 -28.5 -67.5s-41.833 -28.5 -68.5 -28.5z" />
    <glyph glyph-name="u0904" unicode="&#x904;" horiz-adv-x="1190" 
d="M1046 854l0.00195312 -854.002h-160v428c-28.667 -18.667 -56 -28 -82 -28c-34 0 -70.667 17.333 -110 52c25.333 -32 38 -73.333 38 -124c0 -75.333 -25.167 -137.166 -75.5 -185.499s-113.166 -72.5 -188.499 -72.5c-90.667 0 -175.334 37.667 -254.001 113
s-139.334 171 -182.001 287l124 58c34.667 -94.667 78.667 -171.667 132 -231s109.333 -89 168 -89c38.667 0 70.334 12.833 95.001 38.5s37 58.834 37 99.501c0 44.667 -16.333 82.834 -49 114.501s-74.334 47.5 -125.001 47.5c-27.333 0 -54 -3.33301 -80 -10l-30 120
c66.667 9.33301 116.667 26.333 150 51s50 57 50 97c0 29.333 -9.83301 54.666 -29.5 75.999s-44.5 32 -74.5 32c-78 0 -152.667 -42.667 -224 -128l-80 104c88.667 105.333 194.667 158 318 158c74 0 134.833 -21.5 182.5 -64.5s71.5 -98.167 71.5 -165.5
c0 -75.333 -35.333 -132 -106 -170c89.333 -53.333 168.666 -80 237.999 -80c33.333 0 62 12 86 36v290h-160v146h534v-146h-214zM1048 999.998l-166.002 0.00195312c0 49.333 -16.667 91.666 -50 126.999s-74.666 53 -123.999 53c-85.333 0 -160.666 27.167 -225.999 81.5
s-105.333 123.833 -120 208.5h164c8 -46.667 29 -85.667 63 -117s73.667 -47 119 -47c91.333 0 170.833 -29.333 238.5 -88s101.5 -131.334 101.5 -218.001z" />
    <glyph glyph-name="u0905" unicode="&#x905;" horiz-adv-x="1190" 
d="M1046 854l0.00195312 -854.002h-160v428c-28.667 -18.667 -56 -28 -82 -28c-34 0 -70.667 17.333 -110 52c25.333 -32 38 -73.333 38 -124c0 -75.333 -25.167 -137.166 -75.5 -185.499s-113.166 -72.5 -188.499 -72.5c-90.667 0 -175.334 37.667 -254.001 113
s-139.334 171 -182.001 287l124 58c34.667 -94.667 78.667 -171.667 132 -231s109.333 -89 168 -89c38.667 0 70.334 12.833 95.001 38.5s37 58.834 37 99.501c0 44.667 -16.333 82.834 -49 114.501s-74.334 47.5 -125.001 47.5c-27.333 0 -54 -3.33301 -80 -10l-30 120
c66.667 9.33301 116.667 26.333 150 51s50 57 50 97c0 29.333 -9.83301 54.666 -29.5 75.999s-44.5 32 -74.5 32c-78 0 -152.667 -42.667 -224 -128l-80 104c88.667 105.333 194.667 158 318 158c74 0 134.833 -21.5 182.5 -64.5s71.5 -98.167 71.5 -165.5
c0 -75.333 -35.333 -132 -106 -170c89.333 -53.333 168.666 -80 237.999 -80c33.333 0 62 12 86 36v290h-160v146h534v-146h-214z" />
    <glyph glyph-name="u0906" unicode="&#x906;" horiz-adv-x="1644" 
d="M1046 854l0.00195312 -854.002h-160v428c-28.667 -18.667 -56 -28 -82 -28c-34 0 -70.667 17.333 -110 52c25.333 -32 38 -73.333 38 -124c0 -75.333 -25.167 -137.166 -75.5 -185.499s-113.166 -72.5 -188.499 -72.5c-90.667 0 -175.334 37.667 -254.001 113
s-139.334 171 -182.001 287l124 58c34.667 -94.667 78.667 -171.667 132 -231s109.333 -89 168 -89c38.667 0 70.334 12.833 95.001 38.5s37 58.834 37 99.501c0 44.667 -16.333 82.834 -49 114.501s-74.334 47.5 -125.001 47.5c-27.333 0 -54 -3.33301 -80 -10l-30 120
c66.667 9.33301 116.667 26.333 150 51s50 57 50 97c0 29.333 -9.83301 54.666 -29.5 75.999s-44.5 32 -74.5 32c-78 0 -152.667 -42.667 -224 -128l-80 104c88.667 105.333 194.667 158 318 158c74 0 134.833 -21.5 182.5 -64.5s71.5 -98.167 71.5 -165.5
c0 -75.333 -35.333 -132 -106 -170c89.333 -53.333 168.666 -80 237.999 -80c33.333 0 62 12 86 36v290h-160v146h988v-146h-212v-854h-160v854h-296zM1190 49.998z" />
    <glyph glyph-name="u0907" unicode="&#x907;" horiz-adv-x="800" 
d="M316 -26c-68.667 0 -127.831 15.8311 -177.498 47.498s-74.5 69.834 -74.5 114.501c0 31.333 11.333 57.5 34 78.5s50 31.5 82 31.5c44.667 0 108 -39.333 190 -118c60 0 110 17.167 150 51.5s60 74.5 60 120.5c0 40 -14.667 60 -44 60c-22 0 -55.333 -5.33301 -100 -16
s-78.667 -16 -102 -16c-41.333 0 -94 32.667 -158 98s-96 121.333 -96 168c0 50.667 14.333 88.667 43 114s71.667 38 129 38h228v108h-486v146h876v-146h-230v-236h-342c-33.333 0 -50 -12 -50 -36c0 -17.333 14 -40 42 -68s50.667 -42 68 -42
c19.333 0 50.666 6.66699 93.999 20c39.333 12 70.666 18 93.999 18c56 0 101.333 -19.667 136 -59s52 -87 52 -143c0 -69.333 -23 -132 -69 -188s-105 -91.333 -177 -106c48.667 -47.333 118.667 -94.666 210 -141.999l-82 -130c-126 72.667 -226 150 -300 232z" />
    <glyph glyph-name="u0908" unicode="&#x908;" horiz-adv-x="800" 
d="M316 -26c-68.667 0 -127.831 15.8311 -177.498 47.498s-74.5 69.834 -74.5 114.501c0 31.333 11.333 57.5 34 78.5s50 31.5 82 31.5c44.667 0 108 -39.333 190 -118c60 0 110 17.167 150 51.5s60 74.5 60 120.5c0 40 -14.667 60 -44 60c-22 0 -55.333 -5.33301 -100 -16
s-78.667 -16 -102 -16c-41.333 0 -94 32.667 -158 98s-96 121.333 -96 168c0 50.667 14.333 88.667 43 114s71.667 38 129 38h228v108h-486v146h876v-146h-230v-236h-342c-33.333 0 -50 -12 -50 -36c0 -17.333 14 -40 42 -68s50.667 -42 68 -42
c19.333 0 50.666 6.66699 93.999 20c39.333 12 70.666 18 93.999 18c56 0 101.333 -19.667 136 -59s52 -87 52 -143c0 -69.333 -23 -132 -69 -188s-105 -91.333 -177 -106c48.667 -47.333 118.667 -94.666 210 -141.999l-82 -130c-126 72.667 -226 150 -300 232z
M778.003 1384l-28 -121.998c-37.333 21.333 -72.666 32 -105.999 32c-32.667 0 -59.5 -10.667 -80.5 -32s-31.5 -48 -31.5 -80c0 -64.667 33.333 -125.334 100 -182.001h-146c-60 51.333 -90 114.666 -90 189.999c0 65.333 23.667 120 71 164s105.666 66 174.999 66
c56 0 101.333 -12 136 -36z" />
    <glyph glyph-name="u0909" unicode="&#x909;" horiz-adv-x="994" 
d="M904 310c0 -84.667 -27.998 -157.501 -83.998 -218.501s-124.667 -91.5 -206 -91.5c-128 0 -243.833 56.833 -347.5 170.5s-180.5 262.167 -230.5 445.5l142 56c42.667 -156 103.667 -281 183 -375s163.666 -141 252.999 -141c38.667 0 71 15.167 97 45.5
s39 66.5 39 108.5c0 46 -14.333 84.5 -43 115.5s-65.667 46.5 -111 46.5h-164l-54 128h200c37.333 0 67.666 12.167 90.999 36.5s35 54.833 35 91.5c0 46.667 -21.333 88.667 -64 126h-646v146h1070v-146h-248c34.667 -38 52 -80 52 -126s-9.33301 -84.333 -28 -115
s-46.667 -53.667 -84 -69c45.333 -16 81.333 -45.667 108 -89s40 -91.666 40 -144.999z" />
    <glyph glyph-name="u090A" unicode="&#x90a;" horiz-adv-x="1520" 
d="M904 292c-4.66699 -81.333 -34.4951 -150.336 -89.4951 -207.003s-121.833 -85 -200.5 -85c-128 0 -243.833 56.833 -347.5 170.5s-180.5 262.167 -230.5 445.5l142 56c42.667 -156 103.667 -281 183 -375s163.666 -141 252.999 -141c38.667 0 71 15.167 97 45.5
s39 66.5 39 108.5c0 46 -14.333 84.5 -43 115.5s-65.667 46.5 -111 46.5h-164l-54 128h200c37.333 0 67.666 12.167 90.999 36.5s35 54.833 35 91.5c0 46.667 -21.333 88.667 -64 126h-646v146h1596v-146h-774c34.667 -38 52 -80 52 -126s-9.33301 -84.333 -28 -115
s-46.667 -53.667 -84 -69c28 -9.33301 52.667 -24.666 74 -45.999c35.333 70.667 78.666 123.667 129.999 159s110.666 53 177.999 53c103.333 0 182.5 -29.167 237.5 -87.5s82.5 -139.166 82.5 -242.499c0 -117.333 -70 -228.666 -210 -333.999l-108 118
c104 76 156 148.667 156 218c0 57.333 -14.167 100.333 -42.5 129s-70.833 43 -127.5 43c-52 0 -97.833 -24.667 -137.5 -74s-67.834 -112 -84.501 -188zM994.005 45.9971z" />
    <glyph glyph-name="u090B" unicode="&#x90b;" horiz-adv-x="1368" 
d="M810 464l0.000976562 -464h-160v324l-478 -260l-70 136l444 230c-98 106.667 -176 160 -234 160c-57.333 0 -126 -31.333 -206 -94l-74 136c92.667 78.667 189.334 118 290.001 118c98 0 207.333 -74 328 -222v326h-656v146h1444v-146h-628v-254
c29.333 -13.333 62.666 -20 99.999 -20c27.333 0 53.333 4.66699 78 14c-14.667 21.333 -22 46 -22 74c0 30 12.167 54.5 36.5 73.5s53.5 28.5 87.5 28.5c36.667 0 66.167 -10.5 88.5 -31.5s33.5 -47.833 33.5 -80.5c0 -43.333 -14 -78 -42 -104
c28.667 -34 66 -86.667 112 -158c25.333 -53.333 38 -105.333 38 -156c0 -68 -22.333 -125 -67 -171s-102.334 -69 -173.001 -69c-60.667 0 -110.834 19 -150.501 57s-59.5 85.667 -59.5 143h150c0 -16 6 -30 18 -42s26 -18 42 -18c30 0 52.5 8.33301 67.5 25
s22.5 41.667 22.5 75c0 66.667 -38 144 -114 232c-44 -21.333 -90.667 -32 -140 -32c-43.333 0 -78.666 8 -105.999 24zM954.001 20z" />
    <glyph glyph-name="u090C" unicode="&#x90c;" horiz-adv-x="1148" 
d="M930 388c0 50.667 -11.332 91.0039 -33.999 121.004s-51.334 45 -86.001 45c-42 0 -84 -24.167 -126 -72.5s-72.667 -107.5 -92 -177.5l-124 64c10 48 28.667 91.333 56 130c-30.667 49.333 -75.334 74 -134.001 74c-51.333 0 -92.5 -15.333 -123.5 -46
s-46.5 -72.667 -46.5 -126c0 -62.667 26.167 -120 78.5 -172s119.5 -91.333 201.5 -118l-74 -120c-109.333 39.333 -197.333 95.666 -264 168.999s-100 153.666 -100 240.999c0 94 31.167 170.5 93.5 229.5s140.5 88.5 234.5 88.5s168 -38 222 -114
c44 48.667 97.333 79.334 160 92.001v158h-778v146h1224v-146h-296v-160c55.333 -24.667 96.833 -61.834 124.5 -111.501s41.5 -111.834 41.5 -186.501c0 -90.667 -23.833 -166.334 -71.5 -227.001s-110.5 -95.667 -188.5 -105c-44 -5.33301 -77 -18.333 -99 -39
s-33 -49 -33 -85c0 -33.333 14.333 -61.333 43 -84s61.667 -34 99 -34c41.333 0 85.333 14 132 42l50 -120c-64 -36 -124.667 -54 -182 -54c-86 0 -155.5 24.5 -208.5 73.5s-79.5 107.833 -79.5 176.5c0 64 20.333 118.833 61 164.5s94.334 72.167 161.001 79.5
c47.333 5.33301 85.5 26.5 114.5 63.5s43.5 83.833 43.5 140.5zM516.001 -245.996z" />
    <glyph glyph-name="u090D" unicode="&#x90d;" horiz-adv-x="778" 
d="M848 854l-149.999 -0.00292969v-262c0 -52 -14.667 -97 -44 -135s-68 -63 -116 -75l-104 100c69.333 12 104 59.333 104 142v230h-296v-354c0 -34.667 14.667 -66 44 -94l344 -326c50.667 -48 76 -96.667 76 -146c0 -41.333 -15.833 -77.666 -47.5 -108.999
s-71.834 -51.666 -120.501 -60.999l-88 92c61.333 11.333 92 34 92 68c0 28 -21.333 61.333 -64 100l-310 286c-57.333 52.667 -86 117.334 -86 194.001v350h-88v146h854v-146zM738.001 1420c-14.667 -84.667 -54.498 -154.167 -119.498 -208.5s-140.5 -81.5 -226.5 -81.5
c-85.333 0 -160.333 27.167 -225 81.5s-104.334 123.833 -119.001 208.5h164c8 -46 28.833 -84.167 62.5 -114.5s73.5 -45.5 119.5 -45.5c45.333 0 84.666 15 117.999 45s54 68.333 62 115h164z" />
    <glyph glyph-name="u090E" unicode="&#x90e;" horiz-adv-x="778" 
d="M848 854l-149.999 -0.00292969v-262c0 -52 -14.667 -97 -44 -135s-68 -63 -116 -75l-104 100c69.333 12 104 59.333 104 142v230h-296v-354c0 -34.667 14.667 -66 44 -94l344 -326c50.667 -48 76 -96.667 76 -146c0 -41.333 -15.833 -77.666 -47.5 -108.999
s-71.834 -51.666 -120.501 -60.999l-88 92c61.333 11.333 92 34 92 68c0 28 -21.333 61.333 -64 100l-310 286c-57.333 52.667 -86 117.334 -86 194.001v350h-88v146h854v-146zM703.001 999.997l-166.002 0.00195312c0 49.333 -16.667 91.666 -50 126.999
s-74.666 53 -123.999 53c-85.333 0 -160.666 27.167 -225.999 81.5s-105.333 123.833 -120 208.5h164c8 -46.667 29 -85.667 63 -117s73.667 -47 119 -47c91.333 0 170.833 -29.333 238.5 -88s101.5 -131.334 101.5 -218.001z" />
    <glyph glyph-name="u090F" unicode="&#x90f;" horiz-adv-x="778" 
d="M848 854l-149.999 -0.00292969v-262c0 -52 -14.667 -97 -44 -135s-68 -63 -116 -75l-104 100c69.333 12 104 59.333 104 142v230h-296v-354c0 -34.667 14.667 -66 44 -94l344 -326c50.667 -48 76 -96.667 76 -146c0 -41.333 -15.833 -77.666 -47.5 -108.999
s-71.834 -51.666 -120.501 -60.999l-88 92c61.333 11.333 92 34 92 68c0 28 -21.333 61.333 -64 100l-310 286c-57.333 52.667 -86 117.334 -86 194.001v350h-88v146h854v-146zM316.001 -246.003z" />
    <glyph glyph-name="u0910" unicode="&#x910;" horiz-adv-x="778" 
d="M848 854l-149.999 -0.00292969v-262c0 -52 -14.667 -97 -44 -135s-68 -63 -116 -75l-104 100c69.333 12 104 59.333 104 142v230h-296v-354c0 -34.667 14.667 -66 44 -94l344 -326c50.667 -48 76 -96.667 76 -146c0 -41.333 -15.833 -77.666 -47.5 -108.999
s-71.834 -51.666 -120.501 -60.999l-88 92c61.333 11.333 92 34 92 68c0 28 -21.333 61.333 -64 100l-310 286c-57.333 52.667 -86 117.334 -86 194.001v350h-88v146h854v-146zM691.001 999.997h-146l-418 406l106 92z" />
    <glyph glyph-name="u0911" unicode="&#x911;" horiz-adv-x="1644" 
d="M1046 854l0.00195312 -854.002h-160v428c-28.667 -18.667 -56 -28 -82 -28c-34 0 -70.667 17.333 -110 52c25.333 -32 38 -73.333 38 -124c0 -75.333 -25.167 -137.166 -75.5 -185.499s-113.166 -72.5 -188.499 -72.5c-90.667 0 -175.334 37.667 -254.001 113
s-139.334 171 -182.001 287l124 58c34.667 -94.667 78.667 -171.667 132 -231s109.333 -89 168 -89c38.667 0 70.334 12.833 95.001 38.5s37 58.834 37 99.501c0 44.667 -16.333 82.834 -49 114.501s-74.334 47.5 -125.001 47.5c-27.333 0 -54 -3.33301 -80 -10l-30 120
c66.667 9.33301 116.667 26.333 150 51s50 57 50 97c0 29.333 -9.83301 54.666 -29.5 75.999s-44.5 32 -74.5 32c-78 0 -152.667 -42.667 -224 -128l-80 104c88.667 105.333 194.667 158 318 158c74 0 134.833 -21.5 182.5 -64.5s71.5 -98.167 71.5 -165.5
c0 -75.333 -35.333 -132 -106 -170c89.333 -53.333 168.666 -80 237.999 -80c33.333 0 62 12 86 36v290h-160v146h988v-146h-212v-854h-160v854h-296zM1533 1420c-14.667 -84.667 -54.498 -154.167 -119.498 -208.5s-140.5 -81.5 -226.5 -81.5
c-85.333 0 -160.333 27.167 -225 81.5s-104.334 123.833 -119.001 208.5h164c8 -46 28.833 -84.167 62.5 -114.5s73.5 -45.5 119.5 -45.5c45.333 0 84.666 15 117.999 45s54 68.333 62 115h164z" />
    <glyph glyph-name="u0912" unicode="&#x912;" horiz-adv-x="1644" 
d="M1046 854l0.00195312 -854.002h-160v428c-28.667 -18.667 -56 -28 -82 -28c-34 0 -70.667 17.333 -110 52c25.333 -32 38 -73.333 38 -124c0 -75.333 -25.167 -137.166 -75.5 -185.499s-113.166 -72.5 -188.499 -72.5c-90.667 0 -175.334 37.667 -254.001 113
s-139.334 171 -182.001 287l124 58c34.667 -94.667 78.667 -171.667 132 -231s109.333 -89 168 -89c38.667 0 70.334 12.833 95.001 38.5s37 58.834 37 99.501c0 44.667 -16.333 82.834 -49 114.501s-74.334 47.5 -125.001 47.5c-27.333 0 -54 -3.33301 -80 -10l-30 120
c66.667 9.33301 116.667 26.333 150 51s50 57 50 97c0 29.333 -9.83301 54.666 -29.5 75.999s-44.5 32 -74.5 32c-78 0 -152.667 -42.667 -224 -128l-80 104c88.667 105.333 194.667 158 318 158c74 0 134.833 -21.5 182.5 -64.5s71.5 -98.167 71.5 -165.5
c0 -75.333 -35.333 -132 -106 -170c89.333 -53.333 168.666 -80 237.999 -80c33.333 0 62 12 86 36v290h-160v146h988v-146h-212v-854h-160v854h-296zM1503 999.998l-166.002 0.00195312c0 49.333 -16.667 91.666 -50 126.999s-74.666 53 -123.999 53
c-85.333 0 -160.666 27.167 -225.999 81.5s-105.333 123.833 -120 208.5h164c8 -46.667 29 -85.667 63 -117s73.667 -47 119 -47c91.333 0 170.833 -29.333 238.5 -88s101.5 -131.334 101.5 -218.001z" />
    <glyph glyph-name="u0913" unicode="&#x913;" horiz-adv-x="1644" 
d="M1046 854l0.00195312 -854.002h-160v428c-28.667 -18.667 -56 -28 -82 -28c-34 0 -70.667 17.333 -110 52c25.333 -32 38 -73.333 38 -124c0 -75.333 -25.167 -137.166 -75.5 -185.499s-113.166 -72.5 -188.499 -72.5c-90.667 0 -175.334 37.667 -254.001 113
s-139.334 171 -182.001 287l124 58c34.667 -94.667 78.667 -171.667 132 -231s109.333 -89 168 -89c38.667 0 70.334 12.833 95.001 38.5s37 58.834 37 99.501c0 44.667 -16.333 82.834 -49 114.501s-74.334 47.5 -125.001 47.5c-27.333 0 -54 -3.33301 -80 -10l-30 120
c66.667 9.33301 116.667 26.333 150 51s50 57 50 97c0 29.333 -9.83301 54.666 -29.5 75.999s-44.5 32 -74.5 32c-78 0 -152.667 -42.667 -224 -128l-80 104c88.667 105.333 194.667 158 318 158c74 0 134.833 -21.5 182.5 -64.5s71.5 -98.167 71.5 -165.5
c0 -75.333 -35.333 -132 -106 -170c89.333 -53.333 168.666 -80 237.999 -80c33.333 0 62 12 86 36v290h-160v146h988v-146h-212v-854h-160v854h-296zM1492 999.998h-146l-418 406l106 92z" />
    <glyph glyph-name="u0914" unicode="&#x914;" horiz-adv-x="1644" 
d="M1046 854l0.00195312 -854.002h-160v428c-28.667 -18.667 -56 -28 -82 -28c-34 0 -70.667 17.333 -110 52c25.333 -32 38 -73.333 38 -124c0 -75.333 -25.167 -137.166 -75.5 -185.499s-113.166 -72.5 -188.499 -72.5c-90.667 0 -175.334 37.667 -254.001 113
s-139.334 171 -182.001 287l124 58c34.667 -94.667 78.667 -171.667 132 -231s109.333 -89 168 -89c38.667 0 70.334 12.833 95.001 38.5s37 58.834 37 99.501c0 44.667 -16.333 82.834 -49 114.501s-74.334 47.5 -125.001 47.5c-27.333 0 -54 -3.33301 -80 -10l-30 120
c66.667 9.33301 116.667 26.333 150 51s50 57 50 97c0 29.333 -9.83301 54.666 -29.5 75.999s-44.5 32 -74.5 32c-78 0 -152.667 -42.667 -224 -128l-80 104c88.667 105.333 194.667 158 318 158c74 0 134.833 -21.5 182.5 -64.5s71.5 -98.167 71.5 -165.5
c0 -75.333 -35.333 -132 -106 -170c89.333 -53.333 168.666 -80 237.999 -80c33.333 0 62 12 86 36v290h-160v146h988v-146h-212v-854h-160v854h-296zM1498 999.998h-172l-460 242l76 120l476 -354l-260 442l130 48z" />
    <glyph glyph-name="u0915" unicode="&#x915;" horiz-adv-x="1164" 
d="M320 194c-77.333 0 -140.666 27.001 -189.999 81.001s-74 120.333 -74 199c0 87.333 28 158.166 84 212.499s128 81.5 216 81.5c43.333 0 80.666 -6.66699 111.999 -20l-36 -136c-22.667 10.667 -46 16 -70 16c-49.333 0 -86.333 -12.5 -111 -37.5s-37 -62.5 -37 -112.5
c0 -42 12.5 -76.833 37.5 -104.5s57.833 -41.5 98.5 -41.5c27.333 0 54 6.5 80 19.5s51.333 32.5 76 58.5v444h-512v146h1240v-146h-568v-192c51.333 58.667 115.333 88 192 88c70.667 0 128.334 -22.833 173.001 -68.5s67 -105.5 67 -179.5
c0 -150 -66.667 -280.667 -200 -392l-118 108c96 82 144 176 144 282c0 26.667 -8.83301 49 -26.5 67s-38.834 27 -63.501 27c-36.667 0 -69 -8.66699 -97 -26s-51.667 -43.333 -71 -78v-490h-160v268c-54.667 -49.333 -116.667 -74 -186 -74z" />
    <glyph glyph-name="u0916" unicode="&#x916;" horiz-adv-x="1292" 
d="M1362 854h-214v-854h-160v124c-118 -82.667 -238.667 -124 -362 -124c-116.667 -0 -227.167 55.833 -331.5 167.5s-192.5 265.167 -264.5 460.5l116 70c29.333 -81.333 68 -122 116 -122c23.333 0 40.833 5.66699 52.5 17s17.5 28.333 17.5 51v210h-338v146h1368v-146z
M988 288l-0.00292969 100c-41.333 -49.333 -96.666 -74 -165.999 -74s-127.666 21.667 -174.999 65s-71 98.333 -71 165c0 68 22.667 123.667 68 167s101.333 65 168 65c35.333 0 74.666 -8.66699 117.999 -26v-114c-40.667 12 -70 18 -88 18c-28 0 -51.667 -9.5 -71 -28.5
s-29 -42.833 -29 -71.5c0 -30.667 9.5 -55.667 28.5 -75s42.833 -29 71.5 -29c60 0 108.667 27.333 146 82v322h-494v-232c0 -46.667 -15 -87.667 -45 -123s-66.333 -53 -109 -53c-24 0 -50.667 7.33301 -80 22c48.667 -107.333 103.334 -187.833 164.001 -241.5
s127.334 -80.5 200.001 -80.5c148 0 269.333 47.333 364 142z" />
    <glyph glyph-name="u0917" unicode="&#x917;" horiz-adv-x="866" 
d="M562 854h-218v-450c0 -20.667 -6 -39.167 -18 -55.5s-27.333 -24.5 -46 -24.5c-28.667 0 -78.167 33 -148.5 99s-105.5 113 -105.5 141c0 36 15.333 54 46 54h68c26.667 0 40 18 40 54v182h-186v146h942v-146h-214v-854h-160v854z" />
    <glyph glyph-name="u0918" unicode="&#x918;" horiz-adv-x="1020" 
d="M428 172c-92.667 0 -166.5 24 -221.5 72s-82.5 104.667 -82.5 170c0 36.667 8.33301 68.667 25 96s41.667 50 75 68c-53.333 18 -93.333 41.333 -120 70s-40 62.667 -40 102c0 42 16 76.667 48 104h-118v146h1096v-146h-214v-854h-160v264
c-44 -30.667 -90 -53.667 -138 -69s-98 -23 -150 -23zM716 424v429.999h-384c-30 0 -55.167 -8.66699 -75.5 -26s-30.5 -37.333 -30.5 -60c0 -25.333 11.833 -47.666 35.5 -66.999s54.5 -29 92.5 -29h146l54 -126h-110c-48.667 0 -85.167 -10.333 -109.5 -31
s-36.5 -51.667 -36.5 -93c0 -34 14.333 -62.167 43 -84.5s63.667 -33.5 105 -33.5c92 0 182 40 270 120z" />
    <glyph glyph-name="u0919" unicode="&#x919;" horiz-adv-x="1240" 
d="M608 16c-120.667 0 -232.165 40.667 -334.498 122s-184.833 191.333 -247.5 330l136 64c38.667 -107.333 99 -196.833 181 -268.5s170.333 -107.5 265 -107.5c50.667 0 95 13.833 133 41.5s57 62.5 57 104.5c0 19.333 -3.66699 33.833 -11 43.5s-18.333 14.5 -33 14.5
c-22 0 -55.333 -5.33301 -100 -16s-78.667 -16 -102 -16c-41.333 0 -94 32.667 -158 98s-96 121.333 -96 168c0 50.667 14.333 88.667 43 114s71.667 38 129 38h228v108h-704v146h1316v-146h-452v-236h-342c-33.333 0 -50 -12 -50 -36c0 -17.333 14 -40 42 -68
s50.667 -42 68 -42c19.333 0 50.666 6.66699 93.999 20c39.333 12 70.666 18 93.999 18c56 0 101.333 -19.667 136 -59s52 -87 52 -143c0 -83.333 -34.333 -152.833 -103 -208.5s-149 -83.5 -241 -83.5zM1156 578c0 -24 -8.66699 -44.667 -26 -62s-38 -26 -62 -26
s-44.333 8.5 -61 25.5s-25 37.833 -25 62.5c0 24 8.33301 44.333 25 61s37 25 61 25c24.667 0 45.5 -8.33301 62.5 -25s25.5 -37 25.5 -61z" />
    <glyph glyph-name="u091A" unicode="&#x91a;" horiz-adv-x="1002" 
d="M436 178c-74 0 -138.165 21.832 -192.498 65.499s-81.5 99.167 -81.5 166.5c0 37.333 8.16699 71.833 24.5 103.5s40.833 60.5 73.5 86.5h-234v146h582v-146h-150c-42 -22 -73.5 -47.5 -94.5 -76.5s-31.5 -61.5 -31.5 -97.5c0 -29.333 10.833 -54.666 32.5 -75.999
s48.167 -32 79.5 -32c45.333 0 89.166 15.333 131.499 46s83.166 76.667 122.499 138v352h-704v146h1078v-146h-214v-854h-160v308c-33.333 -43.333 -71.833 -75.833 -115.5 -97.5s-92.5 -32.5 -146.5 -32.5z" />
    <glyph glyph-name="u091B" unicode="&#x91b;" horiz-adv-x="1080" 
d="M802 636c-22 0 -40.5 -10 -55.5 -30s-22.5 -46 -22.5 -78c0 -62.667 23.333 -120.667 70 -174c52 57.333 78 118 78 182c0 26.667 -6.83301 50 -20.5 70s-30.167 30 -49.5 30zM880 854l0.000976562 -100.002c42 -14 75.833 -41.167 101.5 -81.5s38.5 -85.833 38.5 -136.5
c0 -122 -58.167 -237.5 -174.5 -346.5s-245.5 -163.5 -387.5 -163.5c-102.667 0 -185.334 30.333 -248.001 91s-94 133.667 -94 219c0 46 10 86.167 30 120.5s50 62.833 90 85.5c-57.333 18.667 -100.333 44.334 -129 77.001s-43 72.334 -43 119.001
c0 45.333 17.333 84 52 116h-122v146h1156v-146h-270zM722.001 753.998l0.00292969 99.999h-398c-26 0 -49.167 -10 -69.5 -30s-30.5 -44.667 -30.5 -74c0 -34 14.167 -62.5 42.5 -85.5s64.166 -34.5 107.499 -34.5h86l26 -126h-48c-44.667 0 -81.834 -14.667 -111.501 -44
s-44.5 -67.333 -44.5 -114c0 -45.333 17.167 -85.333 51.5 -120s79.166 -52 134.499 -52c80 0 156.667 29.333 230 88c-82.667 82.667 -124 171.334 -124 266.001c0 53.333 12.333 98.833 37 136.5s61.667 67.5 111 89.5z" />
    <glyph glyph-name="u091C" unicode="&#x91c;" horiz-adv-x="1190" 
d="M886 528l-178 0.000976562c33.333 -52.667 50 -114 50 -184c0 -72.667 -25.833 -133.167 -77.5 -181.5s-117.167 -72.5 -196.5 -72.5c-102.667 0 -193.5 50.167 -272.5 150.5s-136.167 238.166 -171.5 413.499l138 46c23.333 -131.333 64 -240.833 122 -328.5
s119.333 -131.5 184 -131.5c33.333 0 60.333 10.167 81 30.5s31 45.5 31 75.5c0 50 -12.167 102.167 -36.5 156.5s-60.833 110.833 -109.5 169.5h436v182h-892v146h1266v-146h-214v-854h-160v528z" />
    <glyph glyph-name="u091D" unicode="&#x91d;" horiz-adv-x="1162" 
d="M860 500v354h-238v-226h-332c-26.667 0 -40 -10 -40 -30c0 -21.333 14.667 -45.333 44 -72s52.666 -40 69.999 -40c13.333 0 48 8 104 24c42.667 12 78 18 106 18c20 0 41.333 -5.66699 64 -17c40 -20.667 67.833 -32.667 83.5 -36s31.167 -5 46.5 -5
c36.667 0 67.334 10 92.001 30zM860 364c-32 -18.667 -65.333 -27.998 -100 -27.998c-31.333 0 -60 8.66699 -86 26c0 -68.667 -19.833 -124.5 -59.5 -167.5s-99.167 -73.167 -178.5 -90.5c72 -47.333 131.333 -79.333 178 -96l-110 -108
c-73.333 41.333 -142.666 90 -207.999 146c-58 0 -111.5 12.333 -160.5 37s-73.5 57.667 -73.5 99c0 30.667 10.167 56.334 30.5 77.001s45.5 31 75.5 31c59.333 0 115.333 -30.667 168 -92c57.333 10.667 101.333 29.167 132 55.5s46 57.166 46 92.499c0 20 -14 30 -42 30
c-18 0 -41.333 -4.66699 -70 -14c-32.667 -10.667 -56 -16 -70 -16c-50.667 0 -105.334 33.667 -164.001 101s-88 129.666 -88 186.999c0 35.333 15.333 64.166 46 86.499s66 33.5 106 33.5h228v100h-466v146h1238v-146h-212v-854h-160v364z" />
    <glyph glyph-name="u091E" unicode="&#x91e;" horiz-adv-x="1118" 
d="M814 418c-32 -18.667 -65.333 -28 -100 -28c-35.333 0 -67.333 10 -96 30c-6.66699 -72 -36.834 -132.667 -90.501 -182s-122.167 -74 -205.5 -74c-111.333 0 -210.666 54.667 -297.999 164l90 108c58.667 -84 128.667 -126 210 -126c42 0 75.5 15.5 100.5 46.5
s37.5 71.5 37.5 121.5c0 40.667 -11.5 74.167 -34.5 100.5s-52.167 39.5 -87.5 39.5c-44 0 -78.667 -15.333 -104 -46l-94 118c63.333 52 132 78 206 78c71.333 0 130.5 -21.333 177.5 -64s76.5 -98.667 88.5 -168c36 -17.333 66.667 -26 92 -26c42 0 78 12 108 36v308h-820
v146h1194v-146h-214v-854h-160v418z" />
    <glyph glyph-name="u091F" unicode="&#x91f;" horiz-adv-x="878" 
d="M722 854v-290h-360c-40.667 0 -74.834 -14.167 -102.501 -42.5s-41.5 -62.833 -41.5 -103.5c0 -72.667 28.667 -133.167 86 -181.5s125.333 -72.5 204 -72.5c94.667 0 172.667 42.667 234 128l112 -92c-85.333 -120 -200.666 -180 -345.999 -180
c-120 0 -224.333 38.167 -313 114.5s-133 170.833 -133 283.5c0 81.333 29.833 150.333 89.5 207s131.167 85 214.5 85h196v144h-568v146h954v-146h-226z" />
    <glyph glyph-name="u0920" unicode="&#x920;" horiz-adv-x="912" 
d="M596 504l84.001 60h-318c-40.667 0 -74.834 -14.167 -102.501 -42.5s-41.5 -62.833 -41.5 -103.5c0 -72.667 28.667 -133.167 86 -181.5s125.333 -72.5 204 -72.5c46 0 86.167 13.833 120.5 41.5s51.5 62.5 51.5 104.5c0 62 -28 126.667 -84 194zM722.001 576
c77.333 -54 116 -136.667 116 -248c0 -87.333 -32.667 -160.5 -98 -219.5s-143.333 -88.5 -234 -88.5c-120 0 -224 38 -312 114s-132 170.667 -132 284c0 81.333 29.833 150.333 89.5 207s131.167 85 214.5 85h196v144h-568v146h988v-146h-260v-278z" />
    <glyph glyph-name="u0921" unicode="&#x921;" horiz-adv-x="1004" 
d="M608 16c-120.667 0 -232.165 40.667 -334.498 122s-184.833 191.333 -247.5 330l136 64c38.667 -107.333 99 -196.833 181 -268.5s170.333 -107.5 265 -107.5c50.667 0 95 13.833 133 41.5s57 62.5 57 104.5c0 19.333 -3.66699 33.833 -11 43.5s-18.333 14.5 -33 14.5
c-22 0 -55.333 -5.33301 -100 -16s-78.667 -16 -102 -16c-41.333 0 -94 32.667 -158 98s-96 121.333 -96 168c0 50.667 14.333 88.667 43 114s71.667 38 129 38h228v108h-704v146h1080v-146h-216v-236h-342c-33.333 0 -50 -12 -50 -36c0 -17.333 14 -40 42 -68
s50.667 -42 68 -42c19.333 0 50.666 6.66699 93.999 20c39.333 12 70.666 18 93.999 18c56 0 101.333 -19.667 136 -59s52 -87 52 -143c0 -83.333 -34.333 -152.833 -103 -208.5s-149 -83.5 -241 -83.5z" />
    <glyph glyph-name="u0922" unicode="&#x922;" horiz-adv-x="902" 
d="M291 248c48.667 -48.667 108.999 -78 180.999 -88c-40 40 -60 86 -60 138c0 54.667 19.667 100.334 59 137.001s89 55 149 55c68.667 0 124.167 -20.5 166.5 -61.5s63.5 -91.833 63.5 -152.5c0 -72 -30.833 -132.667 -92.5 -182s-136.167 -74 -223.5 -74
c-139.333 0 -252.833 37.333 -340.5 112s-131.5 170 -131.5 286c0 81.333 29.833 150.333 89.5 207s131.167 85 214.5 85h196v144h-568v146h978v-146h-250v-290h-354c-43.333 0 -79.166 -14.167 -107.499 -42.5s-42.5 -62.833 -42.5 -103.5
c0 -64.667 24.333 -121.334 73 -170.001zM711.999 278c0 28.667 -6.83301 50.167 -20.5 64.5s-34.167 21.5 -61.5 21.5c-28.667 0 -50.167 -7.33301 -64.5 -22s-21.5 -36.667 -21.5 -66c0 -44.667 22.667 -80.667 68 -108c66.667 17.333 100 54 100 110z" />
    <glyph glyph-name="u0923" unicode="&#x923;" horiz-adv-x="1118" 
d="M814 0l-0.000976562 854h-194v-370c0 -73.333 -25.667 -136 -77 -188s-114.333 -78 -189 -78c-75.333 0 -138.166 25.5 -188.499 76.5s-75.5 114.167 -75.5 189.5v370h-96v146h1194v-146h-214v-854h-160zM459.999 854h-210v-370c0 -32 9.5 -60 28.5 -84
s43.5 -36 73.5 -36c32 0 58 11.5 78 34.5s30 51.5 30 85.5v370zM813.999 -1z" />
    <glyph glyph-name="u0924" unicode="&#x924;" horiz-adv-x="980" 
d="M676 564l-370.002 -0.000976562c-30 0 -52.5 -7.5 -67.5 -22.5s-22.5 -37.5 -22.5 -67.5c0 -61.333 24.333 -127.333 73 -198s109.667 -132 183 -184l-88 -108c-101.333 74.667 -180.666 155.834 -237.999 243.501s-86 172.5 -86 254.5c0 66 22.833 120.5 68.5 163.5
s106.834 64.5 183.501 64.5h364v144h-682v146h1056v-146h-214v-854h-160v564z" />
    <glyph glyph-name="u0925" unicode="&#x925;" horiz-adv-x="1076" 
d="M494 182c-126.667 0 -231.331 33.833 -313.998 101.5s-124 158.5 -124 272.5c38.667 -13.333 86.667 -20 144 -20c76.667 0 136.834 17.5 180.501 52.5s65.5 81.5 65.5 139.5c0 44 -13 80.667 -39 110s-61.667 44 -107 44c-24.667 0 -43.167 -5.5 -55.5 -16.5
s-18.5 -27.5 -18.5 -49.5c0 -20.667 5.83301 -36.167 17.5 -46.5s29.167 -15.5 52.5 -15.5v-128c-68.667 0 -124.834 16.833 -168.501 50.5s-65.5 78.167 -65.5 133.5c0 58.667 23.667 108 71 148s103 60 167 60c92 0 166.333 -27.167 223 -81.5s85 -123.833 85 -208.5
c0 -85.333 -32.5 -158.333 -97.5 -219s-151.167 -91 -258.5 -91c25.333 -31.333 57.666 -54.833 96.999 -70.5s85.666 -23.5 138.999 -23.5c60.667 0 117.167 16.333 169.5 49s90.5 75 114.5 127v354h-110v146h484v-146h-214v-854h-160v300
c-30.667 -39.333 -69.167 -68.833 -115.5 -88.5s-100.5 -29.5 -162.5 -29.5z" />
    <glyph glyph-name="u0926" unicode="&#x926;" horiz-adv-x="860" 
d="M554 134c-130 0 -245.498 35.168 -346.498 105.501s-151.5 160.5 -151.5 270.5c0 70.667 23.667 127.667 71 171s103.666 65 168.999 65h266v108h-568v146h936v-146h-208v-254h-412c-33.333 0 -58.333 -7.5 -75 -22.5s-25 -37.5 -25 -67.5c0 -68 32.5 -123 97.5 -165
s138.5 -63 220.5 -63c0 57.333 11 100.333 33 129s55 43 99 43c32 0 59 -12.333 81 -37s33 -54.334 33 -89.001c0 -51.333 -27.333 -100 -82 -146c30.667 -74.667 66 -138.667 106 -192l-158 -30c-32.667 48 -61.334 106 -86.001 174z" />
    <glyph glyph-name="u0927" unicode="&#x927;" horiz-adv-x="1002" 
d="M408 152c-72.667 0 -136.832 21.666 -192.499 64.999s-83.5 98.333 -83.5 165c0 68.667 27.333 122.667 82 162c-113.333 66 -170 157.333 -170 274c0 59.333 21.333 107.5 64 144.5s97.334 55.5 164.001 55.5c56.667 0 104.167 -15 142.5 -45s57.5 -68.333 57.5 -115
s-20.333 -84 -61 -112s-88.334 -42 -143.001 -42v100c23.333 0 40.833 4 52.5 12s17.5 20 17.5 36s-5.5 28 -16.5 36s-27.5 12 -49.5 12c-30.667 0 -53.667 -6.83301 -69 -20.5s-23 -34.167 -23 -61.5c0 -77.333 50 -144.666 150 -201.999c58 22.667 123.333 34 196 34
l52 -124c-94.667 0 -165.667 -11.333 -213 -34s-71 -56.667 -71 -102c0 -28 11.833 -51.333 35.5 -70s54.5 -28 92.5 -28c116.667 0 208.667 57.333 276 172v390h-160v146h534v-146h-214v-854h-160v290c-68.667 -92 -165.334 -138 -290.001 -138z" />
    <glyph glyph-name="u0928" unicode="&#x928;" horiz-adv-x="936" 
d="M634 510h-263.999c-15.333 0 -26.833 -3.83301 -34.5 -11.5s-11.5 -19.167 -11.5 -34.5v-100c0 -21.333 -4.5 -37.333 -13.5 -48s-22.5 -16 -40.5 -16c-37.333 0 -86 36.667 -146 110s-90 133.333 -90 180c0 18 7.16699 33.167 21.5 45.5s31.166 18.5 50.499 18.5h528
v200h-640v146h1012v-146h-212v-854h-160v510z" />
    <glyph glyph-name="u0929" unicode="&#x929;" horiz-adv-x="936" 
d="M634 510h-263.999c-15.333 0 -26.833 -3.83301 -34.5 -11.5s-11.5 -19.167 -11.5 -34.5v-100c0 -21.333 -4.5 -37.333 -13.5 -48s-22.5 -16 -40.5 -16c-37.333 0 -86 36.667 -146 110s-90 133.333 -90 180c0 18 7.16699 33.167 21.5 45.5s31.166 18.5 50.499 18.5h528
v200h-640v146h1012v-146h-212v-854h-160v510zM323.001 -14c-24 0 -44.333 8.5 -61 25.5s-25 37.833 -25 62.5c0 24 8.33301 44.333 25 61s37 25 61 25c24.667 0 45.5 -8.33301 62.5 -25s25.5 -37 25.5 -61s-8.66699 -44.667 -26 -62s-38 -26 -62 -26z" />
    <glyph glyph-name="u092A" unicode="&#x92a;" horiz-adv-x="872" 
d="M368 260c-86 0 -155.833 26.167 -209.5 78.5s-80.5 119.5 -80.5 201.5v314h-84v146h948v-146h-214v-854h-160v346c-51.333 -57.333 -118 -86 -200 -86zM568 510v344.001h-328v-306c0 -40.667 13 -74.834 39 -102.501s60.333 -41.5 103 -41.5
c73.333 0 135.333 35.333 186 106z" />
    <glyph glyph-name="u092B" unicode="&#x92b;" horiz-adv-x="1186" 
d="M332 268c-80 0 -142.332 24.666 -186.999 73.999s-67 117.333 -67 204v308h-84v146h1262v-146h-600v-192c49.333 61.333 115.333 92 198 92c78.667 0 141.667 -26.333 189 -79s71 -123.667 71 -213c0 -138.667 -52 -268 -156 -388l-136 90
c90.667 90.667 136 187.334 136 290.001c0 42.667 -11.333 77 -34 103s-54 39 -94 39c-64.667 0 -122.667 -39.333 -174 -118v-478h-160v352c-44.667 -56 -99.334 -84 -164.001 -84zM496.001 523.999l-0.000976562 330h-256v-304c0 -45.333 9.16699 -79.333 27.5 -102
s45.833 -34 82.5 -34c52.667 0 101.334 36.667 146.001 110zM915 39.999z" />
    <glyph glyph-name="u092C" unicode="&#x92c;" horiz-adv-x="870" 
d="M354 184c-88.667 0 -160.833 27.668 -216.5 83.001s-83.5 125.666 -83.5 210.999s29.333 156 88 212s134.667 84 228 84c60.667 0 112.667 -15.333 156 -46l-54 -126c-30 25.333 -64.667 38 -104 38c-28.667 0 -54 -5.33301 -76 -16l254 -220c5.33301 6 12 14.667 20 26
v424h-572v146h946v-146h-214v-854h-160v268c-53.333 -56 -124 -84 -212 -84zM458.001 340.001l-236 206c-8 -20.667 -12 -42.667 -12 -66c0 -45.333 15 -83 45 -113s69 -45 117 -45c30 0 58.667 6 86 18z" />
    <glyph glyph-name="u092D" unicode="&#x92d;" horiz-adv-x="1040" 
d="M736 370l-272.001 -0.000976562v-68c0 -21.333 -4.66699 -37.333 -14 -48s-23.333 -16 -42 -16c-30 0 -76.833 30.333 -140.5 91s-95.5 105.667 -95.5 135c0 21.333 4.5 37.333 13.5 48s22.5 16 40.5 16h76v254c0 26.667 -7 50 -21 70s-32.333 30 -55 30
s-39.667 -5.33301 -51 -16s-17 -26.667 -17 -48c0 -19.333 6.16699 -36.166 18.5 -50.499s27.5 -21.5 45.5 -21.5v-120c-54 0 -100.167 18.167 -138.5 54.5s-57.5 81.5 -57.5 135.5c0 60 19.833 108.667 59.5 146s89.834 56 150.501 56c70 0 125.5 -21.667 166.5 -65
s61.5 -100.333 61.5 -171v-254h272v326h-160v146h534v-146h-214v-854h-160v370z" />
    <glyph glyph-name="u092E" unicode="&#x92e;" horiz-adv-x="926" 
d="M622 436h-308v-96c0 -13.333 -3.83301 -23.333 -11.5 -30s-19.167 -10 -34.5 -10c-24 0 -69.333 32 -136 96s-100 108 -100 132c0 18 3.66699 31.5 11 40.5s18.333 13.5 33 13.5h74v272h-156v146h1002v-146h-214v-854h-160v436zM622 582v272h-308v-272h308z" />
    <glyph glyph-name="u092F" unicode="&#x92f;" horiz-adv-x="942" 
d="M412 164c-107.333 0 -196.502 40.999 -267.502 122.999s-106.5 180.333 -106.5 295c36.667 -12 67.334 -18 92.001 -18c46.667 0 84.334 12.833 113.001 38.5s43 60.834 43 105.501c0 56 -22.667 104.667 -68 146h-224v146h1018v-146h-214v-854h-160v252
c-58.667 -58.667 -134 -88 -226 -88zM637.998 423.999v430.001h-258c42.667 -38.667 64 -91.334 64 -158.001c0 -66 -21 -121 -63 -165s-98.333 -70.333 -169 -79c15.333 -42 42.666 -76.167 81.999 -102.5s81.333 -39.5 126 -39.5c90.667 0 163.334 38 218.001 114z" />
    <glyph glyph-name="u0930" unicode="&#x930;" horiz-adv-x="704" 
d="M354 454l292.001 -394l-124 -90l-498 678l130 98l86 -122c30 -42.667 64.667 -64 104 -64c26.667 0 48 9.83301 64 29.5s24 43.167 24 70.5v194h-438v146h780v-146h-180v-216c0 -52 -16.333 -98 -49 -138s-73.667 -60 -123 -60c-24.667 0 -47.334 4.66699 -68.001 14z
" />
    <glyph glyph-name="u0931" unicode="&#x931;" horiz-adv-x="704" 
d="M354 454l292.001 -394l-124 -90l-498 678l130 98l86 -122c30 -42.667 64.667 -64 104 -64c26.667 0 48 9.83301 64 29.5s24 43.167 24 70.5v194h-438v146h780v-146h-180v-216c0 -52 -16.333 -98 -49 -138s-73.667 -60 -123 -60c-24.667 0 -47.334 4.66699 -68.001 14z
M206.001 -68c-24 0 -44.333 8.5 -61 25.5s-25 37.833 -25 62.5c0 24 8.33301 44.333 25 61s37 25 61 25c24.667 0 45.5 -8.33301 62.5 -25s25.5 -37 25.5 -61s-8.66699 -44.667 -26 -62s-38 -26 -62 -26z" />
    <glyph glyph-name="u0932" unicode="&#x932;" horiz-adv-x="1112" 
d="M808 554c-46 -4 -88.667 -28.998 -128 -74.998s-68.666 -104.333 -87.999 -175l-124 64c10 48 28.667 91.333 56 130c-30.667 49.333 -75.334 74 -134.001 74c-51.333 0 -92.5 -15.333 -123.5 -46s-46.5 -72.667 -46.5 -126c0 -62.667 26.167 -120 78.5 -172
s119.5 -91.333 201.5 -118l-74 -120c-109.333 39.333 -197.333 95.666 -264 168.999s-100 153.666 -100 240.999c0 94 31.167 170.5 93.5 229.5s140.5 88.5 234.5 88.5s168 -38 222 -114c52.667 58.667 118 90.667 196 96v154h-814v146h1188v-146h-214v-854h-160v554z" />
    <glyph glyph-name="u0933" unicode="&#x933;" horiz-adv-x="1124" 
d="M864 706c56 -19.333 101.333 -57.5 136 -114.5s52 -119.5 52 -187.5c0 -84.667 -25 -158.167 -75 -220.5s-113 -93.5 -189 -93.5c-112.667 0 -191.334 61.333 -236.001 184c-20 -56.667 -51 -102.834 -93 -138.501s-85.667 -53.5 -131 -53.5
c-78 0 -141.833 30.833 -191.5 92.5s-74.5 136.834 -74.5 225.501c0 86 24.5 160.5 73.5 223.5s111.833 94.5 188.5 94.5c107.333 0 185.333 -59.333 234 -178c30.667 83.333 81.334 138 152.001 164v150h-716v146h1200v-146h-330v-148zM638 408
c24 -108 71.333 -162 142 -162c30 0 55.5 16 76.5 48s31.5 67.333 31.5 106c0 40 -11 75.667 -33 107s-50.333 47 -85 47c-66.667 0 -110.667 -48.667 -132 -146zM468 406c-28.667 98.667 -70.667 148 -126 148c-36 0 -64.333 -14.5 -85 -43.5s-31 -65.833 -31 -110.5
c0 -44 10.5 -80.667 31.5 -110s49.167 -44 84.5 -44c28.667 0 54.5 15.167 77.5 45.5s39.167 68.5 48.5 114.5z" />
    <glyph glyph-name="u0934" unicode="&#x934;" horiz-adv-x="1124" 
d="M864 706c56 -19.333 101.333 -57.5 136 -114.5s52 -119.5 52 -187.5c0 -84.667 -25 -158.167 -75 -220.5s-113 -93.5 -189 -93.5c-112.667 0 -191.334 61.333 -236.001 184c-20 -56.667 -51 -102.834 -93 -138.501s-85.667 -53.5 -131 -53.5
c-78 0 -141.833 30.833 -191.5 92.5s-74.5 136.834 -74.5 225.501c0 86 24.5 160.5 73.5 223.5s111.833 94.5 188.5 94.5c107.333 0 185.333 -59.333 234 -178c30.667 83.333 81.334 138 152.001 164v150h-716v146h1200v-146h-330v-148zM638 408
c24 -108 71.333 -162 142 -162c30 0 55.5 16 76.5 48s31.5 67.333 31.5 106c0 40 -11 75.667 -33 107s-50.333 47 -85 47c-66.667 0 -110.667 -48.667 -132 -146zM468 406c-28.667 98.667 -70.667 148 -126 148c-36 0 -64.333 -14.5 -85 -43.5s-31 -65.833 -31 -110.5
c0 -44 10.5 -80.667 31.5 -110s49.167 -44 84.5 -44c28.667 0 54.5 15.167 77.5 45.5s39.167 68.5 48.5 114.5zM552 -68c-24 0 -44.333 8.5 -61 25.5s-25 37.833 -25 62.5c0 24 8.33301 44.333 25 61s37 25 61 25c24.667 0 45.5 -8.33301 62.5 -25s25.5 -37 25.5 -61
s-8.66699 -44.667 -26 -62s-38 -26 -62 -26z" />
    <glyph glyph-name="u0935" unicode="&#x935;" horiz-adv-x="870" 
d="M354 184c-88.667 0 -160.833 27.668 -216.5 83.001s-83.5 125.666 -83.5 210.999s29.333 156 88 212s134.667 84 228 84c60.667 0 112.667 -15.333 156 -46l-54 -126c-30 25.333 -64.667 38 -104 38c-46.667 0 -84.667 -14.5 -114 -43.5s-44 -67.833 -44 -116.5
c0 -45.333 15 -83 45 -113s69 -45 117 -45c39.333 0 75.166 9 107.499 27s61.166 45 86.499 81v424h-572v146h946v-146h-214v-854h-160v276c-29.333 -30.667 -61.666 -53.667 -96.999 -69s-73.666 -23 -114.999 -23z" />
    <glyph glyph-name="u0936" unicode="&#x936;" horiz-adv-x="1142" 
d="M352 328l250 -218.001l-118 -120l-446 392l110 108l90 -68c60.667 0 114.5 17.667 161.5 53s75.167 81 84.5 137c-38.667 -38.667 -88 -58 -148 -58c-68.667 0 -126.167 22.333 -172.5 67s-69.5 101 -69.5 169c0 62.667 24.5 116.334 73.5 161.001s110.5 67 184.5 67
c95.333 0 169.833 -29.167 223.5 -87.5s80.5 -137.833 80.5 -238.5c0 -97.333 -29.333 -180 -88 -248s-130.667 -106.667 -216 -116zM484 741.999c0 42.667 -11.666 78 -34.999 106s-51 42 -83 42c-30 0 -55.833 -9.5 -77.5 -28.5s-32.5 -42.833 -32.5 -71.5
c0 -30 9.66699 -54.167 29 -72.5s43.666 -27.5 72.999 -27.5c49.333 0 91.333 17.333 126 52zM1212 853.999h-214v-854h-160v854h-160v146h534v-146zM702.001 49.999z" />
    <glyph glyph-name="u0937" unicode="&#x937;" horiz-adv-x="872" 
d="M368 260c-86 0 -155.832 26.167 -209.499 78.5s-80.5 119.5 -80.5 201.5v314h-84v146h948v-146h-214v-854h-160v346c-54.667 -57.333 -121.334 -86 -200.001 -86zM568.001 526v328h-278zM500.001 446l-260 308v-206c0 -40.667 13 -75.167 39 -103.5
s60.333 -42.5 103 -42.5c44.667 0 84 14.667 118 44z" />
    <glyph glyph-name="u0938" unicode="&#x938;" horiz-adv-x="1104" 
d="M800 854h-274v-266c0 -48 -12.5 -86.333 -37.5 -115s-57.833 -43 -98.5 -43c-22.667 0 -42.667 6 -60 18l260 -384l-136 -94l-428 656l126 98l68 -98c33.333 -48 62 -72 86 -72c19.333 0 33.833 5.83301 43.5 17.5s14.5 29.167 14.5 52.5v230h-370v146h1180v-146h-214
v-854h-160v436h-182l-64 146h246v272z" />
    <glyph glyph-name="u0939" unicode="&#x939;" horiz-adv-x="858" 
d="M650 -138c-161.333 0 -294.665 34.668 -399.998 104.001s-158 156.666 -158 261.999c0 92 39.333 164.667 118 218c-38.667 26 -67.667 53.333 -87 82s-29 58.667 -29 90c0 42 16.167 76.833 48.5 104.5s76.166 41.5 131.499 41.5h302v90h-582v146h934v-146h-192v-218
h-414c-19.333 0 -33.833 -4 -43.5 -12s-14.5 -20 -14.5 -36c0 -25.333 21.333 -54 64 -86c48 21.333 102 32 162 32c93.333 0 166.666 -21.667 219.999 -65s80 -96.333 80 -159c0 -80 -35.333 -136 -106 -168l-108 76c36 22.667 54 50.667 54 84c0 27.333 -13 50.5 -39 69.5
s-61.667 28.5 -107 28.5c-68.667 0 -124.5 -16.5 -167.5 -49.5s-64.5 -73.833 -64.5 -122.5c0 -64 37.833 -117.333 113.5 -160s186.5 -64 332.5 -64z" />
    <glyph glyph-name="u093C" unicode="&#x93c;" horiz-adv-x="0" 
d="M-850 -68c-24 0 -44.333 8.5 -61 25.5s-25 37.833 -25 62.5c0 24 8.33301 44.333 25 61s37 25 61 25c24.667 0 45.5 -8.33301 62.5 -25s25.5 -37 25.5 -61s-8.66699 -44.667 -26 -62s-38 -26 -62 -26z" />
    <glyph glyph-name="u093D" unicode="&#x93d;" horiz-adv-x="758" 
d="M36 328l122.001 81.9971c53.333 -160 135.333 -240 246 -240c41.333 0 75.666 10.5 102.999 31.5s41 49.167 41 84.5c0 28.667 -11.667 57.334 -35 86.001s-81 69.334 -173 122.001c-133.333 76.667 -200 161.334 -200 254.001c0 74.667 27.167 135.334 81.5 182.001
s123.166 70 206.499 70h194v-144h-192c-78.667 0 -118 -35.333 -118 -106c0 -58.667 57.333 -118.667 172 -180c146.667 -78 220 -174 220 -288c0 -81.333 -28.333 -147 -85 -197s-129 -75 -217 -75c-82 0 -156.167 29.667 -222.5 89s-114.166 135.666 -143.499 228.999z
" />
    <glyph glyph-name="u093E" unicode="&#x93e;" horiz-adv-x="442" 
d="M512 854h-212v-854h-160v854h-146v146h518v-146z" />
    <glyph glyph-name="u093F" unicode="&#x93f;" horiz-adv-x="442" 
d="M984 1010l-161.999 0.00292969c-46 80 -103.333 143.667 -172 191s-140 71 -214 71c-48.667 0 -90.834 -15.333 -126.501 -46s-53.5 -69.334 -53.5 -116.001c0 -22.667 9.33301 -59.334 28 -110.001h228v-146h-212v-854h-160v854h-146v146h128c-20 40 -30 76.667 -30 110
c0 87.333 34.167 160.5 102.5 219.5s148.833 88.5 241.5 88.5c110.667 0 215 -36.833 313 -110.5s176.333 -172.834 235 -297.501z" />
    <glyph glyph-name="u0940" unicode="&#x940;" horiz-adv-x="442" 
d="M512 854l-212 -0.00390625v-854h-160v854h-146v146h146c-32.667 88 -77.5 158.333 -134.5 211s-120.167 79 -189.5 79c-36 0 -68.333 -10.667 -97 -32s-43 -48.666 -43 -81.999s11.333 -66.166 34 -98.499s56.667 -64.166 102 -95.499h-164c-80 52.667 -120 120 -120 202
c0 70.667 27.667 127.334 83 170.001s122.333 64 201 64c102.667 0 197.667 -39.167 285 -117.5s153 -178.5 197 -300.5h218v-146z" />
    <glyph glyph-name="u0941" unicode="&#x941;" horiz-adv-x="0" 
d="M-766 -186l89.999 92c140 -140 279.333 -210 418 -210c42 0 76.833 10.5 104.5 31.5s41.5 46.5 41.5 76.5c0 24.667 -10 46.167 -30 64.5s-45.333 27.5 -76 27.5c-42 0 -79.333 -18 -112 -54l-90 100c62 60 128 90 198 90c76 0 136 -19.667 180 -59s66 -92.333 66 -159
c0 -72 -26.667 -132.333 -80 -181s-120.666 -73 -201.999 -73c-200.667 0 -370 84.667 -508 254zM-215.001 -246z" />
    <glyph glyph-name="u0942" unicode="&#x942;" horiz-adv-x="0" 
d="M272 -358l-120 -71.999c-126 224 -250.667 336 -374 336c-34.667 0 -64.334 -8.83301 -89.001 -26.5s-37 -40.834 -37 -69.501c0 -26.667 10.833 -49 32.5 -67s46.834 -27 75.501 -27c34 0 66 9.33301 96 28l50 -112c-50.667 -29.333 -99.334 -44 -146.001 -44
c-63.333 0 -118.166 21 -164.499 63s-69.5 93.667 -69.5 155c0 60 24 111.333 72 154s108 64 180 64c173.333 0 338 -127.333 494 -382zM-84 -245.999z" />
    <glyph glyph-name="u0943" unicode="&#x943;" horiz-adv-x="0" 
d="M-40 -346c-69.333 -36 -130 -54 -182 -54c-86 0 -158.833 22.167 -218.5 66.5s-89.5 100.833 -89.5 169.5c0 62.667 25.333 114.667 76 156s110 62 178 62h164v-126h-164c-30 0 -57.167 -7.66699 -81.5 -23s-36.5 -35 -36.5 -59c0 -34.667 16.5 -63 49.5 -85
s73.833 -33 122.5 -33c52 0 94.667 12 128 36zM-234 -246z" />
    <glyph glyph-name="u0944" unicode="&#x944;" horiz-adv-x="0" 
d="M-28 -386c-59.333 -34.667 -137.333 -52 -234 -52c-68.667 0 -124.167 14.833 -166.5 44.5s-63.5 65.5 -63.5 107.5c0 60 31.333 98 94 114c-50.667 12.667 -76 48.667 -76 108c0 38 14.5 69.833 43.5 95.5s67.167 38.5 114.5 38.5h170v-108h-134
c-38.667 0 -58 -15.333 -58 -46c0 -29.333 22.667 -44 68 -44h78v-100h-92c-41.333 0 -62 -16 -62 -48c0 -34.667 32.667 -52 98 -52c74.667 0 134 14.667 178 44zM-114 -246z" />
    <glyph glyph-name="u0945" unicode="&#x945;" horiz-adv-x="0" 
d="M124 1420c-14.667 -84.667 -54.498 -154.167 -119.498 -208.5s-140.5 -81.5 -226.5 -81.5c-85.333 0 -160.333 27.167 -225 81.5s-104.334 123.833 -119.001 208.5h164c8 -46 28.833 -84.167 62.5 -114.5s73.5 -45.5 119.5 -45.5c45.333 0 84.666 15 117.999 45
s54 68.333 62 115h164z" />
    <glyph glyph-name="u0946" unicode="&#x946;" horiz-adv-x="0" 
d="M-140 1000l-166.002 0.00195312c0 49.333 -16.667 91.666 -50 126.999s-74.666 53 -123.999 53c-85.333 0 -160.666 27.167 -225.999 81.5s-105.333 123.833 -120 208.5h164c8 -46.667 29 -85.667 63 -117s73.667 -47 119 -47c91.333 0 170.833 -29.333 238.5 -88
s101.5 -131.334 101.5 -218.001z" />
    <glyph glyph-name="u0947" unicode="&#x947;" horiz-adv-x="0" 
d="M-148 1000h-146l-418 406l106 92z" />
    <glyph glyph-name="u0948" unicode="&#x948;" horiz-adv-x="0" 
d="M-134 1000h-172l-460 242l76 120l476 -354l-260 442l130 48z" />
    <glyph glyph-name="u0949" unicode="&#x949;" horiz-adv-x="442" 
d="M512 854h-212v-854h-160v854h-146v146h518v-146zM346 1420c-14.667 -84.667 -54.498 -154.167 -119.498 -208.5s-140.5 -81.5 -226.5 -81.5c-85.333 0 -160.333 27.167 -225 81.5s-104.334 123.833 -119.001 208.5h164c8 -46 28.833 -84.167 62.5 -114.5
s73.5 -45.5 119.5 -45.5c45.333 0 84.666 15 117.999 45s54 68.333 62 115h164z" />
    <glyph glyph-name="u094A" unicode="&#x94a;" horiz-adv-x="442" 
d="M512 854h-212v-854h-160v854h-146v146h518v-146zM300 1000l-166.002 0.00195312c0 49.333 -16.667 91.666 -50 126.999s-74.666 53 -123.999 53c-85.333 0 -160.666 27.167 -225.999 81.5s-105.333 123.833 -120 208.5h164c8 -46.667 29 -85.667 63 -117
s73.667 -47 119 -47c91.333 0 170.833 -29.333 238.5 -88s101.5 -131.334 101.5 -218.001z" />
    <glyph glyph-name="u094B" unicode="&#x94b;" horiz-adv-x="442" 
d="M512 854h-212v-854h-160v854h-146v146h518v-146zM292 1000h-146l-418 406l106 92z" />
    <glyph glyph-name="u094C" unicode="&#x94c;" horiz-adv-x="442" 
d="M512 854h-212v-854h-160v854h-146v146h518v-146zM308 1000h-172l-460 242l76 120l476 -354l-260 442l130 48z" />
    <glyph glyph-name="u094D" unicode="&#x94d;" horiz-adv-x="0" 
d="M152 -300l-82 -82l-292 254l-52 -26l-74 100l126 64zM-184 -246z" />
    <glyph glyph-name="u0950" unicode="&#x950;" horiz-adv-x="1532" 
d="M1170 610c-50 0 -102.667 -33.3359 -158 -100.003c-72 -86.667 -142 -130 -210 -130c-40.667 0 -81.334 10.667 -122.001 32c25.333 -32 38 -73.333 38 -124c0 -75.333 -25.167 -137.166 -75.5 -185.499s-113.166 -72.5 -188.499 -72.5
c-90.667 0 -175.334 37.667 -254.001 113s-139.334 171 -182.001 287l124 58c34 -93.333 78.167 -170 132.5 -230s110.833 -90 169.5 -90c38 0 69.167 12.833 93.5 38.5s36.5 58.834 36.5 99.501c0 44.667 -16.333 82.834 -49 114.501s-74.334 47.5 -125.001 47.5
c-27.333 0 -54 -3.33301 -80 -10l-30 120c66.667 9.33301 116.667 26.5 150 51.5s50 57.833 50 98.5c0 29.333 -9.83301 54.333 -29.5 75s-44.5 31 -74.5 31c-78 0 -152.667 -42.667 -224 -128l-80 104c88.667 105.333 194.667 158 318 158c74 0 134.833 -21.5 182.5 -64.5
s71.5 -98.167 71.5 -165.5c0 -75.333 -35.333 -132 -106 -170c94.667 -41.333 170 -62 226 -62c44 0 88 25.333 132 76c56 64 102.167 108 138.5 132s83.5 36 141.5 36c80 0 145 -31.833 195 -95.5s75 -142.5 75 -236.5c0 -108.667 -25.167 -199.167 -75.5 -271.5
s-117.166 -108.5 -200.499 -108.5c-70 0 -128.5 23.667 -175.5 71s-77.833 113 -92.5 197h152c5.33301 -37.333 18.5 -68 39.5 -92s45.167 -36 72.5 -36c38.667 0 69.334 20.167 92.001 60.5s34 93.5 34 159.5c0 58 -12.667 107.833 -38 149.5s-56.666 62.5 -93.999 62.5z
M1378 1168c-14.667 -84.667 -54.498 -154.167 -119.498 -208.5s-140.5 -81.5 -226.5 -81.5c-85.333 0 -160.333 27.167 -225 81.5s-104.334 123.833 -119.001 208.5h164c8 -46 28.833 -84.167 62.5 -114.5s73.5 -45.5 119.5 -45.5c45.333 0 84.666 15 117.999 45
s54 68.333 62 115h164zM1120 1260c0 -24 -8.66699 -44.667 -26 -62s-38 -26 -62 -26s-44.333 8.5 -61 25.5s-25 37.833 -25 62.5c0 24 8.33301 44.333 25 61s37 25 61 25c24.667 0 45.5 -8.33301 62.5 -25s25.5 -37 25.5 -61zM586.002 999.997z" />
    <glyph glyph-name="u0951" unicode="&#x951;" horiz-adv-x="0" 
d="M-148 1022h-146v444h146v-444z" />
    <glyph glyph-name="u0952" unicode="&#x952;" horiz-adv-x="0" 
d="M-112 -118h-852v118h852v-118z" />
    <glyph glyph-name="u0953" unicode="&#x953;" horiz-adv-x="0" 
d="M-350 1390h208l90 -390h-128z" />
    <glyph glyph-name="u0954" unicode="&#x954;" horiz-adv-x="0" 
d="M-52 1390l-170 -390h-128l90 390h208z" />
    <glyph glyph-name="u0958" unicode="&#x958;" horiz-adv-x="1164" 
d="M320 194c-77.333 0 -140.666 27.001 -189.999 81.001s-74 120.333 -74 199c0 87.333 28 158.166 84 212.499s128 81.5 216 81.5c43.333 0 80.666 -6.66699 111.999 -20l-36 -136c-22.667 10.667 -46 16 -70 16c-49.333 0 -86.333 -12.5 -111 -37.5s-37 -62.5 -37 -112.5
c0 -42 12.5 -76.833 37.5 -104.5s57.833 -41.5 98.5 -41.5c27.333 0 54 6.5 80 19.5s51.333 32.5 76 58.5v444h-512v146h1240v-146h-568v-192c51.333 58.667 115.333 88 192 88c70.667 0 128.334 -22.833 173.001 -68.5s67 -105.5 67 -179.5
c0 -150 -66.667 -280.667 -200 -392l-118 108c96 82 144 176 144 282c0 26.667 -8.83301 49 -26.5 67s-38.834 27 -63.501 27c-36.667 0 -69 -8.66699 -97 -26s-51.667 -43.333 -71 -78v-490h-160v268c-54.667 -49.333 -116.667 -74 -186 -74zM252 -67.999
c-24 0 -44.333 8.5 -61 25.5s-25 37.833 -25 62.5c0 24 8.33301 44.333 25 61s37 25 61 25c24.667 0 45.5 -8.33301 62.5 -25s25.5 -37 25.5 -61s-8.66699 -44.667 -26 -62s-38 -26 -62 -26z" />
    <glyph glyph-name="u0959" unicode="&#x959;" horiz-adv-x="1292" 
d="M1362 854h-214v-854h-160v124c-118 -82.667 -238.667 -124 -362 -124c-116.667 -0 -227.167 55.833 -331.5 167.5s-192.5 265.167 -264.5 460.5l116 70c29.333 -81.333 68 -122 116 -122c23.333 0 40.833 5.66699 52.5 17s17.5 28.333 17.5 51v210h-338v146h1368v-146z
M988 288l-0.00292969 100c-41.333 -49.333 -96.666 -74 -165.999 -74s-127.666 21.667 -174.999 65s-71 98.333 -71 165c0 68 22.667 123.667 68 167s101.333 65 168 65c35.333 0 74.666 -8.66699 117.999 -26v-114c-40.667 12 -70 18 -88 18c-28 0 -51.667 -9.5 -71 -28.5
s-29 -42.833 -29 -71.5c0 -30.667 9.5 -55.667 28.5 -75s42.833 -29 71.5 -29c60 0 108.667 27.333 146 82v322h-494v-232c0 -46.667 -15 -87.667 -45 -123s-66.333 -53 -109 -53c-24 0 -50.667 7.33301 -80 22c48.667 -107.333 103.334 -187.833 164.001 -241.5
s127.334 -80.5 200.001 -80.5c148 0 269.333 47.333 364 142zM149.997 -63c-24 0 -44.333 8.5 -61 25.5s-25 37.833 -25 62.5c0 24 8.33301 44.333 25 61s37 25 61 25c24.667 0 45.5 -8.33301 62.5 -25s25.5 -37 25.5 -61s-8.66699 -44.667 -26 -62s-38 -26 -62 -26z" />
    <glyph glyph-name="u095A" unicode="&#x95a;" horiz-adv-x="866" 
d="M562 854h-218v-450c0 -20.667 -6 -39.167 -18 -55.5s-27.333 -24.5 -46 -24.5c-28.667 0 -78.167 33 -148.5 99s-105.5 113 -105.5 141c0 36 15.333 54 46 54h68c26.667 0 40 18 40 54v182h-186v146h942v-146h-214v-854h-160v854zM236 -68c-24 0 -44.333 8.5 -61 25.5
s-25 37.833 -25 62.5c0 24 8.33301 44.333 25 61s37 25 61 25c24.667 0 45.5 -8.33301 62.5 -25s25.5 -37 25.5 -61s-8.66699 -44.667 -26 -62s-38 -26 -62 -26z" />
    <glyph glyph-name="u095B" unicode="&#x95b;" horiz-adv-x="1190" 
d="M886 528l-178 0.000976562c33.333 -52.667 50 -114 50 -184c0 -72.667 -25.833 -133.167 -77.5 -181.5s-117.167 -72.5 -196.5 -72.5c-102.667 0 -193.5 50.167 -272.5 150.5s-136.167 238.166 -171.5 413.499l138 46c23.333 -131.333 64 -240.833 122 -328.5
s119.333 -131.5 184 -131.5c33.333 0 60.333 10.167 81 30.5s31 45.5 31 75.5c0 50 -12.167 102.167 -36.5 156.5s-60.833 110.833 -109.5 169.5h436v182h-892v146h1266v-146h-214v-854h-160v528zM192 -67.999c-24 0 -44.333 8.5 -61 25.5s-25 37.833 -25 62.5
c0 24 8.33301 44.333 25 61s37 25 61 25c24.667 0 45.5 -8.33301 62.5 -25s25.5 -37 25.5 -61s-8.66699 -44.667 -26 -62s-38 -26 -62 -26z" />
    <glyph glyph-name="u095C" unicode="&#x95c;" horiz-adv-x="1004" 
d="M608 16c-120.667 0 -232.165 40.667 -334.498 122s-184.833 191.333 -247.5 330l136 64c38.667 -107.333 99 -196.833 181 -268.5s170.333 -107.5 265 -107.5c50.667 0 95 13.833 133 41.5s57 62.5 57 104.5c0 19.333 -3.66699 33.833 -11 43.5s-18.333 14.5 -33 14.5
c-22 0 -55.333 -5.33301 -100 -16s-78.667 -16 -102 -16c-41.333 0 -94 32.667 -158 98s-96 121.333 -96 168c0 50.667 14.333 88.667 43 114s71.667 38 129 38h228v108h-704v146h1080v-146h-216v-236h-342c-33.333 0 -50 -12 -50 -36c0 -17.333 14 -40 42 -68
s50.667 -42 68 -42c19.333 0 50.666 6.66699 93.999 20c39.333 12 70.666 18 93.999 18c56 0 101.333 -19.667 136 -59s52 -87 52 -143c0 -83.333 -34.333 -152.833 -103 -208.5s-149 -83.5 -241 -83.5zM605.002 -255c-24 0 -44.333 8.5 -61 25.5s-25 37.833 -25 62.5
c0 24 8.33301 44.333 25 61s37 25 61 25c24.667 0 45.5 -8.33301 62.5 -25s25.5 -37 25.5 -61s-8.66699 -44.667 -26 -62s-38 -26 -62 -26z" />
    <glyph glyph-name="u095D" unicode="&#x95d;" horiz-adv-x="902" 
d="M291 248c48.667 -48.667 108.999 -78 180.999 -88c-40 40 -60 86 -60 138c0 54.667 19.667 100.334 59 137.001s89 55 149 55c68.667 0 124.167 -20.5 166.5 -61.5s63.5 -91.833 63.5 -152.5c0 -72 -30.833 -132.667 -92.5 -182s-136.167 -74 -223.5 -74
c-139.333 0 -252.833 37.333 -340.5 112s-131.5 170 -131.5 286c0 81.333 29.833 150.333 89.5 207s131.167 85 214.5 85h196v144h-568v146h978v-146h-250v-290h-354c-43.333 0 -79.166 -14.167 -107.499 -42.5s-42.5 -62.833 -42.5 -103.5
c0 -64.667 24.333 -121.334 73 -170.001zM711.999 278c0 28.667 -6.83301 50.167 -20.5 64.5s-34.167 21.5 -61.5 21.5c-28.667 0 -50.167 -7.33301 -64.5 -22s-21.5 -36.667 -21.5 -66c0 -44.667 22.667 -80.667 68 -108c66.667 17.333 100 54 100 110zM524.999 -255
c-24 0 -44.333 8.5 -61 25.5s-25 37.833 -25 62.5c0 24 8.33301 44.333 25 61s37 25 61 25c24.667 0 45.5 -8.33301 62.5 -25s25.5 -37 25.5 -61s-8.66699 -44.667 -26 -62s-38 -26 -62 -26z" />
    <glyph glyph-name="u095E" unicode="&#x95e;" horiz-adv-x="1186" 
d="M332 268c-80 0 -142.332 24.666 -186.999 73.999s-67 117.333 -67 204v308h-84v146h1262v-146h-600v-192c49.333 61.333 115.333 92 198 92c78.667 0 141.667 -26.333 189 -79s71 -123.667 71 -213c0 -138.667 -52 -268 -156 -388l-136 90
c90.667 90.667 136 187.334 136 290.001c0 42.667 -11.333 77 -34 103s-54 39 -94 39c-64.667 0 -122.667 -39.333 -174 -118v-478h-160v352c-44.667 -56 -99.334 -84 -164.001 -84zM496.001 523.999l-0.000976562 330h-256v-304c0 -45.333 9.16699 -79.333 27.5 -102
s45.833 -34 82.5 -34c52.667 0 101.334 36.667 146.001 110zM282 -72.001c-24 0 -44.333 8.5 -61 25.5s-25 37.833 -25 62.5c0 24 8.33301 44.333 25 61s37 25 61 25c24.667 0 45.5 -8.33301 62.5 -25s25.5 -37 25.5 -61s-8.66699 -44.667 -26 -62s-38 -26 -62 -26z" />
    <glyph glyph-name="u095F" unicode="&#x95f;" horiz-adv-x="942" 
d="M412 164c-107.333 0 -196.502 40.999 -267.502 122.999s-106.5 180.333 -106.5 295c36.667 -12 67.334 -18 92.001 -18c46.667 0 84.334 12.833 113.001 38.5s43 60.834 43 105.501c0 56 -22.667 104.667 -68 146h-224v146h1018v-146h-214v-854h-160v252
c-58.667 -58.667 -134 -88 -226 -88zM637.998 423.999v430.001h-258c42.667 -38.667 64 -91.334 64 -158.001c0 -66 -21 -121 -63 -165s-98.333 -70.333 -169 -79c15.333 -42 42.666 -76.167 81.999 -102.5s81.333 -39.5 126 -39.5c90.667 0 163.334 38 218.001 114z
M292.998 -68c-24 0 -44.333 8.5 -61 25.5s-25 37.833 -25 62.5c0 24 8.33301 44.333 25 61s37 25 61 25c24.667 0 45.5 -8.33301 62.5 -25s25.5 -37 25.5 -61s-8.66699 -44.667 -26 -62s-38 -26 -62 -26z" />
    <glyph glyph-name="u0960" unicode="&#x960;" horiz-adv-x="1412" 
d="M810 402v-402.001h-160v324l-478 -260l-70 136l444 230c-98 106.667 -176 160 -234 160c-57.333 0 -126 -31.333 -206 -94l-74 136c92.667 78.667 189.334 118 290.001 118c98 0 207.333 -74 328 -222v326h-656v146h1488v-146h-672v-286l162 86
c0 35.333 12.5 65.833 37.5 91.5s55.833 38.5 92.5 38.5c34 0 61.5 -11.333 82.5 -34s31.5 -50 31.5 -82c0 -22 -6.66699 -42.167 -20 -60.5s-33.333 -34.833 -60 -49.5l82 -158c-38 -4 -71.833 -19 -101.5 -45s-44.5 -56.333 -44.5 -91c0 -38.667 15 -70.667 45 -96
s68.333 -38 115 -38c42.667 0 80 9.33301 112 28l54 -118c-50 -30.667 -107.333 -46 -172 -46c-90.667 0 -164.667 25.333 -222 76s-86 113.334 -86 188.001c0 39.333 11.167 76.833 33.5 112.5s51.166 62.167 86.499 79.5l-26 58zM954 19.999z" />
    <glyph glyph-name="u0961" unicode="&#x961;" horiz-adv-x="1148" 
d="M930 388c0 50.667 -11.332 91 -33.999 121s-51.334 45 -86.001 45c-42 0 -84 -24.167 -126 -72.5s-72.667 -107.5 -92 -177.5l-124 64c10 48 28.667 91.333 56 130c-30.667 49.333 -75.334 74 -134.001 74c-51.333 0 -92.5 -15.333 -123.5 -46s-46.5 -72.667 -46.5 -126
c0 -62.667 26.167 -120 78.5 -172s119.5 -91.333 201.5 -118l-74 -120c-109.333 39.333 -197.333 95.666 -264 168.999s-100 153.666 -100 240.999c0 94 31.167 170.5 93.5 229.5s140.5 88.5 234.5 88.5s168 -38 222 -114c44 48.667 97.333 79.334 160 92.001v158h-778v146
h1224v-146h-296v-160c55.333 -24.667 96.833 -61.834 124.5 -111.501s41.5 -111.834 41.5 -186.501c0 -90.667 -21.333 -162.167 -64 -214.5s-106.667 -85.5 -192 -99.5c-74.667 -12 -112 -34.667 -112 -68c0 -21.333 6.83301 -37.333 20.5 -48s34.167 -16 61.5 -16h64v-110
h-70c-28 0 -49 -4.5 -63 -13.5s-21 -22.5 -21 -40.5c0 -19.333 9.33301 -33.833 28 -43.5s46.667 -14.5 84 -14.5c50.667 0 99.334 16 146.001 48l52 -106c-58 -40 -128 -60 -210 -60c-67.333 0 -124.833 15.5 -172.5 46.5s-71.5 69.5 -71.5 115.5
c0 62.667 36.667 105.334 110 128.001c-62.667 18 -94 56.667 -94 116c0 40.667 16.333 75.334 49 104.001s81.667 51.334 147 68.001c50 12.667 87.5 35.667 112.5 69s37.5 77 37.5 131zM456.001 -246z" />
    <glyph glyph-name="u0962" unicode="&#x962;" horiz-adv-x="0" 
d="M24 -152c0 38.667 -8.33398 67.668 -25.001 87.001s-41.667 29 -75 29c-28.667 0 -56.5 -14.167 -83.5 -42.5s-53.167 -70.833 -78.5 -127.5l-118 44l40 66c-30 40 -68.667 60 -116 60c-29.333 0 -54.333 -10.333 -75 -31s-31 -46.334 -31 -77.001
c0 -44.667 16.5 -83.5 49.5 -116.5s82.5 -60.167 148.5 -81.5l-56 -90c-83.333 24.667 -151.166 62.667 -203.499 114s-78.5 109.333 -78.5 174c0 64 24 117.333 72 160s106 64 174 64c80.667 0 141.334 -30 182.001 -90c44 60 106.667 90 188 90
c68.667 0 122.5 -21.5 161.5 -64.5s58.5 -100.833 58.5 -173.5c0 -60 -21.333 -111.333 -64 -154s-96 -68 -160 -76c-68 -8.66699 -102 -34 -102 -76c0 -24 11.833 -43 35.5 -57s51.167 -21 82.5 -21c41.333 0 80.666 9.33301 117.999 28l38 -88
c-62.667 -24 -114.667 -36 -156 -36c-73.333 0 -133.333 16.833 -180 50.5s-70 77.5 -70 131.5c0 55.333 16.167 98 48.5 128s80.833 47.333 145.5 52c38 3.33301 69.167 16.333 93.5 39s36.5 51 36.5 85zM-394.001 -245.999z" />
    <glyph glyph-name="u0963" unicode="&#x963;" horiz-adv-x="0" 
d="M24 -144c0 36 -8.33496 62.9951 -25.002 80.9951s-41.667 27 -75 27c-28.667 0 -56.5 -14.167 -83.5 -42.5s-53.167 -70.833 -78.5 -127.5l-118 44l40 66c-30 40 -68.667 60 -116 60c-29.333 0 -54.333 -10.333 -75 -31s-31 -46.334 -31 -77.001
c0 -44.667 16.5 -83.5 49.5 -116.5s82.5 -60.167 148.5 -81.5l-56 -90c-83.333 24.667 -151.166 62.667 -203.499 114s-78.5 109.333 -78.5 174c0 64 24 117.333 72 160s106 64 174 64c80.667 0 141.334 -30 182.001 -90c44 60 106.667 90 188 90c68 0 121.667 -20 161 -60
s59 -93.333 59 -160c0 -57.333 -18.167 -102.666 -54.5 -135.999s-90.833 -54.666 -163.5 -63.999c-70.667 -8.66699 -106 -23.334 -106 -44.001c0 -12.667 6.66699 -22.167 20 -28.5s33.333 -9.5 60 -9.5h58v-78h-50c-32 0 -56 -3 -72 -9s-24 -15 -24 -27
c0 -14.667 7.83301 -25.667 23.5 -33s39.167 -11 70.5 -11c60 0 112 12.667 156 38l50 -82c-54.667 -30.667 -124 -46 -208 -46c-72 0 -127.667 11.333 -167 34s-59 52 -59 88c0 22.667 6.66699 41.334 20 56.001s33.333 25.334 60 32.001
c-22.667 4.66699 -39.667 13.834 -51 27.501s-17 31.834 -17 54.501c0 34 16.167 61.333 48.5 82s80.833 34.667 145.5 42c84 10.667 126 47.334 126 110.001zM-384.002 -246.005z" />
    <glyph glyph-name="u0964" unicode="&#x964;" horiz-adv-x="462" 
d="M322 0h-182v1000h182v-1000z" />
    <glyph glyph-name="u0965" unicode="&#x965;" horiz-adv-x="862" 
d="M722 0h-182v1000h182v-1000zM322 0h-182v1000h182v-1000z" />
    <glyph glyph-name="u0966" unicode="&#x966;" horiz-adv-x="1000" 
d="M500 128c-104.667 0 -194.5 36.5 -269.5 109.5s-112.5 160.5 -112.5 262.5c0 104 37.333 192.333 112 265s164.667 109 270 109s195.333 -36.333 270 -109s112 -161 112 -265c0 -102 -37.5 -189.5 -112.5 -262.5s-164.833 -109.5 -269.5 -109.5zM500 728
c-55.333 0 -102.5 -22.5 -141.5 -67.5s-58.5 -98.5 -58.5 -160.5c0 -61.333 20 -114.666 60 -159.999s86.667 -68 140 -68c54 0 100.833 22.167 140.5 66.5s59.5 98.166 59.5 161.499c0 64 -19.333 118 -58 162s-86 66 -142 66z" />
    <glyph glyph-name="u0967" unicode="&#x967;" horiz-adv-x="998" 
d="M802 -54h-164.001v552c-34.667 -29.333 -80 -44 -136 -44c-83.333 0 -155.166 28.5 -215.499 85.5s-90.5 125.167 -90.5 204.5c0 86 29.833 159.167 89.5 219.5s131.834 90.5 216.501 90.5c83.333 0 154.166 -30.167 212.499 -90.5s87.5 -133.5 87.5 -219.5v-798z
M501.999 888c-38.667 0 -71 -14.167 -97 -42.5s-39 -62.166 -39 -101.499s13.167 -73.166 39.5 -101.499s58.5 -42.5 96.5 -42.5s70.167 14.167 96.5 42.5s39.5 62.166 39.5 101.499s-13 73.166 -39 101.499s-58.333 42.5 -97 42.5zM235.999 1068z" />
    <glyph glyph-name="u0968" unicode="&#x968;" horiz-adv-x="998" 
d="M572 260l208 -310l-144 -80l-218 344c-62 0 -115.5 13.333 -160.5 40s-67.5 58.667 -67.5 96c0 32.667 11.5 60.834 34.5 84.501s50.833 35.5 83.5 35.5c58.667 0 113.334 -30.667 164.001 -92c56 20 100.333 57 133 111s49 114.333 49 181
c0 60.667 -18.833 112.167 -56.5 154.5s-83.5 63.5 -137.5 63.5c-79.333 0 -148 -24.667 -206 -74l-92 114c78.667 77.333 178 116 298 116c104 0 192.667 -36.333 266 -109s110 -161 110 -265c0 -80.667 -23.333 -157.334 -70 -230.001s-111.334 -132.667 -194.001 -180z
M166 1068z" />
    <glyph glyph-name="u0969" unicode="&#x969;" horiz-adv-x="998" 
d="M558 10c28 -40 73.335 -97.3379 136.002 -172.005l-126 -92c-45.333 38.667 -106 123.334 -182 254.001c-50 8.66699 -92.833 26.834 -128.5 54.501s-53.5 58.167 -53.5 91.5c0 36.667 11.833 68.5 35.5 95.5s51.167 40.5 82.5 40.5
c59.333 0 116.666 -46.667 171.999 -140c42.667 15.333 77.667 40.166 105 74.499s41 71.5 41 111.5c0 46 -22.833 84.833 -68.5 116.5s-101.5 47.5 -167.5 47.5h-54l-56 128c73.333 0 141.666 12.833 204.999 38.5s95 60.834 95 105.501c0 31.333 -14.833 57.5 -44.5 78.5
s-66.167 31.5 -109.5 31.5c-68 0 -128.667 -18.667 -182 -56l-72 118c94.667 56 179.334 84 254.001 84c92 0 169.667 -24.833 233 -74.5s95 -110.167 95 -181.5c0 -45.333 -13.833 -86.166 -41.5 -122.499s-63.167 -62.166 -106.5 -77.499
c59.333 -22 106.166 -54.167 140.499 -96.5s51.5 -88.833 51.5 -139.5c0 -68 -23.667 -131.167 -71 -189.5s-108.333 -101.166 -183 -128.499zM236.002 1068z" />
    <glyph glyph-name="u096A" unicode="&#x96a;" horiz-adv-x="998" 
d="M630 532c55.333 -26 98.167 -63.5039 128.5 -112.504s45.5 -104.167 45.5 -165.5c0 -72.667 -29 -133.167 -87 -181.5s-126.333 -72.5 -205 -72.5c-79.333 0 -147.5 24.833 -204.5 74.5s-85.5 108.834 -85.5 177.501c0 54.667 12.5 106.167 37.5 154.5
s60.5 88.833 106.5 121.5c-75.333 43.333 -134.833 94.833 -178.5 154.5s-65.5 117.5 -65.5 173.5c0 68.667 29.333 128.667 88 180l140 -54c-42.667 -44 -64 -86.667 -64 -128c0 -48 19 -95.167 57 -141.5s88.333 -83.833 151 -112.5c68 31.333 121.333 70 160 116
s58 92.667 58 140c0 35.333 -25.333 74 -76 116l152 64c58.667 -39.333 88 -100.666 88 -183.999c0 -59.333 -20.5 -115.666 -61.5 -168.999s-102.5 -103.666 -184.5 -150.999zM494.001 449.996c-33.333 -16 -59.666 -42 -78.999 -78s-29 -75.333 -29 -118
c0 -33.333 12.667 -62.666 38 -87.999s54.666 -38 87.999 -38c34 0 63.167 12.5 87.5 37.5s36.5 54.5 36.5 88.5c0 85.333 -47.333 150.666 -142 195.999zM496.001 1068z" />
    <glyph glyph-name="u096B" unicode="&#x96b;" horiz-adv-x="1000" 
d="M728 -130l-128 99.999c33.333 12 60 31.333 80 58s30 54.667 30 84c0 16.667 -6 43.334 -18 80.001l-74 226c-48.667 -20 -97.334 -30 -146.001 -30c-99.333 0 -181.5 36.167 -246.5 108.5s-97.5 157.5 -97.5 255.5c0 126 36 232 108 318l128 -82
c-49.333 -50.667 -74 -129.334 -74 -236.001c0 -58 17 -108.833 51 -152.5s77.667 -65.5 131 -65.5c40.667 0 76 6 106 18c-21.333 48 -32 96.667 -32 146c0 50 14.833 92.833 44.5 128.5s66.167 53.5 109.5 53.5c32.667 0 60.5 -15.667 83.5 -47s34.5 -70.333 34.5 -117
c0 -74 -24 -140.667 -72 -200l110 -362c10.667 -35.333 16 -72.666 16 -111.999c0 -36 -13.667 -69.833 -41 -101.5s-61.666 -55.167 -102.999 -70.5z" />
    <glyph glyph-name="u096C" unicode="&#x96c;" horiz-adv-x="1000" 
d="M718 28c0 -33.333 10.335 -70 31.002 -110s47 -76 79 -108l-128 -82c-81.333 82.667 -126.666 176.667 -135.999 282c-100.667 18 -184.834 56.167 -252.501 114.5s-101.5 122.833 -101.5 193.5c0 89.333 33.333 162 100 218c-104 60.667 -156 133.334 -156 218.001
c0 70.667 31.667 131 95 181s141 75 233 75c48 0 96.667 -6.66699 146 -20l54 -144c-48 17.333 -114.667 26 -200 26c-40.667 0 -75.167 -11.833 -103.5 -35.5s-42.5 -51.167 -42.5 -82.5c0 -40 19.833 -74 59.5 -102s86.5 -42 140.5 -42h92l54 -128h-128
c-45.333 0 -84 -15.833 -116 -47.5s-48 -70.5 -48 -116.5c0 -44.667 17.833 -83.167 53.5 -115.5s78.5 -48.5 128.5 -48.5c15.333 42.667 38.166 77.667 68.499 105s62.166 41 95.499 41c30 0 55.833 -8.5 77.5 -25.5s32.5 -38.5 32.5 -64.5
c0 -41.333 -11.833 -78.833 -35.5 -112.5s-54.5 -56.834 -92.5 -69.501zM236.002 1068z" />
    <glyph glyph-name="u096D" unicode="&#x96d;" horiz-adv-x="1000" 
d="M146 946l163.999 72c-37.333 -212 -56 -381.333 -56 -508c0 -98.667 23.167 -184 69.5 -256s101.833 -108 166.5 -108c47.333 0 87.833 11.833 121.5 35.5s53.834 53.834 60.501 90.501c-71.333 6.66699 -131.5 41.667 -180.5 105s-73.5 137.666 -73.5 222.999
c0 81.333 23 151.666 69 210.999s101.667 89 167 89c66 0 121.833 -29 167.5 -87s68.5 -129 68.5 -213c0 -183.333 -36.333 -329.166 -109 -437.499s-169.667 -162.5 -291 -162.5c-104.667 0 -194.167 50 -268.5 150s-111.5 220 -111.5 360c0 154.667 12 300 36 436z
M745.999 564v90c0 31.333 -8.83301 57.5 -26.5 78.5s-39.5 31.5 -65.5 31.5c-28 0 -50 -17.167 -66 -51.5s-24 -71.833 -24 -112.5c0 -40 13.167 -79.833 39.5 -119.5s61.833 -72.5 106.5 -98.5c24 65.333 36 126 36 182zM435.999 1068z" />
    <glyph glyph-name="u096E" unicode="&#x96e;" horiz-adv-x="1000" 
d="M854 146c-116.667 -97.333 -225.332 -145.999 -325.999 -145.999c-102.667 0 -192 31.167 -268 93.5s-114 140.5 -114 234.5c0 41.333 12 85.5 36 132.5s54 87.5 90 121.5l438 418l118 -100l-428 -410c-12.667 -12 -30.834 -36.833 -54.501 -74.5
s-35.5 -66.834 -35.5 -87.501c0 -50 21.5 -92.833 64.5 -128.5s94.167 -53.5 153.5 -53.5c71.333 0 150 36 236 108zM436.002 1068z" />
    <glyph glyph-name="u096F" unicode="&#x96f;" horiz-adv-x="1000" 
d="M664 -130l-82 112.001c30 5.33301 55.5 15.666 76.5 30.999s31.5 32.333 31.5 51c0 54.667 -8.66699 90.667 -26 108l-446 446c-22 22 -39.5 50.833 -52.5 86.5s-19.5 73.5 -19.5 113.5c0 82 30.167 151.167 90.5 207.5s132.833 84.5 217.5 84.5
c80.667 0 149.5 -28.5 206.5 -85.5s85.5 -125.833 85.5 -206.5s-22.833 -150.834 -68.5 -210.501s-101.5 -92.167 -167.5 -97.5l290 -292c36 -36 54 -84.667 54 -146c0 -48.667 -18.167 -92.167 -54.5 -130.5s-81.5 -62.166 -135.5 -71.499zM454 982.001
c-40.667 0 -74.833 -16.167 -102.5 -48.5s-41.5 -71.5 -41.5 -117.5c0 -48 12.5 -90 37.5 -126s54.5 -54 88.5 -54c42 0 78.167 17.5 108.5 52.5s45.5 78.167 45.5 129.5c0 43.333 -12.833 81.5 -38.5 114.5s-58.167 49.5 -97.5 49.5zM826.001 1068z" />
    <glyph glyph-name="u0970" unicode="&#x970;" horiz-adv-x="836" 
d="M420 -10c-76.667 0 -142.498 25.668 -197.498 77.001s-82.5 114.333 -82.5 189c0 74 27.167 136.5 81.5 187.5s120.5 76.5 198.5 76.5c77.333 0 142.666 -25.333 195.999 -76s80 -113.334 80 -188.001c0 -74 -26.833 -136.833 -80.5 -188.5
s-118.834 -77.5 -195.501 -77.5zM420.002 400.001c-33.333 0 -61 -14.333 -83 -43s-33 -62.334 -33 -101.001c0 -35.333 11.167 -65.833 33.5 -91.5s49.833 -38.5 82.5 -38.5s60.167 12.833 82.5 38.5s33.5 56.167 33.5 91.5c0 38.667 -11 72.334 -33 101.001
s-49.667 43 -83 43z" />
    <glyph glyph-name="HighSpacingDot" unicode="&#x971;" horiz-adv-x="574" 
d="M321 842c-24 0 -44.333 8.5 -61 25.5s-25 37.833 -25 62.5c0 24 8.33301 44.333 25 61s37 25 61 25c24.667 0 45.5 -8.33301 62.5 -25s25.5 -37 25.5 -61s-8.66699 -44.667 -26 -62s-38 -26 -62 -26z" />
    <glyph glyph-name="CandraA" unicode="&#x972;" horiz-adv-x="1190" 
d="M1046 854l0.00195312 -854.002h-160v428c-28.667 -18.667 -56 -28 -82 -28c-34 0 -70.667 17.333 -110 52c25.333 -32 38 -73.333 38 -124c0 -75.333 -25.167 -137.166 -75.5 -185.499s-113.166 -72.5 -188.499 -72.5c-90.667 0 -175.334 37.667 -254.001 113
s-139.334 171 -182.001 287l124 58c34.667 -94.667 78.667 -171.667 132 -231s109.333 -89 168 -89c38.667 0 70.334 12.833 95.001 38.5s37 58.834 37 99.501c0 44.667 -16.333 82.834 -49 114.501s-74.334 47.5 -125.001 47.5c-27.333 0 -54 -3.33301 -80 -10l-30 120
c66.667 9.33301 116.667 26.333 150 51s50 57 50 97c0 29.333 -9.83301 54.666 -29.5 75.999s-44.5 32 -74.5 32c-78 0 -152.667 -42.667 -224 -128l-80 104c88.667 105.333 194.667 158 318 158c74 0 134.833 -21.5 182.5 -64.5s71.5 -98.167 71.5 -165.5
c0 -75.333 -35.333 -132 -106 -170c89.333 -53.333 168.666 -80 237.999 -80c33.333 0 62 12 86 36v290h-160v146h534v-146h-214zM1031 1420c-14.667 -84.667 -54.498 -154.167 -119.498 -208.5s-140.5 -81.5 -226.5 -81.5c-85.333 0 -160.333 27.167 -225 81.5
s-104.334 123.833 -119.001 208.5h164c8 -46 28.833 -84.167 62.5 -114.5s73.5 -45.5 119.5 -45.5c45.333 0 84.666 15 117.999 45s54 68.333 62 115h164z" />
    <glyph glyph-name="fullGga" unicode="&#x97b;" horiz-adv-x="866" 
d="M562 854h-218v-450c0 -20.667 -6 -39.167 -18 -55.5s-27.333 -24.5 -46 -24.5c-28.667 0 -78.167 33 -148.5 99s-105.5 113 -105.5 141c0 36 15.333 54 46 54h68c26.667 0 40 18 40 54v182h-186v146h942v-146h-214v-854h-160v854zM858 -217h-852v118h852v-118z" />
    <glyph glyph-name="fullJja" unicode="&#x97c;" horiz-adv-x="1190" 
d="M886 528l-178 0.000976562c33.333 -52.667 50 -114 50 -184c0 -72.667 -25.833 -133.167 -77.5 -181.5s-117.167 -72.5 -196.5 -72.5c-102.667 0 -193.5 50.167 -272.5 150.5s-136.167 238.166 -171.5 413.499l138 46c23.333 -131.333 64 -240.833 122 -328.5
s119.333 -131.5 184 -131.5c33.333 0 60.333 10.167 81 30.5s31 45.5 31 75.5c0 50 -12.167 102.167 -36.5 156.5s-60.833 110.833 -109.5 169.5h436v182h-892v146h1266v-146h-214v-854h-160v528zM1013 -216.999h-852v118h852v-118z" />
    <glyph glyph-name="u097D" unicode="&#x97d;" horiz-adv-x="952" 
d="M526 530l-0.00195312 -206.003h-166v306c84 12.667 151.333 39.834 202 81.501s76 92.5 76 152.5c0 48.667 -16.167 87.834 -48.5 117.501s-73.5 44.5 -123.5 44.5c-86 0 -166.667 -39.333 -242 -118l-94 140c96.667 94.667 211.334 142 344.001 142
c102 0 185.167 -28 249.5 -84s96.5 -130.667 96.5 -224c0 -87.333 -27.167 -163.666 -81.5 -228.999s-125.166 -106.333 -212.499 -123z" />
    <glyph glyph-name="fullDdda" unicode="&#x97e;" horiz-adv-x="1004" 
d="M608 16c-120.667 0 -232.165 40.667 -334.498 122s-184.833 191.333 -247.5 330l136 64c38.667 -107.333 99 -196.833 181 -268.5s170.333 -107.5 265 -107.5c50.667 0 95 13.833 133 41.5s57 62.5 57 104.5c0 19.333 -3.66699 33.833 -11 43.5s-18.333 14.5 -33 14.5
c-22 0 -55.333 -5.33301 -100 -16s-78.667 -16 -102 -16c-41.333 0 -94 32.667 -158 98s-96 121.333 -96 168c0 50.667 14.333 88.667 43 114s71.667 38 129 38h228v108h-704v146h1080v-146h-216v-236h-342c-33.333 0 -50 -12 -50 -36c0 -17.333 14 -40 42 -68
s50.667 -42 68 -42c19.333 0 50.666 6.66699 93.999 20c39.333 12 70.666 18 93.999 18c56 0 101.333 -19.667 136 -59s52 -87 52 -143c0 -83.333 -34.333 -152.833 -103 -208.5s-149 -83.5 -241 -83.5zM919.002 -217h-852v118h852v-118z" />
    <glyph glyph-name="fullBba" unicode="&#x97f;" horiz-adv-x="870" 
d="M354 184c-88.667 0 -160.833 27.668 -216.5 83.001s-83.5 125.666 -83.5 210.999s29.333 156 88 212s134.667 84 228 84c60.667 0 112.667 -15.333 156 -46l-54 -126c-30 25.333 -64.667 38 -104 38c-28.667 0 -54 -5.33301 -76 -16l254 -220c5.33301 6 12 14.667 20 26
v424h-572v146h946v-146h-214v-854h-160v268c-53.333 -56 -124 -84 -212 -84zM458.001 340.001l-236 206c-8 -20.667 -12 -42.667 -12 -66c0 -45.333 15 -83 45 -113s69 -45 117 -45c30 0 58.667 6 86 18zM862.001 -216.999h-852v118h852v-118z" />
    <glyph glyph-name="u200C" unicode="&#x200c;" horiz-adv-x="0" 
d="M80 -490h-80v1990h80v-1990z" />
    <glyph glyph-name="u200D" unicode="&#x200d;" horiz-adv-x="0" 
d="M360 1420h-280v-1910h-80v1990h360v-80z" />
    <glyph glyph-name="u2013" unicode="&#x2013;" 
d="M-3 305v150h816v-150h-816z" />
    <glyph glyph-name="u2014" unicode="&#x2014;" horiz-adv-x="1466" 
d="M0 305v150h1466v-150h-1466z" />
    <glyph glyph-name="u2018" unicode="&#x2018;" horiz-adv-x="407" 
d="M310 624l-201.001 -0.00195312v144c0 58.667 5.16699 104.834 15.5 138.501s29.333 63.834 57 90.501s62.834 47.667 105.501 63l39 -83c-40 -13.333 -68.667 -32 -86 -56s-26.333 -55.667 -27 -95h97v-202z" />
    <glyph glyph-name="u2019" unicode="&#x2019;" horiz-adv-x="407" 
d="M100 1047l201 0.00195312v-144c0 -58 -5 -103.833 -15 -137.5s-28.833 -63.834 -56.5 -90.501s-63.167 -47.667 -106.5 -63l-39 83c40.667 13.333 69.5 31.666 86.5 54.999s26.167 55.333 27.5 96h-98v201z" />
    <glyph glyph-name="quotesinglbase" unicode="&#x201a;" horiz-adv-x="407" 
d="M100 201l201 0.00195312v-144c0 -58 -5 -103.833 -15 -137.5s-28.833 -63.834 -56.5 -90.501s-63.167 -47.667 -106.5 -63l-39 83c40.667 13.333 69.5 31.666 86.5 54.999s26.167 55.333 27.5 96h-98v201z" />
    <glyph glyph-name="u201C" unicode="&#x201c;" horiz-adv-x="733" 
d="M296 624l-201.001 -0.00195312v144c0 58.667 5 104.834 15 138.501s28.833 63.834 56.5 90.501s63.167 47.667 106.5 63l39 -83c-40 -13.333 -68.667 -32 -86 -56s-26.666 -55.667 -27.999 -95h98v-202zM631.999 623.998l-202.001 -0.00195312v144
c0 58.667 5.16699 104.834 15.5 138.501s29.5 63.834 57.5 90.501s63.333 47.667 106 63l39 -83c-40 -13.333 -68.667 -32 -86 -56s-26.666 -55.667 -27.999 -95h98v-202z" />
    <glyph glyph-name="u201D" unicode="&#x201d;" horiz-adv-x="733" 
d="M430 1050l201 0.000976562v-145c0 -58 -5.16699 -103.833 -15.5 -137.5s-29.5 -63.834 -57.5 -90.501s-63 -47.667 -105 -63l-40 83c40 13.333 68.833 32 86.5 56s26.5 55.667 26.5 95h-96v202zM92 1050l201 0.000976562v-145c0 -58 -5 -103.833 -15 -137.5
s-29 -63.834 -57 -90.501s-63.333 -47.667 -106 -63l-40 83c40.667 13.333 69.667 32 87 56s26.333 55.667 27 95h-97v202z" />
    <glyph glyph-name="quotedblbase" unicode="&#x201e;" horiz-adv-x="733" 
d="M430 202l201 0.000976562v-145c0 -58 -5.16699 -103.833 -15.5 -137.5s-29.5 -63.834 -57.5 -90.501s-63 -47.667 -105 -63l-40 83c40 13.333 68.833 32 86.5 56s26.5 55.667 26.5 95h-96v202zM92 202.001l201 0.000976562v-145c0 -58 -5 -103.833 -15 -137.5
s-29 -63.834 -57 -90.501s-63.333 -47.667 -106 -63l-40 83c40.667 13.333 69.667 32 87 56s26.333 55.667 27 95h-97v202z" />
    <glyph glyph-name="dagger" unicode="&#x2020;" 
d="M310 -251v845h-261v166h261v277h188v-277h260v-166h-260v-845h-188z" />
    <glyph glyph-name="daggerdbl" unicode="&#x2021;" 
d="M312 -251v239h-263v167h263v469h-263v167h263v246h188v-246h258v-167h-258v-469h258v-167h-258v-239h-188z" />
    <glyph glyph-name="bullet" unicode="&#x2022;" horiz-adv-x="513" 
d="M470 518c0 -58.667 -20.5 -108.667 -61.5 -150s-90.833 -62 -149.5 -62s-108.667 20.833 -150 62.5s-62 91.5 -62 149.5c0 58.667 20.667 108.667 62 150s91.333 62 150 62s108.5 -20.667 149.5 -62s61.5 -91.333 61.5 -150z" />
    <glyph glyph-name="u2026" unicode="&#x2026;" horiz-adv-x="1466" 
d="M1121 0v201h202v-201h-202zM633 0v201h201v-201h-201zM144 0v201h201v-201h-201z" />
    <glyph glyph-name="perthousand" unicode="&#x2030;" horiz-adv-x="1466" 
d="M1 801c0 88.667 19.3311 155.334 57.998 200.001s88.334 67 149.001 67s110.334 -22 149.001 -66s58 -111.333 58 -202c0 -98.667 -19.167 -170.334 -57.5 -215.001s-88.5 -67 -150.5 -67c-62.667 0 -112.667 21.667 -150 65s-56 116 -56 218zM139.998 793
c0 -50.667 3.66699 -88.667 11 -114c5.33301 -18 12.833 -30.833 22.5 -38.5s20.5 -11.5 32.5 -11.5c12.667 0 23.667 3.83301 33 11.5s17 20.5 23 38.5c7.33301 25.333 11 63.333 11 114c0 50 -3.66699 87.667 -11 113c-6 18 -13.667 30.833 -23 38.5
s-20.333 11.5 -33 11.5c-12 0 -22.667 -3.83301 -32 -11.5s-17 -20.5 -23 -38.5c-7.33301 -25.333 -11 -63 -11 -113zM199.998 -37l439 1105h141l-438 -1105h-142zM571.998 242c0 88.667 19.333 155.168 58 199.501s88.667 66.5 150 66.5c60.667 0 110 -21.833 148 -65.5
s57 -110.834 57 -201.501c0 -99.333 -19 -171.333 -57 -216s-88 -67 -150 -67c-62.667 0 -112.667 21.833 -150 65.5s-56 116.5 -56 218.5zM710.998 233.001c0 -50 3.66699 -87.665 11 -112.998c5.33301 -18 13 -30.833 23 -38.5s21 -11.5 33 -11.5
c11.333 0 22 3.66699 32 11s17.667 20.333 23 39c7.33301 25.333 11 63 11 113s-3.66699 88 -11 114c-5.33301 18 -13 30.833 -23 38.5s-20.667 11.5 -32 11.5c-12 0 -23 -3.83301 -33 -11.5s-17.667 -20.834 -23 -39.501c-7.33301 -24.667 -11 -62.334 -11 -113.001z
M1052 242.003c0 88.667 19.3311 155.168 57.998 199.501s88.334 66.5 149.001 66.5s110.334 -21.833 149.001 -65.5s58 -110.834 58 -201.501c0 -99.333 -19.167 -171.333 -57.5 -216s-88.5 -67 -150.5 -67c-62.667 0 -112.667 21.833 -150 65.5s-56 116.5 -56 218.5z
M1191 233.004c0 -48 1.00293 -77.3311 3.00293 -87.998c4 -26 11.667 -45.167 23 -57.5s24.666 -18.5 39.999 -18.5c11.333 0 22.166 4 32.499 12s18.166 21 23.499 39c7.33301 25.333 11 63 11 113s-3.66699 88 -11 114c-5.33301 18 -12.833 30.833 -22.5 38.5
s-20.5 11.5 -32.5 11.5c-12.667 0 -23.667 -3.83301 -33 -11.5s-17 -20.834 -23 -39.501c-7.33301 -24.667 -11 -62.334 -11 -113.001z" />
    <glyph glyph-name="guilsinglleft" unicode="&#x2039;" horiz-adv-x="488" 
d="M438 704l-186 -323l186 -331h-158l-226 331l226 323h158z" />
    <glyph glyph-name="guilsinglright" unicode="&#x203a;" horiz-adv-x="488" 
d="M54 50l186 324l-186 330h158l226 -330l-226 -324h-158z" />
    <glyph glyph-name="Rupee" unicode="&#x20a8;" horiz-adv-x="1894" 
d="M107 0l-0.00195312 1050h446c112.667 0 194.334 -9.5 245.001 -28.5s91.334 -52.667 122.001 -101s46 -103.5 46 -165.5c0 -78.667 -23.167 -143.667 -69.5 -195s-115.5 -83.666 -207.5 -96.999c46 -26.667 83.833 -56 113.5 -88s69.834 -88.667 120.501 -170l128 -205
h-253l-154 228c-54 82 -91 133.667 -111 155s-41.333 35.833 -64 43.5s-58.334 11.5 -107.001 11.5h-43v-438h-212zM318.998 605.999h157.001c102 0 165.667 4.33301 191 13s45.166 23.5 59.499 44.5s21.5 47.167 21.5 78.5c0 35.333 -9.5 63.833 -28.5 85.5
s-45.833 35.5 -80.5 41.5c-16.667 2 -68 3 -154 3h-166v-266zM1112 216.999l202.001 30.998c8.66699 -39.333 26.167 -69.166 52.5 -89.499s63.166 -30.5 110.499 -30.5c52 0 91 9.66699 117 29c18 13.333 27 31.333 27 54c0 14.667 -5 27 -15 37s-32.333 19 -67 27
c-162 36 -264.667 68.667 -308 98c-60.667 41.333 -91 98.333 -91 171c0 66 26 121.5 78 166.5s132.667 67.5 242 67.5c104 0 181.333 -17 232 -51s85.667 -84.333 105 -151l-190 -35c-8 30 -23.333 52.833 -46 68.5s-55 23.5 -97 23.5c-53.333 0 -91.333 -7.33301 -114 -22
c-15.333 -10.667 -23 -24.334 -23 -41.001c0 -14.667 6.66699 -27 20 -37c18 -13.333 80.667 -32.166 188 -56.499s182.333 -54.166 225 -89.499c42 -35.333 63 -85 63 -149c0 -70 -29.167 -130 -87.5 -180s-144.5 -75 -258.5 -75c-104 0 -186.167 21 -246.5 63
s-99.833 99 -118.5 171z" />
    <glyph glyph-name="Euro" unicode="&#x20ac;" 
d="M770 1024l-43.002 -197.999c-40 40 -99 60 -177 60s-141 -27.667 -189 -83c-27.333 -32 -46.666 -71.667 -57.999 -119h394l-23 -110h-385c-0.666992 -11.333 -1 -25.666 -1 -42.999c0 -16.667 0.333008 -34 1 -52h365l-23 -111h-327c12 -51.333 30.333 -91.333 55 -120
c48 -56.667 110.333 -85 187 -85c91.333 0 164.333 28.333 219 85v-219c-62 -31.333 -134.333 -47 -217 -47c-139.333 0 -254 47.667 -344 143c-61.333 65.333 -101.666 146.333 -120.999 243h-106l23 111h70c-0.666992 11.333 -1 23.666 -1 36.999
c0 21.333 0.666992 40.666 2 57.999h-94l23 110h85c20 95.333 60 175 120 239c90 96.667 208.667 145 356 145c80 0 149.667 -14.667 209 -44z" />
    <glyph glyph-name="trademark" unicode="&#x2122;" horiz-adv-x="1466" 
d="M336 463v485h-181v102h476v-102h-176v-485h-119zM702 463v587h185l107 -404l107 404h186v-587h-113v468l-127 -468h-108l-126 468v-468h-111z" />
    <glyph glyph-name="u2212" unicode="&#x2212;" horiz-adv-x="856" 
d="M61 424v188h734v-188h-734z" />
    <glyph glyph-name="periodcentered" unicode="&#x2219;" horiz-adv-x="549" 
d="M276 310c-55.333 0 -102.499 18.833 -141.499 56.5s-58.5 84.834 -58.5 141.501c0 56 19.333 103.333 58 142s86 58 142 58c55.333 0 102.166 -19.5 140.499 -58.5s57.5 -86.167 57.5 -141.5c0 -54.667 -19 -101.334 -57 -140.001s-85 -58 -141 -58z" />
    <glyph glyph-name="u25CC" unicode="&#x25cc;" horiz-adv-x="1360" 
d="M680 896c-18.667 0 -35.334 7.33301 -50.001 22s-22 31.334 -22 50.001c0 19.333 6.83301 36.166 20.5 50.499s30.834 21.5 51.501 21.5c21.333 0 38.666 -6.66699 51.999 -20s20 -30.666 20 -51.999c0 -20.667 -7.16699 -37.834 -21.5 -51.501
s-31.166 -20.5 -50.499 -20.5zM914 834c-18.667 0 -35.334 7.33301 -50.001 22s-22 31.334 -22 50.001c0 19.333 6.83301 36.166 20.5 50.499s30.834 21.5 51.501 21.5c21.333 0 38.666 -6.66699 51.999 -20s20 -30.666 20 -51.999
c0 -20.667 -7.16699 -37.834 -21.5 -51.501s-31.166 -20.5 -50.499 -20.5zM446 834c-18.667 0 -35.334 7.33301 -50.001 22s-22 31.334 -22 50.001c0 19.333 6.83301 36.166 20.5 50.499s30.834 21.5 51.501 21.5c21.333 0 38.666 -6.66699 51.999 -20
s20 -30.666 20 -51.999c0 -20.667 -7.16699 -37.834 -21.5 -51.501s-31.166 -20.5 -50.499 -20.5zM1086 662c-18.667 0 -35.334 7.33301 -50.001 22s-22 31.334 -22 50.001c0 19.333 6.83301 36.166 20.5 50.499s30.834 21.5 51.501 21.5
c21.333 0 38.666 -6.66699 51.999 -20s20 -30.666 20 -51.999c0 -20.667 -7.16699 -37.834 -21.5 -51.501s-31.166 -20.5 -50.499 -20.5zM276 662c-18.667 0 -35.334 7.33301 -50.001 22s-22 31.334 -22 50.001c0 19.333 6.83301 36.166 20.5 50.499
s30.834 21.5 51.501 21.5c21.333 0 38.666 -6.66699 51.999 -20s20 -30.666 20 -51.999c0 -20.667 -7.16699 -37.834 -21.5 -51.501s-31.166 -20.5 -50.499 -20.5zM1148 428c-18.667 0 -35.334 7.33301 -50.001 22s-22 31.334 -22 50.001
c0 19.333 6.83301 36.166 20.5 50.499s30.834 21.5 51.501 21.5c21.333 0 38.666 -6.66699 51.999 -20s20 -30.666 20 -51.999c0 -20.667 -7.16699 -37.834 -21.5 -51.501s-31.166 -20.5 -50.499 -20.5zM212 428c-18.667 0 -35.334 7.33301 -50.001 22
s-22 31.334 -22 50.001c0 19.333 6.83301 36.166 20.5 50.499s30.834 21.5 51.501 21.5c21.333 0 38.666 -6.66699 51.999 -20s20 -30.666 20 -51.999c0 -20.667 -7.16699 -37.834 -21.5 -51.501s-31.166 -20.5 -50.499 -20.5zM1086 194
c-18.667 0 -35.334 7.33301 -50.001 22s-22 31.334 -22 50.001c0 19.333 6.83301 36.166 20.5 50.499s30.834 21.5 51.501 21.5c21.333 0 38.666 -6.66699 51.999 -20s20 -30.666 20 -51.999c0 -20.667 -7.16699 -37.834 -21.5 -51.501s-31.166 -20.5 -50.499 -20.5z
M276 194c-18.667 0 -35.334 7.33301 -50.001 22s-22 31.334 -22 50.001c0 19.333 6.83301 36.166 20.5 50.499s30.834 21.5 51.501 21.5c21.333 0 38.666 -6.66699 51.999 -20s20 -30.666 20 -51.999c0 -20.667 -7.16699 -37.834 -21.5 -51.501s-31.166 -20.5 -50.499 -20.5
zM914 22c-19.333 0 -36.166 7.5 -50.499 22.5s-21.5 32.167 -21.5 51.5s6.83301 36.166 20.5 50.499s30.834 21.5 51.501 21.5c21.333 0 38.666 -6.66699 51.999 -20s20 -30.666 20 -51.999c0 -20.667 -6.83301 -38.167 -20.5 -52.5s-30.834 -21.5 -51.501 -21.5zM446 22
c-19.333 0 -36.166 7.5 -50.499 22.5s-21.5 32.167 -21.5 51.5s6.83301 36.166 20.5 50.499s30.834 21.5 51.501 21.5c21.333 0 38.666 -6.66699 51.999 -20s20 -30.666 20 -51.999c0 -20.667 -6.83301 -38.167 -20.5 -52.5s-30.834 -21.5 -51.501 -21.5zM680 -40
c-18.667 0 -35.334 7.33301 -50.001 22s-22 31.334 -22 50.001c0 19.333 6.83301 36.166 20.5 50.499s30.834 21.5 51.501 21.5c21.333 0 38.666 -6.66699 51.999 -20s20 -30.666 20 -51.999c0 -20.667 -7.16699 -37.834 -21.5 -51.501s-31.166 -20.5 -50.499 -20.5z" />
    <glyph glyph-name=".null" horiz-adv-x="0" 
 />
    <glyph glyph-name="nonmarkingreturn" horiz-adv-x="0" 
 />
    <glyph glyph-name="u09470902" horiz-adv-x="0" 
d="M-148 1000h-146l-418 406l106 92zM-126 1226c-24 0 -44.667 8.66699 -62 26s-26 38 -26 62s8.5 44.333 25.5 61s37.833 25 62.5 25c24 0 44.333 -8.33301 61 -25s25 -37 25 -61c0 -24.667 -8.33301 -45.5 -25 -62.5s-37 -25.5 -61 -25.5z" />
    <glyph glyph-name="u09470930094D" horiz-adv-x="0" 
d="M18 1386l-34.0029 -123.999c-33.333 18.667 -66.666 28 -99.999 28c-37.333 0 -67.666 -11.667 -90.999 -35s-35 -54.333 -35 -93c0 -42.667 16.667 -81.334 50 -116.001l44 -46h-146l-458 406l106 92l288 -286c0 58 23.333 106.833 70 146.5s102 59.5 166 59.5
c58.667 0 105.334 -10.667 140.001 -32z" />
    <glyph glyph-name="u09470930094D0902" horiz-adv-x="0" 
d="M18 1386l-34.0029 -123.999c-33.333 18.667 -66.666 28 -99.999 28c-37.333 0 -67.666 -11.667 -90.999 -35s-35 -54.333 -35 -93c0 -42.667 16.667 -81.334 50 -116.001l44 -46h-146l-458 406l106 92l288 -286c0 58 23.333 106.833 70 146.5s102 59.5 166 59.5
c58.667 0 105.334 -10.667 140.001 -32zM-48.0029 1026c-24 0 -44.333 8.5 -61 25.5s-25 37.833 -25 62.5c0 24 8.33301 44.333 25 61s37 25 61 25c24.667 0 45.5 -8.33301 62.5 -25s25.5 -37 25.5 -61s-8.66699 -44.667 -26 -62s-38 -26 -62 -26z" />
    <glyph glyph-name="u09480902" horiz-adv-x="0" 
d="M-218 1000h-172l-460 242l76 120l476 -354l-260 442l130 48zM-120 1238c-24 0 -44.667 8.66699 -62 26s-26 38 -26 62s8.5 44.333 25.5 61s37.833 25 62.5 25s45.5 -8.33301 62.5 -25s25.5 -37 25.5 -61s-8.66699 -44.667 -26 -62s-38 -26 -62 -26z" />
    <glyph glyph-name="u09480930094D" horiz-adv-x="0" 
d="M66 1382l-27.998 -119.998c-32.667 21.333 -69.334 32 -110.001 32c-42.667 0 -76.667 -13.167 -102 -39.5s-38 -60.5 -38 -102.5c0 -34.667 21.333 -85.334 64 -152.001h-198l-468 230l64 122l504 -334l-330 414l112 72l162 -258c10 51.333 35.667 93.166 77 125.499
s91.666 48.5 150.999 48.5c55.333 0 102 -12.667 140 -38z" />
    <glyph glyph-name="u09480930094D0902" horiz-adv-x="0" 
d="M66 1382l-27.998 -119.998c-32.667 21.333 -69.334 32 -110.001 32c-42.667 0 -76.667 -13.167 -102 -39.5s-38 -60.5 -38 -102.5c0 -34.667 21.333 -85.334 64 -152.001h-198l-468 230l64 122l504 -334l-330 414l112 72l162 -258c10 51.333 35.667 93.166 77 125.499
s91.666 48.5 150.999 48.5c55.333 0 102 -12.667 140 -38zM-31.998 1028c-24 0 -44.333 8.5 -61 25.5s-25 37.833 -25 62.5s8.33301 45.5 25 62.5s37 25.5 61 25.5s44.667 -8.66699 62 -26s26 -38 26 -62s-8.66699 -44.667 -26 -62s-38 -26 -62 -26z" />
    <glyph glyph-name="u0930094D" horiz-adv-x="0" 
d="M12 1384l-28 -121.998c-37.333 21.333 -72.666 32 -105.999 32c-32.667 0 -59.5 -10.667 -80.5 -32s-31.5 -48 -31.5 -80c0 -64.667 33.333 -125.334 100 -182.001h-146c-60 51.333 -90 114.666 -90 189.999c0 65.333 23.667 120 71 164s105.666 66 174.999 66
c56 0 101.333 -12 136 -36z" />
    <glyph glyph-name="u0930094D0902" horiz-adv-x="0" 
d="M12 1384l-28 -121.998c-37.333 21.333 -72.666 32 -105.999 32c-32.667 0 -59.5 -10.667 -80.5 -32s-31.5 -48 -31.5 -80c0 -64.667 33.333 -125.334 100 -182.001h-146c-60 51.333 -90 114.666 -90 189.999c0 65.333 23.667 120 71 164s105.666 66 174.999 66
c56 0 101.333 -12 136 -36zM-40 1026c-24 0 -44.333 8.5 -61 25.5s-25 37.833 -25 62.5c0 24 8.33301 44.333 25 61s37 25 61 25c24.667 0 45.5 -8.33301 62.5 -25s25.5 -37 25.5 -61s-8.66699 -44.667 -26 -62s-38 -26 -62 -26z" />
    <glyph glyph-name="u094D0930Alt" horiz-adv-x="0" 
d="M-222 272l-564 -290l-54 90l618 310v-110z" />
    <glyph glyph-name="u094D0930Default" horiz-adv-x="0" 
d="M124 -346h-146l-200 236l-172 -236h-154l254 346h146zM-224 -246z" />
    <glyph glyph-name="u0936094D0930" horiz-adv-x="1108" 
d="M580 416l-200.001 117.999l-266 -180l-92 118l234 144c-70.667 40 -106 102 -106 186c0 60 21.5 111 64.5 153s94.833 63 155.5 63c64.667 0 118.834 -19.667 162.501 -59s65.5 -89.666 65.5 -150.999c0 -73.333 -33.333 -135.333 -100 -186l216 -116l90 58v290h-128v146
h502v-146h-214v-854h-160v382l-424 -280l-102 120zM447.999 799.999c0 25.333 -6.33301 44.333 -19 57s-31.667 19 -57 19c-21.333 0 -39.333 -7.5 -54 -22.5s-22 -32.833 -22 -53.5c0 -47.333 24.667 -85.333 74 -114c52 35.333 78 73.333 78 114z" />
    <glyph glyph-name="u095E094D0930" horiz-adv-x="1226" 
d="M322 292c-60 8 -109 34.832 -147 80.499s-57 100.167 -57 163.5v318h-124v146h1302v-146h-600v-194c53.333 62.667 119.333 94 198 94s141.667 -26.333 189 -79s71 -123.667 71 -213c0 -138.667 -52 -268 -156 -388l-136 90c90.667 90.667 136 187.334 136 290.001
c0 42.667 -11.333 77 -34 103s-54 39 -94 39c-64.667 0 -122.667 -39.333 -174 -118v-478h-160v322l-388 -350l-84 100zM536 515.999l-0.000976562 338h-256v-314c0 -34 10.833 -63.5 32.5 -88.5s48.834 -37.5 81.501 -37.5c54 0 101.333 34 142 102zM365.999 -148.001
c-24 0 -44.333 8.5 -61 25.5s-25 37.833 -25 62.5c0 24 8.33301 44.333 25 61s37 25 61 25c24.667 0 45.5 -8.33301 62.5 -25s25.5 -37 25.5 -61s-8.66699 -44.667 -26 -62s-38 -26 -62 -26z" />
    <glyph glyph-name="u09240924" horiz-adv-x="1182" 
d="M878 582h-321.999c-36.667 0 -67.834 -12 -93.501 -36s-38.5 -54.667 -38.5 -92c0 -144.667 84.667 -266 254 -364l-90 -100c-218.667 126.667 -328 278.667 -328 456c0 62 22.667 107.333 68 136h-304v146h854v126h-884v146h1258v-146h-214v-854h-160v582z" />
    <glyph glyph-name="u0915094D0937" horiz-adv-x="1136" 
d="M832 506c-52 -32 -113.334 -48.0029 -184.001 -48.0029c-95.333 0 -190 27.333 -284 82c-93.333 -47.333 -140 -106 -140 -176c0 -35.333 12.667 -65.5 38 -90.5s59.333 -37.5 102 -37.5c10 0 23.333 2.66699 40 8c0 44.667 11 82.834 33 114.501s51.667 47.5 89 47.5
c32.667 0 58.834 -11.167 78.501 -33.5s29.5 -51.166 29.5 -86.499c0 -42 -16.667 -87.333 -50 -136l84 -104l-126 -82c-26.667 21.333 -60 67.333 -100 138c-24.667 -6.66699 -50 -10 -76 -10c-88 0 -160.333 23.833 -217 71.5s-85 111.167 -85 190.5
c0 102 60.667 188.667 182 260c-76 56.667 -114 122 -114 196c0 62.667 23 115.334 69 158.001s102.333 64 169 64c68 0 124 -20.667 168 -62s66 -95.333 66 -162s-38.667 -126.667 -116 -180c59.333 -26.667 113.333 -40 162 -40c72 0 132.667 20.667 182 62v204h-126v146
h500v-146h-214v-854h-160v506zM447.999 805.997c0 28 -6.5 49 -19.5 63s-32.5 21 -58.5 21c-23.333 0 -42.5 -8.5 -57.5 -25.5s-22.5 -37.167 -22.5 -60.5c0 -38.667 24.667 -76 74 -112c56 32.667 84 70.667 84 114z" />
    <glyph glyph-name="u091C094D091E" horiz-adv-x="1100" 
d="M296 46c-58 0 -111.498 12.3369 -160.498 37.0039s-73.5 57.667 -73.5 99c0 30.667 10.167 56.334 30.5 77.001s45.5 31 75.5 31c59.333 0 115.333 -30.667 168 -92c62 11.333 107.5 30.5 136.5 57.5s43.5 57.167 43.5 90.5c0 21.333 -11.333 32 -34 32
c-20.667 0 -47.334 -5.33301 -80.001 -16s-56 -16 -70 -16c-50.667 0 -105.334 33.667 -164.001 101s-88 129.666 -88 186.999c0 35.333 15.333 64.166 46 86.499s66 33.5 106 33.5h564v100h-802v146h1176v-146h-214v-854h-160v628h-506c-26.667 0 -40 -10 -40 -30
c0 -21.333 14.667 -45.333 44 -72s52.666 -40 69.999 -40c20 0 53.333 6.66699 100 20c52 14.667 84.667 22 98 22c34 0 62.167 -14.333 84.5 -43s33.5 -62.334 33.5 -101.001c0 -72.667 -19.5 -131.834 -58.5 -177.501s-97.5 -77.834 -175.5 -96.501
c112 -62 171 -93 177 -93l-1 -1l-118 -116c-73.333 41.333 -142.666 90 -207.999 146z" />
    <glyph glyph-name="u0915094DHalf" horiz-adv-x="898" 
d="M320 194c-77.333 0 -140.668 27.001 -190.001 81.001s-74 120.333 -74 199c0 87.333 28 158.166 84 212.499s128 81.5 216 81.5c43.333 0 80.666 -6.66699 111.999 -20l-36 -136c-22.667 10.667 -46 16 -70 16c-49.333 0 -86.333 -12.5 -111 -37.5s-37 -62.5 -37 -112.5
c0 -42 12.5 -76.833 37.5 -104.5s57.833 -41.5 98.5 -41.5c27.333 0 54 6.5 80 19.5s51.333 32.5 76 58.5v444h-512v146h974v-146h-302v-192c43.333 54.667 100 82 170 82c42 0 76 -8 102 -24v-168c-24 26.667 -60 40 -108 40c-35.333 0 -66.666 -8.5 -93.999 -25.5
s-50.666 -42.5 -69.999 -76.5v-490h-160v268c-54.667 -49.333 -116.667 -74 -186 -74z" />
    <glyph glyph-name="u0916094DHalf" horiz-adv-x="992" 
d="M624 146c145.333 0 274.668 56 388.001 168v-164c-137.333 -100 -266 -150 -386 -150c-116.667 -0 -227.167 55.833 -331.5 167.5s-192.5 265.167 -264.5 460.5l116 70c29.333 -81.333 68 -122 116 -122c23.333 0 40.833 5.66699 52.5 17s17.5 28.333 17.5 51v210h-338
v146h1068v-146h-568v-232c0 -46.667 -15 -87.667 -45 -123s-66.333 -53 -109 -53c-24 0 -50.667 7.33301 -80 22c97.333 -214.667 218.666 -322 363.999 -322zM1010 394c-54.667 -53.333 -117.333 -80 -188 -80c-69.333 0 -127.666 21.667 -174.999 65s-71 98.333 -71 165
c0 68 22.667 123.667 68 167s101.333 65 168 65c35.333 0 74.666 -8.66699 117.999 -26v-114c-40.667 12 -70 18 -88 18c-28 0 -51.667 -9.5 -71 -28.5s-29 -42.833 -29 -71.5c0 -30.667 9.5 -55.667 28.5 -75s42.833 -29 71.5 -29c64 0 120 26.667 168 80v-136zM1292 50z
" />
    <glyph glyph-name="u0917094DHalf" horiz-adv-x="506" 
d="M576 854h-232v-450c0 -20.667 -6 -39.167 -18 -55.5s-27.333 -24.5 -46 -24.5c-28.667 0 -78.167 33 -148.5 99s-105.5 113 -105.5 141c0 18 3.83301 31.5 11.5 40.5s19.167 13.5 34.5 13.5h68c13.333 0 23.333 4.5 30 13.5s10 22.5 10 40.5v182h-186v146h582v-146z" />
    <glyph glyph-name="u0918094DHalf" horiz-adv-x="716" 
d="M428 172c-92.667 0 -166.5 23.999 -221.5 71.999s-82.5 104.667 -82.5 170c0 36.667 8.33301 68.667 25 96s41.667 50 75 68c-53.333 18 -93.333 41.333 -120 70s-40 62.667 -40 102c0 42 16 76.667 48 104h-118v146h790v-146h-452c-30 0 -55.167 -8.66699 -75.5 -26
s-30.5 -37.333 -30.5 -60c0 -25.333 11.833 -47.666 35.5 -66.999s54.5 -29 92.5 -29h146l54 -126h-110c-48.667 0 -85.167 -10.333 -109.5 -31s-36.5 -51.667 -36.5 -93c0 -34 14.333 -62.167 43 -84.5s63.667 -33.5 105 -33.5c92 0 182 40 270 120v-160
c-87.333 -61.333 -183.333 -92 -288 -92zM1020 49.999z" />
    <glyph glyph-name="u0919094DHalf" horiz-adv-x="1240" 
d="M608 16c-120.667 0 -232.165 40.667 -334.498 122s-184.833 191.333 -247.5 330l136 64c38.667 -107.333 99 -196.833 181 -268.5s170.333 -107.5 265 -107.5c50.667 0 95 13.833 133 41.5s57 62.5 57 104.5c0 19.333 -3.66699 33.833 -11 43.5s-18.333 14.5 -33 14.5
c-22 0 -55.333 -5.33301 -100 -16s-78.667 -16 -102 -16c-41.333 0 -94 32.667 -158 98s-96 121.333 -96 168c0 50.667 14.333 88.667 43 114s71.667 38 129 38h228v108h-704v146h1316v-146h-452v-236h-342c-33.333 0 -50 -12 -50 -36c0 -17.333 14 -40 42 -68
s50.667 -42 68 -42c19.333 0 50.666 6.66699 93.999 20c39.333 12 70.666 18 93.999 18c56 0 101.333 -19.667 136 -59s52 -87 52 -143c0 -83.333 -34.333 -152.833 -103 -208.5s-149 -83.5 -241 -83.5zM1156 578c0 -24 -8.66699 -44.667 -26 -62s-38 -26 -62 -26
s-44.333 8.5 -61 25.5s-25 37.833 -25 62.5c0 24 8.33301 44.333 25 61s37 25 61 25c24.667 0 45.5 -8.33301 62.5 -25s25.5 -37 25.5 -61zM976.002 -300l-82 -82l-292 254l-52 -26l-74 100l126 64zM640.002 -246z" />
    <glyph glyph-name="u091A094DHalf" horiz-adv-x="698" 
d="M436 178c-74 0 -138.165 21.832 -192.498 65.499s-81.5 99.167 -81.5 166.5c0 37.333 8.16699 71.833 24.5 103.5s40.833 60.5 73.5 86.5h-234v146h582v-146h-150c-42 -22 -73.5 -47.5 -94.5 -76.5s-31.5 -61.5 -31.5 -97.5c0 -29.333 10.833 -54.666 32.5 -75.999
s48.167 -32 79.5 -32c45.333 0 89.166 15.333 131.499 46s83.166 76.667 122.499 138v-194c-33.333 -43.333 -71.833 -75.833 -115.5 -97.5s-92.5 -32.5 -146.5 -32.5zM768.002 853.999h-774v146h774v-146zM858.002 49.999z" />
    <glyph glyph-name="u091B094DHalf" horiz-adv-x="1080" 
d="M802 636c-22 0 -40.5 -10 -55.5 -30s-22.5 -46 -22.5 -78c0 -62.667 23.333 -120.667 70 -174c52 57.333 78 118 78 182c0 33.333 -5.83301 58.333 -17.5 75s-29.167 25 -52.5 25zM804 766c65.333 0 117.671 -21.5029 157.004 -64.5029s59 -98.167 59 -165.5
c0 -122 -58.167 -237.5 -174.5 -346.5s-245.5 -163.5 -387.5 -163.5c-102.667 0 -185.334 30.333 -248.001 91s-94 133.667 -94 219c0 46 10 86.167 30 120.5s50 62.833 90 85.5c-57.333 18.667 -100.333 44.334 -129 77.001s-43 72.334 -43 119.001
c0 45.333 17.333 84 52 116h-122v146h1156v-146h-826c-26 0 -49.167 -10 -69.5 -30s-30.5 -44.667 -30.5 -74c0 -34 14.167 -62.5 42.5 -85.5s64.166 -34.5 107.499 -34.5h86l26 -126h-48c-44.667 0 -81.834 -14.667 -111.501 -44s-44.5 -67.333 -44.5 -114
c0 -45.333 17.167 -85.333 51.5 -120s79.166 -52 134.499 -52c80 0 156.667 29.333 230 88c-82.667 82.667 -124 171.334 -124 266.001c0 70.667 21.167 128 63.5 172s97.833 66 166.5 66z" />
    <glyph glyph-name="u091C094DHalf" horiz-adv-x="886" 
d="M886 528l-178 0.000976562c33.333 -52.667 50 -114 50 -184c0 -72.667 -25.833 -133.167 -77.5 -181.5s-117.167 -72.5 -196.5 -72.5c-102.667 0 -193.5 50.167 -272.5 150.5s-136.167 238.166 -171.5 413.499l138 46c23.333 -131.333 64 -240.833 122 -328.5
s119.333 -131.5 184 -131.5c33.333 0 60.333 10.167 81 30.5s31 45.5 31 75.5c0 50 -12.167 102.167 -36.5 156.5s-60.833 110.833 -109.5 169.5h436v-144zM956 854.001h-962v146h962v-146zM1190 50.001z" />
    <glyph glyph-name="u091D094DHalf" horiz-adv-x="860" 
d="M622 854v-225.998h-332c-26.667 0 -40 -10 -40 -30c0 -21.333 14.667 -45.333 44 -72s52.666 -40 69.999 -40c13.333 0 48 8 104 24c42.667 12 78 18 106 18c20 0 41.333 -5.66699 64 -17c39.333 -20.667 67 -32.667 83 -36s31.667 -5 47 -5
c36.667 0 67.334 10 92.001 30v-136c-32 -18.667 -65.333 -28 -100 -28c-31.333 0 -60 8.66699 -86 26c0 -67.333 -19 -122 -57 -164s-95 -71.333 -171 -88c112 -62 171 -93 177 -93l-1 -1l-118 -116c-73.333 41.333 -142.666 90 -207.999 146
c-58 0 -111.5 12.333 -160.5 37s-73.5 57.667 -73.5 99c0 30.667 10.167 56.334 30.5 77.001s45.5 31 75.5 31c59.333 0 115.333 -30.667 168 -92c57.333 10.667 101.333 29.167 132 55.5s46 57.166 46 92.499c0 20 -14 30 -42 30c-18 0 -41.333 -4.66699 -70 -14
c-32.667 -10.667 -56 -16 -70 -16c-50.667 0 -105.334 33.667 -164.001 101s-88 129.666 -88 186.999c0 35.333 15.333 64.166 46 86.499s66 33.5 106 33.5h228v100h-466v146h936v-146h-308zM1162 50.002z" />
    <glyph glyph-name="u091E094DHalf" horiz-adv-x="754" 
d="M814 418c-32 -18.667 -65.333 -28 -100 -28c-35.333 0 -67.333 10 -96 30c-6.66699 -72 -36.834 -132.667 -90.501 -182s-122.167 -74 -205.5 -74c-111.333 0 -210.666 54.667 -297.999 164l90 108c58.667 -84 128.667 -126 210 -126c42 0 75.5 15.5 100.5 46.5
s37.5 71.5 37.5 121.5c0 40.667 -11.5 74.167 -34.5 100.5s-52.167 39.5 -87.5 39.5c-44 0 -78.667 -15.333 -104 -46l-94 118c63.333 52 132 78 206 78c71.333 0 130.5 -21.333 177.5 -64s76.5 -98.667 88.5 -168c36 -17.333 66.667 -26 92 -26c42 0 78 12 108 36v-128z
M824 854h-830v146h830v-146zM1118 60z" />
    <glyph glyph-name="u091F094DHalf" horiz-adv-x="878" 
d="M722 854v-290h-360c-40.667 0 -74.834 -14.167 -102.501 -42.5s-41.5 -62.833 -41.5 -103.5c0 -72.667 28.667 -133.167 86 -181.5s125.333 -72.5 204 -72.5c94.667 0 172.667 42.667 234 128l112 -92c-85.333 -120 -200.666 -180 -345.999 -180
c-120 0 -224.333 38.167 -313 114.5s-133 170.833 -133 283.5c0 81.333 29.833 150.333 89.5 207s131.167 85 214.5 85h196v144h-568v146h954v-146h-226zM873 -300l-82 -82l-292 254l-52 -26l-74 100l126 64zM537 -246z" />
    <glyph glyph-name="u0920094DHalf" horiz-adv-x="912" 
d="M596 504l84.001 60h-318c-40.667 0 -74.834 -14.167 -102.501 -42.5s-41.5 -62.833 -41.5 -103.5c0 -72.667 28.667 -133.167 86 -181.5s125.333 -72.5 204 -72.5c46 0 86.167 13.833 120.5 41.5s51.5 62.5 51.5 104.5c0 62 -28 126.667 -84 194zM722.001 576
c77.333 -54 116 -136.667 116 -248c0 -87.333 -32.667 -160.5 -98 -219.5s-143.333 -88.5 -234 -88.5c-120 0 -224 38 -312 114s-132 170.667 -132 284c0 81.333 29.833 150.333 89.5 207s131.167 85 214.5 85h196v144h-568v146h988v-146h-260v-278zM873.001 -300l-82 -82
l-292 254l-52 -26l-74 100l126 64zM537.001 -246z" />
    <glyph glyph-name="u0921094DHalf" horiz-adv-x="1004" 
d="M608 16c-120.667 0 -232.165 40.667 -334.498 122s-184.833 191.333 -247.5 330l136 64c38.667 -107.333 99 -196.833 181 -268.5s170.333 -107.5 265 -107.5c50.667 0 95 13.833 133 41.5s57 62.5 57 104.5c0 19.333 -3.66699 33.833 -11 43.5s-18.333 14.5 -33 14.5
c-22 0 -55.333 -5.33301 -100 -16s-78.667 -16 -102 -16c-41.333 0 -94 32.667 -158 98s-96 121.333 -96 168c0 50.667 14.333 88.667 43 114s71.667 38 129 38h228v108h-704v146h1080v-146h-216v-236h-342c-33.333 0 -50 -12 -50 -36c0 -17.333 14 -40 42 -68
s50.667 -42 68 -42c19.333 0 50.666 6.66699 93.999 20c39.333 12 70.666 18 93.999 18c56 0 101.333 -19.667 136 -59s52 -87 52 -143c0 -83.333 -34.333 -152.833 -103 -208.5s-149 -83.5 -241 -83.5zM972.002 -300l-82 -82l-292 254l-52 -26l-74 100l126 64z
M636.002 -246z" />
    <glyph glyph-name="u0922094DHalf" horiz-adv-x="902" 
d="M291 248c48.667 -48.667 108.999 -78 180.999 -88c-40 40 -60 86 -60 138c0 54.667 19.667 100.334 59 137.001s89 55 149 55c68.667 0 124.167 -20.5 166.5 -61.5s63.5 -91.833 63.5 -152.5c0 -72 -30.833 -132.667 -92.5 -182s-136.167 -74 -223.5 -74
c-139.333 0 -252.833 37.333 -340.5 112s-131.5 170 -131.5 286c0 81.333 29.833 150.333 89.5 207s131.167 85 214.5 85h196v144h-568v146h978v-146h-250v-290h-354c-43.333 0 -79.166 -14.167 -107.499 -42.5s-42.5 -62.833 -42.5 -103.5
c0 -64.667 24.333 -121.334 73 -170.001zM711.999 278c0 28.667 -6.83301 50.167 -20.5 64.5s-34.167 21.5 -61.5 21.5c-28.667 0 -50.167 -7.33301 -64.5 -22s-21.5 -36.667 -21.5 -66c0 -44.667 22.667 -80.667 68 -108c66.667 17.333 100 54 100 110zM872.999 -300
l-82 -82l-292 254l-52 -26l-74 100l126 64zM536.999 -246z" />
    <glyph glyph-name="u0923094DHalf" horiz-adv-x="814" 
d="M884 1000l-0.000976562 -146h-264v-370c0 -73.333 -25.667 -136 -77 -188s-114.333 -78 -189 -78c-75.333 0 -138.166 25.5 -188.499 76.5s-75.5 114.167 -75.5 189.5v370h-96v146h890zM459.999 484v370h-210v-370c0 -32 9.5 -60 28.5 -84s43.5 -36 73.5 -36
c32 0 58 11.5 78 34.5s30 51.5 30 85.5z" />
    <glyph glyph-name="u0924094DHalf" horiz-adv-x="676" 
d="M676 564l-370.002 -0.000976562c-30 0 -52.5 -7.5 -67.5 -22.5s-22.5 -37.5 -22.5 -67.5c0 -61.333 24.333 -127.333 73 -198s109.667 -132 183 -184l-88 -108c-101.333 74.667 -180.666 155.834 -237.999 243.501s-86 172.5 -86 254.5c0 66 22.833 120.5 68.5 163.5
s106.834 64.5 183.501 64.5h364v-146zM745.998 853.999h-752v146h752v-146zM979.998 49.999z" />
    <glyph glyph-name="u0925094DHalf" horiz-adv-x="772" 
d="M494 182c-126.667 0 -231.33 33.833 -313.997 101.5s-124 158.5 -124 272.5c38.667 -13.333 86.667 -20 144 -20c76 0 136 17.5 180 52.5s66 81.5 66 139.5c0 44 -13 80.667 -39 110s-61.667 44 -107 44c-24.667 0 -43.167 -5.5 -55.5 -16.5s-18.5 -27.5 -18.5 -49.5
c0 -20.667 5.83301 -36.167 17.5 -46.5s29.167 -15.5 52.5 -15.5v-128c-68.667 0 -124.834 16.833 -168.501 50.5s-65.5 78.167 -65.5 133.5c0 58.667 23.667 108 71 148s103 60 167 60c92 0 166.333 -27.167 223 -81.5s85 -123.833 85 -208.5
c0 -85.333 -32.5 -158.333 -97.5 -219s-151.167 -91 -258.5 -91c25.333 -31.333 57.666 -54.833 96.999 -70.5s85.666 -23.5 138.999 -23.5c60.667 0 117.167 16.333 169.5 49s90.5 75 114.5 127v-200c-30.667 -39.333 -69.167 -68.833 -115.5 -88.5
s-100.5 -29.5 -162.5 -29.5zM842.004 854h-180v146h180v-146zM1076 0z" />
    <glyph glyph-name="u0926094DHalf" horiz-adv-x="860" 
d="M554 134c-130 0 -245.498 35.168 -346.498 105.501s-151.5 160.5 -151.5 270.5c0 70.667 23.667 127.667 71 171s103.666 65 168.999 65h266v108h-568v146h936v-146h-208v-254h-412c-33.333 0 -58.333 -7.5 -75 -22.5s-25 -37.5 -25 -67.5c0 -68 32.5 -123 97.5 -165
s138.5 -63 220.5 -63c0 57.333 11 100.333 33 129s55 43 99 43c32 0 59 -12.333 81 -37s33 -54.334 33 -89.001c0 -51.333 -27.333 -100 -82 -146c30.667 -74.667 66 -138.667 106 -192l-158 -30c-32.667 48 -61.334 106 -86.001 174zM716.002 -299.999l-82 -82l-292 254
l-52 -26l-74 100l126 64zM380.002 -245.999z" />
    <glyph glyph-name="u0927094DHalf" horiz-adv-x="698" 
d="M408 152c-72.667 0 -136.832 21.666 -192.499 64.999s-83.5 98.333 -83.5 165c0 68.667 27.333 122.667 82 162c-113.333 66 -170 157.333 -170 274c0 59.333 21.333 107.5 64 144.5s97.334 55.5 164.001 55.5c56.667 0 104.167 -15 142.5 -45s57.5 -68.333 57.5 -115
s-20.333 -84 -61 -112s-88.334 -42 -143.001 -42v100c23.333 0 40.833 4 52.5 12s17.5 20 17.5 36s-5.5 28 -16.5 36s-27.5 12 -49.5 12c-30.667 0 -53.667 -6.83301 -69 -20.5s-23 -34.167 -23 -61.5c0 -77.333 50 -144.666 150 -201.999c58 22.667 123.333 34 196 34
l52 -124c-94.667 0 -165.667 -11.333 -213 -34s-71 -56.667 -71 -102c0 -28 11.833 -51.333 35.5 -70s54.5 -28 92.5 -28c116.667 0 208.667 57.333 276 172v-174c-68.667 -92 -165.334 -138 -290.001 -138zM768.002 853.999h-230v146h230v-146zM1002 49.999z" />
    <glyph glyph-name="u0928094DHalf" horiz-adv-x="634" 
d="M634 510h-263.999c-15.333 0 -26.833 -3.83301 -34.5 -11.5s-11.5 -19.167 -11.5 -34.5v-100c0 -21.333 -4.5 -37.333 -13.5 -48s-22.5 -16 -40.5 -16c-37.333 0 -86 36.667 -146 110s-90 133.333 -90 180c0 18 7.16699 33.167 21.5 45.5s31.166 18.5 50.499 18.5h528
v-144zM704.001 854h-710v146h710v-146zM936.001 50z" />
    <glyph glyph-name="u0929094DHalf" horiz-adv-x="634" 
d="M634 510h-263.999c-15.333 0 -26.833 -3.83301 -34.5 -11.5s-11.5 -19.167 -11.5 -34.5v-100c0 -21.333 -4.5 -37.333 -13.5 -48s-22.5 -16 -40.5 -16c-37.333 0 -86 36.667 -146 110s-90 133.333 -90 180c0 18 7.16699 33.167 21.5 45.5s31.166 18.5 50.499 18.5h528
v-144zM704.001 854h-710v146h710v-146zM323.001 -14c-24 0 -44.333 8.5 -61 25.5s-25 37.833 -25 62.5c0 24 8.33301 44.333 25 61s37 25 61 25c24.667 0 45.5 -8.33301 62.5 -25s25.5 -37 25.5 -61s-8.66699 -44.667 -26 -62s-38 -26 -62 -26z" />
    <glyph glyph-name="u092A094DHalf" horiz-adv-x="568" 
d="M368 260c-86 0 -155.833 26.168 -209.5 78.501s-80.5 119.5 -80.5 201.5v314h-84v146h644v-146h-398v-306c0 -40.667 13 -74.834 39 -102.501s60.333 -41.5 103 -41.5c74 0 136 34.667 186 104v-162c-51.333 -57.333 -118 -86 -200 -86zM872 50.001z" />
    <glyph glyph-name="u092B094DHalf" horiz-adv-x="915" 
d="M332 268c-80 0 -142.331 24.667 -186.998 74s-67 117.333 -67 204v308h-84v146h990v-146h-328v-192c49.333 61.333 109.333 92 180 92c43.333 0 80.666 -12.667 111.999 -38v-170c-31.333 33.333 -71.333 50 -120 50c-66.667 0 -124 -39.333 -172 -118v-478h-160v352
c-44.667 -56 -99.334 -84 -164.001 -84zM496.002 524l-0.000976562 330h-256v-304c0 -45.333 9.16699 -79.333 27.5 -102s45.833 -34 82.5 -34c52.667 0 101.334 36.667 146.001 110z" />
    <glyph glyph-name="u092C094DHalf" horiz-adv-x="566" 
d="M354 184c-88.667 0 -160.833 27.668 -216.5 83.001s-83.5 125.666 -83.5 210.999s29.333 156 88 212s134.667 84 228 84c60.667 0 112.667 -15.333 156 -46l-54 -126c-31.333 26.667 -66.666 40 -105.999 40c-24.667 0 -49.334 -6 -74.001 -18l254 -220
c5.33301 6 12 14.667 20 26v-162c-53.333 -56 -124 -84 -212 -84zM636.001 854.001h-642v146h642v-146zM458.001 340.001l-236 206c-8 -20.667 -12 -42.667 -12 -66c0 -45.333 15 -83 45 -113s69 -45 117 -45c30 0 58.667 6 86 18zM870.001 0.000976562z" />
    </font>
</defs>
</svg>
